<svg xmlns="http://www.w3.org/2000/svg" width="228" height="60" viewBox="0 0 228 60">
    <g transform="translate(-1004 -1762)">
        <rect data-name="사각형 1766" width="228" height="60" rx="30" transform="translate(1004 1762)" style="fill:#1a95ce"/>
        <g data-name="그룹 10652">
            <g data-name="그룹 10650">
                <g data-name="그룹 10649">
                    <path data-name="패스 7271" d="M153.346 114.486v1.493h9.643l.017 7.5 2.651-.022.009-7.329c-.012-1.752-1.076-1.69-2.266-1.679l-10.054.043z" transform="translate(941.938 1665.556)" style="fill:#fff"/>
                    <path data-name="패스 7272" d="m159.595 130.234 6.583.006v1.645l-13.317-.02.007-1.617h4.17l-.006-3.924 2.561-.006v3.915z" transform="translate(942.12 1661.105)" style="fill:#fff"/>
                    <path data-name="패스 7273" d="m177.947 114.5 12.92-.036v1.349L180.3 115.8l.011 1.991h10.552v1.568h-12.061c-.527 0-.87-.421-.859-1.034V114.5z" transform="translate(932.722 1665.549)" style="fill:#fff"/>
                    <path data-name="패스 7274" d="M176.236 125.144v-1.358l15.124-.024v1.4l-15.124-.02z" transform="translate(933.363 1662.064)" style="fill:#fff"/>
                    <path data-name="패스 7275" d="M184.289 127.121c3.659 0 6.637 1.291 6.637 2.876s-2.978 2.869-6.637 2.869-6.638-1.292-6.638-2.869 2.98-2.876 6.638-2.876zm0 1.306c-2.125 0-3.858.7-3.858 1.563s1.733 1.563 3.858 1.563 3.86-.7 3.86-1.563-1.735-1.563-3.86-1.563z" transform="translate(932.833 1660.805)" style="fill:#fff"/>
                    <path data-name="패스 7276" d="M202.5 114.5v1.5l5.783-.055-5.788 9.86 2.6.006 5.4-9.434c.417-.659.091-1.849-.743-1.88z" transform="translate(923.525 1665.533)" style="fill:#fff"/>
                    <path data-name="패스 7277" d="m218.78 113.734-.005 13.39h2.3v-13.4l-2.293.006z" transform="translate(917.426 1665.823)" style="fill:#fff"/>
                    <path data-name="패스 7278" d="m240.279 122.089-14.887-.017v1.283l6-.01v.772l-5.024.046v1.588l10.475.007v.769l-10.471.014v2.006c0 .865.216 1.406 1.2 1.406l11.692-.013.026-1.5-10.454.024v-.809l10.469.005-.032-3.554-5-.01v-.765l6-.009v-1.235z" transform="translate(914.947 1662.697)" style="fill:#fff"/>
                    <path data-name="패스 7279" d="M256.247 113.177c2.523 0 4.588 1.677 4.588 3.729s-2.064 3.729-4.588 3.729-4.586-1.672-4.586-3.729 2.056-3.729 4.586-3.729zm0 1.688a2.05 2.05 0 1 0 2.27 2.041 2.165 2.165 0 0 0-2.27-2.041z" transform="translate(905.106 1666.029)" style="fill:#fff"/>
                    <path data-name="패스 7280" d="M267.948 115.265h1.223v-1.357h2.493l.02 7.041-2.519-.024v-1.333h-1.217V118.1h1.223v-1.342h-1.223v-1.5z" transform="translate(899.004 1665.756)" style="fill:#fff"/>
                    <path data-name="패스 7281" d="M252.815 126.205h2.505l-.006 3.955 10.7.05-.009 1.573H254.28c-.747.082-1.376-.465-1.443-1.418l-.023-4.155z" transform="translate(904.673 1661.148)" style="fill:#fff"/>
                    <path data-name="패스 7282" d="m277.495 113.821-.005 1.7 9.865.028-.008 4.65 2.783-.005-.009-4.489c-.053-.759-.1-1.86-1.543-1.9l-11.083.011z" transform="translate(895.429 1665.792)" style="fill:#fff"/>
                    <path data-name="패스 7283" d="M275.891 125.422v1.6h5.855l.022 4.463 2.827.011-.007-4.478h6.027l.005-1.6-14.728.006z" transform="translate(896.028 1661.444)" style="fill:#fff"/>
                    <path data-name="패스 7284" d="M307.159 113.031c2.741 0 4.982 1.066 4.982 2.373s-2.241 2.367-4.982 2.367-4.977-1.065-4.977-2.367 2.234-2.373 4.977-2.373zm0 1.447c-1.355 0-2.461.416-2.461.921s1.107.924 2.461.924 2.467-.413 2.467-.924-1.108-.921-2.467-.921z" transform="translate(886.178 1666.084)" style="fill:#fff"/>
                    <path data-name="패스 7285" d="M302.377 121.814h9.832l-.005 1.444h-3.163v2.412h-2.809v-2.412h-3.854v-1.444z" transform="translate(886.105 1662.794)" style="fill:#fff"/>
                    <path data-name="패스 7286" d="M303.49 127.483v3.177c-.016.995.311 1.5.97 1.538l11.941.011v-1.538h-10.682l.009-3.212-2.239.024z" transform="translate(885.688 1660.679)" style="fill:#fff"/>
                    <path data-name="패스 7287" d="M318.662 121.1h-2.524l-.01 1.6h2.535l.017 1.527 2.546-.013-.006-10.325-2.551.006-.005 7.2z" transform="translate(880.954 1665.762)" style="fill:#fff"/>
                    <path data-name="패스 7288" d="m226.6 118.229 2.712.019.975-2.715h5.893l1.032 2.7 2.777-.005-1.67-3.8a.849.849 0 0 0-.953-.492l-8.247-.006c-.443-.006-.692.01-.954.633z" transform="translate(914.496 1665.747)" style="fill:#fff"/>
                </g>
            </g>
            <path data-name="패스 7289" d="M109.474 126.638c-.9 1.994-4.083 7.107-7.1 7.748-1.012.209-1.769.073-2.126-.68a19.1 19.1 0 0 1-.291-2.909l-.046-7.211 1.139.024a2.1 2.1 0 0 1 .684.079c2.616.977 2.234 2.956 2.452 4.479.164.914.628.906.738.169l-.1-10.031c-.074-.392-.33-.433-.529-.113-.356 2.741-1.2 4.222-3.018 4.494h-1.355l-.054-5.9c-.018-1.483.118-2.757 1.859-2.709a6.086 6.086 0 0 1 4.375 2.5 55.012 55.012 0 0 1 2.827 5.289c.493.32.538-.137.52-.416-.292-3.085-.865-6.29-1.532-9.776-.292-1-.9.081-1.058.17l-1.194.7a4.879 4.879 0 0 1-2.279.608l-13.793.088c-.657.1-.547.817.154.9.628.088 1.5.209 1.687.576a7.779 7.779 0 0 1 .328 2.812l.046 13.533a8.658 8.658 0 0 1-.219 2.845c-.21.4-1.213.61-1.787.673-.319.1-.438.265-.447.433a.513.513 0 0 0-.438-.416c-1.45-.729-1.722-1.81-2.48-3.43L80.1 112.184c-.219-.368-.393-.384-.739-.151a16.489 16.489 0 0 1-7.658 3.085c-.465.136-.592.568-.083.712l.657.425c.976.857 1.5.8.867 2.379-2.627 9.366-4.968 14.6-8.405 16.129a.146.146 0 0 0-.064.016.415.415 0 0 0-.137-.161c-1.149-.143-1.494-.825-1.44-1.522l-.015-17.596c.064-.609.174-1.161 2.107-1.378.592-.16.436-.754-.073-.768H52.425a.4.4 0 0 0 .046.768c1.231 0 2.279.464 2.289 1.723l.009 17.225c-.019 1.033-.347 1.513-2.006 1.571-.51-.033-.892.728-.008.88h11.677a.31.31 0 0 0 .164-.088.285.285 0 0 0 .146.079l9.572.018c.655-.233.328-.994-.557-1.035-1.294-.272-2.316-2.588-2.252-4.59l.082-2.733h5.27l1.075 3.606c.685 2.164.611 3.141-.756 3.59l-.848.274c-.566.167-.529.784 0 .88l12.727-.009a.456.456 0 0 0 .3-.416.546.546 0 0 0 .465.416l13.592-.016a16.785 16.785 0 0 1 2.772.272c1.349.77 1.568 1.179 1.621 1.314a.32.32 0 0 0 .558 0 76.233 76.233 0 0 0 1.63-10.335c-.052-.831-.27-.511-.519-.11zm-37.731-.392 2.151-7.6 2.7 7.6z" style="fill:#fff" transform="translate(979.852 1666.752)"/>
            <g data-name="그룹 10651">
                <path data-name="패스 7290" d="M153.131 146.727v-.327h.255a.591.591 0 0 0 .124-.013.2.2 0 0 0 .1-.055.279.279 0 0 0 .066-.119.733.733 0 0 0 .024-.208v-2.9a.741.741 0 0 0-.024-.208.28.28 0 0 0-.066-.119.2.2 0 0 0-.1-.055.589.589 0 0 0-.124-.013h-.255v-.323h2.1v.323h-.255a.6.6 0 0 0-.123.013.212.212 0 0 0-.1.055.286.286 0 0 0-.065.119.741.741 0 0 0-.024.208v2.9a.733.733 0 0 0 .024.208.285.285 0 0 0 .065.119.212.212 0 0 0 .1.055.6.6 0 0 0 .123.013h.255v.324z" transform="translate(942.019 1655.085)" style="fill:#fff"/>
                <path data-name="패스 7291" d="M159.375 147.328v-2a2.156 2.156 0 0 0-.025-.349.808.808 0 0 0-.083-.256.412.412 0 0 0-.151-.159.439.439 0 0 0-.227-.055.405.405 0 0 0-.253.078.546.546 0 0 0-.161.206 1.093 1.093 0 0 0-.088.3 2.264 2.264 0 0 0-.027.358v1.159a.555.555 0 0 0 .031.2.277.277 0 0 0 .088.121.307.307 0 0 0 .138.057 1.235 1.235 0 0 0 .182.013h.018v.324h-1.867V147h.012a1.359 1.359 0 0 0 .19-.013.366.366 0 0 0 .15-.058.285.285 0 0 0 .1-.128.567.567 0 0 0 .036-.22v-1.8a.557.557 0 0 0-.031-.2.273.273 0 0 0-.089-.12.3.3 0 0 0-.138-.056 1.061 1.061 0 0 0-.181-.014h-.018v-.323h1.276l.08.433h.029a1.126 1.126 0 0 1 .194-.273.751.751 0 0 1 .218-.154.822.822 0 0 1 .245-.069 2.5 2.5 0 0 1 .271-.014 1.221 1.221 0 0 1 .421.068.777.777 0 0 1 .316.211.946.946 0 0 1 .2.363 1.8 1.8 0 0 1 .068.53v1.41a.822.822 0 0 0 .026.227.271.271 0 0 0 .076.129.26.26 0 0 0 .128.059 1.012 1.012 0 0 0 .181.014h.018v.324z" transform="translate(940.588 1654.485)" style="fill:#fff"/>
                <path data-name="패스 7292" d="M164.749 147.391a2.554 2.554 0 0 1-.562-.053 1.2 1.2 0 0 1-.38-.148.6.6 0 0 1-.214-.225.622.622 0 0 1-.066-.282.441.441 0 0 1 .058-.239.419.419 0 0 1 .146-.141.552.552 0 0 1 .185-.066 1.058 1.058 0 0 1 .178-.017 1.132 1.132 0 0 0 .048.341.769.769 0 0 0 .133.257.586.586 0 0 0 .206.161.624.624 0 0 0 .268.056 1 1 0 0 0 .272-.033.534.534 0 0 0 .186-.09.384.384 0 0 0 .109-.134.369.369 0 0 0 .036-.159.413.413 0 0 0-.038-.179.428.428 0 0 0-.123-.148 1.074 1.074 0 0 0-.23-.136 3.786 3.786 0 0 0-.358-.141 3.371 3.371 0 0 1-.435-.183 1.319 1.319 0 0 1-.318-.219.841.841 0 0 1-.2-.281.935.935 0 0 1-.066-.364.909.909 0 0 1 .093-.424.82.82 0 0 1 .266-.3 1.234 1.234 0 0 1 .412-.179 2.238 2.238 0 0 1 .534-.059 2.08 2.08 0 0 1 .49.049 1.093 1.093 0 0 1 .329.129.543.543 0 0 1 .187.181.392.392 0 0 1 .059.2.363.363 0 0 1-.144.311.814.814 0 0 1-.476.107.731.731 0 0 0-.135-.47.482.482 0 0 0-.4-.168.752.752 0 0 0-.189.024.483.483 0 0 0-.157.072.367.367 0 0 0-.107.117.329.329 0 0 0-.04.164.4.4 0 0 0 .037.175.419.419 0 0 0 .131.146 1.263 1.263 0 0 0 .254.141c.106.048.243.1.41.158a2.709 2.709 0 0 1 .372.162 1.319 1.319 0 0 1 .294.208.852.852 0 0 1 .191.267.815.815 0 0 1 .068.342 1.114 1.114 0 0 1-.088.452.879.879 0 0 1-.257.335 1.173 1.173 0 0 1-.415.209 1.991 1.991 0 0 1-.554.074z" transform="translate(938.124 1654.481)" style="fill:#fff"/>
                <path data-name="패스 7293" d="M169.961 146.492a1.564 1.564 0 0 0 .227-.016c.072-.011.14-.024.2-.041v.395a.9.9 0 0 1-.129.051 1.594 1.594 0 0 1-.189.049 3.046 3.046 0 0 1-.245.038 2.719 2.719 0 0 1-.3.014 1.315 1.315 0 0 1-.371-.049.655.655 0 0 1-.282-.163.76.76 0 0 1-.178-.3 1.414 1.414 0 0 1-.062-.45v-1.94h-.457v-.312a.773.773 0 0 0 .35-.077.829.829 0 0 0 .246-.178 1.27 1.27 0 0 0 .279-.6h.5v.754h.777v.416h-.777v1.881a.689.689 0 0 0 .094.4.354.354 0 0 0 .317.128z" transform="translate(936.381 1654.89)" style="fill:#fff"/>
                <path data-name="패스 7294" d="M172.147 146.2a.907.907 0 0 0 .144-.013.381.381 0 0 0 .139-.055.332.332 0 0 0 .107-.119.424.424 0 0 0 .043-.208v-1.845a.38.38 0 0 0-.043-.194.328.328 0 0 0-.108-.113.394.394 0 0 0-.141-.052.891.891 0 0 0-.141-.012h-.071v-.323h1.424v2.54a.424.424 0 0 0 .043.208.332.332 0 0 0 .107.119.382.382 0 0 0 .141.055.923.923 0 0 0 .143.013h.071v.324h-1.932v-.325zm.347-3.92a.457.457 0 0 1 .04-.2.361.361 0 0 1 .11-.135.494.494 0 0 1 .163-.078.821.821 0 0 1 .4 0 .507.507 0 0 1 .166.078.378.378 0 0 1 .114.135.473.473 0 0 1 0 .395.393.393 0 0 1-.114.136.511.511 0 0 1-.166.081.782.782 0 0 1-.4 0 .5.5 0 0 1-.163-.081.375.375 0 0 1-.11-.136.454.454 0 0 1-.04-.196z" transform="translate(934.921 1655.29)" style="fill:#fff"/>
                <path data-name="패스 7295" d="M177.315 146.492a1.563 1.563 0 0 0 .227-.016c.072-.011.14-.024.2-.041v.395a.9.9 0 0 1-.129.051 1.593 1.593 0 0 1-.189.049 3.046 3.046 0 0 1-.245.038 2.72 2.72 0 0 1-.3.014 1.315 1.315 0 0 1-.371-.049.655.655 0 0 1-.282-.163.76.76 0 0 1-.178-.3 1.413 1.413 0 0 1-.062-.45v-1.94h-.457v-.312a.773.773 0 0 0 .35-.077.829.829 0 0 0 .246-.178 1.27 1.27 0 0 0 .279-.6h.5v.754h.777v.416h-.777v1.881a.689.689 0 0 0 .094.4.354.354 0 0 0 .317.128z" transform="translate(933.626 1654.89)" style="fill:#fff"/>
                <path data-name="패스 7296" d="m182.049 147.374-.133-.43h-.029a1.083 1.083 0 0 1-.2.253.831.831 0 0 1-.229.149 1 1 0 0 1-.256.069 2.121 2.121 0 0 1-.278.018.911.911 0 0 1-.729-.293 1.367 1.367 0 0 1-.253-.909v-1.361a.816.816 0 0 0-.024-.216.278.278 0 0 0-.074-.131.265.265 0 0 0-.129-.065.866.866 0 0 0-.188-.018h-.012v-.323h1.35v1.947a2.5 2.5 0 0 0 .023.353.92.92 0 0 0 .076.268.426.426 0 0 0 .143.173.385.385 0 0 0 .222.061.475.475 0 0 0 .251-.064.486.486 0 0 0 .173-.184.968.968 0 0 0 .1-.291 2.167 2.167 0 0 0 .031-.384v-1.167a.518.518 0 0 0-.036-.211.28.28 0 0 0-.1-.117.321.321 0 0 0-.139-.05 1.317 1.317 0 0 0-.169-.011h-.018v-.323h1.38v2.552a.554.554 0 0 0 .031.209.253.253 0 0 0 .084.114.272.272 0 0 0 .128.049 1.1 1.1 0 0 0 .163.011h.05v.324z" transform="translate(932.134 1654.438)" style="fill:#fff"/>
                <path data-name="패스 7297" d="M187.73 146.492a1.551 1.551 0 0 0 .227-.016c.073-.011.14-.024.2-.041v.395a.862.862 0 0 1-.129.051 1.575 1.575 0 0 1-.19.049 2.911 2.911 0 0 1-.245.038 2.731 2.731 0 0 1-.3.014 1.315 1.315 0 0 1-.371-.049.658.658 0 0 1-.282-.163.752.752 0 0 1-.178-.3 1.394 1.394 0 0 1-.063-.45v-1.94h-.457v-.312a.772.772 0 0 0 .35-.077.821.821 0 0 0 .246-.178 1.264 1.264 0 0 0 .279-.6h.5v.754h.777v.416h-.777v1.881a.694.694 0 0 0 .093.4.356.356 0 0 0 .32.128z" transform="translate(929.724 1654.89)" style="fill:#fff"/>
                <path data-name="패스 7298" d="M191.71 147.387a1.9 1.9 0 0 1-.681-.112 1.3 1.3 0 0 1-.494-.327 1.387 1.387 0 0 1-.3-.523 2.3 2.3 0 0 1-.1-.708 2.535 2.535 0 0 1 .1-.75 1.463 1.463 0 0 1 .294-.54 1.223 1.223 0 0 1 .471-.327 1.947 1.947 0 0 1 1.233-.014 1.192 1.192 0 0 1 .448.277 1.229 1.229 0 0 1 .282.458 1.883 1.883 0 0 1 .1.635v.311h-1.991a2.385 2.385 0 0 0 .067.525 1.077 1.077 0 0 0 .161.362.617.617 0 0 0 .249.211.781.781 0 0 0 .337.069 1.068 1.068 0 0 0 .29-.038.918.918 0 0 0 .242-.1.863.863 0 0 0 .19-.157.9.9 0 0 0 .135-.194.311.311 0 0 1 .163.3.47.47 0 0 1-.071.248.633.633 0 0 1-.219.206 1.326 1.326 0 0 1-.373.142 2.317 2.317 0 0 1-.533.046zm-.056-3a.455.455 0 0 0-.405.253 1.562 1.562 0 0 0-.165.739h1.051a2.868 2.868 0 0 0-.027-.416 1.144 1.144 0 0 0-.084-.311.5.5 0 0 0-.148-.2.356.356 0 0 0-.222-.065z" transform="translate(928.156 1654.485)" style="fill:#fff"/>
                <path data-name="패스 7299" d="M197.934 146.526v-.326h.134a.892.892 0 0 0 .141-.013.381.381 0 0 0 .139-.055.332.332 0 0 0 .107-.119.424.424 0 0 0 .043-.208v-2.124h-.54v-.416h.54v-.226a1.592 1.592 0 0 1 .073-.5.917.917 0 0 1 .226-.375.988.988 0 0 1 .387-.233 1.725 1.725 0 0 1 .555-.08 2.885 2.885 0 0 1 .49.034 1.091 1.091 0 0 1 .311.094.407.407 0 0 1 .164.141.323.323 0 0 1 .049.175.313.313 0 0 1-.185.3 1.273 1.273 0 0 1-.562.1.943.943 0 0 0-.015-.161.63.63 0 0 0-.05-.16.371.371 0 0 0-.094-.123.216.216 0 0 0-.144-.049.206.206 0 0 0-.128.04.283.283 0 0 0-.088.128.859.859 0 0 0-.049.227 3.277 3.277 0 0 0-.015.341v.332h.837v.416h-.837v2.124a.424.424 0 0 0 .043.208.327.327 0 0 0 .107.119.378.378 0 0 0 .139.055.894.894 0 0 0 .141.013h.285v.324z" transform="translate(925.234 1655.286)" style="fill:#fff"/>
                <path data-name="패스 7300" d="M205.316 145.687a1.791 1.791 0 0 1-.4 1.279 1.559 1.559 0 0 1-1.183.421 1.919 1.919 0 0 1-.655-.1 1.29 1.29 0 0 1-.494-.316 1.392 1.392 0 0 1-.311-.531 2.328 2.328 0 0 1-.108-.748 1.779 1.779 0 0 1 .4-1.276 1.566 1.566 0 0 1 1.185-.418 1.922 1.922 0 0 1 .654.1 1.261 1.261 0 0 1 .493.315 1.392 1.392 0 0 1 .311.529 2.321 2.321 0 0 1 .108.745zm-2.211 0a4.242 4.242 0 0 0 .034.57 1.5 1.5 0 0 0 .109.412.59.59 0 0 0 .2.251.508.508 0 0 0 .3.084.5.5 0 0 0 .3-.084.6.6 0 0 0 .2-.251 1.478 1.478 0 0 0 .108-.412 4.369 4.369 0 0 0 .033-.57 4.115 4.115 0 0 0-.034-.571 1.442 1.442 0 0 0-.109-.408.577.577 0 0 0-.2-.245.577.577 0 0 0-.593 0 .56.56 0 0 0-.2.245 1.426 1.426 0 0 0-.107.408 4.335 4.335 0 0 0-.041.571z" transform="translate(923.65 1654.485)" style="fill:#fff"/>
                <path data-name="패스 7301" d="M209.885 147.332h-2.03v-.324h.018a1.187 1.187 0 0 0 .19-.014.343.343 0 0 0 .148-.061.3.3 0 0 0 .1-.133.637.637 0 0 0 .034-.228v-1.763a.6.6 0 0 0-.031-.214.277.277 0 0 0-.089-.126.3.3 0 0 0-.138-.058 1.061 1.061 0 0 0-.181-.014h-.018v-.323h1.228l.121.475h.03a1.334 1.334 0 0 1 .131-.239.662.662 0 0 1 .17-.171.729.729 0 0 1 .235-.1 1.312 1.312 0 0 1 .322-.034.892.892 0 0 1 .528.126.429.429 0 0 1 .169.366.516.516 0 0 1-.2.433.925.925 0 0 1-.57.154 1.616 1.616 0 0 0-.013-.219.447.447 0 0 0-.048-.157.229.229 0 0 0-.092-.1.286.286 0 0 0-.144-.033.314.314 0 0 0-.184.054.47.47 0 0 0-.131.138.8.8 0 0 0-.088.191 1.554 1.554 0 0 0-.053.214 1.726 1.726 0 0 0-.026.207q-.006.1-.006.169v1.052a.6.6 0 0 0 .033.215.282.282 0 0 0 .089.123.319.319 0 0 0 .135.055 1.093 1.093 0 0 0 .168.013h.2z" transform="translate(921.517 1654.481)" style="fill:#fff"/>
                <path data-name="패스 7302" d="m216.6 145.3-.175.522c-.016.05-.032.108-.049.174a.717.717 0 0 0-.025.174.207.207 0 0 0 .086.176.293.293 0 0 0 .088.043.373.373 0 0 0 .1.014h.255v.324h-1.58v-.327h.074a.574.574 0 0 0 .147-.018.323.323 0 0 0 .124-.067.536.536 0 0 0 .109-.134 1.428 1.428 0 0 0 .106-.223l1.318-3.572h.834l1.27 3.578a1.289 1.289 0 0 0 .094.213.5.5 0 0 0 .107.133.352.352 0 0 0 .123.069.447.447 0 0 0 .136.021h.109v.324h-2.001v-.324h.237a.374.374 0 0 0 .093-.013.267.267 0 0 0 .084-.042.223.223 0 0 0 .061-.073.22.22 0 0 0 .024-.107.564.564 0 0 0-.017-.143c-.013-.046-.024-.085-.036-.119l-.214-.608zm1.036-1.368-.067-.218a10.907 10.907 0 0 1-.188-.692c-.017.061-.039.128-.063.2l-.075.226-.081.231-.076.223-.359 1.027h1.229z" transform="translate(918.726 1655.085)" style="fill:#fff"/>
                <path data-name="패스 7303" d="M225.884 145.812a.5.5 0 0 0 .041.223.314.314 0 0 0 .111.128.417.417 0 0 0 .16.059 1.253 1.253 0 0 0 .191.014h.024v.324h-1.178l-.169-.475h-.056a1.19 1.19 0 0 1-.156.222.89.89 0 0 1-.2.168.933.933 0 0 1-.256.106 1.263 1.263 0 0 1-.321.037 1.316 1.316 0 0 1-.528-.1.96.96 0 0 1-.39-.305 1.436 1.436 0 0 1-.24-.524 3.019 3.019 0 0 1-.082-.754 3.1 3.1 0 0 1 .082-.761 1.477 1.477 0 0 1 .239-.531.981.981 0 0 1 .385-.312 1.277 1.277 0 0 1 .522-.1 1.21 1.21 0 0 1 .31.036 1.062 1.062 0 0 1 .25.1.891.891 0 0 1 .2.153 1.014 1.014 0 0 1 .149.2h.041a32.14 32.14 0 0 0-.024-.318c0-.041 0-.084-.008-.128s-.006-.085-.009-.123l-.006-.1v-.406a.424.424 0 0 0-.04-.2.282.282 0 0 0-.106-.114.431.431 0 0 0-.156-.051 1.4 1.4 0 0 0-.189-.011h-.048v-.321h1.463zm-1.549.353a.556.556 0 0 0 .3-.076.53.53 0 0 0 .193-.23 1.317 1.317 0 0 0 .1-.388 4.469 4.469 0 0 0 .029-.547 4.326 4.326 0 0 0-.029-.532 1.373 1.373 0 0 0-.1-.391.567.567 0 0 0-.193-.241.526.526 0 0 0-.3-.082.419.419 0 0 0-.26.082.563.563 0 0 0-.175.242 1.568 1.568 0 0 0-.1.393 4.1 4.1 0 0 0-.031.535 2.516 2.516 0 0 0 .129.927.446.446 0 0 0 .437.308z" transform="translate(915.905 1655.253)" style="fill:#fff"/>
                <path data-name="패스 7304" d="M232.376 144.439h-.121a.385.385 0 0 0-.112.015.231.231 0 0 0-.094.061.522.522 0 0 0-.091.133 2.5 2.5 0 0 0-.1.233l-.881 2.493h-.8l-1-2.644a.547.547 0 0 0-.076-.142.32.32 0 0 0-.1-.089.389.389 0 0 0-.133-.046.981.981 0 0 0-.176-.014v-.323h1.884v.323h-.255a.216.216 0 0 0-.147.049.183.183 0 0 0-.055.144.54.54 0 0 0 .019.145c.012.048.025.088.037.122l.406 1.151a4.696 4.696 0 0 1 .214.739c.01-.048.024-.1.041-.166s.036-.126.053-.186l.049-.165.031-.1.412-1.219a1.517 1.517 0 0 0 .049-.168.768.768 0 0 0 .019-.167.142.142 0 0 0-.067-.138.343.343 0 0 0-.17-.038h-.175v-.323h1.335z" transform="translate(913.71 1654.438)" style="fill:#fff"/>
                <path data-name="패스 7305" d="M236.5 144.363a.364.364 0 0 0-.194.049.36.36 0 0 0-.126.136.67.67 0 0 0-.067.208 1.713 1.713 0 0 0-.019.263 1.583 1.583 0 0 1-.616-.092.321.321 0 0 1-.206-.315.428.428 0 0 1 .1-.285.714.714 0 0 1 .27-.193 1.611 1.611 0 0 1 .4-.108 3.3 3.3 0 0 1 .485-.034 2.5 2.5 0 0 1 .559.055 1.015 1.015 0 0 1 .4.176.753.753 0 0 1 .239.319 1.29 1.29 0 0 1 .08.482v1.549a.926.926 0 0 0 .019.208.308.308 0 0 0 .061.132.23.23 0 0 0 .113.069.63.63 0 0 0 .173.021h.024v.324h-1.135l-.128-.418h-.053q-.1.122-.19.212a.945.945 0 0 1-.19.15.794.794 0 0 1-.227.088 1.385 1.385 0 0 1-.3.028 1.157 1.157 0 0 1-.375-.059.825.825 0 0 1-.3-.183.864.864 0 0 1-.2-.309 1.173 1.173 0 0 1-.074-.438.833.833 0 0 1 .34-.733 1.9 1.9 0 0 1 1.022-.258l.5-.018v-.335c0-.1 0-.194-.012-.278a.761.761 0 0 0-.051-.22.314.314 0 0 0-.114-.143.359.359 0 0 0-.208-.05zm-.54 2.059a.74.74 0 0 0 .083.391.286.286 0 0 0 .261.131.506.506 0 0 0 .236-.054.537.537 0 0 0 .181-.156.719.719 0 0 0 .116-.245 1.187 1.187 0 0 0 .041-.322v-.457l-.273.018a.985.985 0 0 0-.306.058.49.49 0 0 0-.2.135.5.5 0 0 0-.107.211 1.143 1.143 0 0 0-.03.291z" transform="translate(911.34 1654.485)" style="fill:#fff"/>
                <path data-name="패스 7306" d="M243.023 147.328v-2a2.227 2.227 0 0 0-.025-.349.807.807 0 0 0-.083-.256.412.412 0 0 0-.151-.159.439.439 0 0 0-.227-.055.405.405 0 0 0-.253.078.54.54 0 0 0-.161.206 1.115 1.115 0 0 0-.088.3 2.344 2.344 0 0 0-.026.358v1.159a.555.555 0 0 0 .031.2.277.277 0 0 0 .088.121.307.307 0 0 0 .138.057 1.235 1.235 0 0 0 .182.013h.018v.324H240.6V147h.012a1.359 1.359 0 0 0 .19-.013.366.366 0 0 0 .15-.058.285.285 0 0 0 .1-.128.566.566 0 0 0 .036-.22v-1.8a.558.558 0 0 0-.031-.2.273.273 0 0 0-.089-.12.3.3 0 0 0-.138-.056 1.061 1.061 0 0 0-.181-.014h-.018v-.323h1.269l.08.433h.029a1.126 1.126 0 0 1 .194-.273.759.759 0 0 1 .218-.154.817.817 0 0 1 .245-.069 2.5 2.5 0 0 1 .271-.014 1.215 1.215 0 0 1 .421.068.775.775 0 0 1 .316.211.946.946 0 0 1 .2.363 1.8 1.8 0 0 1 .068.53v1.41a.822.822 0 0 0 .026.227.271.271 0 0 0 .076.129.26.26 0 0 0 .128.059 1.012 1.012 0 0 0 .181.014h.018v.324z" transform="translate(909.25 1654.485)" style="fill:#fff"/>
                <path data-name="패스 7307" d="M248.848 147.387a2.08 2.08 0 0 1-.613-.086 1.143 1.143 0 0 1-.476-.285 1.337 1.337 0 0 1-.309-.519 2.45 2.45 0 0 1-.109-.787 2.536 2.536 0 0 1 .114-.822 1.361 1.361 0 0 1 .315-.528 1.142 1.142 0 0 1 .473-.283 1.979 1.979 0 0 1 .588-.084 2.47 2.47 0 0 1 .519.049 1.326 1.326 0 0 1 .376.135.659.659 0 0 1 .23.2.442.442 0 0 1 .079.251.547.547 0 0 1-.034.191.386.386 0 0 1-.121.165.687.687 0 0 1-.24.115 1.42 1.42 0 0 1-.39.044 2.288 2.288 0 0 0-.019-.3 1.038 1.038 0 0 0-.064-.249.432.432 0 0 0-.121-.17.285.285 0 0 0-.191-.064.455.455 0 0 0-.24.064.5.5 0 0 0-.181.218 1.452 1.452 0 0 0-.116.412 4.308 4.308 0 0 0-.04.647 1.968 1.968 0 0 0 .169.923.583.583 0 0 0 .552.306 1.119 1.119 0 0 0 .3-.038.988.988 0 0 0 .251-.1.908.908 0 0 0 .2-.157.874.874 0 0 0 .138-.194.279.279 0 0 1 .11.12.368.368 0 0 1 .036.159.469.469 0 0 1-.069.235.659.659 0 0 1-.212.215 1.281 1.281 0 0 1-.366.158 2.056 2.056 0 0 1-.539.059z" transform="translate(906.724 1654.485)" style="fill:#fff"/>
                <path data-name="패스 7308" d="M254.036 147.387a1.9 1.9 0 0 1-.681-.112 1.3 1.3 0 0 1-.494-.327 1.378 1.378 0 0 1-.3-.523 2.278 2.278 0 0 1-.1-.708 2.514 2.514 0 0 1 .1-.75 1.453 1.453 0 0 1 .293-.54 1.223 1.223 0 0 1 .473-.325 1.947 1.947 0 0 1 1.233-.014 1.192 1.192 0 0 1 .448.277 1.23 1.23 0 0 1 .282.458 1.883 1.883 0 0 1 .1.635v.311h-1.99a2.383 2.383 0 0 0 .067.525 1.077 1.077 0 0 0 .161.362.621.621 0 0 0 .249.211.781.781 0 0 0 .337.069 1.076 1.076 0 0 0 .291-.038.923.923 0 0 0 .241-.1.862.862 0 0 0 .19-.157.9.9 0 0 0 .135-.194.311.311 0 0 1 .163.3.47.47 0 0 1-.071.248.633.633 0 0 1-.22.206 1.321 1.321 0 0 1-.372.142 2.323 2.323 0 0 1-.535.044zm-.056-3a.456.456 0 0 0-.405.253 1.563 1.563 0 0 0-.164.739h1.05a2.964 2.964 0 0 0-.026-.416 1.165 1.165 0 0 0-.085-.311.5.5 0 0 0-.148-.2.356.356 0 0 0-.222-.065z" transform="translate(904.806 1654.485)" style="fill:#fff"/>
                <path data-name="패스 7309" d="M261.048 145.812a.5.5 0 0 0 .041.223.314.314 0 0 0 .111.128.416.416 0 0 0 .161.059 1.237 1.237 0 0 0 .191.014h.024v.324H260.4l-.169-.475h-.056a1.19 1.19 0 0 1-.156.222.89.89 0 0 1-.2.168.933.933 0 0 1-.256.106 1.263 1.263 0 0 1-.321.037 1.316 1.316 0 0 1-.528-.1.96.96 0 0 1-.39-.305 1.437 1.437 0 0 1-.24-.524 3.05 3.05 0 0 1-.082-.754 3.128 3.128 0 0 1 .082-.761 1.477 1.477 0 0 1 .239-.531.979.979 0 0 1 .386-.312 1.272 1.272 0 0 1 .522-.1 1.21 1.21 0 0 1 .31.036 1.062 1.062 0 0 1 .25.1.864.864 0 0 1 .2.153 1.014 1.014 0 0 1 .149.2h.041a32.14 32.14 0 0 0-.024-.318c0-.041 0-.084-.008-.128s-.006-.085-.009-.123l-.006-.1v-.406a.425.425 0 0 0-.04-.2.279.279 0 0 0-.107-.114.424.424 0 0 0-.156-.051 1.406 1.406 0 0 0-.189-.011h-.048v-.321h1.463zm-1.549.353a.554.554 0 0 0 .3-.076.53.53 0 0 0 .193-.23 1.3 1.3 0 0 0 .1-.388 4.475 4.475 0 0 0 .029-.547 4.333 4.333 0 0 0-.029-.532 1.353 1.353 0 0 0-.1-.391.567.567 0 0 0-.193-.241.525.525 0 0 0-.3-.082.419.419 0 0 0-.26.082.563.563 0 0 0-.175.242 1.6 1.6 0 0 0-.1.393 4.1 4.1 0 0 0-.031.535 2.519 2.519 0 0 0 .129.927.446.446 0 0 0 .438.308z" transform="translate(902.732 1655.253)" style="fill:#fff"/>
                <path data-name="패스 7310" d="M268.182 146.356h1.218a.319.319 0 0 0 .27-.131.525.525 0 0 0 .076-.147 1.162 1.162 0 0 0 .043-.185l.048-.285h.421l-.044 1.119h-3.561v-.327h.256a.62.62 0 0 0 .121-.011.219.219 0 0 0 .1-.049.243.243 0 0 0 .066-.109.616.616 0 0 0 .024-.191v-2.94a.708.708 0 0 0-.024-.208.285.285 0 0 0-.065-.119.206.206 0 0 0-.1-.055.59.59 0 0 0-.124-.013h-.256v-.321h3.374l.024 1.118h-.425l-.029-.288a.693.693 0 0 0-.113-.341.324.324 0 0 0-.276-.118h-1.023v1.52h1.441v.365h-1.441z" transform="translate(899.49 1655.085)" style="fill:#fff"/>
                <path data-name="패스 7311" d="M275.343 147.328v-2a2.156 2.156 0 0 0-.025-.349.793.793 0 0 0-.083-.256.414.414 0 0 0-.152-.159.435.435 0 0 0-.226-.055.405.405 0 0 0-.253.078.541.541 0 0 0-.162.206 1.137 1.137 0 0 0-.088.3 2.344 2.344 0 0 0-.026.358v1.159a.542.542 0 0 0 .031.2.277.277 0 0 0 .088.121.307.307 0 0 0 .138.057 1.244 1.244 0 0 0 .183.013h.018v.324h-1.866V147h.012a1.359 1.359 0 0 0 .19-.013.363.363 0 0 0 .149-.058.291.291 0 0 0 .1-.128.568.568 0 0 0 .036-.22v-1.8a.559.559 0 0 0-.031-.2.273.273 0 0 0-.089-.12.3.3 0 0 0-.138-.056 1.066 1.066 0 0 0-.181-.014h-.017v-.323h1.276l.08.433h.029a1.125 1.125 0 0 1 .194-.273.75.75 0 0 1 .218-.154.818.818 0 0 1 .245-.069 2.513 2.513 0 0 1 .271-.014 1.219 1.219 0 0 1 .422.068.775.775 0 0 1 .316.211.954.954 0 0 1 .2.363 1.8 1.8 0 0 1 .068.53v1.41a.849.849 0 0 0 .025.227.267.267 0 0 0 .076.129.258.258 0 0 0 .128.059 1.012 1.012 0 0 0 .181.014h.018v.324z" transform="translate(897.141 1654.485)" style="fill:#fff"/>
                <path data-name="패스 7312" d="M282.587 144.093a.411.411 0 0 1-.021.132.266.266 0 0 1-.069.111.345.345 0 0 1-.133.076.674.674 0 0 1-.21.028.288.288 0 0 0-.019-.11.247.247 0 0 0-.052-.08.23.23 0 0 0-.074-.049.243.243 0 0 0-.086-.016.336.336 0 0 0-.108.021.371.371 0 0 0-.091.044 1.075 1.075 0 0 1 .116.156 1.3 1.3 0 0 1 .094.189 1.443 1.443 0 0 1 .064.209 1.042 1.042 0 0 1 .023.221 1.19 1.19 0 0 1-.073.423.874.874 0 0 1-.224.336 1.049 1.049 0 0 1-.383.223 1.689 1.689 0 0 1-.549.08h-.183c-.034 0-.066 0-.1-.006l-.07-.008a.585.585 0 0 0-.079.052.467.467 0 0 0-.071.07.357.357 0 0 0-.051.086.275.275 0 0 0-.019.1.161.161 0 0 0 .079.148.394.394 0 0 0 .206.048h.735a1.868 1.868 0 0 1 .523.064 1.007 1.007 0 0 1 .363.183.712.712 0 0 1 .212.291 1.061 1.061 0 0 1 .068.391 1.141 1.141 0 0 1-.107.5.974.974 0 0 1-.325.374 1.631 1.631 0 0 1-.549.235 3.3 3.3 0 0 1-.782.081 2.1 2.1 0 0 1-1.07-.215.7.7 0 0 1-.351-.63.611.611 0 0 1 .211-.5 1.09 1.09 0 0 1 .611-.206 1.092 1.092 0 0 1-.163-.08.646.646 0 0 1-.142-.114.553.553 0 0 1-.1-.153.464.464 0 0 1-.038-.193.437.437 0 0 1 .04-.187.652.652 0 0 1 .111-.164 1 1 0 0 1 .17-.149 3.19 3.19 0 0 1 .218-.138.934.934 0 0 1-.248-.132.852.852 0 0 1-.2-.2.992.992 0 0 1-.129-.27 1.133 1.133 0 0 1-.047-.336 1.093 1.093 0 0 1 .31-.829 1.354 1.354 0 0 1 .96-.295 1.4 1.4 0 0 1 .4.055 1.574 1.574 0 0 1 .322.131l.111-.114a.849.849 0 0 1 .138-.111.792.792 0 0 1 .171-.083.645.645 0 0 1 .211-.033.589.589 0 0 1 .192.028.426.426 0 0 1 .136.076.327.327 0 0 1 .083.109.323.323 0 0 1 .038.13zm-2.644 3.745a.415.415 0 0 0 .183.372.972.972 0 0 0 .533.121 1.5 1.5 0 0 0 .777-.154.5.5 0 0 0 .243-.454.3.3 0 0 0-.121-.27.7.7 0 0 0-.368-.078h-.706a1.069 1.069 0 0 0-.187.017.466.466 0 0 0-.174.066.392.392 0 0 0-.129.141.486.486 0 0 0-.051.239zm.406-2.813a1.691 1.691 0 0 0 .023.29.692.692 0 0 0 .073.221.38.38 0 0 0 .131.143.369.369 0 0 0 .2.05.379.379 0 0 0 .2-.049.34.34 0 0 0 .128-.143.75.75 0 0 0 .066-.226 2.27 2.27 0 0 0 0-.6.8.8 0 0 0-.07-.236.391.391 0 0 0-.129-.153.351.351 0 0 0-.2-.054.339.339 0 0 0-.2.056.4.4 0 0 0-.129.157.846.846 0 0 0-.069.241 2.011 2.011 0 0 0-.024.302z" transform="translate(894.779 1654.577)" style="fill:#fff"/>
                <path data-name="패스 7313" d="M284.885 146.2a.914.914 0 0 0 .144-.013.378.378 0 0 0 .139-.055.327.327 0 0 0 .107-.119.424.424 0 0 0 .043-.208v-1.845a.38.38 0 0 0-.043-.194.322.322 0 0 0-.108-.113.39.39 0 0 0-.141-.052.891.891 0 0 0-.141-.012h-.071v-.323h1.428v2.54a.424.424 0 0 0 .043.208.325.325 0 0 0 .106.119.382.382 0 0 0 .141.055.93.93 0 0 0 .143.013h.071v.324h-1.932v-.325zm.347-3.92a.457.457 0 0 1 .04-.2.361.361 0 0 1 .11-.135.494.494 0 0 1 .163-.078.821.821 0 0 1 .4 0 .517.517 0 0 1 .166.078.377.377 0 0 1 .114.135.473.473 0 0 1 0 .395.392.392 0 0 1-.114.136.521.521 0 0 1-.166.081.782.782 0 0 1-.4 0 .5.5 0 0 1-.163-.081.375.375 0 0 1-.11-.136.454.454 0 0 1-.04-.196z" transform="translate(892.685 1655.29)" style="fill:#fff"/>
                <path data-name="패스 7314" d="M290.688 147.328v-2a2.152 2.152 0 0 0-.025-.349.792.792 0 0 0-.083-.256.408.408 0 0 0-.151-.159.438.438 0 0 0-.227-.055.4.4 0 0 0-.252.078.541.541 0 0 0-.162.206 1.114 1.114 0 0 0-.088.3 2.34 2.34 0 0 0-.026.358v1.159a.557.557 0 0 0 .031.2.287.287 0 0 0 .088.121.313.313 0 0 0 .138.057 1.238 1.238 0 0 0 .183.013h.017v.324h-1.866V147h.012a1.343 1.343 0 0 0 .189-.013.363.363 0 0 0 .15-.058.29.29 0 0 0 .1-.128.568.568 0 0 0 .036-.22v-1.8a.558.558 0 0 0-.031-.2.267.267 0 0 0-.089-.12.3.3 0 0 0-.138-.056 1.053 1.053 0 0 0-.181-.014h-.018v-.323h1.276l.079.433h.03a1.125 1.125 0 0 1 .194-.273.756.756 0 0 1 .218-.154.822.822 0 0 1 .245-.069 2.5 2.5 0 0 1 .271-.014 1.219 1.219 0 0 1 .422.068.773.773 0 0 1 .316.211.947.947 0 0 1 .2.363 1.8 1.8 0 0 1 .068.53v1.41a.824.824 0 0 0 .025.227.271.271 0 0 0 .076.129.263.263 0 0 0 .128.059 1.022 1.022 0 0 0 .181.014h.018v.324z" transform="translate(891.393 1654.485)" style="fill:#fff"/>
                <path data-name="패스 7315" d="M296.582 147.387a1.9 1.9 0 0 1-.681-.112 1.3 1.3 0 0 1-.494-.327 1.387 1.387 0 0 1-.3-.523 2.3 2.3 0 0 1-.1-.708 2.534 2.534 0 0 1 .1-.75 1.462 1.462 0 0 1 .294-.54 1.223 1.223 0 0 1 .473-.325 1.947 1.947 0 0 1 1.233-.014 1.192 1.192 0 0 1 .448.277 1.229 1.229 0 0 1 .282.458 1.883 1.883 0 0 1 .1.635v.311h-1.991a2.383 2.383 0 0 0 .067.525 1.077 1.077 0 0 0 .161.362.617.617 0 0 0 .249.211.781.781 0 0 0 .337.069 1.068 1.068 0 0 0 .29-.038.918.918 0 0 0 .242-.1.863.863 0 0 0 .19-.157.9.9 0 0 0 .135-.194.311.311 0 0 1 .163.3.47.47 0 0 1-.071.248.633.633 0 0 1-.22.206 1.326 1.326 0 0 1-.373.142 2.317 2.317 0 0 1-.534.044zm-.057-3a.455.455 0 0 0-.4.253 1.57 1.57 0 0 0-.165.739h1.051a2.959 2.959 0 0 0-.026-.416 1.165 1.165 0 0 0-.085-.311.5.5 0 0 0-.148-.2.356.356 0 0 0-.227-.065z" transform="translate(888.867 1654.485)" style="fill:#fff"/>
                <path data-name="패스 7316" d="M302.128 147.387a1.906 1.906 0 0 1-.681-.112 1.3 1.3 0 0 1-.494-.327 1.378 1.378 0 0 1-.3-.523 2.279 2.279 0 0 1-.1-.708 2.515 2.515 0 0 1 .1-.75 1.445 1.445 0 0 1 .294-.54 1.221 1.221 0 0 1 .473-.325 1.947 1.947 0 0 1 1.233-.014 1.191 1.191 0 0 1 .448.277 1.221 1.221 0 0 1 .282.458 1.867 1.867 0 0 1 .1.635v.311h-1.993a2.312 2.312 0 0 0 .067.525 1.077 1.077 0 0 0 .16.362.623.623 0 0 0 .25.211.776.776 0 0 0 .336.069 1.072 1.072 0 0 0 .291-.038.936.936 0 0 0 .242-.1.874.874 0 0 0 .189-.157.9.9 0 0 0 .135-.194.311.311 0 0 1 .163.3.47.47 0 0 1-.071.248.633.633 0 0 1-.219.206 1.315 1.315 0 0 1-.372.142 2.323 2.323 0 0 1-.533.044zm-.056-3a.456.456 0 0 0-.405.253 1.563 1.563 0 0 0-.164.739h1.051a2.962 2.962 0 0 0-.027-.416 1.192 1.192 0 0 0-.084-.311.49.49 0 0 0-.149-.2.355.355 0 0 0-.222-.065z" transform="translate(886.789 1654.485)" style="fill:#fff"/>
                <path data-name="패스 7317" d="M307.867 147.332h-2.029v-.324h.018a1.173 1.173 0 0 0 .189-.014.343.343 0 0 0 .148-.061.293.293 0 0 0 .1-.133.623.623 0 0 0 .034-.228v-1.763a.6.6 0 0 0-.031-.214.277.277 0 0 0-.089-.126.3.3 0 0 0-.138-.058 1.066 1.066 0 0 0-.181-.014h-.018v-.323h1.23l.121.475h.03a1.332 1.332 0 0 1 .131-.239.662.662 0 0 1 .17-.171.728.728 0 0 1 .234-.1 1.313 1.313 0 0 1 .314-.039.891.891 0 0 1 .528.126.429.429 0 0 1 .169.366.515.515 0 0 1-.2.433.922.922 0 0 1-.57.154 1.616 1.616 0 0 0-.013-.219.447.447 0 0 0-.048-.157.229.229 0 0 0-.092-.1.288.288 0 0 0-.144-.033.314.314 0 0 0-.184.054.469.469 0 0 0-.131.138.8.8 0 0 0-.088.191 1.558 1.558 0 0 0-.053.214 1.732 1.732 0 0 0-.026.207q-.006.1-.006.169v1.057a.59.59 0 0 0 .033.215.282.282 0 0 0 .089.123.319.319 0 0 0 .135.055 1.091 1.091 0 0 0 .168.013h.2z" transform="translate(884.809 1654.481)" style="fill:#fff"/>
                <path data-name="패스 7318" d="M310.962 146.2a.907.907 0 0 0 .144-.013.381.381 0 0 0 .139-.055.333.333 0 0 0 .107-.119.424.424 0 0 0 .043-.208v-1.845a.38.38 0 0 0-.043-.194.328.328 0 0 0-.108-.113.393.393 0 0 0-.141-.052.878.878 0 0 0-.141-.012h-.071v-.323h1.427v2.54a.424.424 0 0 0 .043.208.333.333 0 0 0 .107.119.383.383 0 0 0 .141.055.923.923 0 0 0 .143.013h.071v.324h-1.932v-.325zm.347-3.92a.458.458 0 0 1 .04-.2.362.362 0 0 1 .11-.135.5.5 0 0 1 .163-.078.809.809 0 0 1 .2-.025.8.8 0 0 1 .2.025.506.506 0 0 1 .166.078.377.377 0 0 1 .114.135.473.473 0 0 1 0 .395.393.393 0 0 1-.114.136.511.511 0 0 1-.166.081.744.744 0 0 1-.2.026.755.755 0 0 1-.2-.026.5.5 0 0 1-.163-.081.376.376 0 0 1-.11-.136.455.455 0 0 1-.04-.196z" transform="translate(882.916 1655.29)" style="fill:#fff"/>
                <path data-name="패스 7319" d="M316.765 147.328v-2a2.152 2.152 0 0 0-.025-.349.807.807 0 0 0-.083-.256.412.412 0 0 0-.151-.159.439.439 0 0 0-.227-.055.4.4 0 0 0-.252.078.541.541 0 0 0-.162.206 1.114 1.114 0 0 0-.088.3 2.264 2.264 0 0 0-.027.358v1.159a.555.555 0 0 0 .031.2.277.277 0 0 0 .088.121.307.307 0 0 0 .138.057 1.235 1.235 0 0 0 .182.013h.018v.324h-1.867V147h.012a1.359 1.359 0 0 0 .19-.013.366.366 0 0 0 .15-.058.285.285 0 0 0 .1-.128.555.555 0 0 0 .036-.22v-1.8a.558.558 0 0 0-.031-.2.268.268 0 0 0-.089-.12.3.3 0 0 0-.138-.056 1.056 1.056 0 0 0-.181-.014h-.017v-.323h1.276l.08.433h.03a1.124 1.124 0 0 1 .194-.273.759.759 0 0 1 .218-.154.822.822 0 0 1 .245-.069 2.5 2.5 0 0 1 .271-.014 1.219 1.219 0 0 1 .421.068.777.777 0 0 1 .316.211.946.946 0 0 1 .2.363 1.8 1.8 0 0 1 .068.53v1.41a.822.822 0 0 0 .026.227.271.271 0 0 0 .076.129.263.263 0 0 0 .128.059 1.012 1.012 0 0 0 .181.014h.018v.324z" transform="translate(881.623 1654.485)" style="fill:#fff"/>
                <path data-name="패스 7320" d="M324.008 144.093a.429.429 0 0 1-.021.132.262.262 0 0 1-.07.111.341.341 0 0 1-.133.076.67.67 0 0 1-.209.028.288.288 0 0 0-.02-.11.227.227 0 0 0-.052-.08.224.224 0 0 0-.074-.049.238.238 0 0 0-.086-.016.339.339 0 0 0-.108.021.365.365 0 0 0-.09.044 1.167 1.167 0 0 1 .116.156 1.358 1.358 0 0 1 .093.189 1.306 1.306 0 0 1 .064.209 1.043 1.043 0 0 1 .024.221 1.19 1.19 0 0 1-.073.423.872.872 0 0 1-.223.336 1.052 1.052 0 0 1-.383.223 1.687 1.687 0 0 1-.549.08h-.183c-.033 0-.066 0-.1-.006l-.069-.008a.587.587 0 0 0-.079.052.446.446 0 0 0-.071.07.356.356 0 0 0-.051.086.276.276 0 0 0-.019.1.162.162 0 0 0 .078.148.394.394 0 0 0 .206.048h.736a1.863 1.863 0 0 1 .522.064 1 1 0 0 1 .363.183.706.706 0 0 1 .212.291 1.061 1.061 0 0 1 .068.391 1.142 1.142 0 0 1-.106.5.971.971 0 0 1-.325.374 1.631 1.631 0 0 1-.549.235 3.3 3.3 0 0 1-.782.081 2.1 2.1 0 0 1-1.07-.215.7.7 0 0 1-.351-.63.613.613 0 0 1 .211-.5 1.092 1.092 0 0 1 .612-.206 1.035 1.035 0 0 1-.163-.08.649.649 0 0 1-.143-.114.583.583 0 0 1-.1-.153.465.465 0 0 1-.038-.193.437.437 0 0 1 .04-.187.652.652 0 0 1 .111-.164 1.033 1.033 0 0 1 .171-.149 3.19 3.19 0 0 1 .218-.138.944.944 0 0 1-.248-.132.864.864 0 0 1-.2-.2 1.009 1.009 0 0 1-.129-.27 1.112 1.112 0 0 1-.048-.336 1.091 1.091 0 0 1 .31-.829 1.351 1.351 0 0 1 .959-.295 1.4 1.4 0 0 1 .4.055 1.56 1.56 0 0 1 .322.131l.111-.114a.875.875 0 0 1 .138-.111.8.8 0 0 1 .172-.083.642.642 0 0 1 .211-.033.588.588 0 0 1 .191.028.413.413 0 0 1 .136.076.31.31 0 0 1 .083.109.323.323 0 0 1 .037.13zm-2.644 3.745a.415.415 0 0 0 .183.372.974.974 0 0 0 .533.121 1.5 1.5 0 0 0 .777-.154.5.5 0 0 0 .243-.454.3.3 0 0 0-.121-.27.694.694 0 0 0-.368-.078h-.711a1.068 1.068 0 0 0-.187.017.467.467 0 0 0-.173.066.382.382 0 0 0-.129.141.479.479 0 0 0-.047.239zm.407-2.813a1.762 1.762 0 0 0 .022.29.693.693 0 0 0 .073.221.379.379 0 0 0 .13.143.372.372 0 0 0 .2.05.383.383 0 0 0 .2-.049.343.343 0 0 0 .128-.143.733.733 0 0 0 .066-.226 2 2 0 0 0 .02-.295 2.075 2.075 0 0 0-.021-.307.782.782 0 0 0-.069-.236.4.4 0 0 0-.129-.153.35.35 0 0 0-.2-.054.336.336 0 0 0-.2.056.4.4 0 0 0-.129.157.847.847 0 0 0-.069.241 2.1 2.1 0 0 0-.022.304z" transform="translate(879.261 1654.577)" style="fill:#fff"/>
            </g>
        </g>
    </g>
</svg>
