<svg xmlns="http://www.w3.org/2000/svg" width="960" height="108" viewBox="0 0 960 108">
  <g id="text" transform="translate(0 -90)">
    <g id="그룹_10680" data-name="그룹 10680" transform="translate(703 -25)">
      <g id="사각형_1750" data-name="사각형 1750" transform="translate(62 115)" fill="#1a95ce" stroke="#1a95ce" stroke-width="2">
        <rect width="195" height="108" rx="54" stroke="none"/>
        <rect x="1" y="1" width="193" height="106" rx="53" fill="none"/>
      </g>
      <path id="패스_7347" data-name="패스 7347" d="M-49.56-5.556a22.755,22.755,0,0,1-4.752.36V-8.364h3.756v-.792H-55.3V-4.38h.84a23.171,23.171,0,0,0,5-.384Zm-3.672,3.132h4.824V-.06h-4.824Zm-.96,3.156h6.756V-3.2h-6.756Zm8.352-7.98h-1.6v-2.64h-.984V-3.78h.984V-6.432h1.6Zm7.332,1.74a21.477,21.477,0,0,1-4.788.372v-3.12h3.78v-.792h-4.752v4.716h.84A23.453,23.453,0,0,0-38.4-4.7ZM-39.816.084c-1.6,0-2.58-.48-2.58-1.272s.984-1.272,2.58-1.272,2.568.48,2.568,1.272S-38.232.084-39.816.084Zm0-3.336c-2.184,0-3.552.768-3.552,2.064S-42,.876-39.816.876s3.54-.768,3.54-2.064S-37.644-3.252-39.816-3.252Zm3.432-3.828v-2.8h-1v6.408h1v-2.8H-34.8V-7.08Zm6.3-.876H-27.7v-.816h-5.82v.816h2.46v1.368a5.627,5.627,0,0,1-2.832,4.632l.576.78A6.076,6.076,0,0,0-30.564-4.74a5.808,5.808,0,0,0,2.7,3.3l.564-.792a5.176,5.176,0,0,1-2.784-4.356Zm6.432,2.424h-1.776V-9.864h-.984V.888h.984V-4.7h1.776Zm3.216,7.9.684-.324a11.062,11.062,0,0,1-1.536-5.772A11.092,11.092,0,0,1-19.752-9.5l-.684-.312A11.207,11.207,0,0,0-22.2-3.732,11.248,11.248,0,0,0-20.436,2.364ZM-15-8.94h-.972v1.932A5.7,5.7,0,0,1-18.744-2.2l.588.792A5.961,5.961,0,0,0-15.48-4.968a5.937,5.937,0,0,0,2.6,3.348l.612-.78A5.435,5.435,0,0,1-15-7.008Zm6.444,3.432h-1.776V-9.864h-.984V.888h.984v-5.58h1.776ZM-2.712.12C-4.4.12-5.4-.3-5.4-1.032s1-1.152,2.688-1.152,2.688.42,2.688,1.152S-1.032.12-2.712.12Zm0-3.072c-2.3,0-3.684.684-3.684,1.92S-5.016.876-2.712.876.972.2.972-1.032-.4-2.952-2.712-2.952ZM-4.2-5.808a9.342,9.342,0,0,0,1.488.12,9.381,9.381,0,0,0,1.5-.12v1.26H-4.2ZM-5.484-7.68c0-.78,1.056-1.236,2.772-1.236S.06-8.46.06-7.68-1-6.444-2.712-6.444-5.484-6.912-5.484-7.68ZM-.24-4.548V-6.072A1.776,1.776,0,0,0,1.068-7.68c0-1.26-1.44-2-3.78-2s-3.78.744-3.78,2a1.771,1.771,0,0,0,1.32,1.62v1.512H-7.584v.792H2.16v-.792Zm7.4,1.26h2.46v2.04H7.164ZM10.6-1.248v-2.04h1.68v-.8H5.652V-5.82h6.372V-9.084H4.656v.8h6.408v1.668H4.68v3.324H6.192v2.04H3.456v.8h9.78v-.8ZM22.944-7.08v.8h2.124v2.82h1V-9.864h-1V-7.08Zm.6,2.448A3.706,3.706,0,0,1,20.928-7.92v-.372h2.364v-.792H17.544v.792h2.4v.372a3.968,3.968,0,0,1-2.712,3.588l.516.78A4.658,4.658,0,0,0,20.46-6.288a4.422,4.422,0,0,0,2.592,2.424ZM22.512.12c-1.62,0-2.6-.456-2.6-1.236s.984-1.248,2.6-1.248,2.6.468,2.6,1.248S24.132.12,22.512.12Zm0-3.24c-2.208,0-3.588.732-3.588,2s1.38,2,3.588,2,3.576-.732,3.576-2S24.72-3.12,22.512-3.12Zm12-1.344A3.768,3.768,0,0,1,31.86-7.872V-9.228h-.984V-7.9a3.911,3.911,0,0,1-2.688,3.7l.516.78a4.465,4.465,0,0,0,2.688-2.736A4.527,4.527,0,0,0,34.02-3.684ZM30.9-2.688h-.984V.648h7.14v-.8H30.9Zm5.688-3.888V-9.888H35.6v7.956h.984V-5.76h1.6v-.816Zm13.98,0h-6.4V-8.652H50.5v-.792H43.188v3.66h7.38ZM46.824.108c-1.692,0-2.688-.42-2.688-1.176s1-1.176,2.688-1.176,2.688.42,2.688,1.176S48.5.108,46.824.108Zm0-3.12c-2.292,0-3.684.7-3.684,1.944S44.532.876,46.824.876s3.684-.7,3.684-1.944S49.116-3.012,46.824-3.012Zm-4.86-1.74v.816h9.744v-.816ZM53.556,2.364a11.155,11.155,0,0,0,1.776-6.1,11.115,11.115,0,0,0-1.776-6.084l-.672.312A11.207,11.207,0,0,1,54.42-3.732,11.176,11.176,0,0,1,52.884,2.04Z" transform="translate(160 201)" fill="#b3d3e2"/>
      <path id="패스_7343" data-name="패스 7343" d="M-32.72-11.936h-1.312V-9.36A7.581,7.581,0,0,1-37.744-2.9l.8,1.04a7.962,7.962,0,0,0,3.568-4.8,7.688,7.688,0,0,0,3.6,4.544l.768-1.04A7.154,7.154,0,0,1-32.72-9.36Zm5.488-1.232V-8.3H-30.56v1.072h3.328V1.2h1.312V-13.168Zm14.64,0V1.2h1.312V-13.168Zm-9.616,1.216v9.68h6.752v-9.68h-1.3V-8.16h-4.16v-3.792Zm1.3,4.832h4.16v3.776h-4.16ZM4.064-5.952c-2.512-.48-5.232-2.656-5.232-5.1v-1.1H-2.544v1.1c0,2.448-2.7,4.608-5.216,5.1l.592,1.088A7.881,7.881,0,0,0-1.856-9.008,7.787,7.787,0,0,0,3.472-4.864ZM-8.3-1.824V-.736H4.7V-1.824ZM12.032-9.68c0-1.088.944-1.824,2.32-1.824,1.344,0,2.3.736,2.3,1.824,0,1.1-.96,1.824-2.3,1.824C12.976-7.856,12.032-8.576,12.032-9.68Zm6.88,3.824c-1.232.192-2.56.288-3.888.368V-6.9C16.736-7.1,17.888-8.16,17.888-9.68c0-1.68-1.456-2.816-3.536-2.816-2.1,0-3.536,1.136-3.536,2.816,0,1.536,1.152,2.592,2.9,2.8v1.44c-1.328.048-2.624.064-3.728.064L10.16-4.3A51.727,51.727,0,0,0,19.008-4.9ZM13.36-3.1H12.048V.848h9.584V-.224H13.36Zm7.76-5.2v-4.848H19.808V-2.176H21.12v-5.04h2.112V-8.3Zm8.528,3.92h3.28v2.72h-3.28Zm4.576,2.72v-2.72h2.24V-5.456H27.632v-2.3h8.5v-4.352H26.3v1.072h8.544v2.224H26.336v4.432h2.016v2.72H24.7V-.592h13.04V-1.664Z" transform="translate(160 178)" fill="#fff"/>
      <g id="그룹_10677" data-name="그룹 10677" transform="translate(6 -3)">
        <circle id="타원_114" data-name="타원 114" cx="14" cy="14" r="14" transform="translate(139 130)" fill="#fff"/>
        <path id="패스_7339" data-name="패스 7339" d="M-3.528.168c1.8,0,3-1.584,3-4.644s-1.2-4.572-3-4.572S-6.54-7.548-6.54-4.476-5.34.168-3.528.168Zm0-1.38c-.768,0-1.344-.768-1.344-3.264s.576-3.2,1.344-3.2,1.332.72,1.332,3.2S-2.772-1.212-3.528-1.212Zm5.5-2.436,1.38-2.208c.252-.48.492-.972.708-1.44H4.1c-.024.516-.072,1.32-.072,1.836v1.812Zm4.764,0H5.676V-8.88H3.564L.252-3.5v1.2h3.78V0H5.676V-2.3H6.732Z" transform="translate(153 149)" fill="#1a95ce"/>
      </g>
    </g>
    <g id="d" transform="translate(548 -460)">
      <rect id="사각형_860" data-name="사각형 860" width="20" height="20" transform="translate(177 594)" fill="none"/>
      <rect id="사각형_857" data-name="사각형 857" width="24" height="24" transform="translate(175 592)" fill="none" opacity="0.4"/>
      <path id="패스_7334" data-name="패스 7334" d="M185.752,597.594l6.676,6.677-6.676,6.677" transform="translate(2)" fill="none" stroke="#707070" stroke-width="1"/>
      <path id="패스_7335" data-name="패스 7335" d="M192.313,604.27H177" transform="translate(2)" fill="none" stroke="#707070" stroke-width="1"/>
    </g>
    <g id="그룹_10679" data-name="그룹 10679" transform="translate(448 -25)">
      <g id="사각형_1750-2" data-name="사각형 1750" transform="translate(62 115)" fill="#fff" stroke="#1a95ce" stroke-width="2">
        <rect width="195" height="108" rx="54" stroke="none"/>
        <rect x="1" y="1" width="193" height="106" rx="53" fill="none"/>
      </g>
      <path id="패스_7346" data-name="패스 7346" d="M-16.392-9.06h-2.592v-.924h-.984v.924h-2.6v.708h6.18ZM-21.06-6.6c0-.48.612-.768,1.584-.768S-17.9-7.08-17.9-6.6s-.612.78-1.572.78S-21.06-6.12-21.06-6.6Zm4.992,1.776c-.924.132-1.932.2-2.916.252V-5.2c1.236-.108,2.016-.612,2.016-1.4,0-.888-1-1.416-2.508-1.416-1.536,0-2.52.528-2.52,1.416,0,.8.78,1.308,2.028,1.4v.66C-21-4.5-22-4.5-22.836-4.5l.108.732a39.565,39.565,0,0,0,6.72-.42ZM-20.424-.852h5.976v-2.2H-21.42v.7h6v.84h-5.964V.768h7.344V.06h-6.384Zm5.976-6.276V-9.876h-.984v6.36h.984V-6.3h1.584v-.828ZM-6.888.12C-8.58.12-9.576-.3-9.576-1.032s1-1.152,2.688-1.152S-4.2-1.764-4.2-1.032-5.208.12-6.888.12Zm0-3.072c-2.3,0-3.684.684-3.684,1.92S-9.192.876-6.888.876-3.2.2-3.2-1.032-4.572-2.952-6.888-2.952ZM-8.376-5.808a9.342,9.342,0,0,0,1.488.12,9.381,9.381,0,0,0,1.5-.12v1.26H-8.376ZM-9.66-7.68c0-.78,1.056-1.236,2.772-1.236s2.772.456,2.772,1.236S-5.172-6.444-6.888-6.444-9.66-6.912-9.66-7.68Zm5.244,3.132V-6.072A1.776,1.776,0,0,0-3.108-7.68c0-1.26-1.44-2-3.78-2s-3.78.744-3.78,2a1.771,1.771,0,0,0,1.32,1.62v1.512H-11.76v.792h9.744v-.792ZM2.616-8.712v.792H6.66c-.2,2.556-1.644,4.62-4.536,6l.528.8c3.576-1.752,5-4.488,5-7.6ZM9.828-9.876V.888h.984V-9.876ZM20.9-.048H15.972V-1.44H20.9Zm0-2.16H15.972V-3.564H15V.744h6.888V-3.564H20.9Zm-4.944-3a1.7,1.7,0,0,1-1.836-1.68A1.688,1.688,0,0,1,15.96-8.556,1.688,1.688,0,0,1,17.8-6.888,1.7,1.7,0,0,1,15.96-5.208Zm4.932-4.656v2.556H18.7A2.563,2.563,0,0,0,15.96-9.372a2.531,2.531,0,0,0-2.772,2.484,2.533,2.533,0,0,0,2.772,2.5A2.567,2.567,0,0,0,18.708-6.5h2.184v2.412h1V-9.864Z" transform="translate(160 201)" fill="#989898"/>
      <path id="패스_7342" data-name="패스 7342" d="M-47.944-6.224a4.668,4.668,0,0,1-3.472-4.256v-.56h3.168V-12.1h-7.7v1.056h3.216v.56a5.083,5.083,0,0,1-3.6,4.672l.672,1.04a5.926,5.926,0,0,0,3.616-3.52A5.58,5.58,0,0,0-48.568-5.2ZM-49.688.128c-2.144,0-3.424-.592-3.424-1.616,0-1.008,1.28-1.6,3.424-1.6,2.112,0,3.408.592,3.408,1.6C-46.28-.464-47.576.128-49.688.128Zm0-4.256c-2.944,0-4.736.976-4.736,2.64,0,1.68,1.792,2.656,4.736,2.656,2.912,0,4.72-.976,4.72-2.656C-44.968-3.152-46.776-4.128-49.688-4.128Zm4.56-5.408v-3.616H-46.44V-4.5h1.312V-8.432H-43v-1.1Zm14.016-3.632V1.2H-29.8V-13.168Zm-9.616,1.216v9.68h6.752v-9.68h-1.3V-8.16h-4.16v-3.792Zm1.3,4.832h4.16v3.776h-4.16Zm27.952-6.048h-1.312v8.24h1.312Zm-5.584,5.744h-4.144V-11.2h4.144Zm1.28-4.816h-6.7v5.872h6.7Zm4.64,9.3V-3.952h-4.208V-5.344H-16.68v1.392h-4.208v1.008H-16.7C-16.712-1.52-19-.16-21.448.128l.432,1.008c2.16-.3,4.144-1.264,5.008-2.624A7.067,7.067,0,0,0-11.08,1.136l.448-1.008c-2.464-.3-4.7-1.7-4.72-3.072ZM-.92.208c2.448,0,3.984-1.472,3.984-3.328,0-1.744-1.056-2.544-2.416-3.136l-1.68-.72c-.912-.384-1.936-.816-1.936-1.952,0-1.056.864-1.728,2.192-1.728A3.8,3.8,0,0,1,1.9-9.552L2.68-10.5A4.809,4.809,0,0,0-.776-11.952c-2.128,0-3.7,1.312-3.7,3.12A3.313,3.313,0,0,0-2.088-5.824l1.7.736c1.1.5,1.952.88,1.952,2.08,0,1.152-.928,1.92-2.464,1.92A4.608,4.608,0,0,1-4.152-2.544l-.88,1.008A5.6,5.6,0,0,0-.92.208ZM3.944,2.864H5.016L9.8-12.688H8.744ZM12.936,0H14.7L16.44-7.072c.192-.928.4-1.776.592-2.672H17.1c.192.9.368,1.744.576,2.672L19.448,0h1.776l2.432-11.728H22.232L21-5.344q-.336,1.872-.672,3.792h-.08c-.272-1.28-.544-2.544-.832-3.792l-1.648-6.384H16.424L14.808-5.344c-.288,1.264-.576,2.528-.848,3.792H13.9c-.224-1.264-.464-2.528-.688-3.792l-1.232-6.384H10.44Zm20.4-11.92h-1.3v2.576a7.6,7.6,0,0,1-3.7,6.416l.784,1.056A7.948,7.948,0,0,0,32.7-6.624,7.916,7.916,0,0,0,36.168-2.16l.816-1.04a7.247,7.247,0,0,1-3.648-6.144Zm8.592,4.576H39.56v-5.808H38.248V1.184H39.56v-7.44h2.368ZM49.72.16c-2.256,0-3.584-.56-3.584-1.536s1.328-1.536,3.584-1.536c2.24,0,3.584.56,3.584,1.536S51.96.16,49.72.16Zm0-4.1c-3.072,0-4.912.912-4.912,2.56s1.84,2.544,4.912,2.544c3.088,0,4.912-.9,4.912-2.544S52.808-3.936,49.72-3.936ZM47.736-7.744a12.456,12.456,0,0,0,1.984.16,12.508,12.508,0,0,0,2-.16v1.68H47.736Zm-1.712-2.5c0-1.04,1.408-1.648,3.7-1.648s3.7.608,3.7,1.648c0,1.024-1.408,1.648-3.7,1.648S46.024-9.216,46.024-10.24Zm6.992,4.176V-8.1A2.368,2.368,0,0,0,54.76-10.24c0-1.68-1.92-2.672-5.04-2.672-3.1,0-5.04.992-5.04,2.672a2.362,2.362,0,0,0,1.76,2.16v2.016H43.224v1.056H56.216V-6.064Z" transform="translate(160 178)"/>
      <g id="그룹_10677-2" data-name="그룹 10677" transform="translate(6 -3)">
        <circle id="타원_114-2" data-name="타원 114" cx="14" cy="14" r="14" transform="translate(139 130)" fill="#1a95ce"/>
        <path id="패스_7338" data-name="패스 7338" d="M-3.528.168c1.8,0,3-1.584,3-4.644s-1.2-4.572-3-4.572S-6.54-7.548-6.54-4.476-5.34.168-3.528.168Zm0-1.38c-.768,0-1.344-.768-1.344-3.264s.576-3.2,1.344-3.2,1.332.72,1.332,3.2S-2.772-1.212-3.528-1.212ZM3.288.168c1.692,0,3.12-.948,3.12-2.58A2.219,2.219,0,0,0,4.632-4.6v-.06A2.1,2.1,0,0,0,6.12-6.684c0-1.524-1.164-2.364-2.88-2.364A3.94,3.94,0,0,0,.576-7.956l.9,1.08a2.534,2.534,0,0,1,1.68-.792A1.061,1.061,0,0,1,4.344-6.552c0,.792-.528,1.356-2.16,1.356v1.272c1.932,0,2.448.54,2.448,1.416,0,.792-.612,1.236-1.512,1.236a2.821,2.821,0,0,1-1.98-.912L.312-1.068A3.775,3.775,0,0,0,3.288.168Z" transform="translate(153 149)" fill="#fff"/>
      </g>
    </g>
    <g id="d-2" data-name="d" transform="translate(293 -460)">
      <rect id="사각형_860-2" data-name="사각형 860" width="20" height="20" transform="translate(177 594)" fill="none"/>
      <rect id="사각형_857-2" data-name="사각형 857" width="24" height="24" transform="translate(175 592)" fill="none" opacity="0.4"/>
      <path id="패스_7334-2" data-name="패스 7334" d="M185.752,597.594l6.676,6.677-6.676,6.677" transform="translate(2)" fill="none" stroke="#707070" stroke-width="1"/>
      <path id="패스_7335-2" data-name="패스 7335" d="M192.313,604.27H177" transform="translate(2)" fill="none" stroke="#707070" stroke-width="1"/>
    </g>
    <g id="그룹_10678" data-name="그룹 10678" transform="translate(193 -25)">
      <g id="사각형_1750-3" data-name="사각형 1750" transform="translate(62 115)" fill="#fff" stroke="#1a95ce" stroke-width="2">
        <rect width="195" height="108" rx="54" stroke="none"/>
        <rect x="1" y="1" width="193" height="106" rx="53" fill="none"/>
      </g>
      <path id="패스_7345" data-name="패스 7345" d="M-49.224-5.556a22.755,22.755,0,0,1-4.752.36V-8.364h3.756v-.792h-4.74V-4.38h.84a23.171,23.171,0,0,0,5-.384ZM-52.9-2.424h4.824V-.06H-52.9Zm-.96,3.156H-47.1V-3.2h-6.756Zm8.352-7.98h-1.6v-2.64h-.984V-3.78h.984V-6.432h1.6Zm7.332,1.74a21.477,21.477,0,0,1-4.788.372v-3.12h3.78v-.792h-4.752v4.716h.84A23.453,23.453,0,0,0-38.064-4.7ZM-39.48.084c-1.6,0-2.58-.48-2.58-1.272s.984-1.272,2.58-1.272,2.568.48,2.568,1.272S-37.9.084-39.48.084Zm0-3.336c-2.184,0-3.552.768-3.552,2.064S-41.664.876-39.48.876s3.54-.768,3.54-2.064S-37.308-3.252-39.48-3.252Zm3.432-3.828v-2.8h-1v6.408h1v-2.8h1.584V-7.08Zm6.3-.876h2.388v-.816h-5.82v.816h2.46v1.368a5.627,5.627,0,0,1-2.832,4.632l.576.78A6.076,6.076,0,0,0-30.228-4.74a5.808,5.808,0,0,0,2.7,3.3l.564-.792a5.176,5.176,0,0,1-2.784-4.356Zm6.432,2.424h-1.776V-9.864h-.984V.888h.984V-4.7h1.776Zm3.216,7.9.684-.324a11.062,11.062,0,0,1-1.536-5.772A11.092,11.092,0,0,1-19.416-9.5l-.684-.312a11.207,11.207,0,0,0-1.764,6.084A11.248,11.248,0,0,0-20.1,2.364ZM-13.644-4a7.833,7.833,0,0,0,.1-1.236,7.833,7.833,0,0,0-.1-1.236h1.464V-4Zm-2.208,1.608c-.852,0-1.4-1.092-1.4-2.844s.552-2.832,1.4-2.832,1.4,1.092,1.4,2.832S-14.988-2.388-15.852-2.388Zm3.672-4.884h-1.668a2.155,2.155,0,0,0-2-1.7c-1.392,0-2.292,1.44-2.292,3.744s.9,3.756,2.292,3.756a2.166,2.166,0,0,0,2-1.7h1.668V.36h.936v-10h-.936Zm2.112-2.6V.888h.936V-9.876Zm4,3.192A1.707,1.707,0,0,1-4.224-8.4,1.714,1.714,0,0,1-2.376-6.684,1.721,1.721,0,0,1-4.224-4.968,1.714,1.714,0,0,1-6.072-6.684Zm4.656,0A2.579,2.579,0,0,0-4.224-9.228,2.573,2.573,0,0,0-7.032-6.684,2.58,2.58,0,0,0-4.224-4.14,2.586,2.586,0,0,0-1.416-6.684ZM-5.88-2.172H.132V.888h.984V-2.976h-7ZM2.688-7.416v-.816H1.116V-9.864H.132V-3.48h.984V-5.124H2.688v-.8H1.116V-7.416ZM12.972-6.36C11.064-6.636,9.18-7.848,9.18-9.216V-9.7H8.172v.48c0,1.4-1.872,2.58-3.792,2.856l.36.768A5.445,5.445,0,0,0,8.676-7.944,5.506,5.506,0,0,0,12.6-5.592ZM8.676.12c-1.7,0-2.7-.408-2.7-1.152s1-1.152,2.7-1.152c1.68,0,2.676.42,2.676,1.152S10.356.12,8.676.12Zm0-3.06c-2.3,0-3.7.684-3.7,1.908S6.372.888,8.676.888,12.348.2,12.348-1.032,10.968-2.94,8.676-2.94ZM3.8-4.74v.8h9.732v-.8ZM23.676-9.864h-.984V-2h.984ZM16.056-6.48a1.76,1.76,0,0,1,1.836-1.788,1.766,1.766,0,0,1,1.86,1.788,1.771,1.771,0,0,1-1.86,1.812A1.765,1.765,0,0,1,16.056-6.48Zm4.656,0a2.649,2.649,0,0,0-2.82-2.64,2.635,2.635,0,0,0-2.8,2.64,2.647,2.647,0,0,0,2.8,2.664A2.66,2.66,0,0,0,20.712-6.48ZM17.736-.156V-2.808h-.984V.648H24v-.8Zm7.644,2.3h.8L29.772-9.516H28.98ZM35.052-4.56H32V-6.528h3.048Zm.96-4.536h-.96v1.8H32V-9.1h-.972v5.328h4.98ZM33.228-2.724h-.984V.648H39.42v-.8H33.228ZM38.94-6.612V-9.864h-.984v7.9h.984V-5.784h1.6v-.828ZM43-5.052H46.7V-8.9H42v.792h3.732v2.256H42.024v4.248h.816a28.849,28.849,0,0,0,4.752-.324l-.084-.816A27.37,27.37,0,0,1,43-2.424Zm6.5-4.836v2.46H47.376v.8H49.5v2.148H47.3v.8h2.2V.9h.984V-9.888ZM53.22,2.364A11.155,11.155,0,0,0,55-3.732,11.115,11.115,0,0,0,53.22-9.816l-.672.312a11.207,11.207,0,0,1,1.536,5.772A11.176,11.176,0,0,1,52.548,2.04Z" transform="translate(160 201)" fill="#989898"/>
      <path id="패스_7341" data-name="패스 7341" d="M-40.72-5.328a10.445,10.445,0,0,0,.128-1.648,10.445,10.445,0,0,0-.128-1.648h1.952v3.3Zm-2.944,2.144c-1.136,0-1.872-1.456-1.872-3.792,0-2.32.736-3.776,1.872-3.776,1.152,0,1.872,1.456,1.872,3.776C-41.792-4.64-42.512-3.184-43.664-3.184Zm4.9-6.512h-2.224a2.873,2.873,0,0,0-2.672-2.272c-1.856,0-3.056,1.92-3.056,4.992,0,3.088,1.2,5.008,3.056,5.008,1.248,0,2.16-.832,2.672-2.272h2.224V.48h1.248V-12.848h-1.248Zm2.816-3.472V1.184H-34.7V-13.168Zm5.328,4.256A2.276,2.276,0,0,1-28.16-11.2,2.285,2.285,0,0,1-25.7-8.912,2.294,2.294,0,0,1-28.16-6.624,2.285,2.285,0,0,1-30.624-8.912Zm6.208,0A3.439,3.439,0,0,0-28.16-12.3,3.43,3.43,0,0,0-31.9-8.912,3.439,3.439,0,0,0-28.16-5.52,3.448,3.448,0,0,0-24.416-8.912ZM-30.368-2.9h8.016v4.08h1.312V-3.968h-9.328Zm11.424-6.992v-1.088h-2.1v-2.176h-1.312V-4.64h1.312V-6.832h2.1V-7.9h-2.1V-9.888Zm12.736.448v1.072h2.832v3.76h1.328v-8.544H-3.376V-9.44Zm.8,3.264A4.941,4.941,0,0,1-8.9-10.56v-.5h3.152v-1.056h-7.664v1.056h3.2v.5a5.29,5.29,0,0,1-3.616,4.784l.688,1.04A6.211,6.211,0,0,0-9.52-8.384,5.9,5.9,0,0,0-6.064-5.152ZM-6.784.16c-2.16,0-3.472-.608-3.472-1.648s1.312-1.664,3.472-1.664,3.472.624,3.472,1.664S-4.624.16-6.784.16Zm0-4.32c-2.944,0-4.784.976-4.784,2.672s1.84,2.672,4.784,2.672S-2.016.208-2.016-1.488-3.84-4.16-6.784-4.16ZM3.68-8.512h7.328v2.64H3.68ZM8-1.728V-4.816h4.288v-7.328h-1.28v2.56H3.68v-2.56h-1.3v7.328H6.672v3.088H.848V-.656H13.856V-1.728ZM27.68-11.856H24.224v-1.408H22.912v1.408H19.44v.992h8.24ZM21.456-8.208c0-.752.816-1.216,2.112-1.216,1.264,0,2.1.464,2.1,1.216s-.832,1.232-2.1,1.232C22.272-6.976,21.456-7.456,21.456-8.208Zm6.656,2.752a38.146,38.146,0,0,1-3.888.352V-6.1c1.648-.176,2.688-.944,2.688-2.112,0-1.312-1.344-2.128-3.344-2.128-2.032,0-3.36.816-3.36,2.128,0,1.184,1.04,1.952,2.7,2.112v1.04c-1.376.048-2.688.048-3.824.048l.144,1.056a54.746,54.746,0,0,0,8.976-.56Zm-7.28,3.68H28.96v2.96h1.312v-4h-9.44Zm11.552-7.04H30.272v-4.336H28.96v9.616h1.312V-7.728h2.112Zm13.264-4.336H44.336v10.48h1.312ZM35.488-8.64a2.346,2.346,0,0,1,2.448-2.384,2.355,2.355,0,0,1,2.48,2.384,2.362,2.362,0,0,1-2.48,2.416A2.354,2.354,0,0,1,35.488-8.64Zm6.208,0a3.532,3.532,0,0,0-3.76-3.52,3.513,3.513,0,0,0-3.728,3.52,3.529,3.529,0,0,0,3.728,3.552A3.547,3.547,0,0,0,41.7-8.64ZM37.728-.208V-3.744H36.416V.864H46.08V-.208Z" transform="translate(160 178)"/>
      <g id="그룹_10677-3" data-name="그룹 10677" transform="translate(6 -3)">
        <circle id="타원_114-3" data-name="타원 114" cx="14" cy="14" r="14" transform="translate(139 130)" fill="#1a95ce"/>
        <path id="패스_7337" data-name="패스 7337" d="M-3.528.168c1.8,0,3-1.584,3-4.644s-1.2-4.572-3-4.572S-6.54-7.548-6.54-4.476-5.34.168-3.528.168Zm0-1.38c-.768,0-1.344-.768-1.344-3.264s.576-3.2,1.344-3.2,1.332.72,1.332,3.2S-2.772-1.212-3.528-1.212ZM.516,0H6.468V-1.488H4.536c-.408,0-1,.048-1.44.1C4.716-2.976,6.048-4.7,6.048-6.312a2.6,2.6,0,0,0-2.8-2.736A3.6,3.6,0,0,0,.432-7.7l.96.96a2.3,2.3,0,0,1,1.632-.912,1.274,1.274,0,0,1,1.332,1.44c0,1.368-1.428,3.036-3.84,5.2Z" transform="translate(153 149)" fill="#fff"/>
      </g>
    </g>
    <g id="d-3" data-name="d" transform="translate(38 -460)">
      <rect id="사각형_860-3" data-name="사각형 860" width="20" height="20" transform="translate(177 594)" fill="none"/>
      <rect id="사각형_857-3" data-name="사각형 857" width="24" height="24" transform="translate(175 592)" fill="none" opacity="0.4"/>
      <path id="패스_7334-3" data-name="패스 7334" d="M185.752,597.594l6.676,6.677-6.676,6.677" transform="translate(2)" fill="none" stroke="#707070" stroke-width="1"/>
      <path id="패스_7335-3" data-name="패스 7335" d="M192.313,604.27H177" transform="translate(2)" fill="none" stroke="#707070" stroke-width="1"/>
    </g>
    <g id="그룹_10676" data-name="그룹 10676" transform="translate(-62 -25)">
      <g id="사각형_1750-4" data-name="사각형 1750" transform="translate(62 115)" fill="#fff" stroke="#1a95ce" stroke-width="2">
        <rect width="195" height="108" rx="54" stroke="none"/>
        <rect x="1" y="1" width="193" height="106" rx="53" fill="none"/>
      </g>
      <path id="패스_7344" data-name="패스 7344" d="M-16.392-9.06h-2.592v-.924h-.984v.924h-2.6v.708h6.18ZM-21.06-6.6c0-.48.612-.768,1.584-.768S-17.9-7.08-17.9-6.6s-.612.78-1.572.78S-21.06-6.12-21.06-6.6Zm4.992,1.776c-.924.132-1.932.2-2.916.252V-5.2c1.236-.108,2.016-.612,2.016-1.4,0-.888-1-1.416-2.508-1.416-1.536,0-2.52.528-2.52,1.416,0,.8.78,1.308,2.028,1.4v.66C-21-4.5-22-4.5-22.836-4.5l.108.732a39.565,39.565,0,0,0,6.72-.42ZM-20.424-.852h5.976v-2.2H-21.42v.7h6v.84h-5.964V.768h7.344V.06h-6.384Zm5.976-6.276V-9.876h-.984v6.36h.984V-6.3h1.584v-.828ZM-6.888.12C-8.58.12-9.576-.3-9.576-1.032s1-1.152,2.688-1.152S-4.2-1.764-4.2-1.032-5.208.12-6.888.12Zm0-3.072c-2.3,0-3.684.684-3.684,1.92S-9.192.876-6.888.876-3.2.2-3.2-1.032-4.572-2.952-6.888-2.952ZM-8.376-5.808a9.342,9.342,0,0,0,1.488.12,9.381,9.381,0,0,0,1.5-.12v1.26H-8.376ZM-9.66-7.68c0-.78,1.056-1.236,2.772-1.236s2.772.456,2.772,1.236S-5.172-6.444-6.888-6.444-9.66-6.912-9.66-7.68Zm5.244,3.132V-6.072A1.776,1.776,0,0,0-3.108-7.68c0-1.26-1.44-2-3.78-2s-3.78.744-3.78,2a1.771,1.771,0,0,0,1.32,1.62v1.512H-11.76v.792h9.744v-.792ZM2.616-8.712v.792H6.66c-.2,2.556-1.644,4.62-4.536,6l.528.8c3.576-1.752,5-4.488,5-7.6ZM9.828-9.876V.888h.984V-9.876ZM20.9-.048H15.972V-1.44H20.9Zm0-2.16H15.972V-3.564H15V.744h6.888V-3.564H20.9Zm-4.944-3a1.7,1.7,0,0,1-1.836-1.68A1.688,1.688,0,0,1,15.96-8.556,1.688,1.688,0,0,1,17.8-6.888,1.7,1.7,0,0,1,15.96-5.208Zm4.932-4.656v2.556H18.7A2.563,2.563,0,0,0,15.96-9.372a2.531,2.531,0,0,0-2.772,2.484,2.533,2.533,0,0,0,2.772,2.5A2.567,2.567,0,0,0,18.708-6.5h2.184v2.412h1V-9.864Z" transform="translate(160 201)" fill="#989898"/>
      <path id="패스_7340" data-name="패스 7340" d="M-64.456-6.224a4.668,4.668,0,0,1-3.472-4.256v-.56h3.168V-12.1h-7.7v1.056h3.216v.56a5.083,5.083,0,0,1-3.6,4.672l.672,1.04a5.926,5.926,0,0,0,3.616-3.52A5.58,5.58,0,0,0-65.08-5.2ZM-66.2.128c-2.144,0-3.424-.592-3.424-1.616,0-1.008,1.28-1.6,3.424-1.6,2.112,0,3.408.592,3.408,1.6C-62.792-.464-64.088.128-66.2.128Zm0-4.256c-2.944,0-4.736.976-4.736,2.64,0,1.68,1.792,2.656,4.736,2.656,2.912,0,4.72-.976,4.72-2.656C-61.48-3.152-63.288-4.128-66.2-4.128Zm4.56-5.408v-3.616h-1.312V-4.5h1.312V-8.432h2.128v-1.1Zm14.016-3.632V1.2h1.312V-13.168Zm-9.616,1.216v9.68h6.752v-9.68h-1.3V-8.16h-4.16v-3.792Zm1.3,4.832h4.16v3.776h-4.16Zm27.952-6.048H-29.3v8.24h1.312Zm-5.584,5.744H-37.72V-11.2h4.144Zm1.28-4.816H-39v5.872h6.7Zm4.64,9.3V-3.952h-4.208V-5.344h-1.328v1.392H-37.4v1.008h4.192C-33.224-1.52-35.512-.16-37.96.128l.432,1.008c2.16-.3,4.144-1.264,5.008-2.624a7.067,7.067,0,0,0,4.928,2.624l.448-1.008c-2.464-.3-4.7-1.7-4.72-3.072ZM-17.432.208c2.448,0,3.984-1.472,3.984-3.328,0-1.744-1.056-2.544-2.416-3.136l-1.68-.72c-.912-.384-1.936-.816-1.936-1.952,0-1.056.864-1.728,2.192-1.728a3.8,3.8,0,0,1,2.672,1.1l.784-.944a4.809,4.809,0,0,0-3.456-1.456c-2.128,0-3.7,1.312-3.7,3.12A3.313,3.313,0,0,0-18.6-5.824l1.7.736c1.1.5,1.952.88,1.952,2.08,0,1.152-.928,1.92-2.464,1.92a4.608,4.608,0,0,1-3.248-1.456l-.88,1.008A5.6,5.6,0,0,0-17.432.208Zm4.864,2.656H-11.5l4.784-15.552H-7.768ZM-3.576,0h1.76L-.072-7.072C.12-8,.328-8.848.52-9.744H.584c.192.9.368,1.744.576,2.672L2.936,0H4.712L7.144-11.728H5.72L4.488-5.344q-.336,1.872-.672,3.792h-.08C3.464-2.832,3.192-4.1,2.9-5.344L1.256-11.728H-.088L-1.7-5.344c-.288,1.264-.576,2.528-.848,3.792h-.064C-2.84-2.816-3.08-4.08-3.3-5.344l-1.232-6.384H-6.072Zm21.76-5.328a10.444,10.444,0,0,0,.128-1.648,10.444,10.444,0,0,0-.128-1.648h1.952v3.3ZM15.24-3.184c-1.136,0-1.872-1.456-1.872-3.792,0-2.32.736-3.776,1.872-3.776,1.152,0,1.872,1.456,1.872,3.776C17.112-4.64,16.392-3.184,15.24-3.184Zm4.9-6.512H17.912a2.873,2.873,0,0,0-2.672-2.272c-1.856,0-3.056,1.92-3.056,4.992,0,3.088,1.2,5.008,3.056,5.008,1.248,0,2.16-.832,2.672-2.272h2.224V.48h1.248V-12.848H20.136Zm2.816-3.472V1.184H24.2V-13.168ZM28.28-8.912A2.276,2.276,0,0,1,30.744-11.2a2.285,2.285,0,0,1,2.464,2.288,2.294,2.294,0,0,1-2.464,2.288A2.285,2.285,0,0,1,28.28-8.912Zm6.208,0A3.439,3.439,0,0,0,30.744-12.3,3.43,3.43,0,0,0,27-8.912,3.439,3.439,0,0,0,30.744-5.52,3.448,3.448,0,0,0,34.488-8.912ZM28.536-2.9h8.016v4.08h1.312V-3.968H28.536ZM39.96-9.888v-1.088h-2.1v-2.176H36.552V-4.64h1.312V-6.832h2.1V-7.9h-2.1V-9.888Zm16.848-3.28H55.5V-2.64h1.312ZM53.672-6.016a5.324,5.324,0,0,1-3.584-4.9v-1.456H48.776v1.456a5.592,5.592,0,0,1-3.6,5.152l.688,1.072a6.439,6.439,0,0,0,3.584-3.84,6.186,6.186,0,0,0,3.536,3.552ZM48.888-.208V-3.616H47.576V.864H57.24V-.208Zm18.5-8.88V-8h2.864v3.536h1.328v-8.7H70.248v4.08Zm.864,3.008c-2.112-.64-3.6-2.24-3.6-4.032v-.272h3.168V-11.44H64.648v-1.792H63.336v1.792H60.152v1.056h3.184v.272a4.87,4.87,0,0,1-3.552,4.4l.64,1.008a5.717,5.717,0,0,0,3.6-3.344A5.821,5.821,0,0,0,67.64-5.072ZM66.824.144c-2.16,0-3.456-.608-3.456-1.616,0-.992,1.3-1.6,3.456-1.6,2.192,0,3.488.608,3.488,1.6C70.312-.464,69.016.144,66.824.144Zm0-4.24c-2.944,0-4.768.96-4.768,2.624,0,1.68,1.824,2.64,4.768,2.64,2.976,0,4.8-.96,4.8-2.64C71.624-3.136,69.8-4.1,66.824-4.1Z" transform="translate(160 178)"/>
      <g id="그룹_10677-4" data-name="그룹 10677" transform="translate(6 -3)">
        <circle id="타원_114-4" data-name="타원 114" cx="14" cy="14" r="14" transform="translate(139 130)" fill="#1a95ce"/>
        <path id="패스_7336" data-name="패스 7336" d="M-3.528.168c1.8,0,3-1.584,3-4.644s-1.2-4.572-3-4.572S-6.54-7.548-6.54-4.476-5.34.168-3.528.168Zm0-1.38c-.768,0-1.344-.768-1.344-3.264s.576-3.2,1.344-3.2,1.332.72,1.332,3.2S-2.772-1.212-3.528-1.212ZM.984,0h5.34V-1.428H4.656V-8.88H3.348a5.76,5.76,0,0,1-2.064.744v1.092H2.892v5.616H.984Z" transform="translate(153 149)" fill="#fff"/>
      </g>
    </g>
  </g>
</svg>
