<svg xmlns="http://www.w3.org/2000/svg" width="328" height="779" viewBox="0 0 328 779">
    <g data-name="구성 요소 109 – 5">
        <g data-name="사각형 1750" style="stroke:#1a95ce;stroke-width:2px;fill:#1a95ce" transform="translate(0 702)">
            <rect width="328" height="77" rx="38.5" style="stroke:none"/>
            <rect x="1" y="1" width="326" height="75" rx="37.5" style="fill:none"/>
        </g>
        <text data-name="의뢰 기업(분석데이터 확인)" transform="translate(68 755)" style="font-family:NotoSansCJKkr-Regular,Noto Sans CJK KR;font-size:12px;fill:#b3d3e2"><tspan x="0" y="0">의뢰 기업(분석데이터 확인)</tspan></text>
        <text data-name="분석료 납부" transform="translate(68 736)" style="font-size:14px;fill:#fff;font-family:NotoSansCJKkr-Regular,Noto Sans CJK KR"><tspan x="0" y="0">분석료 납부</tspan></text>
        <g data-name="그룹 10677" transform="translate(-111 596)">
            <circle data-name="타원 114" cx="14" cy="14" r="14" transform="translate(139 130)" style="fill:#fff"/>
            <text data-name="7" transform="translate(153 149)" style="font-family:NotoSansCJKkr-Bold,Noto Sans CJK KR;font-weight:700;font-size:12px;fill:#1a95ce"><tspan x="-7.068" y="0">07</tspan></text>
        </g>
    </g>
    <path data-name="사각형 860" transform="rotate(90 -249 423)" style="fill:none" d="M0 0h20v20H0z"/>
    <path data-name="사각형 857" transform="rotate(90 -247 423)" style="opacity:.4;fill:none" d="M0 0h24v24H0z"/>
    <path data-name="패스 7334" d="m185.752 597.594 6.676 6.677-6.676 6.677" transform="rotate(90 135.5 632.5)" style="stroke:#707070;fill:none"/>
    <path data-name="패스 7335" d="M192.313 604.27H177" transform="rotate(90 135.5 632.5)" style="stroke:#707070;fill:none"/>
    <g data-name="구성 요소 109 – 11">
        <g data-name="사각형 1750" style="fill:#fff;stroke:#1a95ce;stroke-width:2px" transform="translate(0 585)">
            <rect width="328" height="77" rx="38.5" style="stroke:none"/>
            <rect x="1" y="1" width="326" height="75" rx="37.5" style="fill:none"/>
        </g>
        <text data-name="의뢰 기업(분석데이터 다운로드)" transform="translate(68 638)" style="fill:#989898;font-family:NotoSansCJKkr-Regular,Noto Sans CJK KR;font-size:12px"><tspan x="0" y="0">의뢰 기업(분석데이터 다운로드)</tspan></text>
        <text transform="translate(68 619)" style="font-size:14px;font-family:NotoSansCJKkr-Regular,Noto Sans CJK KR"><tspan x="0" y="0">결과보고서</tspan></text>
        <g data-name="그룹 10677" transform="translate(-111 479)">
            <circle data-name="타원 114" cx="14" cy="14" r="14" transform="translate(139 130)" style="fill:#1a95ce"/>
            <text data-name="6" transform="translate(153 149)" style="font-family:NotoSansCJKkr-Bold,Noto Sans CJK KR;font-weight:700;fill:#fff;font-size:12px"><tspan x="-7.068" y="0">06</tspan></text>
        </g>
    </g>
    <g data-name="d">
        <path data-name="사각형 860" transform="rotate(90 -190.5 364.5)" style="fill:none" d="M0 0h20v20H0z"/>
        <path data-name="사각형 857" transform="rotate(90 -188.5 364.5)" style="opacity:.4;fill:none" d="M0 0h24v24H0z"/>
        <path data-name="패스 7334" d="m185.752 597.594 6.676 6.677-6.676 6.677" transform="rotate(90 194 574)" style="stroke:#707070;fill:none"/>
        <path data-name="패스 7335" d="M192.313 604.27H177" transform="rotate(90 194 574)" style="stroke:#707070;fill:none"/>
    </g>
    <g data-name="구성 요소 109 – 10">
        <g data-name="사각형 1750" style="fill:#fff;stroke:#1a95ce;stroke-width:2px" transform="translate(0 468)">
            <rect width="328" height="77" rx="38.5" style="stroke:none"/>
            <rect x="1" y="1" width="326" height="75" rx="37.5" style="fill:none"/>
        </g>
        <text data-name="장비 담당자(세금계산서 발행)" transform="translate(68 521)" style="fill:#989898;font-family:NotoSansCJKkr-Regular,Noto Sans CJK KR;font-size:12px"><tspan x="0" y="0">장비 담당자(세금계산서 발행)</tspan></text>
        <text data-name="결제 요청" transform="translate(68 502)" style="font-size:14px;font-family:NotoSansCJKkr-Regular,Noto Sans CJK KR"><tspan x="0" y="0">결제 요청</tspan></text>
        <g data-name="그룹 10677" transform="translate(-111 362)">
            <circle data-name="타원 114" cx="14" cy="14" r="14" transform="translate(139 130)" style="fill:#1a95ce"/>
            <text data-name="5" transform="translate(153 149)" style="font-family:NotoSansCJKkr-Bold,Noto Sans CJK KR;font-weight:700;fill:#fff;font-size:12px"><tspan x="-7.068" y="0">05</tspan></text>
        </g>
    </g>
    <g data-name="d">
        <path data-name="사각형 860" transform="rotate(90 -132 306)" style="fill:none" d="M0 0h20v20H0z"/>
        <path data-name="사각형 857" transform="rotate(90 -130 306)" style="opacity:.4;fill:none" d="M0 0h24v24H0z"/>
        <path data-name="패스 7334" d="m185.752 597.594 6.676 6.677-6.676 6.677" transform="rotate(90 252.5 515.5)" style="stroke:#707070;fill:none"/>
        <path data-name="패스 7335" d="M192.313 604.27H177" transform="rotate(90 252.5 515.5)" style="stroke:#707070;fill:none"/>
    </g>
    <g data-name="구성 요소 109 – 9">
        <g data-name="사각형 1750" style="fill:#fff;stroke:#1a95ce;stroke-width:2px" transform="translate(0 351)">
            <rect width="328" height="77" rx="38.5" style="stroke:none"/>
            <rect x="1" y="1" width="326" height="75" rx="37.5" style="fill:none"/>
        </g>
        <text data-name="장비 담당자(시료 분석)" transform="translate(68 404)" style="fill:#989898;font-family:NotoSansCJKkr-Regular,Noto Sans CJK KR;font-size:12px"><tspan x="0" y="0">장비 담당자(시료 분석)</tspan></text>
        <text transform="translate(68 385)" style="font-size:14px;font-family:NotoSansCJKkr-Regular,Noto Sans CJK KR"><tspan x="0" y="0">분석</tspan></text>
        <g data-name="그룹 10677" transform="translate(-111 245)">
            <circle data-name="타원 114" cx="14" cy="14" r="14" transform="translate(139 130)" style="fill:#1a95ce"/>
            <text data-name="4" transform="translate(153 149)" style="font-family:NotoSansCJKkr-Bold,Noto Sans CJK KR;font-weight:700;fill:#fff;font-size:12px"><tspan x="-7.068" y="0">04</tspan></text>
        </g>
    </g>
    <g data-name="d">
        <path data-name="사각형 860" transform="rotate(90 -73.5 247.5)" style="fill:none" d="M0 0h20v20H0z"/>
        <path data-name="사각형 857" transform="rotate(90 -71.5 247.5)" style="opacity:.4;fill:none" d="M0 0h24v24H0z"/>
        <path data-name="패스 7334" d="m185.752 597.594 6.676 6.677-6.676 6.677" transform="rotate(90 311 457)" style="stroke:#707070;fill:none"/>
        <path data-name="패스 7335" d="M192.313 604.27H177" transform="rotate(90 311 457)" style="stroke:#707070;fill:none"/>
    </g>
    <g data-name="구성 요소 109 – 6">
        <g data-name="사각형 1750" style="fill:#fff;stroke:#1a95ce;stroke-width:2px" transform="translate(0 234)">
            <rect width="328" height="77" rx="38.5" style="stroke:none"/>
            <rect x="1" y="1" width="326" height="75" rx="37.5" style="fill:none"/>
        </g>
        <text data-name="의뢰 기업(택배, 등기, 직접 접수)" transform="translate(68 287)" style="fill:#989898;font-family:NotoSansCJKkr-Regular,Noto Sans CJK KR;font-size:12px"><tspan x="0" y="0">의뢰 기업(택배, 등기, 직접 접수)</tspan></text>
        <text data-name="시료 접수" transform="translate(68 268)" style="font-size:14px;font-family:NotoSansCJKkr-Regular,Noto Sans CJK KR"><tspan x="0" y="0">시료 접수</tspan></text>
        <g data-name="그룹 10677" transform="translate(-111 128)">
            <circle data-name="타원 114" cx="14" cy="14" r="14" transform="translate(139 130)" style="fill:#1a95ce"/>
            <text data-name="3" transform="translate(153 149)" style="font-family:NotoSansCJKkr-Bold,Noto Sans CJK KR;font-weight:700;fill:#fff;font-size:12px"><tspan x="-7.068" y="0">03</tspan></text>
        </g>
    </g>
    <g data-name="d">
        <path data-name="사각형 860" transform="rotate(90 -15 189)" style="fill:none" d="M0 0h20v20H0z"/>
        <path data-name="사각형 857" transform="rotate(90 -13 189)" style="opacity:.4;fill:none" d="M0 0h24v24H0z"/>
        <path data-name="패스 7334" d="m185.752 597.594 6.676 6.677-6.676 6.677" transform="rotate(90 369.5 398.5)" style="stroke:#707070;fill:none"/>
        <path data-name="패스 7335" d="M192.313 604.27H177" transform="rotate(90 369.5 398.5)" style="stroke:#707070;fill:none"/>
    </g>
    <g data-name="구성 요소 109 – 7">
        <g data-name="사각형 1750" style="fill:#fff;stroke:#1a95ce;stroke-width:2px" transform="translate(0 117)">
            <rect width="328" height="77" rx="38.5" style="stroke:none"/>
            <rect x="1" y="1" width="326" height="75" rx="37.5" style="fill:none"/>
        </g>
        <text data-name="장비 담당자(분석의뢰서, 상담)" transform="translate(68 170)" style="fill:#989898;font-family:NotoSansCJKkr-Regular,Noto Sans CJK KR;font-size:12px"><tspan x="0" y="0">장비 담당자(분석의뢰서, 상담)</tspan></text>
        <text data-name="분석료 견적" transform="translate(68 151)" style="font-size:14px;font-family:NotoSansCJKkr-Regular,Noto Sans CJK KR"><tspan x="0" y="0">분석료 견적</tspan></text>
        <g data-name="그룹 10677" transform="translate(-111 11)">
            <circle data-name="타원 114" cx="14" cy="14" r="14" transform="translate(139 130)" style="fill:#1a95ce"/>
            <text data-name="2" transform="translate(153 149)" style="font-family:NotoSansCJKkr-Bold,Noto Sans CJK KR;font-weight:700;fill:#fff;font-size:12px"><tspan x="-7.068" y="0">02</tspan></text>
        </g>
    </g>
    <g data-name="d">
        <path data-name="사각형 860" transform="rotate(90 43.5 130.5)" style="fill:none" d="M0 0h20v20H0z"/>
        <path data-name="사각형 857" transform="rotate(90 45.5 130.5)" style="opacity:.4;fill:none" d="M0 0h24v24H0z"/>
        <path data-name="패스 7334" d="m185.752 597.594 6.676 6.677-6.676 6.677" transform="rotate(90 428 340)" style="stroke:#707070;fill:none"/>
        <path data-name="패스 7335" d="M192.313 604.27H177" transform="rotate(90 428 340)" style="stroke:#707070;fill:none"/>
    </g>
    <g data-name="구성 요소 109 – 8">
        <g data-name="사각형 1750" style="fill:#fff;stroke:#1a95ce;stroke-width:2px">
            <rect width="328" height="77" rx="38.5" style="stroke:none"/>
            <rect x="1" y="1" width="326" height="75" rx="37.5" style="fill:none"/>
        </g>
        <text data-name="의뢰 기업" transform="translate(68 53)" style="fill:#989898;font-family:NotoSansCJKkr-Regular,Noto Sans CJK KR;font-size:12px"><tspan x="0" y="0">의뢰 기업</tspan></text>
        <text data-name="시험분석의뢰 신청" transform="translate(68 34)" style="font-size:14px;font-family:NotoSansCJKkr-Regular,Noto Sans CJK KR"><tspan x="0" y="0">시험분석의뢰 신청</tspan></text>
        <g data-name="그룹 10677" transform="translate(-111 -106)">
            <circle data-name="타원 114" cx="14" cy="14" r="14" transform="translate(139 130)" style="fill:#1a95ce"/>
            <text data-name="1" transform="translate(153 149)" style="font-family:NotoSansCJKkr-Bold,Noto Sans CJK KR;font-weight:700;fill:#fff;font-size:12px"><tspan x="-7.068" y="0">01</tspan></text>
        </g>
    </g>
</svg>
