<svg xmlns="http://www.w3.org/2000/svg" width="960" height="248" viewBox="0 0 960 248">
  <g id="그룹_10682" data-name="그룹 10682" transform="translate(-340 -513)">
    <g id="text" transform="translate(595 563)">
      <g id="그룹_10679" data-name="그룹 10679" transform="translate(448 -25)">
        <g id="사각형_1750" data-name="사각형 1750" transform="translate(62 115)" fill="#fff" stroke="#1a95ce" stroke-width="2">
          <rect width="195" height="108" rx="54" stroke="none"/>
          <rect x="1" y="1" width="193" height="106" rx="53" fill="none"/>
        </g>
        <path id="패스_7362" data-name="패스 7362" d="M-66.108-4.668a3.5,3.5,0,0,1-2.6-3.192v-.42h2.376v-.792h-5.772v.792H-69.7v.42a3.812,3.812,0,0,1-2.7,3.5l.5.78a4.444,4.444,0,0,0,2.712-2.64,4.185,4.185,0,0,0,2.6,2.316ZM-67.416.1c-1.608,0-2.568-.444-2.568-1.212s.96-1.2,2.568-1.2c1.584,0,2.556.444,2.556,1.2S-65.832.1-67.416.1Zm0-3.192c-2.208,0-3.552.732-3.552,1.98S-69.624.876-67.416.876c2.184,0,3.54-.732,3.54-1.992S-65.232-3.1-67.416-3.1ZM-64-7.152V-9.864h-.984v6.492H-64V-6.324h1.6v-.828Zm10.512-2.724V.9h.984V-9.876Zm-7.212.912V-1.7h5.064v-7.26H-56.6V-6.12h-3.12V-8.964Zm.972,3.624h3.12v2.832h-3.12Zm18.372-.216A22.755,22.755,0,0,1-46.1-5.2V-8.364h3.756v-.792h-4.74V-4.38h.84a23.171,23.171,0,0,0,5-.384Zm-3.672,3.132H-40.2V-.06h-4.824Zm-.96,3.156h6.756V-3.2h-6.756Zm8.352-7.98h-1.6v-2.64h-.984V-3.78h.984V-6.432h1.6Zm7.332,1.74a21.477,21.477,0,0,1-4.788.372v-3.12h3.78v-.792H-36.06v4.716h.84A23.453,23.453,0,0,0-30.192-4.7ZM-31.608.084c-1.6,0-2.58-.48-2.58-1.272s.984-1.272,2.58-1.272,2.568.48,2.568,1.272S-30.024.084-31.608.084Zm0-3.336c-2.184,0-3.552.768-3.552,2.064S-33.792.876-31.608.876s3.54-.768,3.54-2.064S-29.436-3.252-31.608-3.252Zm3.432-3.828v-2.8h-1v6.408h1v-2.8h1.584V-7.08Zm6.3-.876h2.388v-.816h-5.82v.816h2.46v1.368A5.627,5.627,0,0,1-25.68-1.956l.576.78A6.076,6.076,0,0,0-22.356-4.74a5.808,5.808,0,0,0,2.7,3.3l.564-.792a5.176,5.176,0,0,1-2.784-4.356Zm6.432,2.424H-17.22V-9.864H-18.2V.888h.984V-4.7h1.776Zm3.216,7.9.684-.324A11.062,11.062,0,0,1-13.08-3.732,11.092,11.092,0,0,1-11.544-9.5l-.684-.312a11.207,11.207,0,0,0-1.764,6.084A11.248,11.248,0,0,0-12.228,2.364Zm5.016-11.22H-8.16V-6.8A5.464,5.464,0,0,1-10.524-2.16l.612.744A5.512,5.512,0,0,0-7.68-4.728,5.261,5.261,0,0,0-5.556-1.656l.564-.768A5.234,5.234,0,0,1-7.212-6.84ZM-4.38-6.012H-6.156V-5.2H-4.38V.36h.924v-10H-4.38ZM-2.2-9.876V.888h.936V-9.876ZM2.8-2.292H8.208V-.048H2.8ZM1.836.744H9.18V-3.084H1.836ZM8.856-5.34a13.815,13.815,0,0,0,.288-3.168V-9.3H1.872v.792h6.3A12.784,12.784,0,0,1,7.86-5.34H.624v.792H10.4V-5.34Zm8.868-1.536h-1.6a9.272,9.272,0,0,0,.144-1.632H12.144v.8H15.3a6.886,6.886,0,0,1-3.636,5.568l.576.7a7.745,7.745,0,0,0,3.708-4.644h1.776v1.9H15.78v.8h1.944V.336h.936V-9.588h-.936Zm2.16-3V.876h.936V-9.876Zm9.108,5.412A3.768,3.768,0,0,1,26.34-7.872V-9.228h-.984V-7.9a3.911,3.911,0,0,1-2.688,3.7l.516.78a4.465,4.465,0,0,0,2.688-2.736A4.527,4.527,0,0,0,28.5-3.684ZM25.38-2.688H24.4V.648h7.14v-.8H25.38Zm5.688-3.888V-9.888h-.984v7.956h.984V-5.76h1.6v-.816Zm6.456-2.376H36.54V-7.02a5.686,5.686,0,0,1-2.784,4.848l.6.78a5.972,5.972,0,0,0,2.676-3.6,5.766,5.766,0,0,0,2.7,3.408l.576-.78A5.366,5.366,0,0,1,37.524-7.02Zm4.116-.924v3.648h-2.5v.8h2.5V.9h.984V-9.876ZM51.948-5.52H48.9V-7.128h3.048Zm.96-3.912h-.96v1.548H48.9V-9.432h-.972v4.7h4.98ZM49.992-1.188h5.844V-3.8H49v.78h5.868v1.1H49.032V.768h7.2v-.78h-6.24ZM55.836-7.56v-2.3h-.984v5.556h.984V-6.744h1.6V-7.56Zm9.456,1.416H66.66V-3.06h.948V-9.876H66.66v2.928H65.292V-9.66h-.936v6.216h.936ZM63.936-8.592H61.692v-1.2H60.72v1.2H58.464v.78h5.472ZM59.8-5.412c0-.66.564-1.1,1.416-1.1s1.416.444,1.416,1.1S62.052-4.3,61.212-4.3,59.8-4.74,59.8-5.412Zm3.708,0c0-1.1-.936-1.836-2.292-1.836s-2.3.732-2.3,1.836c0,1.128.948,1.848,2.3,1.848S63.5-4.284,63.5-5.412ZM64.068.12C62.424.12,61.44-.288,61.44-1s.984-1.128,2.628-1.128S66.684-1.716,66.684-1,65.7.12,64.068.12Zm0-3c-2.244,0-3.6.672-3.6,1.884S61.824.876,64.068.876,67.668.2,67.668-1,66.312-2.88,64.068-2.88Zm6.048,5.244a11.155,11.155,0,0,0,1.776-6.1,11.115,11.115,0,0,0-1.776-6.084l-.672.312A11.207,11.207,0,0,1,70.98-3.732,11.176,11.176,0,0,1,69.444,2.04Z" transform="translate(160 201)" fill="#989898"/>
        <path id="패스_7361" data-name="패스 7361" d="M-19.888-10.064v1.712h-3.744v1.024h3.744V-5.84h1.328v-7.328h-1.328v2.08h-3.248a6.475,6.475,0,0,0,.144-1.376h-6.416v1.072h4.992c-.24,2.272-2.24,3.984-5.744,4.8l.48,1.072c3.168-.752,5.36-2.288,6.256-4.544ZM-26.48,0V-1.664h7.92v-3.52h-9.248v1.056h7.936v1.472h-7.9v3.7h9.7V0Zm15.024-10.416H-8.9v-1.072H-15.44v1.072h2.72v1.3c0,2.64-1.12,5.248-3.12,6.448l.8.976A7.43,7.43,0,0,0-12.08-6.24,6.862,6.862,0,0,0-9.2-2.048l.8-.96c-1.984-1.12-3.056-3.616-3.056-6.112Zm3.84,2.4H-9.984v1.072h2.368V.432h1.248v-13.28H-7.616Zm2.88-5.168V1.168h1.264V-13.184ZM7.136-5.12A8.555,8.555,0,0,0,9.12-4.9a8.839,8.839,0,0,0,2.016-.224v3.376h-4ZM9.12-11.232c2.3,0,3.968,1.056,3.968,2.656S11.424-5.92,9.12-5.92,5.168-6.976,5.168-8.576,6.816-11.232,9.12-11.232Zm3.328,9.488V-5.632a3.253,3.253,0,0,0,1.888-2.944c0-2.24-2.16-3.68-5.216-3.68-3.04,0-5.216,1.44-5.216,3.68a3.28,3.28,0,0,0,1.92,2.96v3.872h-3.2V-.656h13.04V-1.744ZM24.992-9.088V-8h2.864v3.536h1.328v-8.7H27.856v4.08Zm.864,3.008c-2.112-.64-3.6-2.24-3.6-4.032v-.272h3.168V-11.44H22.256v-1.792H20.944v1.792H17.76v1.056h3.184v.272a4.87,4.87,0,0,1-3.552,4.4l.64,1.008a5.717,5.717,0,0,0,3.6-3.344,5.821,5.821,0,0,0,3.616,2.976ZM24.432.144c-2.16,0-3.456-.608-3.456-1.616,0-.992,1.3-1.6,3.456-1.6,2.192,0,3.488.608,3.488,1.6C27.92-.464,26.624.144,24.432.144Zm0-4.24c-2.944,0-4.768.96-4.768,2.624,0,1.68,1.824,2.64,4.768,2.64,2.976,0,4.8-.96,4.8-2.64C29.232-3.136,27.408-4.1,24.432-4.1Z" transform="translate(160 178)"/>
        <g id="그룹_10677" data-name="그룹 10677" transform="translate(6 -3)">
          <circle id="타원_114" data-name="타원 114" cx="14" cy="14" r="14" transform="translate(139 130)" fill="#1a95ce"/>
          <path id="패스_7360" data-name="패스 7360" d="M-3.528.168c1.8,0,3-1.584,3-4.644s-1.2-4.572-3-4.572S-6.54-7.548-6.54-4.476-5.34.168-3.528.168Zm0-1.38c-.768,0-1.344-.768-1.344-3.264s.576-3.2,1.344-3.2,1.332.72,1.332,3.2S-2.772-1.212-3.528-1.212ZM3.312.168A3,3,0,0,0,6.42-2.952a2.579,2.579,0,0,0-2.736-2.82,2.3,2.3,0,0,0-1.068.252L2.784-7.4H6.012V-8.88H1.26L1.02-4.572l.8.528a2.125,2.125,0,0,1,1.332-.468A1.437,1.437,0,0,1,4.656-2.9,1.491,1.491,0,0,1,3.084-1.272a2.76,2.76,0,0,1-1.956-.9L.312-1.044A4.047,4.047,0,0,0,3.312.168Z" transform="translate(153 149)" fill="#fff"/>
        </g>
      </g>
      <g id="d" transform="translate(667 132)">
        <rect id="사각형_860" data-name="사각형 860" width="20" height="20" transform="translate(-197 2)" fill="none"/>
        <rect id="사각형_857" data-name="사각형 857" width="24" height="24" transform="translate(-199)" fill="none" opacity="0.4"/>
        <path id="패스_7334" data-name="패스 7334" d="M192.428,597.594l-6.676,6.677,6.676,6.677" transform="translate(-380.18 -592)" fill="none" stroke="#707070" stroke-width="1"/>
        <path id="패스_7335" data-name="패스 7335" d="M177,604.27h15.313" transform="translate(-371.313 -592)" fill="none" stroke="#707070" stroke-width="1"/>
      </g>
      <g id="그룹_10678" data-name="그룹 10678" transform="translate(193 -25)">
        <g id="사각형_1750-2" data-name="사각형 1750" transform="translate(62 115)" fill="#fff" stroke="#1a95ce" stroke-width="2">
          <rect width="195" height="108" rx="54" stroke="none"/>
          <rect x="1" y="1" width="193" height="106" rx="53" fill="none"/>
        </g>
        <path id="패스_7365" data-name="패스 7365" d="M-74.376-9.084a2.607,2.607,0,0,0-2.88,2.532,2.614,2.614,0,0,0,2.88,2.532A2.607,2.607,0,0,0-71.5-6.552,2.6,2.6,0,0,0-74.376-9.084Zm0,.84a1.739,1.739,0,0,1,1.92,1.692,1.746,1.746,0,0,1-1.92,1.692A1.746,1.746,0,0,1-76.3-6.552,1.739,1.739,0,0,1-74.376-8.244Zm4.3-1.632V.912h.984V-9.876Zm-7.6,8.424A38.458,38.458,0,0,0-70.7-1.92l-.084-.732A48.467,48.467,0,0,1-77.8-2.28ZM-62.76-3.888h2.46v-.78H-65V-6.036h4.4V-8.88H-66v.78h4.428v1.32h-4.392v2.892h2.22v1.824c-1.056.036-2.088.036-3.012.036l.12.828a47.66,47.66,0,0,0,6.972-.408l-.072-.72c-.972.12-1.992.18-3.024.228Zm3.72-6V.912h.984v-10.8Zm6.576,1.176v.792h4.044c-.2,2.556-1.644,4.62-4.536,6l.528.8c3.576-1.752,5-4.488,5-7.6Zm7.212-1.164V.888h.984V-9.876ZM-34.176-.048h-4.932V-1.44h4.932Zm0-2.16h-4.932V-3.564h-.972V.744h6.888V-3.564h-.984Zm-4.944-3a1.7,1.7,0,0,1-1.836-1.68A1.688,1.688,0,0,1-39.12-8.556a1.688,1.688,0,0,1,1.836,1.668A1.7,1.7,0,0,1-39.12-5.208Zm4.932-4.656v2.556h-2.2A2.563,2.563,0,0,0-39.12-9.372a2.531,2.531,0,0,0-2.772,2.484,2.533,2.533,0,0,0,2.772,2.5A2.567,2.567,0,0,0-36.372-6.5h2.184v2.412h1V-9.864Zm5.4,12.228.684-.324A11.062,11.062,0,0,1-29.64-3.732,11.092,11.092,0,0,1-28.1-9.5l-.684-.312a11.207,11.207,0,0,0-1.764,6.084A11.248,11.248,0,0,0-28.788,2.364Zm9.312-8.376h-5.232V-7.4h5.232Zm.972-3.516h-.972V-8.16h-5.232V-9.528h-.972v4.3H-18.5ZM-24.768-2.28h-.972V.648h7.44v-.8h-6.468Zm-2.22-1.908V-3.4h4.476v2.088h.984V-3.4h4.32v-.792Zm17.352-.564A3.764,3.764,0,0,1-12.264-8.16V-9.336h-.984V-8.2a3.909,3.909,0,0,1-2.664,3.672l.516.792a4.592,4.592,0,0,0,2.664-2.724,4.545,4.545,0,0,0,2.568,2.484Zm-4.632,2.628h6.216V.9h1V-2.916h-7.212Zm6.216-7.74V-7.62h-2.34v.8h2.34v3.3h1V-9.864Zm4.536,2.1H-.444v-.792H-4.488V-1.7h.7A17.57,17.57,0,0,0,.192-2.016l-.1-.8a16.79,16.79,0,0,1-3.612.3ZM1.152-5.772H-1.164v.816H1.152v5.3h.924v-9.96H1.152Zm2.16-4.1V.888h.936V-9.876Zm10.668,0V.912h.984V-9.876Zm-4.692.828c-1.6,0-2.736,1.464-2.736,3.756s1.14,3.756,2.736,3.756S12.024-3,12.024-5.292,10.884-9.048,9.288-9.048Zm0,.888c1.044,0,1.788,1.128,1.788,2.868s-.744,2.88-1.788,2.88-1.8-1.128-1.8-2.88S8.232-8.16,9.288-8.16Zm9.384,3.084H22.2v-.792H18.672v-2.22h4V-8.9h-4.98v7.212h.828a26.168,26.168,0,0,0,4.92-.336l-.108-.8a24.309,24.309,0,0,1-4.656.336ZM25.08-9.888V-5.82H22.86V-5h2.22V.9h.984V-9.888Zm7.284,1.86h4.02v-.816h-5v7.068h.852A25.517,25.517,0,0,0,37.32-2.16l-.108-.816a26.16,26.16,0,0,1-4.848.36Zm8.616,2.4H39.2V-9.876H38.22V.912H39.2V-4.812H40.98Zm5.844-3.18c1.656,0,2.736.516,2.736,1.368s-1.08,1.356-2.736,1.356S44.088-6.6,44.088-7.44,45.18-8.808,46.824-8.808Zm0,3.528c2.28,0,3.768-.828,3.768-2.16S49.1-9.6,46.824-9.6s-3.768.828-3.768,2.16S44.544-5.28,46.824-5.28ZM44.184-2.5H43.2V.648h7.44V-.168H44.184Zm-2.232-1.92v.8h4.464V-1.44h1V-3.612h4.3v-.8ZM58.368-1.248V-3.276h3.444v-.792H55.188v-1.74H61.56V-9.084H54.192v.8H60.6V-6.6H54.216v3.324h3.156v2.028h-4.38v.8h9.78v-.8Zm14.3-3.468h-6.42v-3.36h6.312v-.816H65.28v4.98h7.392ZM64.032-1.38v.816H73.8V-1.38Zm11.6,3.744a11.155,11.155,0,0,0,1.776-6.1,11.115,11.115,0,0,0-1.776-6.084l-.672.312A11.207,11.207,0,0,1,76.5-3.732,11.176,11.176,0,0,1,74.964,2.04Z" transform="translate(160 201)" fill="#989898"/>
        <path id="패스_7364" data-name="패스 7364" d="M-25.456-10.064v1.712H-29.2v1.024h3.744V-5.84h1.328v-7.328h-1.328v2.08H-28.7a6.475,6.475,0,0,0,.144-1.376h-6.416v1.072h4.992c-.24,2.272-2.24,3.984-5.744,4.8l.48,1.072c3.168-.752,5.36-2.288,6.256-4.544ZM-32.048,0V-1.664h7.92v-3.52h-9.248v1.056h7.936v1.472h-7.9v3.7h9.7V0Zm18.3-5.12a35.682,35.682,0,0,0,.4-5.7V-11.6h-7.248v1.072h5.968a30.432,30.432,0,0,1-.432,5.28ZM-17.04-7.5h-1.3v4.416c-1.072.032-2.128.048-3.04.048l.144,1.088a58.482,58.482,0,0,0,8.9-.544l-.08-.96c-1.456.192-3.056.272-4.624.336Zm9.1.336h-2.288v-6h-1.312V1.184h1.312V-6.064h2.288ZM-3.68-8.512H3.648v2.64H-3.68ZM.64-1.728V-4.816H4.928v-7.328H3.648v2.56H-3.68v-2.56h-1.3v7.328H-.688v3.088H-6.512V-.656H6.5V-1.728Zm17.7-8.576a30.64,30.64,0,0,1-.544,6.5l1.312.144a32.352,32.352,0,0,0,.544-6.64v-1.424H9.584v1.072h8.752Zm-3.76,8.4V-7.04H13.264V-1.9H8.224V-.832H21.2V-1.9ZM27.952-11.936H26.64V-9.36A7.581,7.581,0,0,1,22.928-2.9l.8,1.04a7.962,7.962,0,0,0,3.568-4.8,7.688,7.688,0,0,0,3.6,4.544l.768-1.04A7.154,7.154,0,0,1,27.952-9.36Zm5.488-1.232V-8.3H30.112v1.072H33.44V1.2h1.312V-13.168Z" transform="translate(160 178)"/>
        <g id="그룹_10677-2" data-name="그룹 10677" transform="translate(6 -3)">
          <circle id="타원_114-2" data-name="타원 114" cx="14" cy="14" r="14" transform="translate(139 130)" fill="#1a95ce"/>
          <path id="패스_7363" data-name="패스 7363" d="M-3.528.168c1.8,0,3-1.584,3-4.644s-1.2-4.572-3-4.572S-6.54-7.548-6.54-4.476-5.34.168-3.528.168Zm0-1.38c-.768,0-1.344-.768-1.344-3.264s.576-3.2,1.344-3.2,1.332.72,1.332,3.2S-2.772-1.212-3.528-1.212Zm7.284.048c-.744,0-1.344-.624-1.512-2.244A1.753,1.753,0,0,1,3.7-4.344c.768,0,1.26.492,1.26,1.548C4.956-1.716,4.416-1.164,3.756-1.164ZM6.444-8.04A3.29,3.29,0,0,0,4.032-9.048C2.244-9.048.6-7.632.6-4.32.6-1.188,2.1.168,3.792.168A2.781,2.781,0,0,0,6.576-2.8c0-1.908-1.056-2.8-2.544-2.8a2.584,2.584,0,0,0-1.824.948c.072-2.22.912-2.988,1.932-2.988a1.928,1.928,0,0,1,1.368.648Z" transform="translate(153 149)" fill="#fff"/>
        </g>
      </g>
      <g id="d-2" data-name="d" transform="translate(412 132)">
        <rect id="사각형_860-2" data-name="사각형 860" width="20" height="20" transform="translate(-197 2)" fill="none"/>
        <rect id="사각형_857-2" data-name="사각형 857" width="24" height="24" transform="translate(-199)" fill="none" opacity="0.4"/>
        <path id="패스_7334-2" data-name="패스 7334" d="M192.428,597.594l-6.676,6.677,6.676,6.677" transform="translate(-380.18 -592)" fill="none" stroke="#707070" stroke-width="1"/>
        <path id="패스_7335-2" data-name="패스 7335" d="M177,604.27h15.313" transform="translate(-371.313 -592)" fill="none" stroke="#707070" stroke-width="1"/>
      </g>
      <g id="그룹_10680" data-name="그룹 10680" transform="translate(-62 -25)">
        <g id="사각형_1750-3" data-name="사각형 1750" transform="translate(62 115)" fill="#1a95ce" stroke="#1a95ce" stroke-width="2">
          <rect width="195" height="108" rx="54" stroke="none"/>
          <rect x="1" y="1" width="193" height="106" rx="53" fill="none"/>
        </g>
        <path id="패스_7366" data-name="패스 7366" d="M-63.336-9.084a2.607,2.607,0,0,0-2.88,2.532,2.614,2.614,0,0,0,2.88,2.532,2.607,2.607,0,0,0,2.88-2.532A2.6,2.6,0,0,0-63.336-9.084Zm0,.84a1.739,1.739,0,0,1,1.92,1.692,1.746,1.746,0,0,1-1.92,1.692,1.746,1.746,0,0,1-1.92-1.692A1.739,1.739,0,0,1-63.336-8.244Zm4.3-1.632V.912h.984V-9.876Zm-7.6,8.424a38.458,38.458,0,0,0,6.972-.468l-.084-.732a48.467,48.467,0,0,1-7.008.372ZM-51.72-3.888h2.46v-.78h-4.7V-6.036h4.4V-8.88h-5.4v.78h4.428v1.32h-4.392v2.892h2.22v1.824c-1.056.036-2.088.036-3.012.036l.12.828a47.66,47.66,0,0,0,6.972-.408l-.072-.72c-.972.12-1.992.18-3.024.228Zm3.72-6V.912h.984v-10.8Zm6.576,1.176v.792h4.044c-.2,2.556-1.644,4.62-4.536,6l.528.8c3.576-1.752,5-4.488,5-7.6Zm7.212-1.164V.888h.984V-9.876ZM-23.136-.048h-4.932V-1.44h4.932Zm0-2.16h-4.932V-3.564h-.972V.744h6.888V-3.564h-.984Zm-4.944-3a1.7,1.7,0,0,1-1.836-1.68A1.688,1.688,0,0,1-28.08-8.556a1.688,1.688,0,0,1,1.836,1.668A1.7,1.7,0,0,1-28.08-5.208Zm4.932-4.656v2.556h-2.2A2.563,2.563,0,0,0-28.08-9.372a2.531,2.531,0,0,0-2.772,2.484,2.533,2.533,0,0,0,2.772,2.5A2.567,2.567,0,0,0-25.332-6.5h2.184v2.412h1V-9.864Zm5.4,12.228.684-.324A11.062,11.062,0,0,1-18.6-3.732,11.092,11.092,0,0,1-17.064-9.5l-.684-.312a11.207,11.207,0,0,0-1.764,6.084A11.248,11.248,0,0,0-17.748,2.364Zm9.312-8.376h-5.232V-7.4h5.232Zm.972-3.516h-.972V-8.16h-5.232V-9.528h-.972v4.3h7.176ZM-13.728-2.28H-14.7V.648h7.44v-.8h-6.468Zm-2.22-1.908V-3.4h4.476v2.088h.984V-3.4h4.32v-.792ZM1.4-4.752A3.764,3.764,0,0,1-1.224-8.16V-9.336h-.984V-8.2A3.909,3.909,0,0,1-4.872-4.524l.516.792A4.592,4.592,0,0,0-1.692-6.456,4.545,4.545,0,0,0,.876-3.972ZM-3.228-2.124H2.988V.9h1V-2.916H-3.228Zm6.216-7.74V-7.62H.648v.8h2.34v3.3h1V-9.864Zm4.536,2.1H10.6v-.792H6.552V-1.7h.7a17.57,17.57,0,0,0,3.984-.312l-.1-.8a16.79,16.79,0,0,1-3.612.3Zm4.668,1.992H9.876v.816h2.316v5.3h.924v-9.96h-.924Zm2.16-4.1V.888h.936V-9.876Zm10.668,0V.912H26V-9.876Zm-4.692.828c-1.6,0-2.736,1.464-2.736,3.756s1.14,3.756,2.736,3.756S23.064-3,23.064-5.292,21.924-9.048,20.328-9.048Zm0,.888c1.044,0,1.788,1.128,1.788,2.868s-.744,2.88-1.788,2.88-1.8-1.128-1.8-2.88S19.272-8.16,20.328-8.16Zm9.384,3.084H33.24v-.792H29.712v-2.22h4V-8.9h-4.98v7.212h.828a26.168,26.168,0,0,0,4.92-.336l-.108-.8a24.309,24.309,0,0,1-4.656.336ZM36.12-9.888V-5.82H33.9V-5h2.22V.9H37.1V-9.888Zm12.24,1H45.768V-9.948h-.984v1.056h-2.6v.744h6.18ZM43.692-6.156c0-.564.612-.912,1.584-.912.948,0,1.572.348,1.572.912s-.624.924-1.572.924C44.3-5.232,43.692-5.592,43.692-6.156Zm4.992,2.064a28.61,28.61,0,0,1-2.916.264v-.744C47-4.7,47.784-5.28,47.784-6.156c0-.984-1.008-1.6-2.508-1.6-1.524,0-2.52.612-2.52,1.6,0,.888.78,1.464,2.028,1.584v.78c-1.032.036-2.016.036-2.868.036l.108.792a41.059,41.059,0,0,0,6.732-.42Zm-5.46,2.76h6.1V.888H50.3v-3h-7.08Zm8.664-5.28H50.3V-9.864H49.32v7.212H50.3V-5.8h1.584Zm9.948-3.252h-.984V-2h.984ZM54.216-6.48a1.76,1.76,0,0,1,1.836-1.788,1.766,1.766,0,0,1,1.86,1.788,1.771,1.771,0,0,1-1.86,1.812A1.765,1.765,0,0,1,54.216-6.48Zm4.656,0a2.649,2.649,0,0,0-2.82-2.64,2.635,2.635,0,0,0-2.8,2.64,2.647,2.647,0,0,0,2.8,2.664A2.66,2.66,0,0,0,58.872-6.48ZM55.9-.156V-2.808h-.984V.648H62.16v-.8Zm8.7,2.52a11.155,11.155,0,0,0,1.776-6.1A11.115,11.115,0,0,0,64.6-9.816l-.672.312A11.207,11.207,0,0,1,65.46-3.732,11.176,11.176,0,0,1,63.924,2.04Z" transform="translate(160 201)" fill="#b3d3e2"/>
        <path id="패스_7367" data-name="패스 7367" d="M-27.76-8.016h-6.976V-9.872h6.976Zm1.3-4.688h-1.3v1.824h-6.976V-12.7h-1.3v5.728h9.568ZM-34.816-3.04h-1.3v3.9h9.92V-.208h-8.624Zm-2.96-2.544v1.056h5.968v2.784H-30.5V-4.528h5.76V-5.584Zm23.136-.752a5.018,5.018,0,0,1-3.5-4.544v-1.568h-1.312v1.52a5.212,5.212,0,0,1-3.552,4.9l.688,1.056a6.123,6.123,0,0,0,3.552-3.632A6.061,6.061,0,0,0-15.344-5.3Zm-6.176,3.5h8.288V1.2H-11.2V-3.888h-9.616Zm8.288-10.32v2.992h-3.12v1.072h3.12v4.4H-11.2v-8.464Zm9.152,8.768H-.1v2.72h-3.28ZM1.2-1.664v-2.72H3.44V-5.456H-5.392v-2.3H3.1v-4.352H-6.72v1.072H1.824v2.224H-6.688v4.432h2.016v2.72H-8.32V-.592H4.72V-1.664ZM18.368-8.08A33.657,33.657,0,0,1,12-7.472V-12.5H10.7v6.128h1.12a33.491,33.491,0,0,0,6.7-.64ZM19.84-.064H13.376v-1.9H19.84Zm0-2.96H13.376v-1.9h-1.3V.992h9.056v-5.92h-1.3Zm3.44-6.928H21.152v-3.2H19.824V-5.7h1.328V-8.864H23.28Zm11.488,2.5h-7.12V-9.568h7.12Zm1.312-5.136H34.768v1.968h-7.12v-1.968h-1.3v6.208H36.08Zm1.648,7.936H24.7V-3.6h5.824V1.2H31.84V-3.6h5.888Z" transform="translate(160 178)" fill="#fff"/>
        <g id="그룹_10677-3" data-name="그룹 10677" transform="translate(6 -3)">
          <circle id="타원_114-3" data-name="타원 114" cx="14" cy="14" r="14" transform="translate(139 130)" fill="#fff"/>
          <path id="패스_7368" data-name="패스 7368" d="M-3.528.168c1.8,0,3-1.584,3-4.644s-1.2-4.572-3-4.572S-6.54-7.548-6.54-4.476-5.34.168-3.528.168Zm0-1.38c-.768,0-1.344-.768-1.344-3.264s.576-3.2,1.344-3.2,1.332.72,1.332,3.2S-2.772-1.212-3.528-1.212ZM2.232,0H4.02c.144-3.48.42-5.292,2.484-7.812V-8.88H.6V-7.4h4A12.254,12.254,0,0,0,2.232,0Z" transform="translate(153 149)" fill="#1a95ce"/>
        </g>
      </g>
    </g>
    <g id="text-2" data-name="text" transform="translate(340 423)">
      <g id="그룹_10681" data-name="그룹 10681" transform="translate(703 -25)">
        <g id="사각형_1750-4" data-name="사각형 1750" transform="translate(62 115)" fill="#fff" stroke="#1a95ce" stroke-width="2">
          <rect width="195" height="108" rx="54" stroke="none"/>
          <rect x="1" y="1" width="193" height="106" rx="53" fill="none"/>
        </g>
        <path id="패스_7359" data-name="패스 7359" d="M-49.548-4.668a3.5,3.5,0,0,1-2.6-3.192v-.42h2.376v-.792h-5.772v.792h2.412v.42a3.812,3.812,0,0,1-2.7,3.5l.5.78a4.444,4.444,0,0,0,2.712-2.64,4.185,4.185,0,0,0,2.6,2.316ZM-50.856.1c-1.608,0-2.568-.444-2.568-1.212s.96-1.2,2.568-1.2c1.584,0,2.556.444,2.556,1.2S-49.272.1-50.856.1Zm0-3.192c-2.208,0-3.552.732-3.552,1.98S-53.064.876-50.856.876c2.184,0,3.54-.732,3.54-1.992S-48.672-3.1-50.856-3.1Zm3.42-4.056V-9.864h-.984v6.492h.984V-6.324h1.6v-.828Zm10.512-2.724V.9h.984V-9.876Zm-7.212.912V-1.7h5.064v-7.26h-.972V-6.12h-3.12V-8.964Zm.972,3.624h3.12v2.832h-3.12Zm18.372-.216a22.755,22.755,0,0,1-4.752.36V-8.364h3.756v-.792h-4.74V-4.38h.84a23.171,23.171,0,0,0,5-.384Zm-3.672,3.132h4.824V-.06h-4.824Zm-.96,3.156h6.756V-3.2h-6.756Zm8.352-7.98h-1.6v-2.64h-.984V-3.78h.984V-6.432h1.6Zm7.332,1.74a21.477,21.477,0,0,1-4.788.372v-3.12h3.78v-.792H-19.5v4.716h.84A23.453,23.453,0,0,0-13.632-4.7ZM-15.048.084c-1.6,0-2.58-.48-2.58-1.272s.984-1.272,2.58-1.272,2.568.48,2.568,1.272S-13.464.084-15.048.084Zm0-3.336c-2.184,0-3.552.768-3.552,2.064S-17.232.876-15.048.876s3.54-.768,3.54-2.064S-12.876-3.252-15.048-3.252Zm3.432-3.828v-2.8h-1v6.408h1v-2.8h1.584V-7.08Zm6.3-.876h2.388v-.816h-5.82v.816h2.46v1.368A5.627,5.627,0,0,1-9.12-1.956l.576.78A6.076,6.076,0,0,0-5.8-4.74a5.808,5.808,0,0,0,2.7,3.3l.564-.792A5.176,5.176,0,0,1-5.316-6.588ZM1.116-5.532H-.66V-9.864h-.984V.888H-.66V-4.7H1.116Zm3.216,7.9.684-.324A11.062,11.062,0,0,1,3.48-3.732,11.092,11.092,0,0,1,5.016-9.5l-.684-.312A11.207,11.207,0,0,0,2.568-3.732,11.248,11.248,0,0,0,4.332,2.364Zm5.64-11.3H9v1.932a5.655,5.655,0,0,1-2.892,4.86l.6.8A5.981,5.981,0,0,0,9.492-4.956a5.845,5.845,0,0,0,2.772,3.408l.588-.792a5.354,5.354,0,0,1-2.88-4.668Zm4.008-.936V.912h.984V-9.876Zm6.912,6.588h2.46v2.04h-2.46Zm3.432,2.04v-2.04H26v-.8H19.38V-5.82h6.372V-9.084H18.384v.8h6.408v1.668H18.408v3.324H19.92v2.04H17.184v.8h9.78v-.8ZM38.412-6.012H33.18V-7.4h5.232Zm.972-3.516h-.972V-8.16H33.18V-9.528h-.972v4.3h7.176ZM33.12-2.28h-.972V.648h7.44v-.8H33.12ZM30.9-4.188V-3.4h4.476v2.088h.984V-3.4h4.32v-.792Zm17.352-.564A3.764,3.764,0,0,1,45.624-8.16V-9.336H44.64V-8.2a3.909,3.909,0,0,1-2.664,3.672l.516.792a4.592,4.592,0,0,0,2.664-2.724,4.546,4.546,0,0,0,2.568,2.484ZM43.62-2.124h6.216V.9h1V-2.916H43.62Zm6.216-7.74V-7.62H47.5v.8h2.34v3.3h1V-9.864Zm3.72,12.228a11.155,11.155,0,0,0,1.776-6.1,11.115,11.115,0,0,0-1.776-6.084l-.672.312A11.207,11.207,0,0,1,54.42-3.732,11.176,11.176,0,0,1,52.884,2.04Z" transform="translate(160 201)" fill="#989898"/>
        <path id="패스_7358" data-name="패스 7358" d="M-3.888-8.016h-6.976V-9.872h6.976Zm1.3-4.688h-1.3v1.824h-6.976V-12.7h-1.3v5.728h9.568ZM-10.944-3.04h-1.3v3.9h9.92V-.208h-8.624ZM-13.9-5.584v1.056h5.968v2.784h1.312V-4.528h5.76V-5.584ZM9.232-6.336a5.018,5.018,0,0,1-3.5-4.544v-1.568H4.416v1.52a5.212,5.212,0,0,1-3.552,4.9l.688,1.056A6.123,6.123,0,0,0,5.1-8.608,6.061,6.061,0,0,0,8.528-5.3Zm-6.176,3.5h8.288V1.2h1.328V-3.888H3.056Zm8.288-10.32v2.992H8.224v1.072h3.12v4.4h1.328v-8.464Z" transform="translate(160 178)"/>
        <g id="그룹_10677-4" data-name="그룹 10677" transform="translate(6 -3)">
          <circle id="타원_114-4" data-name="타원 114" cx="14" cy="14" r="14" transform="translate(139 130)" fill="#1a95ce"/>
          <path id="패스_7357" data-name="패스 7357" d="M-3.528.168c1.8,0,3-1.584,3-4.644s-1.2-4.572-3-4.572S-6.54-7.548-6.54-4.476-5.34.168-3.528.168Zm0-1.38c-.768,0-1.344-.768-1.344-3.264s.576-3.2,1.344-3.2,1.332.72,1.332,3.2S-2.772-1.212-3.528-1.212Zm5.5-2.436,1.38-2.208c.252-.48.492-.972.708-1.44H4.1c-.024.516-.072,1.32-.072,1.836v1.812Zm4.764,0H5.676V-8.88H3.564L.252-3.5v1.2h3.78V0H5.676V-2.3H6.732Z" transform="translate(153 149)" fill="#fff"/>
        </g>
      </g>
      <g id="d-3" data-name="d" transform="translate(548 -460)">
        <rect id="사각형_860-3" data-name="사각형 860" width="20" height="20" transform="translate(177 594)" fill="none"/>
        <rect id="사각형_857-3" data-name="사각형 857" width="24" height="24" transform="translate(175 592)" fill="none" opacity="0.4"/>
        <path id="패스_7334-3" data-name="패스 7334" d="M185.752,597.594l6.676,6.677-6.676,6.677" transform="translate(2)" fill="none" stroke="#707070" stroke-width="1"/>
        <path id="패스_7335-3" data-name="패스 7335" d="M192.313,604.27H177" transform="translate(2)" fill="none" stroke="#707070" stroke-width="1"/>
      </g>
      <g id="그룹_10679-2" data-name="그룹 10679" transform="translate(448 -25)">
        <g id="사각형_1750-5" data-name="사각형 1750" transform="translate(62 115)" fill="#fff" stroke="#1a95ce" stroke-width="2">
          <rect width="195" height="108" rx="54" stroke="none"/>
          <rect x="1" y="1" width="193" height="106" rx="53" fill="none"/>
        </g>
        <path id="패스_7356" data-name="패스 7356" d="M-72.192-9.084a2.607,2.607,0,0,0-2.88,2.532,2.614,2.614,0,0,0,2.88,2.532,2.607,2.607,0,0,0,2.88-2.532A2.6,2.6,0,0,0-72.192-9.084Zm0,.84a1.739,1.739,0,0,1,1.92,1.692,1.746,1.746,0,0,1-1.92,1.692,1.746,1.746,0,0,1-1.92-1.692A1.739,1.739,0,0,1-72.192-8.244Zm4.3-1.632V.912h.984V-9.876Zm-7.6,8.424A38.458,38.458,0,0,0-68.52-1.92l-.084-.732a48.467,48.467,0,0,1-7.008.372Zm14.916-2.436h2.46v-.78h-4.7V-6.036h4.4V-8.88h-5.4v.78h4.428v1.32H-63.78v2.892h2.22v1.824c-1.056.036-2.088.036-3.012.036l.12.828a47.66,47.66,0,0,0,6.972-.408l-.072-.72c-.972.12-1.992.18-3.024.228Zm3.72-6V.912h.984v-10.8Zm6.576,1.176v.792h4.044c-.2,2.556-1.644,4.62-4.536,6l.528.8c3.576-1.752,5-4.488,5-7.6Zm7.212-1.164V.888h.984V-9.876ZM-31.992-.048h-4.932V-1.44h4.932Zm0-2.16h-4.932V-3.564H-37.9V.744h6.888V-3.564h-.984Zm-4.944-3a1.7,1.7,0,0,1-1.836-1.68,1.688,1.688,0,0,1,1.836-1.668A1.688,1.688,0,0,1-35.1-6.888,1.7,1.7,0,0,1-36.936-5.208ZM-32-9.864v2.556h-2.2a2.563,2.563,0,0,0-2.736-2.064,2.531,2.531,0,0,0-2.772,2.484,2.533,2.533,0,0,0,2.772,2.5A2.567,2.567,0,0,0-34.188-6.5H-32v2.412h1V-9.864Zm5.4,12.228.684-.324a11.062,11.062,0,0,1-1.536-5.772A11.092,11.092,0,0,1-25.92-9.5l-.684-.312a11.207,11.207,0,0,0-1.764,6.084A11.248,11.248,0,0,0-26.6,2.364ZM-19.74-5a16.91,16.91,0,0,1-3.624.288V-6.18h3.084v-.756h-3.084V-8.292h3.2v-.792h-4.152v5.172h.684a18.37,18.37,0,0,0,3.984-.3Zm-3.192,3.012h6.252V.888h.984V-2.784h-7.236Zm6.288-7.872v2.8h-1.44v-2.6h-.936V-3.42h.936V-6.264h1.44v2.916h.948V-9.864Zm6.48,7.26H-12.42V-5.448h2.256Zm0-3.624H-12.42V-8.856h-.936v7.044H-9.24V-8.856h-.924Zm4.632-3.648v4.26H-6.984v-4.02h-.924v10h.924V-4.812h1.452v5.7H-4.6V-9.876Zm3.1,12.156A2.67,2.67,0,0,0-.684-.228c0-.8-.348-1.3-.924-1.3a.78.78,0,0,0-.828.768.752.752,0,0,0,.8.768A.492.492,0,0,0-1.5,0,1.8,1.8,0,0,1-2.7,1.632ZM9.24-6.576h-6.4V-8.652H9.168v-.792H1.86v3.66H9.24ZM5.5.108C3.8.108,2.808-.312,2.808-1.068S3.8-2.244,5.5-2.244s2.688.42,2.688,1.176S7.176.108,5.5.108Zm0-3.12c-2.292,0-3.684.7-3.684,1.944S3.2.876,5.5.876,9.18.18,9.18-1.068,7.788-3.012,5.5-3.012ZM.636-4.752v.816H10.38v-.816Zm11.676-3.96v.792h4.044c-.2,2.556-1.644,4.62-4.536,6l.528.8c3.576-1.752,5-4.488,5-7.6Zm7.212-1.164V.888h.984V-9.876ZM22.98,2.28A2.67,2.67,0,0,0,24.732-.228c0-.8-.348-1.3-.924-1.3a.78.78,0,0,0-.828.768.752.752,0,0,0,.8.768A.492.492,0,0,0,23.916,0a1.8,1.8,0,0,1-1.2,1.632Zm9.648-6.9a3.663,3.663,0,0,1-2.7-3.276v-.432h2.436V-9.12h-5.9v.792h2.46V-7.9A3.854,3.854,0,0,1,26.2-4.4l.516.768a4.545,4.545,0,0,0,2.724-2.652A4.572,4.572,0,0,0,32.148-3.84ZM27.684-2H33.9V.888h.984V-2.8h-7.2ZM33.9-9.876V-3.36h.984V-9.876Zm9.54,5a3.691,3.691,0,0,1-2.616-3.276v-.276h2.364v-.8H37.44v.8h2.4v.276A3.9,3.9,0,0,1,37.128-4.62l.516.78a4.593,4.593,0,0,0,2.7-2.688,4.534,4.534,0,0,0,2.6,2.436ZM44.976-.06H40.032V-1.416h4.944Zm0-2.124H40.032V-3.5H39.06V.744h6.888V-3.5h-.972Zm-.012-7.68v2.6H42.84v.8h2.124v2.424h.984V-9.864Zm12.2,4.992a3.691,3.691,0,0,1-2.616-3.276v-.276h2.364v-.8H51.168v.8h2.4v.276A3.9,3.9,0,0,1,50.856-4.62l.516.78a4.593,4.593,0,0,0,2.7-2.688,4.534,4.534,0,0,0,2.6,2.436ZM58.7-.06H53.76V-1.416H58.7Zm0-2.124H53.76V-3.5h-.972V.744h6.888V-3.5H58.7Zm-.012-7.68v2.6H56.568v.8h2.124v2.424h.984V-9.864ZM71.124-5.772c-1.956-.288-3.876-1.62-3.876-3.12v-.6H66.216v.6c0,1.536-1.9,2.832-3.852,3.12l.4.792A5.515,5.515,0,0,0,66.732-7.5a5.648,5.648,0,0,0,3.984,2.52Zm.468,1.956h-9.72V-3h4.344V.9H67.2V-3h4.4Zm1.86,6.18a11.155,11.155,0,0,0,1.776-6.1,11.115,11.115,0,0,0-1.776-6.084L72.78-9.5a11.207,11.207,0,0,1,1.536,5.772A11.176,11.176,0,0,1,72.78,2.04Z" transform="translate(160 201)" fill="#989898"/>
        <path id="패스_7355" data-name="패스 7355" d="M-25.3-11.92h-1.3v2.576a7.54,7.54,0,0,1-3.856,6.48l.8,1.072a7.975,7.975,0,0,0,3.712-4.816,7.794,7.794,0,0,0,3.7,4.544l.784-1.056A7.138,7.138,0,0,1-25.3-9.344Zm5.344-1.248V1.216h1.312V-13.168Zm9.216,8.784h3.28v2.72h-3.28Zm4.576,2.72v-2.72h2.24V-5.456h-8.832v-2.3h8.5v-4.352H-14.08v1.072h8.544v2.224h-8.512v4.432h2.016v2.72H-15.68V-.592H-2.64V-1.664ZM11.1-6.5a4.922,4.922,0,0,1-3.488-4.368v-.368h3.152V-12.3H3.1v1.072H6.3v.368a5.2,5.2,0,0,1-3.616,4.7l.688,1.04A6.124,6.124,0,0,0,6.976-8.7a6.045,6.045,0,0,0,3.472,3.248ZM13.152-.08H6.56V-1.888h6.592Zm0-2.832H6.56v-1.76h-1.3V.992h9.184V-4.672h-1.3Zm-.016-10.24V-9.68H10.3v1.072h2.832v3.232h1.312v-7.776ZM29.712-7.7c-2.608-.384-5.168-2.16-5.168-4.16v-.8H23.168v.8c0,2.048-2.528,3.776-5.136,4.16L18.56-6.64a7.353,7.353,0,0,0,5.3-3.36,7.531,7.531,0,0,0,5.312,3.36Zm.624,2.608H17.376V-4h5.792V1.2H24.48V-4h5.872Z" transform="translate(160 178)"/>
        <g id="그룹_10677-5" data-name="그룹 10677" transform="translate(6 -3)">
          <circle id="타원_114-5" data-name="타원 114" cx="14" cy="14" r="14" transform="translate(139 130)" fill="#1a95ce"/>
          <path id="패스_7354" data-name="패스 7354" d="M-3.528.168c1.8,0,3-1.584,3-4.644s-1.2-4.572-3-4.572S-6.54-7.548-6.54-4.476-5.34.168-3.528.168Zm0-1.38c-.768,0-1.344-.768-1.344-3.264s.576-3.2,1.344-3.2,1.332.72,1.332,3.2S-2.772-1.212-3.528-1.212ZM3.288.168c1.692,0,3.12-.948,3.12-2.58A2.219,2.219,0,0,0,4.632-4.6v-.06A2.1,2.1,0,0,0,6.12-6.684c0-1.524-1.164-2.364-2.88-2.364A3.94,3.94,0,0,0,.576-7.956l.9,1.08a2.534,2.534,0,0,1,1.68-.792A1.061,1.061,0,0,1,4.344-6.552c0,.792-.528,1.356-2.16,1.356v1.272c1.932,0,2.448.54,2.448,1.416,0,.792-.612,1.236-1.512,1.236a2.821,2.821,0,0,1-1.98-.912L.312-1.068A3.775,3.775,0,0,0,3.288.168Z" transform="translate(153 149)" fill="#fff"/>
        </g>
      </g>
      <g id="d-4" data-name="d" transform="translate(293 -460)">
        <rect id="사각형_860-4" data-name="사각형 860" width="20" height="20" transform="translate(177 594)" fill="none"/>
        <rect id="사각형_857-4" data-name="사각형 857" width="24" height="24" transform="translate(175 592)" fill="none" opacity="0.4"/>
        <path id="패스_7334-4" data-name="패스 7334" d="M185.752,597.594l6.676,6.677-6.676,6.677" transform="translate(2)" fill="none" stroke="#707070" stroke-width="1"/>
        <path id="패스_7335-4" data-name="패스 7335" d="M192.313,604.27H177" transform="translate(2)" fill="none" stroke="#707070" stroke-width="1"/>
      </g>
      <g id="그룹_10678-2" data-name="그룹 10678" transform="translate(193 -25)">
        <g id="사각형_1750-6" data-name="사각형 1750" transform="translate(62 115)" fill="#fff" stroke="#1a95ce" stroke-width="2">
          <rect width="195" height="108" rx="54" stroke="none"/>
          <rect x="1" y="1" width="193" height="106" rx="53" fill="none"/>
        </g>
        <path id="패스_7351" data-name="패스 7351" d="M-66.432-4.668a3.5,3.5,0,0,1-2.6-3.192v-.42h2.376v-.792h-5.772v.792h2.412v.42a3.812,3.812,0,0,1-2.7,3.5l.5.78A4.444,4.444,0,0,0-69.5-6.216,4.185,4.185,0,0,0-66.9-3.9ZM-67.74.1c-1.608,0-2.568-.444-2.568-1.212s.96-1.2,2.568-1.2c1.584,0,2.556.444,2.556,1.2S-66.156.1-67.74.1Zm0-3.192c-2.208,0-3.552.732-3.552,1.98S-69.948.876-67.74.876c2.184,0,3.54-.732,3.54-1.992S-65.556-3.1-67.74-3.1Zm3.42-4.056V-9.864H-65.3v6.492h.984V-6.324h1.6v-.828Zm10.512-2.724V.9h.984V-9.876Zm-7.212.912V-1.7h5.064v-7.26h-.972V-6.12h-3.12V-8.964Zm.972,3.624h3.12v2.832h-3.12Zm18.372-.216a22.755,22.755,0,0,1-4.752.36V-8.364h3.756v-.792h-4.74V-4.38h.84a23.171,23.171,0,0,0,5-.384Zm-3.672,3.132h4.824V-.06h-4.824Zm-.96,3.156h6.756V-3.2h-6.756Zm8.352-7.98h-1.6v-2.64h-.984V-3.78h.984V-6.432h1.6Zm7.332,1.74a21.477,21.477,0,0,1-4.788.372v-3.12h3.78v-.792h-4.752v4.716h.84A23.453,23.453,0,0,0-30.516-4.7ZM-31.932.084c-1.6,0-2.58-.48-2.58-1.272s.984-1.272,2.58-1.272,2.568.48,2.568,1.272S-30.348.084-31.932.084Zm0-3.336c-2.184,0-3.552.768-3.552,2.064S-34.116.876-31.932.876s3.54-.768,3.54-2.064S-29.76-3.252-31.932-3.252ZM-28.5-7.08v-2.8h-1v6.408h1v-2.8h1.584V-7.08Zm6.3-.876h2.388v-.816h-5.82v.816h2.46v1.368A5.627,5.627,0,0,1-26-1.956l.576.78A6.076,6.076,0,0,0-22.68-4.74a5.808,5.808,0,0,0,2.7,3.3l.564-.792A5.176,5.176,0,0,1-22.2-6.588Zm6.432,2.424h-1.776V-9.864h-.984V.888h.984V-4.7h1.776Zm3.216,7.9.684-.324A11.062,11.062,0,0,1-13.4-3.732,11.092,11.092,0,0,1-11.868-9.5l-.684-.312a11.207,11.207,0,0,0-1.764,6.084A11.248,11.248,0,0,0-12.552,2.364ZM-3.24-6.012H-8.472V-7.4H-3.24Zm.972-3.516H-3.24V-8.16H-8.472V-9.528h-.972v4.3h7.176ZM-8.532-2.28H-9.5V.648h7.44v-.8H-8.532Zm-2.22-1.908V-3.4h4.476v2.088h.984V-3.4h4.32v-.792ZM6.6-4.752A3.764,3.764,0,0,1,3.972-8.16V-9.336H2.988V-8.2A3.909,3.909,0,0,1,.324-4.524l.516.792A4.592,4.592,0,0,0,3.5-6.456,4.545,4.545,0,0,0,6.072-3.972ZM1.968-2.124H8.184V.9h1V-2.916H1.968Zm6.216-7.74V-7.62H5.844v.8h2.34v3.3h1V-9.864Zm6.66.78a2.607,2.607,0,0,0-2.88,2.532,2.614,2.614,0,0,0,2.88,2.532,2.607,2.607,0,0,0,2.88-2.532A2.6,2.6,0,0,0,14.844-9.084Zm0,.84a1.739,1.739,0,0,1,1.92,1.692,1.746,1.746,0,0,1-1.92,1.692,1.746,1.746,0,0,1-1.92-1.692A1.739,1.739,0,0,1,14.844-8.244Zm4.3-1.632V.912h.984V-9.876Zm-7.6,8.424a38.458,38.458,0,0,0,6.972-.468l-.084-.732a48.467,48.467,0,0,1-7.008.372ZM26.46-3.888h2.46v-.78h-4.7V-6.036h4.4V-8.88h-5.4v.78h4.428v1.32H23.256v2.892h2.22v1.824c-1.056.036-2.088.036-3.012.036l.12.828a47.66,47.66,0,0,0,6.972-.408l-.072-.72c-.972.12-1.992.18-3.024.228Zm3.72-6V.912h.984v-10.8Zm7.02.936h-.984V-7.02a5.686,5.686,0,0,1-2.784,4.848l.6.78a5.972,5.972,0,0,0,2.676-3.6,5.766,5.766,0,0,0,2.7,3.408l.576-.78A5.366,5.366,0,0,1,37.2-7.02Zm4.116-.924v3.648h-2.5v.8h2.5V.9H42.3V-9.876ZM44.736,2.28A2.67,2.67,0,0,0,46.488-.228c0-.8-.348-1.3-.924-1.3a.78.78,0,0,0-.828.768.752.752,0,0,0,.8.768A.492.492,0,0,0,45.672,0a1.8,1.8,0,0,1-1.2,1.632Zm9.288-7.092a3.654,3.654,0,0,1-2.6-3.324V-9.324h-.984v1.1a3.939,3.939,0,0,1-2.676,3.7l.516.78A4.5,4.5,0,0,0,50.94-6.468a4.518,4.518,0,0,0,2.568,2.424ZM52.74.108c-1.6,0-2.568-.444-2.568-1.188s.972-1.2,2.568-1.2,2.556.444,2.556,1.2S54.324.108,52.74.108Zm0-3.156c-2.2,0-3.552.708-3.552,1.968S50.544.876,52.74.876,56.28.168,56.28-1.08,54.924-3.048,52.74-3.048Zm3.42-4.044V-9.864h-.984v6.516h.984V-6.276h1.6v-.816Zm8.916,1.536a22.755,22.755,0,0,1-4.752.36V-8.364H64.08v-.792H59.34V-4.38h.84a23.171,23.171,0,0,0,5-.384ZM61.4-2.424h4.824V-.06H61.4ZM60.444.732H67.2V-3.2H60.444ZM68.8-7.248H67.2v-2.64h-.984V-3.78H67.2V-6.432h1.6ZM70.44,2.364a11.155,11.155,0,0,0,1.776-6.1A11.115,11.115,0,0,0,70.44-9.816l-.672.312A11.207,11.207,0,0,1,71.3-3.732,11.176,11.176,0,0,1,69.768,2.04Z" transform="translate(160 201)" fill="#989898"/>
        <path id="패스_7352" data-name="패스 7352" d="M-27.76-8.016h-6.976V-9.872h6.976Zm1.3-4.688h-1.3v1.824h-6.976V-12.7h-1.3v5.728h9.568ZM-34.816-3.04h-1.3v3.9h9.92V-.208h-8.624Zm-2.96-2.544v1.056h5.968v2.784H-30.5V-4.528h5.76V-5.584Zm23.136-.752a5.018,5.018,0,0,1-3.5-4.544v-1.568h-1.312v1.52a5.212,5.212,0,0,1-3.552,4.9l.688,1.056a6.123,6.123,0,0,0,3.552-3.632A6.061,6.061,0,0,0-15.344-5.3Zm-6.176,3.5h8.288V1.2H-11.2V-3.888h-9.616Zm8.288-10.32v2.992h-3.12v1.072h3.12v4.4H-11.2v-8.464Zm9.152,8.768H-.1v2.72h-3.28ZM1.2-1.664v-2.72H3.44V-5.456H-5.392v-2.3H3.1v-4.352H-6.72v1.072H1.824v2.224H-6.688v4.432h2.016v2.72H-8.32V-.592H4.72V-1.664ZM20.5-9.136v2.16H16.72V-5.9H20.5V-2.48h1.328V-13.152H20.5v2.944H17.28a6.872,6.872,0,0,0,.24-1.824H10.976v1.056h5.136c-.288,2.576-2.56,4.64-5.872,5.712l.576,1.072c2.928-.96,5.1-2.672,6.1-4.944ZM14.064-.208V-3.52H12.752V.864h9.424V-.208ZM33.184-6.16A4.941,4.941,0,0,1,29.7-10.544v-.576h3.152v-1.072H25.184v1.072h3.2v.576a5.214,5.214,0,0,1-3.616,4.7l.688,1.04a6.082,6.082,0,0,0,3.6-3.584,5.947,5.947,0,0,0,3.472,3.248Zm-6.24,3.424h8.272V1.2h1.312V-3.792H26.944Zm8.272-10.432v3.744h-2.8v1.072h2.8v3.776h1.312v-8.592Z" transform="translate(160 178)"/>
        <g id="그룹_10677-6" data-name="그룹 10677" transform="translate(6 -3)">
          <circle id="타원_114-6" data-name="타원 114" cx="14" cy="14" r="14" transform="translate(139 130)" fill="#1a95ce"/>
          <path id="패스_7353" data-name="패스 7353" d="M-3.528.168c1.8,0,3-1.584,3-4.644s-1.2-4.572-3-4.572S-6.54-7.548-6.54-4.476-5.34.168-3.528.168Zm0-1.38c-.768,0-1.344-.768-1.344-3.264s.576-3.2,1.344-3.2,1.332.72,1.332,3.2S-2.772-1.212-3.528-1.212ZM.516,0H6.468V-1.488H4.536c-.408,0-1,.048-1.44.1C4.716-2.976,6.048-4.7,6.048-6.312a2.6,2.6,0,0,0-2.8-2.736A3.6,3.6,0,0,0,.432-7.7l.96.96a2.3,2.3,0,0,1,1.632-.912,1.274,1.274,0,0,1,1.332,1.44c0,1.368-1.428,3.036-3.84,5.2Z" transform="translate(153 149)" fill="#fff"/>
        </g>
      </g>
      <g id="d-5" data-name="d" transform="translate(38 -460)">
        <rect id="사각형_860-5" data-name="사각형 860" width="20" height="20" transform="translate(177 594)" fill="none"/>
        <rect id="사각형_857-5" data-name="사각형 857" width="24" height="24" transform="translate(175 592)" fill="none" opacity="0.4"/>
        <path id="패스_7334-5" data-name="패스 7334" d="M185.752,597.594l6.676,6.677-6.676,6.677" transform="translate(2)" fill="none" stroke="#707070" stroke-width="1"/>
        <path id="패스_7335-5" data-name="패스 7335" d="M192.313,604.27H177" transform="translate(2)" fill="none" stroke="#707070" stroke-width="1"/>
      </g>
      <g id="그룹_10676" data-name="그룹 10676" transform="translate(-62 -25)">
        <g id="사각형_1750-7" data-name="사각형 1750" transform="translate(62 115)" fill="#fff" stroke="#1a95ce" stroke-width="2">
          <rect width="195" height="108" rx="54" stroke="none"/>
          <rect x="1" y="1" width="193" height="106" rx="53" fill="none"/>
        </g>
        <path id="패스_7350" data-name="패스 7350" d="M-19.3-9.084a2.607,2.607,0,0,0-2.88,2.532A2.614,2.614,0,0,0-19.3-4.02a2.607,2.607,0,0,0,2.88-2.532A2.6,2.6,0,0,0-19.3-9.084Zm0,.84a1.739,1.739,0,0,1,1.92,1.692A1.746,1.746,0,0,1-19.3-4.86a1.746,1.746,0,0,1-1.92-1.692A1.739,1.739,0,0,1-19.3-8.244ZM-15-9.876V.912h.984V-9.876Zm-7.6,8.424a38.458,38.458,0,0,0,6.972-.468l-.084-.732a48.467,48.467,0,0,1-7.008.372ZM-7.68-3.888h2.46v-.78h-4.7V-6.036h4.4V-8.88h-5.4v.78h4.428v1.32h-4.392v2.892h2.22v1.824c-1.056.036-2.088.036-3.012.036l.12.828a47.66,47.66,0,0,0,6.972-.408l-.072-.72c-.972.12-1.992.18-3.024.228Zm3.72-6V.912h.984v-10.8ZM2.616-8.712v.792H6.66c-.2,2.556-1.644,4.62-4.536,6l.528.8c3.576-1.752,5-4.488,5-7.6ZM9.828-9.876V.888h.984V-9.876ZM20.9-.048H15.972V-1.44H20.9Zm0-2.16H15.972V-3.564H15V.744h6.888V-3.564H20.9Zm-4.944-3a1.7,1.7,0,0,1-1.836-1.68A1.688,1.688,0,0,1,15.96-8.556,1.688,1.688,0,0,1,17.8-6.888,1.7,1.7,0,0,1,15.96-5.208Zm4.932-4.656v2.556H18.7A2.563,2.563,0,0,0,15.96-9.372a2.531,2.531,0,0,0-2.772,2.484,2.533,2.533,0,0,0,2.772,2.5A2.567,2.567,0,0,0,18.708-6.5h2.184v2.412h1V-9.864Z" transform="translate(160 201)" fill="#989898"/>
        <path id="패스_7349" data-name="패스 7349" d="M-54.736-11.92h-1.3v2.576a7.54,7.54,0,0,1-3.856,6.48l.8,1.072a7.975,7.975,0,0,0,3.712-4.816,7.794,7.794,0,0,0,3.7,4.544L-50.9-3.12a7.138,7.138,0,0,1-3.84-6.224Zm5.344-1.248V1.216h1.312V-13.168Zm12.624,1.5h-3.5v-1.648h-1.312v1.648h-3.5v1.056h8.32Zm-6.24,4.352c0-.928.864-1.568,2.08-1.568s2.08.64,2.08,1.568-.864,1.568-2.08,1.568S-43.008-6.384-43.008-7.312Zm5.392,0c0-1.536-1.376-2.56-3.312-2.56-1.952,0-3.328,1.024-3.328,2.56s1.376,2.544,3.328,2.544C-38.992-4.768-37.616-5.776-37.616-7.312Zm-3.712,4.64h6.768V-.064h-6.768ZM-42.608.992h9.328v-4.7h-9.328Zm8-14.144V-8.8h-2.384v1.072h2.384V-4.48h1.328v-8.672ZM-20.4-8.016h-6.976V-9.872H-20.4Zm1.3-4.688h-1.3v1.824h-6.976V-12.7h-1.3v5.728H-19.1ZM-27.456-3.04h-1.3v3.9h9.92V-.208h-8.624Zm-2.96-2.544v1.056h5.968v2.784h1.312V-4.528h5.76V-5.584ZM-7.28-6.336a5.018,5.018,0,0,1-3.5-4.544v-1.568H-12.1v1.52a5.212,5.212,0,0,1-3.552,4.9l.688,1.056a6.123,6.123,0,0,0,3.552-3.632A6.061,6.061,0,0,0-7.984-5.3Zm-6.176,3.5h8.288V1.2H-3.84V-3.888h-9.616Zm8.288-10.32v2.992h-3.12v1.072h3.12v4.4H-3.84v-8.464Zm8.88,1.04c-2.224,0-3.84,1.36-3.84,3.376,0,2,1.616,3.376,3.84,3.376,2.24,0,3.84-1.376,3.84-3.376C7.552-10.752,5.952-12.112,3.712-12.112Zm0,1.12a2.318,2.318,0,0,1,2.56,2.256A2.328,2.328,0,0,1,3.712-6.48a2.328,2.328,0,0,1-2.56-2.256A2.318,2.318,0,0,1,3.712-10.992ZM9.44-13.168V1.216h1.312V-13.168ZM-.688-1.936a51.277,51.277,0,0,0,9.3-.624L8.5-3.536a64.622,64.622,0,0,1-9.344.5ZM19.2-5.184h3.28v-1.04H16.208V-8.048H22.08V-11.84h-7.2v1.04h5.9v1.76H14.928v3.856h2.96v2.432C16.48-2.7,15.1-2.7,13.872-2.7l.16,1.1a63.547,63.547,0,0,0,9.3-.544l-.1-.96c-1.3.16-2.656.24-4.032.3Zm4.96-8v14.4h1.312v-14.4Zm19.7.016H42.544V-2.64h1.312ZM40.72-6.016a5.324,5.324,0,0,1-3.584-4.9v-1.456H35.824v1.456a5.592,5.592,0,0,1-3.6,5.152l.688,1.072A6.439,6.439,0,0,0,36.5-8.528a6.186,6.186,0,0,0,3.536,3.552ZM35.936-.208V-3.616H34.624V.864h9.664V-.208Zm18.5-8.88V-8H57.3v3.536h1.328v-8.7H57.3v4.08ZM55.3-6.08c-2.112-.64-3.6-2.24-3.6-4.032v-.272h3.168V-11.44H51.7v-1.792H50.384v1.792H47.2v1.056h3.184v.272a4.87,4.87,0,0,1-3.552,4.4l.64,1.008a5.717,5.717,0,0,0,3.6-3.344,5.821,5.821,0,0,0,3.616,2.976ZM53.872.144c-2.16,0-3.456-.608-3.456-1.616,0-.992,1.3-1.6,3.456-1.6,2.192,0,3.488.608,3.488,1.6C57.36-.464,56.064.144,53.872.144Zm0-4.24c-2.944,0-4.768.96-4.768,2.624,0,1.68,1.824,2.64,4.768,2.64,2.976,0,4.8-.96,4.8-2.64C58.672-3.136,56.848-4.1,53.872-4.1Z" transform="translate(160 178)"/>
        <g id="그룹_10677-7" data-name="그룹 10677" transform="translate(6 -3)">
          <circle id="타원_114-7" data-name="타원 114" cx="14" cy="14" r="14" transform="translate(139 130)" fill="#1a95ce"/>
          <path id="패스_7348" data-name="패스 7348" d="M-3.528.168c1.8,0,3-1.584,3-4.644s-1.2-4.572-3-4.572S-6.54-7.548-6.54-4.476-5.34.168-3.528.168Zm0-1.38c-.768,0-1.344-.768-1.344-3.264s.576-3.2,1.344-3.2,1.332.72,1.332,3.2S-2.772-1.212-3.528-1.212ZM.984,0h5.34V-1.428H4.656V-8.88H3.348a5.76,5.76,0,0,1-2.064.744v1.092H2.892v5.616H.984Z" transform="translate(153 149)" fill="#fff"/>
        </g>
      </g>
    </g>
    <g id="d-6" data-name="d" transform="translate(1808 450) rotate(90)">
      <rect id="사각형_860-6" data-name="사각형 860" width="20" height="20" transform="translate(177 594)" fill="none"/>
      <rect id="사각형_857-6" data-name="사각형 857" width="24" height="24" transform="translate(175 592)" fill="none" opacity="0.4"/>
      <path id="패스_7334-6" data-name="패스 7334" d="M185.752,597.594l6.676,6.677-6.676,6.677" transform="translate(2)" fill="none" stroke="#707070" stroke-width="1"/>
      <path id="패스_7335-6" data-name="패스 7335" d="M192.313,604.27H177" transform="translate(2)" fill="none" stroke="#707070" stroke-width="1"/>
    </g>
  </g>
</svg>
