<svg xmlns="http://www.w3.org/2000/svg" width="60" height="60" viewBox="0 0 60 60">
    <path data-name="패스 6925" d="m1555.82 3634.56 4.18-2.41 5.67 3.26zm-1.74-.16 5.92-3.4 8.03 4.62 9.24.81 2.89 6.17 5.92 3.4v9.24l3.92 8.37-3.92 5.58v6.81l-8.03 4.62-5.32 7.57-6.81-.59-5.92 3.4-8.03-4.62-9.24-.81-2.89-6.17-5.92-3.4v-9.24l-3.92-8.37 3.92-5.58V3646l8.03-4.62 5.32-7.57zm-10.07 5.8 3.75-5.34 4.81.41zm-1.36 1.93 11.66-6.7 13.41 1.17 11.67 6.71 5.69 12.15v13.41l-7.73 11-11.66 6.7-13.41-1.17-11.67-6.71-5.69-12.15v-13.41zm-2.06 1.19-5.67 3.26v4.81zm-6.67 11.23-2.77 3.94 2.77 5.91zm1 14.35v6.52l4.18 2.41zm6.43 11.37 2.04 4.36 6.52.57zm12.98 6.32 5.67 3.26 4.18-2.41zm13.1.14 4.81.41 3.75-5.34zm11.98-8.05 5.67-3.26v-4.81zm6.67-11.23 2.77-3.94-2.77-5.91zm-1-14.35v-6.52l-4.18-2.41zm-6.43-11.37-2.04-4.36-6.52-.57z" style="fill-rule:evenodd;opacity:.2" transform="translate(-1530 -3631)"/>
    <path data-name="패스 6926" d="m1553.22 3658.33 6.67-7.33m0 0 6.66 7.33m-6.66-7.33v20" style="fill:none;stroke:#000;stroke-linecap:round;stroke-linejoin:round;stroke-width:1.5px" transform="translate(-1530 -3631)"/>
</svg>
