<svg id="call_ic" xmlns="http://www.w3.org/2000/svg" xmlns:xlink="http://www.w3.org/1999/xlink" width="24" height="24" viewBox="0 0 24 24">
  <defs>
    <clipPath id="clip-path">
      <rect id="사각형_1016" data-name="사각형 1016" width="24" height="24" fill="#999"/>
    </clipPath>
  </defs>
  <g id="그룹_10398" data-name="그룹 10398" clip-path="url(#clip-path)">
    <path id="패스_4250" data-name="패스 4250" d="M10.551,8.408l-.886.886a2.369,2.369,0,0,1-3.349,0l-1.61-1.61a2.369,2.369,0,0,1,0-3.349l.886-.886a.724.724,0,0,0,0-1.024L3.378.212a.724.724,0,0,0-1.024,0l-.9.9a4.967,4.967,0,0,0,0,7.025l4.408,4.408a4.967,4.967,0,0,0,7.025,0l.9-.9a.724.724,0,0,0,0-1.024L11.574,8.408a.724.724,0,0,0-1.024,0" transform="translate(5.001 5)" fill="#999"/>
  </g>
</svg>
