<svg id="Frame_512_1_" data-name="Frame 512 (1)" xmlns="http://www.w3.org/2000/svg" width="24" height="24" viewBox="0 0 24 24">
  <rect id="사각형_894" data-name="사각형 894" width="24" height="24" fill="none"/>
  <path id="패스_4236" data-name="패스 4236" d="M17,7a5,5,0,1,1-5-5A5,5,0,0,1,17,7ZM15,7a3,3,0,1,1-3-3A3,3,0,0,1,15,7Z" fill="#999" fill-rule="evenodd"/>
  <path id="패스_4237" data-name="패스 4237" d="M4,21a5,5,0,0,1,5-5h6a5,5,0,0,1,5,5,1,1,0,0,0,2,0,7,7,0,0,0-7-7H9a7,7,0,0,0-7,7,1,1,0,0,0,2,0Z" fill="#999"/>
</svg>
