<svg xmlns="http://www.w3.org/2000/svg" xmlns:xlink="http://www.w3.org/1999/xlink" width="16" height="16" viewBox="0 0 16 16">
  <defs>
    <clipPath id="clip-path">
      <rect id="사각형_999" data-name="사각형 999" width="4.6" height="7" fill="none"/>
    </clipPath>
  </defs>
  <g id="view_more_btn" transform="translate(-1564 -459)">
    <circle id="frame" cx="8" cy="8" r="8" transform="translate(1564 459)" fill="#999"/>
    <g id="ic" transform="translate(1569.7 463.5)">
      <g id="그룹_10367" data-name="그룹 10367" clip-path="url(#clip-path)">
        <path id="패스_4244" data-name="패스 4244" d="M.683,7a.682.682,0,0,1-.519-.241.7.7,0,0,1,.074-.975L2.869,3.5.238,1.215A.7.7,0,0,1,.164.241.675.675,0,0,1,1.125.167L4.361,2.976a.7.7,0,0,1,0,1.049L1.125,6.834A.67.67,0,0,1,.683,7" fill="#fff"/>
      </g>
    </g>
  </g>
</svg>
