<svg id="close_ic" xmlns="http://www.w3.org/2000/svg" xmlns:xlink="http://www.w3.org/1999/xlink" width="16" height="16" viewBox="0 0 16 16">
  <defs>
    <clipPath id="clip-path">
      <rect id="사각형_911" data-name="사각형 911" width="16" height="16" fill="none"/>
    </clipPath>
  </defs>
  <g id="그룹_2347" data-name="그룹 2347" clip-path="url(#clip-path)">
    <path id="패스_4236" data-name="패스 4236" d="M15,15.953a1.05,1.05,0,0,1-.726-.312L.358,1.726A1.019,1.019,0,0,1,.331.286,1.018,1.018,0,0,1,1.772.313L15.687,14.228a1.019,1.019,0,0,1,.028,1.441.979.979,0,0,1-.715.284" fill="#333"/>
    <path id="패스_4237" data-name="패스 4237" d="M1.038,16A1.038,1.038,0,0,1,.3,14.228L14.22.312A1.038,1.038,0,1,1,15.688,1.78L1.772,15.7a1.033,1.033,0,0,1-.734.3" fill="#333"/>
  </g>
</svg>
