<svg id="reset_ic" xmlns="http://www.w3.org/2000/svg" xmlns:xlink="http://www.w3.org/1999/xlink" width="14" height="13.998" viewBox="0 0 14 13.998">
  <defs>
    <clipPath id="clip-path">
      <rect id="사각형_879" data-name="사각형 879" width="14" height="13.998" fill="none"/>
    </clipPath>
  </defs>
  <g id="그룹_41" data-name="그룹 41" clip-path="url(#clip-path)">
    <path id="패스_4160" data-name="패스 4160" d="M13.4,4.176A6.993,6.993,0,0,0,1.369,2.85V1.794A.684.684,0,0,0,0,1.794V4.715A.685.685,0,0,0,.684,5.4H3.6a.684.684,0,1,0,0-1.368H2.216a5.626,5.626,0,1,1-.469,5.006.684.684,0,1,0-1.274.5,7.005,7.005,0,0,0,3.991,3.991A6.927,6.927,0,0,0,6.989,14,7,7,0,0,0,13.4,4.176" transform="translate(0 0)" fill="#666"/>
  </g>
</svg>
