<svg xmlns="http://www.w3.org/2000/svg" width="10" height="10" viewBox="0 0 10 10">
  <g id="arrow_ic_s" transform="translate(-763.873)">
    <rect id="사각형_1450" data-name="사각형 1450" width="10" height="10" transform="translate(763.873)" fill="#fff" opacity="0"/>
    <path id="패스_6236" data-name="패스 6236" d="M5,7a.565.565,0,0,1-.442-.227l-4.4-5.6A.784.784,0,0,1,.195.184a.542.542,0,0,1,.848.043L5,5.264,8.958.227A.542.542,0,0,1,9.805.184a.784.784,0,0,1,.037.989l-4.4,5.6A.565.565,0,0,1,5,7Z" transform="translate(765.5 10) rotate(-90)" fill="#23a0ef"/>
  </g>
</svg>
