<svg id="Frame_511_1_" data-name="Frame 511 (1)" xmlns="http://www.w3.org/2000/svg" width="24" height="24" viewBox="0 0 24 24">
  <rect id="사각형_878" data-name="사각형 878" width="24" height="24" fill="none"/>
  <path id="Frame_515" data-name="Frame 515" d="M21.121,9.121l-7-7a3,3,0,0,0-4.243,0l-7,7A3,3,0,0,0,2,11.242V19a3,3,0,0,0,3,3H19a3,3,0,0,0,3-3V11.242A3,3,0,0,0,21.121,9.121ZM4,11.242a1,1,0,0,1,.293-.707l7-7a1,1,0,0,1,1.414,0l7,7a1,1,0,0,1,.293.707V19a1,1,0,0,1-1,1H13V16a1,1,0,0,0-2,0v4H5a1,1,0,0,1-1-1Z" transform="translate(0 0.758)" fill="#23a0ef" fill-rule="evenodd"/>
</svg>
