<svg id="ic_link" xmlns="http://www.w3.org/2000/svg" width="24" height="24" viewBox="0 0 24 24">
  <rect id="사각형_857" data-name="사각형 857" width="24" height="24" fill="none" opacity="0.4"/>
  <rect id="사각형_860" data-name="사각형 860" width="20" height="20" transform="translate(2 2)" fill="none"/>
  <path id="Frame_520_1_" data-name="Frame 520 (1)" d="M6.5,2A4.5,4.5,0,0,0,2,6.5v11A4.5,4.5,0,0,0,6.5,22h11A4.5,4.5,0,0,0,22,17.5V15a.5.5,0,1,0-1,0v2.5A3.5,3.5,0,0,1,17.5,21H6.5A3.5,3.5,0,0,1,3,17.5V6.5A3.5,3.5,0,0,1,6.5,3H9A.5.5,0,0,0,9,2ZM14,2a.5.5,0,0,0,0,1h6.293l-8.646,8.646a.5.5,0,0,0,.707.707L21,3.707V10a.5.5,0,0,0,1,0V2.5a.5.5,0,0,0-.5-.5Z" fill-rule="evenodd"/>
</svg>
