<svg xmlns="http://www.w3.org/2000/svg" width="40" height="40" viewBox="0 0 40 40">
  <g id="그룹_10658" data-name="그룹 10658" transform="translate(14820 9052)">
    <rect id="사각형_1741" data-name="사각형 1741" width="40" height="40" transform="translate(-14820 -9052)" fill="none"/>
    <path id="icon_2px-tel" d="M32.989,27.427a2.19,2.19,0,0,1-.574,1.238l-2.184,2.183c-7.44,6.234-16.894-3.049-16.984-3.139l-4.941-4.94c-.09-.09-9.375-9.542-3.174-16.956L7.35,3.6a2.321,2.321,0,0,1,1.5-.6,1.088,1.088,0,0,1,.788.259L14.25,8.581a1.419,1.419,0,0,1,0,2l-1.688,1.688a4.524,4.524,0,0,0-.889,1.294,6.062,6.062,0,0,0,1.576,6.38l2.836,2.835a6.05,6.05,0,0,0,6.393,1.553,4.688,4.688,0,0,0,1.272-.9l1.666-1.665a1.431,1.431,0,0,1,2.037.034l5.279,4.58a1.256,1.256,0,0,1,.247,1.069Z" transform="translate(-14817.167 -9050.833)" fill="none" stroke="#000" stroke-linejoin="round" stroke-width="2"/>
  </g>
</svg>
