<svg xmlns="http://www.w3.org/2000/svg" width="62" height="72" viewBox="0 0 62 72">
  <g id="play" transform="translate(62) rotate(90)" fill="none" stroke-linecap="round" stroke-linejoin="round">
    <path d="M30.811,8.936a6,6,0,0,1,10.377,0L66.767,52.987A6,6,0,0,1,61.578,62H10.422a6,6,0,0,1-5.189-9.013Z" stroke="none"/>
    <path d="M 35.99999618530273 9.948955535888672 C 35.6537971496582 9.948955535888672 34.7922477722168 10.04598236083984 34.27040863037109 10.94469451904297 L 8.692398071289062 54.99571990966797 C 8.1683349609375 55.89828109741211 8.515220642089844 56.69655609130859 8.688697814941406 56.99787139892578 C 8.862159729003906 57.2991828918457 9.378307342529297 58.00000762939453 10.42198181152344 58.00000762939453 L 61.57802200317383 58.00000762939453 C 62.62168502807617 58.00000762939453 63.13783264160156 57.2991828918457 63.31129455566406 56.99787139892578 C 63.48477172851562 56.69655609130859 63.83167266845703 55.89828109741211 63.30760955810547 54.99571990966797 L 37.72958374023438 10.94470596313477 C 37.20774459838867 10.04598236083984 36.34619522094727 9.948955535888672 35.99999618530273 9.948955535888672 M 36 5.948963165283203 C 38.01620101928711 5.948963165283203 40.03240203857422 6.944694519042969 41.18873596191406 8.9361572265625 L 66.76676177978516 52.9871826171875 C 69.08932495117188 56.98716735839844 66.20340728759766 62.00000762939453 61.57802200317383 62.00000762939453 L 10.42198181152344 62.00000762939453 C 5.796592712402344 62.00000762939453 2.910667419433594 56.98716735839844 5.233245849609375 52.9871826171875 L 30.81126022338867 8.9361572265625 C 31.96759796142578 6.944694519042969 33.98379898071289 5.948963165283203 36 5.948963165283203 Z" stroke="none" fill="#fff"/>
  </g>
</svg>
