<svg xmlns="http://www.w3.org/2000/svg" xmlns:xlink="http://www.w3.org/1999/xlink" width="24" height="24" viewBox="0 0 24 24">
  <defs>
    <clipPath id="clip-path">
      <rect id="사각형_1015" data-name="사각형 1015" width="24" height="24" transform="translate(-0.315 -0.07)" fill="#999"/>
    </clipPath>
  </defs>
  <g id="parking_ic" transform="translate(0.315 0.07)">
    <g id="그룹_10396" data-name="그룹 10396" transform="translate(0 0)" clip-path="url(#clip-path)">
      <g id="그룹_10406" data-name="그룹 10406" transform="translate(-12.414 2)">
        <path id="패스_4255" data-name="패스 4255" d="M11.19,0H.81A.81.81,0,0,0,0,.81V11.19A.81.81,0,0,0,.81,12H11.19a.81.81,0,0,0,.81-.81V.81A.81.81,0,0,0,11.19,0M8.134,6.539a1.78,1.78,0,0,1-.781.647,2.893,2.893,0,0,1-1.194.228H5.276V8.737H3.844V3.674H6.159A2.893,2.893,0,0,1,7.353,3.9,1.715,1.715,0,0,1,8.408,5.547a1.766,1.766,0,0,1-.274.991" transform="translate(18.1 3.931)" fill="#999"/>
        <path id="패스_4256" data-name="패스 4256" d="M6.14,4.743H5.211v1.73H6.14a1.168,1.168,0,0,0,.776-.223.791.791,0,0,0,.262-.637.8.8,0,0,0-.262-.642,1.149,1.149,0,0,0-.776-.228" transform="translate(18.022 3.878)" fill="#999"/>
      </g>
    </g>
  </g>
</svg>
