<svg xmlns="http://www.w3.org/2000/svg" width="16" height="16" viewBox="0 0 16 16">
  <g id="info_btn" transform="translate(-0.114 -0.114)">
    <circle id="타원_22" data-name="타원 22" cx="8" cy="8" r="8" transform="translate(0.114 0.114)" fill="#cecece"/>
    <path id="패스_4226" data-name="패스 4226" d="M2.379,4.113a4.737,4.737,0,0,1,.7-.821A4.05,4.05,0,0,0,3.6,2.7a.977.977,0,0,0,.172-.566.887.887,0,0,0-.333-.719,1.355,1.355,0,0,0-.893-.275,1.792,1.792,0,0,0-1.6.814L0,1.291A2.819,2.819,0,0,1,1.089.332,3.469,3.469,0,0,1,2.658,0,2.756,2.756,0,0,1,4.409.512a1.7,1.7,0,0,1,.652,1.414,2.036,2.036,0,0,1-.132.763,2.117,2.117,0,0,1-.319.555,6.335,6.335,0,0,1-.49.524,3.959,3.959,0,0,0-.554.635,1.172,1.172,0,0,0-.181.656H2.138a1.734,1.734,0,0,1,.24-.948M2.2,7.353a.831.831,0,0,1-.221-.588A.812.812,0,0,1,2.2,6.184a.741.741,0,0,1,.564-.234.732.732,0,0,1,.554.234.812.812,0,0,1,.221.581.831.831,0,0,1-.221.588.725.725,0,0,1-.554.239A.735.735,0,0,1,2.2,7.353" transform="translate(5.536 4.27)" fill="#fff"/>
  </g>
</svg>
