<svg id="그룹_10501" data-name="그룹 10501" xmlns="http://www.w3.org/2000/svg" xmlns:xlink="http://www.w3.org/1999/xlink" width="48" height="48" viewBox="0 0 48 48">
  <defs>
    <clipPath id="clip-path">
      <rect id="사각형_1461" data-name="사각형 1461" width="48" height="48" fill="none"/>
    </clipPath>
  </defs>
  <g id="그룹_10500" data-name="그룹 10500" clip-path="url(#clip-path)">
    <g id="그룹_10502" data-name="그룹 10502" transform="translate(5)">
      <path id="패스_6271" data-name="패스 6271" d="M19.408,22.032A11.016,11.016,0,1,1,30.424,11.016,11.029,11.029,0,0,1,19.408,22.032m0-18.975a7.959,7.959,0,1,0,7.959,7.959,7.968,7.968,0,0,0-7.959-7.959" fill="#999"/>
      <path id="패스_6272" data-name="패스 6272" d="M35.249,48H3.567A3.571,3.571,0,0,1,0,44.434V38.846A14.883,14.883,0,0,1,14.865,23.981H23.95A14.883,14.883,0,0,1,38.816,38.846v5.588A3.571,3.571,0,0,1,35.249,48M14.865,27.038A11.822,11.822,0,0,0,3.057,38.846v5.588a.51.51,0,0,0,.51.509H35.249a.51.51,0,0,0,.51-.509V38.846A11.822,11.822,0,0,0,23.95,27.038Z" fill="#999"/>
      <path id="패스_6273" data-name="패스 6273" d="M22.138,34.66a2.731,2.731,0,1,1-2.73-2.73,2.73,2.73,0,0,1,2.73,2.73" fill="#dfdfdf"/>
    </g>
  </g>
</svg>
