<svg id="그룹_10499" data-name="그룹 10499" xmlns="http://www.w3.org/2000/svg" xmlns:xlink="http://www.w3.org/1999/xlink" width="48" height="48" viewBox="0 0 48 48">
  <defs>
    <clipPath id="clip-path">
      <rect id="사각형_1460" data-name="사각형 1460" width="48" height="48" fill="none"/>
    </clipPath>
  </defs>
  <g id="그룹_10498" data-name="그룹 10498" clip-path="url(#clip-path)">
    <path id="패스_6267" data-name="패스 6267" d="M19.536,22.033A11.017,11.017,0,1,1,30.625,11.016,11.065,11.065,0,0,1,19.536,22.033m0-18.976a7.96,7.96,0,1,0,8.012,7.959,7.994,7.994,0,0,0-8.012-7.959" fill="#999"/>
    <path id="패스_6268" data-name="패스 6268" d="M35.482,48H3.59A3.583,3.583,0,0,1,0,44.433V38.846A14.931,14.931,0,0,1,14.963,23.981h9.146A14.932,14.932,0,0,1,39.072,38.846v5.587A3.583,3.583,0,0,1,35.482,48M14.963,27.038A11.861,11.861,0,0,0,3.077,38.846v5.587a.512.512,0,0,0,.513.51H35.482a.512.512,0,0,0,.513-.51V38.846A11.862,11.862,0,0,0,24.109,27.038Z" fill="#999"/>
    <path id="패스_6269" data-name="패스 6269" d="M46.461,22.073H38.43a1.529,1.529,0,1,1,0-3.057h8.031a1.529,1.529,0,1,1,0,3.057" fill="#dfdfdf"/>
    <path id="패스_6270" data-name="패스 6270" d="M42.446,26.062a1.534,1.534,0,0,1-1.539-1.528V16.555a1.539,1.539,0,0,1,3.078,0v7.979a1.534,1.534,0,0,1-1.539,1.528" fill="#dfdfdf"/>
  </g>
</svg>
