<svg xmlns="http://www.w3.org/2000/svg" width="32" height="32" viewBox="0 0 32 32">
  <g id="gestures_ic" transform="translate(3.232 3.298)">
    <rect id="사각형_1032" data-name="사각형 1032" width="32" height="32" transform="translate(-3.232 -3.298)" fill="#fff" opacity="0"/>
    <g id="그룹_10468" data-name="그룹 10468" transform="translate(2.635 1.069)">
      <path id="패스_4258" data-name="패스 4258" d="M16.87,2.156a2.156,2.156,0,0,1,1.836,1,3.463,3.463,0,0,1,.529,1.9V8a3.356,3.356,0,0,1,1.74.813.821.821,0,0,0,.542.2h.136a3.542,3.542,0,0,1,2.533.889,1.152,1.152,0,0,0,.435.292,4.049,4.049,0,0,1,2.956,3.854v1.556a11.872,11.872,0,0,1-.232,2.4,7.559,7.559,0,0,1-1.272,3.084,1.237,1.237,0,0,0-.277.735v1.746a1.507,1.507,0,0,1-1.505,1.505H17.222a1.507,1.507,0,0,1-1.505-1.505v-1.6a1.084,1.084,0,0,0-.261-.716A9.758,9.758,0,0,1,12.9,15.078a3.659,3.659,0,0,1,1.146-2.8.531.531,0,0,0,.181-.372V4.974A2.616,2.616,0,0,1,16.87,2.156Zm1.617,7.287a.721.721,0,0,1-.471-.177.729.729,0,0,1-.249-.559V5.064c0-.5-.188-1.44-.9-1.44-.736,0-1.175.5-1.175,1.35v6.934a1.969,1.969,0,0,1-.645,1.443,2.167,2.167,0,0,0-.686,1.629.735.735,0,0,1,0,.074,8.449,8.449,0,0,0,2.193,5.233,2.551,2.551,0,0,1,.624,1.682v1.6a.038.038,0,0,0,.038.038H24.29a.038.038,0,0,0,.038-.038V21.826a2.67,2.67,0,0,1,.581-1.629,6.237,6.237,0,0,0,1-2.488,10.406,10.406,0,0,0,.2-2.1V14.049a2.561,2.561,0,0,0-1.962-2.465,2.6,2.6,0,0,1-1-.649,2.209,2.209,0,0,0-1.49-.454h-.136A2.275,2.275,0,0,1,20,9.912a1.941,1.941,0,0,0-1.289-.481c-.061,0-.1,0-.113,0A.721.721,0,0,1,18.487,9.443Z" transform="translate(-6.943 -1.444)" fill="#333"/>
      <path id="합치기_1" data-name="합치기 1" d="M-1532.318,9600.72a.735.735,0,0,1,0-1.039l.629-.629h-2.81a.734.734,0,0,1-.732-.734.732.732,0,0,1,.732-.732h2.811l-.63-.629a.735.735,0,0,1,0-1.039.733.733,0,0,1,1.036,0l1.884,1.882a.732.732,0,0,1,.214.519.725.725,0,0,1-.214.518l-1.882,1.885a.743.743,0,0,1-.52.214A.733.733,0,0,1-1532.318,9600.72Z" transform="translate(1549.215 -9596.069)" fill="#23a0ef" opacity="0.5"/>
      <path id="합치기_2" data-name="합치기 2" d="M-1533.135,9600.72l-1.882-1.885a.725.725,0,0,1-.214-.518.733.733,0,0,1,.214-.519l1.882-1.882a.735.735,0,0,1,1.038,0,.737.737,0,0,1,0,1.039l-.63.629h2.808a.734.734,0,0,1,.735.732.736.736,0,0,1-.735.734h-2.807l.629.629a.735.735,0,0,1,0,1.039.743.743,0,0,1-.521.214A.733.733,0,0,1-1533.135,9600.72Z" transform="translate(1534.865 -9596.069)" fill="#23a0ef" opacity="0.5"/>
    </g>
  </g>
</svg>
