<svg id="hospital_ic" xmlns="http://www.w3.org/2000/svg" xmlns:xlink="http://www.w3.org/1999/xlink" width="24" height="24" viewBox="0 0 24 24">
  <defs>
    <clipPath id="clip-path">
      <rect id="사각형_1017" data-name="사각형 1017" width="24" height="24" fill="#999"/>
    </clipPath>
  </defs>
  <g id="그룹_10400" data-name="그룹 10400" clip-path="url(#clip-path)">
    <path id="패스_4251" data-name="패스 4251" d="M0,.81V11.19A.81.81,0,0,0,.81,12H11.19a.81.81,0,0,0,.81-.81V.81A.81.81,0,0,0,11.19,0H.81A.81.81,0,0,0,0,.81M8.679,6.585a.253.253,0,0,1-.253.253H6.838V8.425a.253.253,0,0,1-.253.253H5.415a.253.253,0,0,1-.253-.253V6.838H3.574a.253.253,0,0,1-.253-.253V5.415a.253.253,0,0,1,.253-.253H5.162V3.574a.253.253,0,0,1,.253-.253H6.585a.253.253,0,0,1,.253.253V5.162H8.426a.253.253,0,0,1,.253.253Z" transform="translate(6 6)" fill="#999"/>
  </g>
</svg>
