<svg xmlns="http://www.w3.org/2000/svg" width="80" height="80" viewBox="0 0 80 80">
  <g id="mypage_icon_1" transform="translate(-365 -480)">
    <circle id="타원_61" data-name="타원 61" cx="40" cy="40" r="40" transform="translate(365 480)" fill="#ffc333"/>
    <path id="car" d="M10,26h6m16,0h6M8,20H7a3,3,0,0,0-3,3V38.5A1.5,1.5,0,0,0,5.5,40h7A1.5,1.5,0,0,0,14,38.5V35H34v3.5A1.5,1.5,0,0,0,35.5,40h7A1.5,1.5,0,0,0,44,38.5V23a3,3,0,0,0-3-3H40M8,20,12,8H36l4,12M8,20H40M8,20,2,16m38,4,6-4" transform="translate(381.5 494.5)" fill="none" stroke="#fff" stroke-width="3"/>
  </g>
</svg>
