<svg xmlns="http://www.w3.org/2000/svg" xmlns:xlink="http://www.w3.org/1999/xlink" width="56" height="56" viewBox="0 0 56 56">
  <defs>
    <clipPath id="clip-path">
      <rect id="사각형_1454" data-name="사각형 1454" width="56" height="56" fill="none"/>
    </clipPath>
    <filter id="패스_4228" x="19.861" y="14.054" width="16.208" height="14.898" filterUnits="userSpaceOnUse">
      <feOffset dy="1" input="SourceAlpha"/>
      <feGaussianBlur stdDeviation="1.5" result="blur"/>
      <feFlood flood-opacity="0.078"/>
      <feComposite operator="in" in2="blur"/>
      <feComposite in="SourceGraphic"/>
    </filter>
  </defs>
  <g id="Email_ic" transform="translate(-928 -913)">
    <g id="그룹_10410" data-name="그룹 10410" transform="translate(928 913)">
      <g id="그룹_10409" data-name="그룹 10409" clip-path="url(#clip-path)">
        <path id="패스_1" data-name="패스 1" d="M50.8,58.7H5.2A5.183,5.183,0,0,1,0,53.552V22.629A1.034,1.034,0,0,1,1.04,21.6H54.959A1.035,1.035,0,0,1,56,22.629V53.552A5.183,5.183,0,0,1,50.8,58.7M2.082,23.659V53.552A3.109,3.109,0,0,0,5.2,56.64H50.8a3.108,3.108,0,0,0,3.122-3.088V23.659Z" transform="translate(0 -2.7)" fill="#333"/>
        <path id="패스_2" data-name="패스 2" d="M25.687,1.963,1.19,20.074H55.108L30.61,1.963a4.14,4.14,0,0,0-4.923,0" transform="translate(-0.149 -0.144)" fill="#23a0ef"/>
        <path id="패스_3" data-name="패스 3" d="M54.959,20.959H1.041a1.04,1.04,0,0,1-.988-.7A1.022,1.022,0,0,1,.418,19.1L24.884,1.018a5.278,5.278,0,0,1,6.232,0L55.583,19.1a1.023,1.023,0,0,1,.364,1.15,1.039,1.039,0,0,1-.988.7M4.172,18.9H51.828L29.87,2.666a3.172,3.172,0,0,0-3.74,0Z" transform="translate(0 0)" fill="#333"/>
        <path id="패스_4" data-name="패스 4" d="M52.027,40.717H5.3V12.407a4.14,4.14,0,0,1,4.14-4.14H47.886a4.14,4.14,0,0,1,4.14,4.14Z" transform="translate(-0.662 -1.033)" fill="#fff"/>
        <path id="패스_5" data-name="패스 5" d="M51.879,41.6H5.149a1.034,1.034,0,0,1-1.04-1.029V12.238a5.182,5.182,0,0,1,5.2-5.148h38.4a5.182,5.182,0,0,1,5.2,5.148V40.571a1.034,1.034,0,0,1-1.04,1.029M6.191,39.541H50.838v-27.3a3.11,3.11,0,0,0-3.123-3.089H9.314a3.11,3.11,0,0,0-3.123,3.089Z" transform="translate(-0.514 -0.886)" fill="#333"/>
        <path id="패스_6" data-name="패스 6" d="M5.353,57.817H41.189a4.111,4.111,0,0,0,2.286-7.559L1.19,22.777V53.7a4.141,4.141,0,0,0,4.163,4.118" transform="translate(-0.149 -2.847)" fill="#23a0ef"/>
        <path id="패스_7" data-name="패스 7" d="M41.041,58.7H5.2A5.182,5.182,0,0,1,0,53.553V22.63a1.028,1.028,0,0,1,.547-.906,1.051,1.051,0,0,1,1.066.045L43.9,49.251a5.026,5.026,0,0,1,2.128,5.777A5.1,5.1,0,0,1,41.041,58.7M2.082,24.538V53.553A3.109,3.109,0,0,0,5.2,56.641H41.041a3.029,3.029,0,0,0,2.992-2.2,2.986,2.986,0,0,0-1.278-3.467Z" transform="translate(0 -2.7)" fill="#333"/>
        <path id="패스_8" data-name="패스 8" d="M2.906,56.842a4.153,4.153,0,0,0,2.662.976H51.159A4.141,4.141,0,0,0,55.322,53.7V22.777Z" transform="translate(-0.363 -2.847)" fill="#fff"/>
        <path id="패스_9" data-name="패스 9" d="M51.009,58.7H5.419a5.165,5.165,0,0,1-3.331-1.218,1.023,1.023,0,0,1,.1-1.649L54.6,21.769a1.053,1.053,0,0,1,1.066-.045,1.028,1.028,0,0,1,.547.906V53.552a5.182,5.182,0,0,1-5.2,5.148M4.824,56.583a2.982,2.982,0,0,0,.6.059h45.59a3.11,3.11,0,0,0,3.123-3.089V24.537Z" transform="translate(-0.214 -2.7)" fill="#333"/>
      </g>
    </g>
    <g id="그룹_10411" data-name="그룹 10411" transform="translate(949 926.44)">
      <circle id="타원_43" data-name="타원 43" cx="7" cy="7" r="7" fill="#ffc333"/>
      <g transform="matrix(1, 0, 0, 1, -21, -13.44)" filter="url(#패스_4228)">
        <path id="패스_4228-2" data-name="패스 4228" d="M1.117,4.4a.643.643,0,0,1-.488-.225L-1.345,1.868A.644.644,0,0,1-1.276.96a.642.642,0,0,1,.907.07L1.117,2.765l3.46-4.041a.642.642,0,0,1,.907-.07.644.644,0,0,1,.07.907L1.605,4.173A.643.643,0,0,1,1.117,4.4Z" transform="translate(25.86 19.05)" fill="#fff"/>
      </g>
    </g>
  </g>
</svg>
