<svg xmlns="http://www.w3.org/2000/svg" xmlns:xlink="http://www.w3.org/1999/xlink" width="24" height="24" viewBox="0 0 24 24">
  <defs>
    <clipPath id="clip-path">
      <rect id="사각형_978" data-name="사각형 978" width="24" height="24" transform="translate(-5 -3)" fill="#333"/>
    </clipPath>
  </defs>
  <g id="location_ic" transform="translate(5 3)">
    <g id="그룹_10255" data-name="그룹 10255" transform="translate(0 0)" clip-path="url(#clip-path)">
      <g id="그룹_10267" data-name="그룹 10267" transform="translate(-0.502)">
        <path id="패스_4234" data-name="패스 4234" d="M7.5,18a1.742,1.742,0,0,1-1.33-.613L1.763,12.2a7.352,7.352,0,0,1,0-9.554,7.544,7.544,0,0,1,11.473,0,7.352,7.352,0,0,1,0,9.554L8.829,17.387A1.739,1.739,0,0,1,7.5,18Zm.338-2h0ZM7.5,2.156A5.326,5.326,0,0,0,3.43,4.032a5.215,5.215,0,0,0,0,6.777L7.5,15.6l4.07-4.792a5.215,5.215,0,0,0,0-6.777A5.327,5.327,0,0,0,7.5,2.156" transform="translate(0.002)" fill="#333"/>
        <path id="패스_4235" data-name="패스 4235" d="M9.163,12.452a3.063,3.063,0,1,1,3.094-3.063,3.082,3.082,0,0,1-3.094,3.063m0-3.97a.907.907,0,1,0,.916.907.913.913,0,0,0-.916-.907" transform="translate(-1.662 -1.778)" fill="#333"/>
      </g>
    </g>
  </g>
</svg>
