<svg xmlns="http://www.w3.org/2000/svg" xmlns:xlink="http://www.w3.org/1999/xlink" width="260" height="220" viewBox="0 0 260 220">
  <defs>
    <clipPath id="clip-path">
      <rect id="사각형_1482" data-name="사각형 1482" width="260" height="220" transform="translate(-25.842)" fill="none"/>
    </clipPath>
  </defs>
  <g id="step_01_img" transform="translate(25.842)">
    <g id="그룹_3330" data-name="그룹 3330" clip-path="url(#clip-path)">
      <g id="그룹_3332" data-name="그룹 3332" transform="translate(-1.842)">
        <path id="패스_6741" data-name="패스 6741" d="M319.7,172.464a12.464,12.464,0,0,1-12.464,12.464H270.71a12.464,12.464,0,1,1,0-24.928h36.522A12.464,12.464,0,0,1,319.7,172.464" transform="translate(-108.538 -67.246)" fill="#ffea5e"/>
        <path id="패스_6742" data-name="패스 6742" d="M306.391,185.246H269.869a13.623,13.623,0,0,1,0-27.246h36.522a13.623,13.623,0,0,1,0,27.246m-36.522-24.928a11.3,11.3,0,1,0,0,22.609h36.522a11.3,11.3,0,0,0,0-22.609Z" transform="translate(-107.698 -66.406)" fill="#3e3a39"/>
        <path id="사각형_1480" data-name="사각형 1480" d="M18.659,0H92a18.659,18.659,0,0,1,18.659,18.659V189.691A18.66,18.66,0,0,1,92,208.351H18.66A18.66,18.66,0,0,1,0,189.691V18.659A18.659,18.659,0,0,1,18.659,0Z" transform="translate(55.538 10.489)" fill="#fff"/>
        <path id="패스_6743" data-name="패스 6743" d="M194.808,226.764H105.779A11.99,11.99,0,0,1,93.8,214.788V28.071a11.99,11.99,0,0,1,11.976-11.977h89.028a11.99,11.99,0,0,1,11.976,11.977V214.788a11.99,11.99,0,0,1-11.976,11.976M105.779,18.413a9.669,9.669,0,0,0-9.657,9.658V214.788a9.669,9.669,0,0,0,9.657,9.657h89.028a9.669,9.669,0,0,0,9.657-9.657V28.071a9.669,9.669,0,0,0-9.657-9.658Z" transform="translate(-39.424 -6.764)" fill="#333"/>
        <path id="패스_6744" data-name="패스 6744" d="M144.052,18.094A15.048,15.048,0,0,0,159.1,33.142h24.624a15.048,15.048,0,0,0,15.048-15.048Z" transform="translate(-60.543 -7.605)" fill="#dcdddd"/>
        <path id="패스_6745" data-name="패스 6745" d="M182.885,33.461H158.261a16.226,16.226,0,0,1-16.208-16.208,1.159,1.159,0,0,1,1.159-1.159h54.721a1.16,1.16,0,0,1,1.159,1.159,16.226,16.226,0,0,1-16.208,16.208M144.42,18.413a13.908,13.908,0,0,0,13.841,12.729h24.624a13.907,13.907,0,0,0,13.841-12.729Z" transform="translate(-59.704 -6.764)" fill="#333"/>
        <path id="패스_6746" data-name="패스 6746" d="M168.478,85.116a8.116,8.116,0,1,0-8.116,8.116,8.116,8.116,0,0,0,8.116-8.116" transform="translate(-63.987 -32.362)" fill="#ffea5e"/>
        <path id="패스_6747" data-name="패스 6747" d="M232.246,85.319H193.405a1.159,1.159,0,0,1,0-2.319h38.841a1.159,1.159,0,1,1,0,2.319" transform="translate(-80.799 -34.884)" fill="#333"/>
        <path id="패스_6748" data-name="패스 6748" d="M232.246,97.319H193.405a1.159,1.159,0,0,1,0-2.319h38.841a1.159,1.159,0,1,1,0,2.319" transform="translate(-80.799 -39.927)" fill="#333"/>
        <path id="패스_6749" data-name="패스 6749" d="M168.478,126.116a8.116,8.116,0,1,0-8.116,8.116,8.116,8.116,0,0,0,8.116-8.116" transform="translate(-63.987 -49.594)" fill="#ffea5e"/>
        <path id="패스_6750" data-name="패스 6750" d="M232.246,126.319H193.405a1.159,1.159,0,0,1,0-2.319h38.841a1.159,1.159,0,1,1,0,2.319" transform="translate(-80.799 -52.116)" fill="#333"/>
        <path id="패스_6751" data-name="패스 6751" d="M232.246,138.319H193.405a1.159,1.159,0,0,1,0-2.319h38.841a1.159,1.159,0,1,1,0,2.319" transform="translate(-80.799 -57.159)" fill="#333"/>
        <path id="패스_6752" data-name="패스 6752" d="M168.478,167.116a8.116,8.116,0,1,0-8.116,8.116,8.116,8.116,0,0,0,8.116-8.116" transform="translate(-63.987 -66.826)" fill="#ffea5e"/>
        <path id="패스_6753" data-name="패스 6753" d="M232.246,167.319H193.405a1.159,1.159,0,0,1,0-2.319h38.841a1.159,1.159,0,1,1,0,2.319" transform="translate(-80.799 -69.348)" fill="#333"/>
        <path id="패스_6754" data-name="패스 6754" d="M232.246,179.319H193.405a1.159,1.159,0,0,1,0-2.319h38.841a1.159,1.159,0,1,1,0,2.319" transform="translate(-80.799 -74.391)" fill="#333"/>
        <path id="패스_6755" data-name="패스 6755" d="M80.268,355.5a9.917,9.917,0,0,0,4.058,5.217c3.188,2.029,7.536,2.319,7.246,7.536H63.746V356.37" transform="translate(-26.792 -149.413)" fill="#c9bc9c"/>
        <path id="패스_6756" data-name="패스 6756" d="M90.732,368.572H62.905a1.16,1.16,0,0,1-1.159-1.159V355.529a1.159,1.159,0,1,1,2.319,0v10.725H89.551c-.242-2.157-1.721-2.954-4.1-4.056a21.733,21.733,0,0,1-2.587-1.343,11.07,11.07,0,0,1-4.554-5.89,1.16,1.16,0,0,1,2.236-.615,8.859,8.859,0,0,0,3.563,4.55,19.957,19.957,0,0,0,2.315,1.194c2.553,1.181,5.729,2.65,5.467,7.384a1.159,1.159,0,0,1-1.158,1.1" transform="translate(-25.951 -148.572)" fill="#333"/>
        <path id="패스_6757" data-name="패스 6757" d="M107.768,355.5a9.917,9.917,0,0,0,4.058,5.217c3.188,2.029,7.536,2.319,7.246,7.536H91.246V356.37" transform="translate(-38.35 -149.413)" fill="#c9bc9c"/>
        <path id="패스_6758" data-name="패스 6758" d="M118.232,368.572H90.405a1.16,1.16,0,0,1-1.159-1.159V355.529a1.159,1.159,0,1,1,2.319,0v10.725h25.486c-.242-2.157-1.721-2.954-4.1-4.056a21.733,21.733,0,0,1-2.587-1.343,11.07,11.07,0,0,1-4.554-5.89,1.16,1.16,0,0,1,2.236-.615,8.859,8.859,0,0,0,3.563,4.55,19.957,19.957,0,0,0,2.315,1.194c2.553,1.181,5.729,2.65,5.467,7.384a1.159,1.159,0,0,1-1.158,1.1" transform="translate(-37.509 -148.572)" fill="#333"/>
        <path id="패스_6759" data-name="패스 6759" d="M86.036,269H45.746s-2.9,12.174-.29,22.029S53.862,320.3,53.862,320.3h19.71l12.754-40" transform="translate(-18.647 -113.058)" fill="#a48b78"/>
        <path id="패스_6760" data-name="패스 6760" d="M72.727,320.623H53.017a1.159,1.159,0,0,1-1.111-.828c-.059-.195-5.832-19.55-8.416-29.31-2.653-10.021.162-22.086.283-22.594A1.159,1.159,0,0,1,44.9,267H85.19a1.159,1.159,0,0,1,0,2.319H45.84c-.587,2.945-2.212,12.624-.108,20.573,2.269,8.572,7.016,24.6,8.149,28.413h18l12.5-39.192a1.159,1.159,0,1,1,2.209.7l-12.754,40a1.159,1.159,0,0,1-1.1.808" transform="translate(-17.801 -112.217)" fill="#333"/>
        <path id="패스_6761" data-name="패스 6761" d="M97.6,276l2.609,47.246H79.05l-6.377-23.478A13.461,13.461,0,0,0,67.746,296" transform="translate(-28.473 -116)" fill="#a48b78"/>
        <path id="패스_6762" data-name="패스 6762" d="M99.369,323.566H78.209a1.159,1.159,0,0,1-1.119-.856L70.78,299.473a12.221,12.221,0,0,0-4.306-3.237,1.159,1.159,0,1,1,.861-2.153,14.577,14.577,0,0,1,5.412,4.133,1.174,1.174,0,0,1,.2.408L79.1,321.247H98.144L95.6,275.224A1.159,1.159,0,0,1,96.7,274a1.172,1.172,0,0,1,1.221,1.094l2.609,47.246a1.159,1.159,0,0,1-1.158,1.223" transform="translate(-27.632 -115.16)" fill="#333"/>
        <path id="패스_6763" data-name="패스 6763" d="M91.027,212.391l-2.512,23H44.747S51.7,188.141,60.4,181.474s22.9,4.638,22.9,4.638" transform="translate(-18.807 -75.387)" fill="#23a0ef"/>
        <path id="패스_6764" data-name="패스 6764" d="M87.673,235.7H43.905a1.16,1.16,0,0,1-1.147-1.329c.288-1.948,7.128-47.79,16.094-54.664,9.306-7.134,23.717,4.166,24.326,4.65a1.159,1.159,0,0,1-1.443,1.814c-.135-.107-13.6-10.662-21.471-4.625-6.606,5.064-12.876,37.925-15.011,51.834H86.634l2.4-21.963a1.159,1.159,0,0,1,2.3.252l-2.512,23a1.16,1.16,0,0,1-1.152,1.034" transform="translate(-17.966 -74.538)" fill="#333"/>
        <path id="패스_6765" data-name="패스 6765" d="M139.611,139.849a50.6,50.6,0,0,0,8.073-3.957c3.852-2.4,8.038-7.446,10.428-6.8s.693,4.3-.562,6.457c0,0,4.129,3.69,2.54,8.5s-11.016,12.965-11.016,12.965" transform="translate(-58.677 -54.234)" fill="#fff3e3"/>
        <path id="패스_6766" data-name="패스 6766" d="M148.233,157.332a1.159,1.159,0,0,1-.759-2.036c2.555-2.212,9.454-8.761,10.674-12.452,1.325-4.006-2.069-7.139-2.214-7.27a1.163,1.163,0,0,1-.226-1.445c1.479-2.543,1.759-4.042,1.55-4.554-.024-.058-.056-.138-.291-.2-.931-.256-3.382,1.809-5.166,3.317a39.307,39.307,0,0,1-4.346,3.346,51.259,51.259,0,0,1-8.284,4.06,1.159,1.159,0,0,1-.8-2.175,49.883,49.883,0,0,0,7.863-3.853,37.729,37.729,0,0,0,4.074-3.148c2.768-2.338,5.156-4.359,7.271-3.783A2.622,2.622,0,0,1,159.4,128.7c.536,1.31.112,3.269-1.262,5.832,1.23,1.4,3.609,4.807,2.208,9.045-1.669,5.052-10.962,13.136-11.357,13.477a1.156,1.156,0,0,1-.758.283" transform="translate(-57.836 -53.392)" fill="#333"/>
        <path id="패스_6767" data-name="패스 6767" d="M129.768,155s8.406-.58,8.7,11.594,5.217,30.725-3.478,35.652-18.841-8.116-18.841-8.116l-2.9-26.377" transform="translate(-47.596 -65.142)" fill="#fff3e3"/>
        <path id="패스_6768" data-name="패스 6768" d="M129.917,203.689c-7.883,0-15.162-9.22-15.528-9.69a1.166,1.166,0,0,1-.237-.586l-2.9-26.377a1.159,1.159,0,0,1,2.3-.253l2.861,26.038c1.417,1.712,10.052,11.6,17.154,7.573,5.9-3.343,4.72-14.686,3.679-24.695-.368-3.54-.716-6.885-.788-9.921-.1-4.043-1.123-6.985-3.052-8.743a6.637,6.637,0,0,0-4.4-1.722,1.159,1.159,0,0,1-.16-2.313,8.859,8.859,0,0,1,6.127,2.322c2.415,2.2,3.7,5.7,3.808,10.4.07,2.944.413,6.243.777,9.736,1.169,11.239,2.377,22.861-4.842,26.952a9.6,9.6,0,0,1-4.8,1.277" transform="translate(-46.755 -64.302)" fill="#333"/>
        <path id="패스_6769" data-name="패스 6769" d="M102.6,103a37.9,37.9,0,0,1,3,16.232s-.58,3.768,1.449,5.507,2.609,3.478.58,4.928c0,0,2.609,16.812-13.043,20.58s-33.333-.58-33.333-.58l4.928-32.174" transform="translate(-25.741 -43.289)" fill="#fff3e3"/>
        <path id="패스_6770" data-name="패스 6770" d="M79.465,152.113a89,89,0,0,1-19.337-2.162,1.159,1.159,0,0,1-.869-1.3l4.928-32.174a1.159,1.159,0,0,1,2.292.351l-4.763,31.1c3.974.834,18.692,3.494,31.751.35,14.448-3.478,12.269-18.631,12.169-19.275a1.16,1.16,0,0,1,.472-1.121c.5-.358.761-.7.776-1.031.023-.515-.5-1.271-1.437-2.073-2.368-2.03-1.921-5.973-1.848-6.509.537-7.983-2.863-15.555-2.9-15.631a1.159,1.159,0,0,1,2.109-.963,38.712,38.712,0,0,1,3.1,16.795c0,.032-.006.064-.01.1-.13.872-.194,3.377,1.058,4.45,1.546,1.326,2.3,2.65,2.244,3.936a3.383,3.383,0,0,1-1.2,2.374c.288,3.308.654,17.678-13.992,21.2a62.7,62.7,0,0,1-14.545,1.581m25.288-33.723h0Z" transform="translate(-24.9 -42.449)" fill="#333"/>
        <path id="패스_6771" data-name="패스 6771" d="M89.246,186.174s4.251-5.41,10.821-6.57,18.164,10.048,18.164,10.048,5.8,15.845-8.5,22.8c0,0-5.8-3.864-9.275-1.546" transform="translate(-37.509 -75.45)" fill="#03a3ff"/>
        <path id="패스_6772" data-name="패스 6772" d="M108.889,212.774a1.156,1.156,0,0,1-.643-.195c-1.437-.952-5.673-3.09-7.99-1.546a1.159,1.159,0,0,1-1.286-1.93c3.4-2.264,8.289.2,9.974,1.184,11.719-6.147,8.1-18.841,7.442-20.832-3.283-3.121-12.158-10.4-16.958-9.55-6.035,1.065-10.072,6.1-10.112,6.146a1.159,1.159,0,0,1-1.822-1.434c.184-.235,4.6-5.773,11.53-7,6.949-1.224,17.943,9.167,19.172,10.357a1.162,1.162,0,0,1,.283.435c.061.168,5.983,16.913-9.084,24.242a1.156,1.156,0,0,1-.507.117" transform="translate(-36.669 -74.611)" fill="#333"/>
        <path id="패스_6773" data-name="패스 6773" d="M76.2,114.9s-6.57-3.091-7.729,3.478,5.8,9.275,5.8,9.275-2.319,8.5-17.778,11.981S33.3,133.061,30.6,123.4,19.389,89.776,43.737,82.82s43.672-1.159,44.445,10.435c0,0-1.352,1.74-7.729,1.45,0,0,.386,11.689-4.252,20.191" transform="translate(-11.324 -33.545)" fill="#7a6a56"/>
        <path id="패스_6774" data-name="패스 6774" d="M49.549,140.667c-14.671,0-19.653-13.28-20.918-17.8-.15-.538-.319-1.121-.5-1.743-2.156-7.446-5.765-19.909-.431-29.55,2.82-5.1,7.822-8.7,14.869-10.715,16.389-4.682,31.759-3.94,40.115,1.936,3.549,2.5,5.557,5.794,5.805,9.537a1.159,1.159,0,0,1-.241.789c-.269.346-1.861,1.977-7.478,1.929-.035,3.283-.5,12.414-4.4,19.557a1.159,1.159,0,0,1-1.51.494c-.722-.335-2.914-1.033-4.38-.269a3.759,3.759,0,0,0-1.715,2.9c-.983,5.568,5.014,7.97,5.075,7.993a1.16,1.16,0,0,1,.7,1.386c-.1.374-2.686,9.217-18.642,12.806a28.894,28.894,0,0,1-6.347.749M62.914,80.159A72.767,72.767,0,0,0,43.206,83.09c-6.433,1.838-10.968,5.071-13.477,9.608-4.868,8.8-1.427,20.682.63,27.782.182.63.352,1.219.5,1.763,1.293,4.62,6.89,19.382,24.523,15.413,11.56-2.6,15.43-8.113,16.531-10.271-2.734-1.464-6.357-4.846-5.438-10.056a5.916,5.916,0,0,1,2.939-4.558,7.309,7.309,0,0,1,5.374-.162c3.946-8.032,3.654-18.6,3.651-18.711a1.159,1.159,0,0,1,1.212-1.2c3.983.18,5.777-.466,6.458-.83a10.559,10.559,0,0,0-4.764-7.18c-4.274-3.006-10.81-4.534-18.436-4.534" transform="translate(-10.475 -32.701)" fill="#333"/>
        <path id="패스_6775" data-name="패스 6775" d="M67,109.015a1.159,1.159,0,0,1-.123-2.312l29.508-3.2a1.159,1.159,0,1,1,.25,2.3l-29.507,3.2a1.17,1.17,0,0,1-.127.007" transform="translate(-27.674 -43.5)" fill="#333"/>
        <path id="패스_6776" data-name="패스 6776" d="M124.746,123.1s3.768-4.058,6.957-3.188" transform="translate(-52.43 -50.346)" fill="#7a6a56"/>
        <path id="패스_6777" data-name="패스 6777" d="M123.905,123.418a1.159,1.159,0,0,1-.85-1.947c.435-.468,4.358-4.541,8.111-3.518a1.159,1.159,0,1,1-.61,2.237c-2.05-.562-4.883,1.875-5.8,2.86a1.156,1.156,0,0,1-.849.369" transform="translate(-51.589 -49.505)" fill="#333"/>
        <path id="패스_6778" data-name="패스 6778" d="M128.5,149.093c-1.3,2.483-4.937,3.143-8.129,1.475s-4.729-5.033-3.431-7.516,4.937-3.143,8.129-1.475,4.729,5.033,3.431,7.516" transform="translate(-48.956 -59.116)" fill="#ffddcb"/>
        <path id="패스_6779" data-name="패스 6779" d="M131.065,137.964c0,1.361-.519,2.464-1.159,2.464s-1.159-1.1-1.159-2.464.519-2.464,1.159-2.464,1.159,1.1,1.159,2.464" transform="translate(-54.111 -56.949)" fill="#3e3a39"/>
        <path id="패스_6780" data-name="패스 6780" d="M136.719,168.342s-3.188-5.217,0-7.826,3.478,3.188,5.217,4.348" transform="translate(-56.866 -67.183)" fill="#fff3e3"/>
        <path id="패스_6781" data-name="패스 6781" d="M135.873,168.66a1.158,1.158,0,0,1-.99-.554c-.151-.248-3.67-6.117.255-9.328a3.178,3.178,0,0,1,2.754-.866c1.465.347,2.17,1.92,2.791,3.308a5.983,5.983,0,0,0,1.05,1.838,1.159,1.159,0,1,1-1.286,1.929,6.408,6.408,0,0,1-1.881-2.82c-.278-.622-.857-1.916-1.208-2-.056-.013-.3.036-.751.4-2.365,1.934.23,6.282.256,6.326a1.16,1.16,0,0,1-.99,1.762" transform="translate(-56.02 -66.342)" fill="#333"/>
        <path id="패스_6782" data-name="패스 6782" d="M130.907,184.986a1.119,1.119,0,0,1-.152-.01,1.16,1.16,0,0,1-1-1.3l.87-6.667a1.159,1.159,0,0,1,2.3.3l-.87,6.667a1.159,1.159,0,0,1-1.148,1.009" transform="translate(-54.531 -73.972)" fill="#3e3a39"/>
        <path id="패스_6783" data-name="패스 6783" d="M162.775,148s2.9,2.319,1.739,4.348-3.768.58-3.768.58" transform="translate(-67.56 -62.203)" fill="#fff3e3"/>
        <path id="패스_6784" data-name="패스 6784" d="M161.8,153.752a5.3,5.3,0,0,1-2.455-.652,1.16,1.16,0,0,1,1.126-2.027c.16.088,1.632.847,2.2-.141.554-.97-1.008-2.508-1.457-2.868a1.159,1.159,0,0,1,1.448-1.81c1.365,1.092,3.326,3.547,2.022,5.828a3.152,3.152,0,0,1-2.883,1.67" transform="translate(-66.719 -61.362)" fill="#333"/>
        <path id="패스_6785" data-name="패스 6785" d="M273.684,309.329h30.145a5.985,5.985,0,0,0,3.528-10.824,5.987,5.987,0,0,0,3.345-10.921,5.985,5.985,0,0,0,0-11.777,5.989,5.989,0,0,0-3.395-10.923H282.766a22.213,22.213,0,0,0,3.865-10.821c.387-6.184-3.865-7.73-6.957-5.8s-1.159,3.864-4.638,8.5-13.14,9.663-14.3,17.391h-8.116v28.6h7.73a17.165,17.165,0,0,0,13.333,6.57" transform="translate(-106.174 -104.015)" fill="#fff3e3"/>
        <path id="패스_6786" data-name="패스 6786" d="M302.989,309.651H272.844a18.235,18.235,0,0,1-13.9-6.57H251.78a1.16,1.16,0,0,1-1.159-1.159v-28.6a1.16,1.16,0,0,1,1.159-1.159h7.161c1.212-5.1,5.631-8.915,9.558-12.305a34.432,34.432,0,0,0,4.769-4.622A11.786,11.786,0,0,0,275.5,250.5a5.669,5.669,0,0,1,2.715-4.056,5.611,5.611,0,0,1,5.85-.246c1.2.712,3.16,2.582,2.878,7.1a23.038,23.038,0,0,1-2.924,9.589h22.443A7.147,7.147,0,0,1,312.05,274.5a7.148,7.148,0,0,1,0,12.719,7.143,7.143,0,0,1-3.2,11.2,7.14,7.14,0,0,1-5.859,11.234m-50.049-8.889h6.57a1.159,1.159,0,0,1,.947.491,16.152,16.152,0,0,0,12.386,6.079h30.145a4.836,4.836,0,0,0,4.831-4.831,4.788,4.788,0,0,0-1.988-3.9,1.16,1.16,0,0,1,.675-2.1,4.828,4.828,0,0,0,2.7-8.806,1.16,1.16,0,0,1,.451-2.1,4.825,4.825,0,0,0,0-9.5,1.16,1.16,0,0,1-.451-2.1,4.829,4.829,0,0,0-2.737-8.809H281.925A1.159,1.159,0,0,1,281,263.35a21.228,21.228,0,0,0,3.635-10.2c.152-2.437-.47-4.2-1.75-4.961a3.311,3.311,0,0,0-3.434.22,3.466,3.466,0,0,0-1.7,2.67,14.14,14.14,0,0,1-2.626,5.545,35.829,35.829,0,0,1-5.109,4.986c-3.871,3.341-8.259,7.13-8.972,11.882a1.16,1.16,0,0,1-1.147.987H252.94Z" transform="translate(-105.333 -103.177)" fill="#333"/>
        <rect id="사각형_1481" data-name="사각형 1481" width="13.14" height="34.01" transform="translate(136.978 167.632)" fill="#23a0ef"/>
        <path id="패스_6787" data-name="패스 6787" d="M248.586,323.495h-13.14a1.159,1.159,0,0,1-1.159-1.159v-34.01a1.16,1.16,0,0,1,1.159-1.159h13.14a1.159,1.159,0,0,1,1.159,1.159v34.01a1.159,1.159,0,0,1-1.159,1.159m-11.98-2.319h10.821V289.485H236.606Z" transform="translate(-98.468 -120.693)" fill="#333"/>
        <path id="패스_6788" data-name="패스 6788" d="M248.158,298.081a1.957,1.957,0,1,0-1.957,1.957,1.957,1.957,0,0,0,1.957-1.957" transform="translate(-102.654 -124.458)" fill="#3e3a39"/>
        <path id="패스_6789" data-name="패스 6789" d="M39.156,52.384a4.984,4.984,0,1,0,0,7.049,4.985,4.985,0,0,0,0-7.049" transform="translate(-12.881 -21.403)" fill="#ff7179"/>
        <path id="패스_6790" data-name="패스 6790" d="M34.793,61.211a6.141,6.141,0,1,1,4.344-1.8,6.125,6.125,0,0,1-4.344,1.8m0-9.963a3.823,3.823,0,1,0,2.7,1.118,3.814,3.814,0,0,0-2.7-1.118" transform="translate(-12.042 -20.565)" fill="#333"/>
        <path id="패스_6791" data-name="패스 6791" d="M22.933,37.059a3.739,3.739,0,0,1-2.642-6.383,14.892,14.892,0,0,1,21.059,0,3.738,3.738,0,0,1-5.288,5.285,7.414,7.414,0,0,0-10.484,0,3.73,3.73,0,0,1-2.644,1.1" transform="translate(-8.068 -11.06)" fill="#ff7179"/>
        <path id="패스_6792" data-name="패스 6792" d="M22.094,37.377a4.9,4.9,0,0,1-3.463-8.361,16.051,16.051,0,0,1,22.7,0A4.9,4.9,0,0,1,34.4,35.942a6.255,6.255,0,0,0-8.844,0,4.874,4.874,0,0,1-3.464,1.435m7.886-10.743a13.647,13.647,0,0,0-9.71,4.021A2.579,2.579,0,1,0,23.919,34.3a8.573,8.573,0,0,1,12.123,0,2.579,2.579,0,0,0,3.649-3.646,13.645,13.645,0,0,0-9.71-4.021" transform="translate(-7.229 -10.22)" fill="#333"/>
        <path id="패스_6793" data-name="패스 6793" d="M41.445,16.87a3.727,3.727,0,0,1-2.644-1.1,21.507,21.507,0,0,0-30.419,0A3.738,3.738,0,0,1,3.1,10.489a28.988,28.988,0,0,1,40.993,0,3.737,3.737,0,0,1-2.644,6.38" transform="translate(-0.841 -0.841)" fill="#ff7179"/>
        <path id="패스_6794" data-name="패스 6794" d="M4.9,17.19h0A4.9,4.9,0,0,1,1.435,8.828a30.148,30.148,0,0,1,42.633,0,4.9,4.9,0,0,1-6.928,6.925,20.349,20.349,0,0,0-28.78,0A4.863,4.863,0,0,1,4.9,17.19M22.751,2.319A27.644,27.644,0,0,0,3.075,10.468a2.58,2.58,0,0,0,1.823,4.4h0a2.56,2.56,0,0,0,1.823-.755,22.666,22.666,0,0,1,32.059,0,2.579,2.579,0,1,0,3.648-3.645A27.639,27.639,0,0,0,22.751,2.319" fill="#333"/>
        <path id="패스_6795" data-name="패스 6795" d="M275.652,195H237.971a10.725,10.725,0,1,0,0,21.449h6.4a14.333,14.333,0,0,1-6.686,9.855s11.25-.541,17.785-9.855h20.186a10.725,10.725,0,1,0,0-21.449" transform="translate(-95.509 -81.957)" fill="#ffc333"/>
        <path id="패스_6796" data-name="패스 6796" d="M236.84,226.623a1.16,1.16,0,0,1-.584-2.161,12.693,12.693,0,0,0,5.8-7.694H237.13a11.884,11.884,0,0,1,0-23.768h37.681a11.884,11.884,0,0,1,0,23.768H255.219c-6.819,9.2-17.849,9.831-18.323,9.854h-.056m.29-31.3a9.565,9.565,0,0,0,0,19.13h6.4a1.159,1.159,0,0,1,1.138,1.38A16.576,16.576,0,0,1,241,223.523a22.708,22.708,0,0,0,12.679-8.58,1.16,1.16,0,0,1,.949-.493h20.186a9.565,9.565,0,0,0,0-19.13Z" transform="translate(-94.668 -81.116)" fill="#333"/>
      </g>
    </g>
  </g>
</svg>
