<svg xmlns="http://www.w3.org/2000/svg" width="226" height="24" viewBox="0 0 226 24">
  <g id="그룹_10526" data-name="그룹 10526" transform="translate(15308 17040)">
    <path id="패스_6895" data-name="패스 6895" d="M5.381-19.219V-21.5h4.758v2.285h4.349v3.439H1.008v-3.439ZM9.467-10.49a1.366,1.366,0,0,0-.36-.962,1.962,1.962,0,0,0-1.346-.457,2.03,2.03,0,0,0-1.37.457,1.366,1.366,0,0,0-.36.962,1.366,1.366,0,0,0,.36.962,2.03,2.03,0,0,0,1.37.457,1.962,1.962,0,0,0,1.346-.457A1.366,1.366,0,0,0,9.467-10.49Zm-7.93,0A4.081,4.081,0,0,1,3.1-13.857,7.518,7.518,0,0,1,7.76-15.227,7.493,7.493,0,0,1,12.4-13.857a4.1,4.1,0,0,1,1.586,3.367A4.1,4.1,0,0,1,12.4-7.123,7.343,7.343,0,0,1,7.76-5.752,7.369,7.369,0,0,1,3.1-7.123,4.081,4.081,0,0,1,1.537-10.49Zm18.575-4.4H23v3.9H20.112v6.854H15.354V-20.855h4.758ZM7.544-1.712H20.376V2.111H2.786V-5.223H7.544ZM38.9-16.887H25.494v-3.7H43.613v3.8a18.256,18.256,0,0,1-.457,4.112h-4.59a15.088,15.088,0,0,0,.336-3.679Zm-14.61,4.834H44.935v3.7h-8v2.4h6.68V2.376H38.855V-2.217H25.494V-5.945h6.752v-2.4H24.293ZM55.844-14.7a2.908,2.908,0,0,0-.721-2.164,1.619,1.619,0,0,0-1.129-.433,1.619,1.619,0,0,0-1.129.433,2.908,2.908,0,0,0-.721,2.164,2.884,2.884,0,0,0,.721,2.14,1.641,1.641,0,0,0,1.129.457,1.641,1.641,0,0,0,1.129-.457A2.884,2.884,0,0,0,55.844-14.7Zm-8.194,0a5.991,5.991,0,0,1,2.379-5.122,6.833,6.833,0,0,1,3.965-1.154,6.833,6.833,0,0,1,3.965,1.154A5.991,5.991,0,0,1,60.338-14.7a6.022,6.022,0,0,1-2.379,5.122,6.833,6.833,0,0,1-3.965,1.154,6.833,6.833,0,0,1-3.965-1.154A6.022,6.022,0,0,1,47.65-14.7ZM62.044-8.109V-20.855H66.8V-8.109Zm-12.784.89H66.8V2.256H49.26Zm4.686,3.7v2.068h8.17V-3.516ZM79.273-17.993c0,3.679,1.538,5.17,4.3,5.892v3.848a10.135,10.135,0,0,1-6.632-2.862,10.75,10.75,0,0,1-6.728,3.15v-3.872c2.763-.745,4.3-2.4,4.3-6.132v-2.766h4.758ZM89.318-16.31H92.2v3.9H89.318v4.425H84.56V-20.855h4.758ZM85.137-2.578a.863.863,0,0,0-.384-.745c-.6-.457-1.874-.649-3.989-.649s-3.388.192-3.989.649a.923.923,0,0,0-.384.745,1,1,0,0,0,.384.745c.6.433,1.874.625,3.989.625s3.388-.192,3.989-.625A.923.923,0,0,0,85.137-2.578Zm-13.433,0A3.991,3.991,0,0,1,73.1-5.7c1.538-1.371,4.3-1.972,7.666-1.972s6.128.6,7.666,1.972a3.991,3.991,0,0,1,1.394,3.126,3.977,3.977,0,0,1-1.394,3.1C86.891,1.895,84.127,2.5,80.763,2.5S74.636,1.895,73.1.524A3.977,3.977,0,0,1,71.7-2.578Zm28.4-.577A9.586,9.586,0,0,1,93.523.789V-3.276C96.142-4.262,97.7-5.993,97.7-12.27V-20.59h4.758v8.321c0,6.277,1.514,7.912,4.205,8.994V.789A9.83,9.83,0,0,1,100.107-3.155Zm12.808,5.17h-4.758v-22.87h4.758Zm8.05-21.619v-1.9h4.758v1.9h4.349v3.343H116.592V-19.6Zm4.109,8.128a.933.933,0,0,0-.36-.745,2.288,2.288,0,0,0-1.394-.409,2.211,2.211,0,0,0-1.37.409.933.933,0,0,0-.36.745.871.871,0,0,0,.36.745,2.072,2.072,0,0,0,1.37.433,2.143,2.143,0,0,0,1.394-.433A.871.871,0,0,0,125.074-11.476Zm-7.978,0a3.787,3.787,0,0,1,1.61-3.1,7.726,7.726,0,0,1,4.614-1.3,7.753,7.753,0,0,1,4.638,1.3,3.976,3.976,0,0,1,1.226,1.467v-.962h2.067v-6.782h4.758V-6.931H131.25v-3.343h-1.9a3.816,3.816,0,0,1-1.394,1.924,7.753,7.753,0,0,1-4.638,1.275,7.725,7.725,0,0,1-4.614-1.275A3.8,3.8,0,0,1,117.1-11.476Zm1.37,5.315h17.542V2.256H118.466Zm4.686,3.511V-1.28h8.17V-2.65Z" transform="translate(-15309.008 -17018.496)" fill="#23a0ef"/>
    <path id="패스_6894" data-name="패스 6894" d="M2.274-18.263H6.693V-20.88h1.89v2.617h4.442v1.651H8.583v.283a5.863,5.863,0,0,0,4.82,6.013v1.721a8.378,8.378,0,0,1-5.718-4.032A8.322,8.322,0,0,1,1.92-8.312v-1.721a6.061,6.061,0,0,0,4.773-6.3v-.283H2.274ZM19-20.22v5.046h3.237v1.651H19v5.305h-1.89v-12ZM3.5,1.12V-6.52H19V1.12ZM17.112-4.893H5.393V-.507H17.112ZM34.1-10.245c0-3.584-.331-6.154-1.394-7.38a2.626,2.626,0,0,0-2.126-.943,2.776,2.776,0,0,0-2.15.943c-1.016,1.226-1.37,3.8-1.37,7.38,0,3.561.354,6.154,1.37,7.4a2.756,2.756,0,0,0,2.15.92,2.609,2.609,0,0,0,2.126-.92C33.768-4.091,34.1-6.685,34.1-10.245Zm-8.931,0c0-3.961.473-6.885,1.89-8.489a4.447,4.447,0,0,1,3.52-1.486,4.48,4.48,0,0,1,3.52,1.486,6.953,6.953,0,0,1,1.488,3.4h4.7V-20.22H42.2V.861H40.289V-5.695H35.682A7.852,7.852,0,0,1,34.1-1.757a4.373,4.373,0,0,1-3.52,1.438,4.341,4.341,0,0,1-3.52-1.438C25.641-3.384,25.168-6.308,25.168-10.245Zm10.679-3.443c.095,1.038.142,2.193.142,3.443,0,1.038-.024,2-.095,2.9h4.395v-6.343ZM61.34-9.727h4.04v1.651H57.725V-1.71h8.411V-.059H47.33V-1.71h8.482V-8.076H48.062V-9.727h3.284v-8.465H48.464v-1.651H64.979v1.651H62.1v3.608A13.282,13.282,0,0,1,61.34-9.727Zm-8.1-8.465v8.465H59.5a13.108,13.108,0,0,0,.709-4.669v-3.8Zm19.255,2.358H79.84v1.486H72.492v2.712h6.119a11.811,11.811,0,0,0,4.395-.66v1.415a10.608,10.608,0,0,1-4.465.755H70.6v-9.856h9.781v1.533H72.492ZM81.423-14.4V-16.07h4.324v-4.15h1.89V-9.279h-1.89V-14.4ZM73.839-2.629V-.366H87.92V1.12h-16V-4.115H85.746v-2.24H71.925V-7.864H87.636v5.235Z" transform="translate(-15169.92 -17018.119)" fill="#575756"/>
  </g>
</svg>
