<svg xmlns="http://www.w3.org/2000/svg" width="97.671" height="96.618" viewBox="0 0 97.671 96.618">
  <g id="step_02_img" transform="translate(-1331.186 -403.69)">
    <g id="그룹_3359" data-name="그룹 3359" transform="translate(1332.186 404.69)">
      <g id="그룹_3348" data-name="그룹 3348" transform="translate(49.012)">
        <path id="사각형_1469" data-name="사각형 1469" d="M6.76,0H39.9a6.76,6.76,0,0,1,6.76,6.76v81.1a6.76,6.76,0,0,1-6.76,6.76H6.761A6.761,6.761,0,0,1,0,87.858V6.76A6.76,6.76,0,0,1,6.76,0Z" fill="#fff" stroke="#493b39" stroke-linecap="round" stroke-linejoin="round" stroke-width="2"/>
        <line id="선_60" data-name="선 60" x2="12.082" transform="translate(17.289 5.74)" fill="none" stroke="#493b39" stroke-linecap="round" stroke-linejoin="round" stroke-width="2"/>
      </g>
      <g id="그룹_3358" data-name="그룹 3358" transform="translate(0 19.298)">
        <g id="그룹_3357" data-name="그룹 3357" transform="translate(0 2.96)">
          <path id="사각형_1470" data-name="사각형 1470" d="M19.6,0H35.151a19.6,19.6,0,0,1,19.6,19.6v0a0,0,0,0,1,0,0H0a0,0,0,0,1,0,0v0A19.6,19.6,0,0,1,19.6,0Z" transform="translate(0 40.273)" fill="#23a0f0" stroke="#493b39" stroke-linecap="round" stroke-linejoin="round" stroke-width="2"/>
          <g id="그룹_3356" data-name="그룹 3356" transform="translate(8.94)">
            <path id="패스_6367" data-name="패스 6367" d="M1372.507,507.975h0a6.813,6.813,0,0,1-6.814-6.813V493.5h13.627v7.665A6.813,6.813,0,0,1,1372.507,507.975Z" transform="translate(-1354.071 -461.258)" fill="#ffe2ca" stroke="#493b39" stroke-linecap="round" stroke-linejoin="round" stroke-width="2"/>
            <g id="그룹_3355" data-name="그룹 3355">
              <g id="그룹_3354" data-name="그룹 3354">
                <g id="그룹_3352" data-name="그룹 3352">
                  <g id="그룹_3350" data-name="그룹 3350">
                    <g id="그룹_3349" data-name="그룹 3349" transform="translate(0 18.029)">
                      <circle id="타원_69" data-name="타원 69" cx="4.127" cy="4.127" r="4.127" fill="#ffe2ca" stroke="#493b39" stroke-linecap="round" stroke-linejoin="round" stroke-width="2"/>
                      <circle id="타원_70" data-name="타원 70" cx="4.127" cy="4.127" r="4.127" transform="translate(28.617)" fill="#ffe2ca" stroke="#493b39" stroke-linecap="round" stroke-linejoin="round" stroke-width="2"/>
                    </g>
                    <path id="패스_6368" data-name="패스 6368" d="M1367.615,479.483h0a14.584,14.584,0,0,1-14.584-14.583v-9.355a14.584,14.584,0,0,1,14.584-14.584h0a14.583,14.583,0,0,1,14.583,14.584V464.9A14.583,14.583,0,0,1,1367.615,479.483Z" transform="translate(-1349.179 -440.961)" fill="#ffe2ca" stroke="#493b39" stroke-linecap="round" stroke-linejoin="round" stroke-width="2"/>
                  </g>
                  <g id="그룹_3351" data-name="그룹 3351" transform="translate(4.487 20.177)">
                    <circle id="타원_71" data-name="타원 71" cx="4.845" cy="4.845" r="4.845" transform="translate(0 2.234) rotate(-13.328)" fill="#ffcebd"/>
                    <circle id="타원_72" data-name="타원 72" cx="4.845" cy="4.845" r="4.845" transform="translate(16.234 2.234) rotate(-13.328)" fill="#ffcebd"/>
                  </g>
                </g>
                <g id="그룹_3353" data-name="그룹 3353" transform="translate(11.282 18.442)">
                  <ellipse id="타원_73" data-name="타원 73" cx="1.376" cy="1.926" rx="1.376" ry="1.926" fill="#493b39"/>
                  <ellipse id="타원_74" data-name="타원 74" cx="1.376" cy="1.926" rx="1.376" ry="1.926" transform="translate(11.557)" fill="#493b39"/>
                </g>
              </g>
              <path id="패스_6369" data-name="패스 6369" d="M1369.371,485.589a6.444,6.444,0,0,0,9.113,0" transform="translate(-1355.492 -458.203)" fill="none" stroke="#493b39" stroke-linecap="round" stroke-linejoin="round" stroke-width="2"/>
            </g>
          </g>
        </g>
        <path id="패스_6370" data-name="패스 6370" d="M1352.71,457.126a8.715,8.715,0,0,0,3.837-5.331c1.074-3.893,3.222-4.7,4.7-4.3a6.489,6.489,0,0,1,6.041-1.074c3.356,1.208,5.638,2.551,8.592,2.282a43.814,43.814,0,0,0,5.448,8.419s3.815-13.117-4.24-17.547-15.975-4.7-18.392-.134C1358.695,439.445,1347.933,440.576,1352.71,457.126Z" transform="translate(-1339.643 -436.138)" fill="#7a6a56" stroke="#493b39" stroke-linecap="round" stroke-linejoin="round" stroke-width="2"/>
        <path id="패스_6371" data-name="패스 6371" d="M1363.233,441.528s2.819,1.611,2.551,8.054" transform="translate(-1344.181 -438.22)" fill="none" stroke="#493b39" stroke-linecap="round" stroke-linejoin="round" stroke-width="2"/>
      </g>
      <path id="패스_6372" data-name="패스 6372" d="M1438.763,488.076a3.089,3.089,0,0,1-2.192-.908l-7.543-7.544a3.1,3.1,0,1,1,4.384-4.384l5.352,5.351,10.838-10.838a3.1,3.1,0,0,1,4.384,4.385l-13.03,13.03A3.09,3.09,0,0,1,1438.763,488.076Z" transform="translate(-1369.25 -429.477)" fill="#ffc333" stroke="#493b39" stroke-linecap="round" stroke-linejoin="round" stroke-width="2"/>
      <line id="선_61" data-name="선 61" x2="22.261" transform="translate(61.211 70.503)" fill="none" stroke="#dcdddd" stroke-linecap="round" stroke-linejoin="round" stroke-width="2"/>
      <line id="선_62" data-name="선 62" x2="22.261" transform="translate(61.211 77.29)" fill="none" stroke="#dcdddd" stroke-linecap="round" stroke-linejoin="round" stroke-width="2"/>
      <line id="선_63" data-name="선 63" x2="22.261" transform="translate(61.211 84.077)" fill="none" stroke="#dcdddd" stroke-linecap="round" stroke-linejoin="round" stroke-width="2"/>
    </g>
  </g>
</svg>
