<svg xmlns="http://www.w3.org/2000/svg" width="76.789" height="120.413" viewBox="0 0 76.789 120.413">
  <g id="step_04_img" transform="translate(-1187.446 -369.973)">
    <g id="그룹_3389" data-name="그룹 3389" transform="translate(1188.196 370.806)">
      <g id="그룹_3386" data-name="그룹 3386" transform="translate(2.992)">
        <g id="그룹_3365" data-name="그룹 3365" transform="translate(18.579 85.296)">
          <g id="그룹_3363" data-name="그룹 3363" transform="translate(0 7.706)">
            <g id="그룹_3361" data-name="그룹 3361">
              <path id="패스_6373" data-name="패스 6373" d="M1268.766,642.765V621.251l-10.618-.861a35.576,35.576,0,0,0,.287,7.318,75.582,75.582,0,0,1,.79,7.762,10.26,10.26,0,0,1-.487,3.913,6.84,6.84,0,0,1-.763,1.606C1257.8,642.335,1258.555,645.105,1268.766,642.765Z" transform="translate(-1253.532 -620.39)" fill="#ffefde" stroke="#3e3a39" stroke-linecap="round" stroke-linejoin="round" stroke-width="1.5"/>
              <path id="패스_6374" data-name="패스 6374" d="M1250.527,675.668a3.691,3.691,0,0,1-.688.782c-1.722,1.435-4.018,2.152-3.731,4.448h15.21v-3.453C1251.107,679.785,1250.356,677.015,1250.527,675.668Z" transform="translate(-1246.083 -655.07)" fill="#595757" stroke="#3e3a39" stroke-linecap="round" stroke-linejoin="round" stroke-width="1.5"/>
            </g>
            <g id="그룹_3362" data-name="그룹 3362" transform="translate(15.21)">
              <path id="패스_6375" data-name="패스 6375" d="M1286.9,642.765V621.251l10.618-.861a35.547,35.547,0,0,1-.287,7.318,75.577,75.577,0,0,0-.79,7.762,10.252,10.252,0,0,0,.487,3.913,6.841,6.841,0,0,0,.763,1.606C1297.864,642.335,1297.113,645.105,1286.9,642.765Z" transform="translate(-1286.902 -620.39)" fill="#ffefde" stroke="#3e3a39" stroke-linecap="round" stroke-linejoin="round" stroke-width="1.5"/>
              <path id="패스_6376" data-name="패스 6376" d="M1297.693,675.668a3.678,3.678,0,0,0,.688.782c1.722,1.435,4.017,2.152,3.731,4.448H1286.9v-3.453C1297.113,679.785,1297.864,677.015,1297.693,675.668Z" transform="translate(-1286.902 -655.07)" fill="#595757" stroke="#3e3a39" stroke-linecap="round" stroke-linejoin="round" stroke-width="1.5"/>
            </g>
          </g>
          <g id="그룹_3364" data-name="그룹 3364" transform="translate(0.012)">
            <rect id="사각형_1471" data-name="사각형 1471" width="30.42" height="10.719" fill="#78b7ff" stroke="#3e3a39" stroke-linecap="round" stroke-linejoin="round" stroke-width="1.5"/>
          </g>
        </g>
        <g id="그룹_3385" data-name="그룹 3385">
          <path id="패스_6377" data-name="패스 6377" d="M1320.494,410.708s7.01-1.892,7.789,5.452-2,19.25.779,20.919c0,0-4.117.89-5.23-.89,0,0,1.669,3,3.783,3.895,0,0-11.684,3.672-15.578-7.344" transform="translate(-1268.882 -395.702)" fill="#7a6a56" stroke="#3e3a39" stroke-linecap="round" stroke-linejoin="round" stroke-width="1.5"/>
          <path id="패스_6378" data-name="패스 6378" d="M1266.76,475.876l-5.786,3.338,5.118,10.9Z" transform="translate(-1236.847 -436.724)" fill="#78b7ff" stroke="#707070" stroke-width="1.5"/>
          <path id="패스_6379" data-name="패스 6379" d="M1330.434,544.067s-6.565,7.789-13.8,2.114c-6.439-5.052-4.674-8.79-4.674-8.79" transform="translate(-1268.697 -475.317)" fill="#fff" stroke="#3e3a39" stroke-linecap="round" stroke-linejoin="round" stroke-width="1.5"/>
          <path id="패스_6380" data-name="패스 6380" d="M1199.654,488.86l6.381,10.617a7.056,7.056,0,0,0,8.791,3l5.675-4.006,12.8-4.674-4.785-1.558-5.341-14.577s-8.679,2.56-10.571,8.457l-1.224,3.116-1.447-4.229" transform="translate(-1198.376 -437.848)" fill="#fff" stroke="#3e3a39" stroke-linecap="round" stroke-linejoin="round" stroke-width="1.5"/>
          <g id="그룹_3366" data-name="그룹 3366" transform="translate(15.629 50.947)">
            <path id="패스_6381" data-name="패스 6381" d="M1240.158,507.529s.7,2.924.117,4.679a19.88,19.88,0,0,0,1.17,12.516,72.228,72.228,0,0,1-.351,7.252c-.351,2.573-2.925,14.387-2.925,14.387h36.612s-2.573-11.814-2.924-14.387a72.178,72.178,0,0,1-.351-7.252,19.885,19.885,0,0,0,1.17-12.516c-.585-1.754.117-4.679.117-4.679" transform="translate(-1238.169 -507.529)" fill="#fff" stroke="#3e3a39" stroke-linecap="round" stroke-linejoin="round" stroke-width="1.5"/>
          </g>
          <line id="선_64" data-name="선 64" y1="25.593" transform="translate(33.936 63.743)" fill="none" stroke="#3e3a39" stroke-linecap="round" stroke-linejoin="round" stroke-width="1.5"/>
          <g id="그룹_3376" data-name="그룹 3376" transform="translate(12.103)">
            <g id="그룹_3375" data-name="그룹 3375">
              <g id="그룹_3374" data-name="그룹 3374">
                <g id="그룹_3373" data-name="그룹 3373">
                  <g id="그룹_3372" data-name="그룹 3372" transform="translate(0 2.008)">
                    <g id="그룹_3370" data-name="그룹 3370">
                      <g id="그룹_3368" data-name="그룹 3368">
                        <g id="그룹_3367" data-name="그룹 3367" transform="translate(0 20.476)">
                          <path id="패스_6382" data-name="패스 6382" d="M1236.739,434.25a4.135,4.135,0,1,1-5.42-2.879A4.351,4.351,0,0,1,1236.739,434.25Z" transform="translate(-1228.704 -431.146)" fill="#ffefde" stroke="#3e3a39" stroke-linecap="round" stroke-linejoin="round" stroke-width="1.5"/>
                          <path id="패스_6383" data-name="패스 6383" d="M1323.816,434.25a4.135,4.135,0,1,0,5.42-2.879A4.351,4.351,0,0,0,1323.816,434.25Z" transform="translate(-1288.186 -431.146)" fill="#ffefde" stroke="#3e3a39" stroke-linecap="round" stroke-linejoin="round" stroke-width="1.5"/>
                        </g>
                        <path id="패스_6384" data-name="패스 6384" d="M1256.241,376.2c-10.071,0-18.446,7.421-18.446,17.347,0,11.947,6.663,22.054,18.446,22.054s18.446-9.955,18.446-22.054C1274.686,383.616,1266.312,376.2,1256.241,376.2Z" transform="translate(-1234.407 -376.195)" fill="#ffefde" stroke="#3e3a39" stroke-linecap="round" stroke-linejoin="round" stroke-width="1.5"/>
                      </g>
                      <g id="그룹_3369" data-name="그룹 3369" transform="translate(6.729 21.933)">
                        <circle id="타원_75" data-name="타원 75" cx="4.503" cy="4.503" r="4.503" fill="#ffdbd9"/>
                        <circle id="타원_76" data-name="타원 76" cx="4.503" cy="4.503" r="4.503" transform="translate(21.203)" fill="#ffdbd9"/>
                      </g>
                    </g>
                    <g id="그룹_3371" data-name="그룹 3371" transform="translate(13.829 19.689)">
                      <path id="패스_6385" data-name="패스 6385" d="M1268.858,431.147c0,1.167-.681,2.113-1.521,2.113s-1.521-.946-1.521-2.113.681-2.113,1.521-2.113S1268.858,429.98,1268.858,431.147Z" transform="translate(-1265.815 -429.034)" fill="#3e3a39"/>
                      <path id="패스_6386" data-name="패스 6386" d="M1303.653,431.147c0,1.167-.681,2.113-1.521,2.113s-1.521-.946-1.521-2.113.681-2.113,1.521-2.113S1303.653,429.98,1303.653,431.147Z" transform="translate(-1287.645 -429.034)" fill="#3e3a39"/>
                    </g>
                  </g>
                  <path id="패스_6387" data-name="패스 6387" d="M1237.237,394.9a28.444,28.444,0,0,0,6.9-10.163c2.226-6.009,5.935-4.97,5.935-4.97s0,8.383-3.042,8.754c0,0,4.525,2.077,6.454-.89a23.182,23.182,0,0,0,2.671-7.492s1.261,7.863-.816,8.679c0,0,6.6,1.632,7.418-4.673l.519-4.08s2.671-.148,4.006,4.451,4.376,9.421,6.231,10.386a24.284,24.284,0,0,0-1.143-16.468c-3.858-8.531-19.332-9.273-23.56-5.341C1248.809,373.093,1232.935,373.019,1237.237,394.9Z" transform="translate(-1233.593 -370.806)" fill="#7a6a56" stroke="#3e3a39" stroke-linecap="round" stroke-linejoin="round" stroke-width="1.5"/>
                </g>
                <path id="패스_6388" data-name="패스 6388" d="M1300.594,420.745a3.945,3.945,0,0,1,2.968-.074" transform="translate(-1273.806 -401.915)" fill="none" stroke="#3e3a39" stroke-linecap="round" stroke-linejoin="round" stroke-width="1.5"/>
              </g>
              <path id="패스_6389" data-name="패스 6389" d="M1284.754,434.279s0,1.187-.371,1.409a1.842,1.842,0,0,0-.371,2" transform="translate(-1263.306 -410.627)" fill="none" stroke="#3e3a39" stroke-linecap="round" stroke-linejoin="round" stroke-width="1.5"/>
            </g>
            <path id="패스_6390" data-name="패스 6390" d="M1278.51,452.234a21.187,21.187,0,0,1-5.218-.625,5.219,5.219,0,0,0,10.437,0A21.192,21.192,0,0,1,1278.51,452.234Z" transform="translate(-1256.677 -421.5)" fill="#ff617a" stroke="#3e3a39" stroke-linecap="round" stroke-linejoin="round" stroke-width="1.5"/>
          </g>
          <g id="그룹_3383" data-name="그룹 3383" transform="translate(3.411 20.881)">
            <g id="그룹_3379" data-name="그룹 3379" transform="translate(0 0)">
              <g id="그룹_3378" data-name="그룹 3378">
                <g id="그룹_3377" data-name="그룹 3377" transform="translate(5.625)">
                  <circle id="타원_77" data-name="타원 77" cx="10.582" cy="10.582" r="10.582" transform="translate(0 4.804) rotate(-13.12)" fill="#fff" stroke="#3e3a39" stroke-linecap="round" stroke-linejoin="round" stroke-width="1.5"/>
                  <circle id="타원_78" data-name="타원 78" cx="8.161" cy="8.161" r="8.161" transform="translate(4.547 4.547)" fill="#78b7ff" stroke="#3e3a39" stroke-linecap="round" stroke-linejoin="round" stroke-width="1.5"/>
                  <path id="패스_6391" data-name="패스 6391" d="M1245.4,446.325a5.449,5.449,0,0,0-5.449,5.449" transform="translate(-1232.696 -439.066)" fill="none" stroke="#fff" stroke-linecap="round" stroke-linejoin="round" stroke-width="1.5"/>
                </g>
                <path id="패스_6392" data-name="패스 6392" d="M1206.068,490.722h0a2.352,2.352,0,0,1,0-3.326l7.113-7.113,3.326,3.326-7.113,7.113A2.352,2.352,0,0,1,1206.068,490.722Z" transform="translate(-1205.379 -460.37)" fill="#fff" stroke="#3e3a39" stroke-linecap="round" stroke-linejoin="round" stroke-width="1.5"/>
              </g>
              <line id="선_65" data-name="선 65" x1="1.109" y2="1.109" transform="translate(9.742 20.19)" fill="none" stroke="#3e3a39" stroke-linecap="round" stroke-linejoin="round" stroke-width="1.5"/>
            </g>
            <g id="그룹_3382" data-name="그룹 3382" transform="translate(21.593 16.509)">
              <g id="그룹_3381" data-name="그룹 3381">
                <g id="그룹_3380" data-name="그룹 3380">
                  <rect id="사각형_1472" data-name="사각형 1472" width="27.254" height="23.061" transform="translate(3.532)" fill="#fff" stroke="#3e3a39" stroke-linecap="round" stroke-linejoin="round" stroke-width="1.5"/>
                  <path id="패스_6393" data-name="패스 6393" d="M1284.331,514.741a3.947,3.947,0,0,1-7.691,0h-13.314v12.687h34.318V514.741Z" transform="translate(-1263.327 -498.497)" fill="#7cc7e0" stroke="#3e3a39" stroke-linecap="round" stroke-linejoin="round" stroke-width="1.5"/>
                </g>
                <line id="선_66" data-name="선 66" x2="18.309" transform="translate(8.004 3.774)" fill="none" stroke="#3e3a39" stroke-linecap="round" stroke-linejoin="round" stroke-width="1.5"/>
                <line id="선_67" data-name="선 67" x2="18.309" transform="translate(8.004 6.755)" fill="none" stroke="#3e3a39" stroke-linecap="round" stroke-linejoin="round" stroke-width="1.5"/>
                <line id="선_68" data-name="선 68" x2="16.317" transform="translate(8.004 9.737)" fill="none" stroke="#3e3a39" stroke-linecap="round" stroke-linejoin="round" stroke-width="1.5"/>
                <line id="선_69" data-name="선 69" x2="18.309" transform="translate(8.004 12.718)" fill="none" stroke="#3e3a39" stroke-linecap="round" stroke-linejoin="round" stroke-width="1.5"/>
              </g>
              <path id="패스_6394" data-name="패스 6394" d="M1335.082,535.175c-4.451.556-7.122-.667-6.677-2s2.893-.668,5.9-1.447,3.894-2.114,3.894-2.114c-1.447-.779-3.561-3.338-2-4.228s2.448.334,4.34,1.669a9.013,9.013,0,0,1,2.782,3.895s1,3-.89,5.118-9.458,1.447-11.016.89a2.459,2.459,0,0,1-1.669-2" transform="translate(-1304.125 -504.983)" fill="#ffefde" stroke="#3e3a39" stroke-linecap="round" stroke-linejoin="round" stroke-width="1.5"/>
            </g>
          </g>
          <g id="그룹_3384" data-name="그룹 3384" transform="translate(0 41.546)">
            <path id="패스_6395" data-name="패스 6395" d="M1199.47,489.8l2.286,2.285a1.391,1.391,0,0,1,0,1.967h0a1.391,1.391,0,0,1-1.967,0l-2.285-2.286a4.621,4.621,0,0,1-.782-5.343,6.884,6.884,0,0,1,2.71-3.046l1.115-.69c2.337-1.335,4.825,1.211,4.825,1.211l3.465,3.465a1.391,1.391,0,0,1,0,1.967h0a1.391,1.391,0,0,1-1.967,0l-3.465-3.465" transform="translate(-1196.225 -482.302)" fill="#ffefde" stroke="#3e3a39" stroke-linecap="round" stroke-linejoin="round" stroke-width="1.5"/>
            <path id="패스_6396" data-name="패스 6396" d="M1206.9,497.148l3.466,3.465a1.391,1.391,0,0,1,0,1.967h0a1.391,1.391,0,0,1-1.967,0l-3.466-3.465" transform="translate(-1201.688 -491.616)" fill="#ffefde" stroke="#3e3a39" stroke-linecap="round" stroke-linejoin="round" stroke-width="1.5"/>
            <path id="패스_6397" data-name="패스 6397" d="M1212.178,491.869l3.466,3.465a1.391,1.391,0,0,1,0,1.967h0a1.39,1.39,0,0,1-1.967,0l-3.466-3.465" transform="translate(-1204.999 -488.304)" fill="#ffefde" stroke="#3e3a39" stroke-linecap="round" stroke-linejoin="round" stroke-width="1.5"/>
          </g>
          <path id="패스_6398" data-name="패스 6398" d="M1243.654,579.159s5.314-.148,7.233-5.166" transform="translate(-1225.981 -498.28)" fill="none" stroke="#3e3a39" stroke-linecap="round" stroke-linejoin="round" stroke-width="1.5"/>
          <path id="패스_6399" data-name="패스 6399" d="M1319.27,579.159s-5.314-.148-7.233-5.166" transform="translate(-1268.882 -498.28)" fill="none" stroke="#3e3a39" stroke-linecap="round" stroke-linejoin="round" stroke-width="1.5"/>
          <path id="패스_6400" data-name="패스 6400" d="M1231.112,508.724s1.891,3.672,1,6.676" transform="translate(-1218.112 -457.332)" fill="none" stroke="#3e3a39" stroke-linecap="round" stroke-linejoin="round" stroke-width="1.5"/>
          <path id="패스_6401" data-name="패스 6401" d="M1253.719,489.345l-.51,5.218,2.893,1.558-1,2.337,1.558,1.78" transform="translate(-1231.976 -445.174)" fill="none" stroke="#3e3a39" stroke-linecap="round" stroke-linejoin="round" stroke-width="1.5"/>
        </g>
      </g>
      <g id="그룹_3387" data-name="그룹 3387" transform="translate(0 15.673)">
        <path id="패스_6402" data-name="패스 6402" d="M1194.324,433.16h0a3.121,3.121,0,0,1-3.121-3.121V415.874h6.242v14.165A3.121,3.121,0,0,1,1194.324,433.16Z" transform="translate(-1190.083 -414.754)" fill="#fff" stroke="#3e3a39" stroke-linecap="round" stroke-linejoin="round" stroke-width="1.5"/>
        <path id="패스_6403" data-name="패스 6403" d="M1197.445,431.767v8.243a3.121,3.121,0,0,1-3.121,3.121h0a3.121,3.121,0,0,1-3.121-3.121v-8.243" transform="translate(-1190.083 -424.724)" fill="#ff4f45" stroke="#3e3a39" stroke-linecap="round" stroke-linejoin="round" stroke-width="1.5"/>
        <path id="패스_6404" data-name="패스 6404" d="M1195.558,415.108h-6.242a1.12,1.12,0,0,1-1.12-1.121h0a1.121,1.121,0,0,1,1.12-1.12h6.242a1.121,1.121,0,0,1,1.12,1.12h0A1.12,1.12,0,0,1,1195.558,415.108Z" transform="translate(-1188.196 -412.867)" fill="#fff" stroke="#3e3a39" stroke-linecap="round" stroke-linejoin="round" stroke-width="1.5"/>
      </g>
      <g id="그룹_3388" data-name="그룹 3388" transform="translate(69.392 42.87)">
        <path id="패스_6405" data-name="패스 6405" d="M1378.679,503.977h0a2.17,2.17,0,0,1-2.17-2.17V487.944h4.34v13.863A2.17,2.17,0,0,1,1378.679,503.977Z" transform="translate(-1375.73 -487.165)" fill="#fff" stroke="#3e3a39" stroke-linecap="round" stroke-linejoin="round" stroke-width="1.5"/>
        <path id="패스_6406" data-name="패스 6406" d="M1380.849,498.993v9.746a2.17,2.17,0,0,1-2.17,2.17h0a2.17,2.17,0,0,1-2.17-2.17v-9.746" transform="translate(-1375.73 -494.097)" fill="#7cc7e0" stroke="#3e3a39" stroke-linecap="round" stroke-linejoin="round" stroke-width="1.5"/>
        <path id="패스_6407" data-name="패스 6407" d="M1379.538,487.412h-4.34a.779.779,0,0,1-.779-.779h0a.779.779,0,0,1,.779-.779h4.34a.779.779,0,0,1,.779.779h0A.779.779,0,0,1,1379.538,487.412Z" transform="translate(-1374.419 -485.854)" fill="#fff" stroke="#3e3a39" stroke-linecap="round" stroke-linejoin="round" stroke-width="1.5"/>
      </g>
    </g>
  </g>
</svg>
