<svg xmlns="http://www.w3.org/2000/svg" xmlns:xlink="http://www.w3.org/1999/xlink" width="60" height="60" viewBox="0 0 60 60">
  <defs>
    <clipPath id="clip-path">
      <rect id="사각형_1475" data-name="사각형 1475" width="60" height="60" transform="translate(0 0)" fill="none"/>
    </clipPath>
  </defs>
  <g id="service_02_ic" transform="translate(0 0)">
    <g id="그룹_3321" data-name="그룹 3321" transform="translate(0 0)" clip-path="url(#clip-path)">
      <g id="그룹_3328" data-name="그룹 3328" transform="translate(1 0)">
        <path id="패스_6687" data-name="패스 6687" d="M52.7,3.347H29.01a2.071,2.071,0,0,0-2.071,2.071v8.834a.888.888,0,0,1-.535.815l-3.818,1.653a.592.592,0,0,0,0,1.086L26.4,19.458a.888.888,0,0,1,.535.815v6.719l2.792,6.27a.666.666,0,0,0,.985.279l6.462-4.369a.8.8,0,0,1,1.1.2L41,33.272a.8.8,0,0,1-.187,1.1l-1.377.99.326.006H52.7a2.07,2.07,0,0,0,2.07-2.071V5.418A2.07,2.07,0,0,0,52.7,3.347" transform="translate(2.577 0.388)" fill="#bce2fa"/>
        <path id="패스_6688" data-name="패스 6688" d="M52.812,36.583H39.871a1.1,1.1,0,1,1,0-2.2H52.812a.972.972,0,0,0,.971-.971V5.532a.972.972,0,0,0-.971-.971H29.125a.972.972,0,0,0-.971.971v8.834a1.986,1.986,0,0,1-1.2,1.823l-2.741,1.186,2.74,1.186a1.985,1.985,0,0,1,1.2,1.825v6.689a1.1,1.1,0,1,1-2.2,0V20.526l-3.689-1.6a1.692,1.692,0,0,1,0-3.106l3.688-1.6V5.532a3.175,3.175,0,0,1,3.171-3.171H52.812a3.174,3.174,0,0,1,3.17,3.171V33.412a3.174,3.174,0,0,1-3.17,3.171" transform="translate(2.463 0.273)" fill="#333"/>
        <path id="패스_6689" data-name="패스 6689" d="M3.826,42.683a1.1,1.1,0,0,1-1.1-1.1V25.818a6.078,6.078,0,0,1,4.936-5.965l5.307-1.012A1.1,1.1,0,1,1,13.381,21L8.074,22.014a3.878,3.878,0,0,0-3.147,3.8V41.583a1.1,1.1,0,0,1-1.1,1.1" transform="translate(0.316 2.182)" fill="#333"/>
        <path id="패스_6690" data-name="패스 6690" d="M23.223,42.684a1.1,1.1,0,0,1-1.1-1.1V29.918a1.1,1.1,0,0,1,2.114-.43l2.558,6.025a4.37,4.37,0,0,0,6.5,1.662l7.389-5.314-2.37-3.407-6.219,4.2a1.768,1.768,0,0,1-2.607-.742L26.33,24.831a4.51,4.51,0,0,0-3.274-2.6L16.592,21A1.1,1.1,0,1,1,17,18.842l6.463,1.232a6.713,6.713,0,0,1,4.872,3.862l2.944,6.612,6.037-4.082a1.9,1.9,0,0,1,2.624.485l2.712,3.9a1.9,1.9,0,0,1-.449,2.622L34.576,38.96A6.571,6.571,0,0,1,24.8,36.435l-.017-.04-.455-1.071v6.26a1.1,1.1,0,0,1-1.1,1.1m7.634-11.848-.006,0Zm7.7-2.551,0,0,0,0" transform="translate(1.82 2.182)" fill="#333"/>
        <path id="패스_6691" data-name="패스 6691" d="M50.3,33.257H44.038a1.1,1.1,0,1,1,0-2.2H50.3a1.1,1.1,0,1,1,0,2.2" transform="translate(4.978 3.6)" fill="#333"/>
        <path id="패스_6692" data-name="패스 6692" d="M41.317,25.063a1.1,1.1,0,0,1-1.1-1.1V12.733a1.1,1.1,0,0,1,2.2,0v11.23a1.1,1.1,0,0,1-1.1,1.1" transform="translate(4.662 1.348)" fill="#333"/>
        <path id="패스_6693" data-name="패스 6693" d="M43.631,35.312l2.032,4.656a1.352,1.352,0,0,0,1.106.8l5.056.493a1.351,1.351,0,0,1,.766,2.355l-3.8,3.371a1.349,1.349,0,0,0-.422,1.3l1.092,4.96a1.351,1.351,0,0,1-2,1.455l-4.38-2.572a1.352,1.352,0,0,0-1.368,0l-4.381,2.572a1.35,1.35,0,0,1-2-1.455l1.092-4.96a1.349,1.349,0,0,0-.422-1.3L32.2,43.62a1.351,1.351,0,0,1,.764-2.355l5.057-.493a1.353,1.353,0,0,0,1.106-.8l2.032-4.656a1.35,1.35,0,0,1,2.475,0" transform="translate(3.68 3.999)" fill="#ffd059"/>
        <path id="패스_6694" data-name="패스 6694" d="M48.26,56.115a2.462,2.462,0,0,1-1.244-.343L42.635,53.2a.254.254,0,0,0-.253,0L38,55.772a2.451,2.451,0,0,1-3.635-2.64L35.46,48.17a.254.254,0,0,0-.078-.241l-3.8-3.371a2.451,2.451,0,0,1,1.388-4.273l5.056-.493a.251.251,0,0,0,.205-.15l2.032-4.656a2.451,2.451,0,0,1,4.492,0l2.032,4.657a.25.25,0,0,0,.205.148l5.055.493a2.451,2.451,0,0,1,1.388,4.273l-3.8,3.371a.246.246,0,0,0-.078.24l1.092,4.963a2.461,2.461,0,0,1-2.39,2.983m-5.751-5.15a2.452,2.452,0,0,1,1.241.337l4.381,2.572a.249.249,0,0,0,.37-.269l-1.092-4.961a2.453,2.453,0,0,1,.767-2.36l3.8-3.371a.251.251,0,0,0-.142-.436l-5.056-.494a2.45,2.45,0,0,1-2.008-1.459l-2.032-4.656a.25.25,0,0,0-.459,0l-2.032,4.656a2.453,2.453,0,0,1-2.008,1.459l-5.057.494a.25.25,0,0,0-.141.436l3.8,3.371a2.452,2.452,0,0,1,.767,2.36L36.516,53.6a.25.25,0,0,0,.372.269L41.268,51.3a2.448,2.448,0,0,1,1.24-.337" transform="translate(3.565 3.885)" fill="#333"/>
        <path id="패스_6695" data-name="패스 6695" d="M9.87,15.6a1.092,1.092,0,0,1-.61-.186c-.187-.125-4.581-3.134-3.336-8.284.866-3.582,3.192-4.559,4.8-4.605A6.068,6.068,0,0,1,17.256.158a9.159,9.159,0,0,1,5.929,4.07,10.153,10.153,0,0,1,1.106,5.866,7.264,7.264,0,0,1-2.735,5.3,1.1,1.1,0,1,1-1.282-1.788c2.184-1.567,2.375-5.87,1-8.294a6.945,6.945,0,0,0-4.439-3,4.161,4.161,0,0,0-3.568.673,3.316,3.316,0,0,0-.9,1.1,1.069,1.069,0,0,1-1.223.661A2.429,2.429,0,0,0,9.9,4.946a3.651,3.651,0,0,0-1.835,2.7c-.888,3.675,2.388,5.917,2.42,5.939A1.1,1.1,0,0,1,9.87,15.6" transform="translate(0.661 0)" fill="#333"/>
        <path id="패스_6696" data-name="패스 6696" d="M14.763,27.8h-.019a1.1,1.1,0,0,1-.882-.468L9.387,20.962a1.1,1.1,0,0,1,.694-1.713l2.139-.407A1.1,1.1,0,1,1,12.631,21l-.465.089L14.8,24.837l2.855-3.775L17.346,21a1.1,1.1,0,0,1,.413-2.16l2.045.389a1.1,1.1,0,0,1,.672,1.744l-4.836,6.392a1.1,1.1,0,0,1-.876.436" transform="translate(1.065 2.182)" fill="#333"/>
        <path id="패스_6697" data-name="패스 6697" d="M14.3,41.978a1.1,1.1,0,0,1-1.1-1.1V26a1.1,1.1,0,0,1,2.2,0v14.88a1.1,1.1,0,0,1-1.1,1.1" transform="translate(1.53 2.886)" fill="#333"/>
        <path id="패스_6698" data-name="패스 6698" d="M11.4,27.633H7.422a1.1,1.1,0,1,1,0-2.2H11.4a1.1,1.1,0,1,1,0,2.2" transform="translate(0.733 2.948)" fill="#333"/>
        <path id="패스_6699" data-name="패스 6699" d="M21.993,27.633H18.014a1.1,1.1,0,0,1,0-2.2h3.978a1.1,1.1,0,0,1,0,2.2" transform="translate(1.961 2.948)" fill="#333"/>
        <path id="패스_6700" data-name="패스 6700" d="M14.771,22.548c-.056,0-.113,0-.17,0a4.8,4.8,0,0,1-3.238-1.621,1.1,1.1,0,0,1-.26-.711V17.424a1.1,1.1,0,0,1,2.2,0v2.322a2.422,2.422,0,0,0,1.4.6,2.294,2.294,0,0,0,1.522-.617v-2.3a1.1,1.1,0,1,1,2.2,0v2.788a1.1,1.1,0,0,1-.323.778,4.693,4.693,0,0,1-3.337,1.558" transform="translate(1.287 1.892)" fill="#333"/>
        <path id="패스_6701" data-name="패스 6701" d="M39.228,31.615a1.1,1.1,0,0,1-.9-.472l-2.335-3.354a1.1,1.1,0,0,1,.3-1.549L38.4,24.865a1.1,1.1,0,0,1,1.5.286l2.328,3.284a1.1,1.1,0,0,1-.275,1.543l-2.1,1.444a1.094,1.094,0,0,1-.622.193m-.784-4.152,1.062,1.527.279-.193-1.07-1.51Z" transform="translate(4.149 2.861)" fill="#333"/>
        <path id="패스_6702" data-name="패스 6702" d="M42.476,29.354h-.94a2.869,2.869,0,0,1-2.87-2.87v-.933a2.869,2.869,0,0,1,2.87-2.869h.94a1,1,0,0,1,1,1v4.679a1,1,0,0,1-1,1" transform="translate(4.482 2.629)" fill="#fff"/>
        <path id="패스_6703" data-name="패스 6703" d="M42.59,30.569h-.94A3.974,3.974,0,0,1,37.681,26.6v-.933A3.974,3.974,0,0,1,41.65,21.7h.94a2.1,2.1,0,0,1,2.1,2.1v4.679a2.1,2.1,0,0,1-2.1,2.1M41.65,23.9a1.772,1.772,0,0,0-1.77,1.77V26.6a1.772,1.772,0,0,0,1.77,1.769h.837V23.9Z" transform="translate(4.368 2.515)" fill="#333"/>
        <path id="패스_6704" data-name="패스 6704" d="M7,41.372a1.1,1.1,0,0,1-1.1-1.1V31.228a1.1,1.1,0,1,1,2.2,0v9.043a1.1,1.1,0,0,1-1.1,1.1" transform="translate(0.683 3.492)" fill="#333"/>
        <path id="패스_6705" data-name="패스 6705" d="M29.907,44.837H1.749A1.751,1.751,0,0,1,0,43.089V39.982a1.751,1.751,0,0,1,1.749-1.75H29.907a1.751,1.751,0,0,1,1.749,1.75v3.107a1.751,1.751,0,0,1-1.749,1.749M2.2,42.638H29.456V40.433H2.2Z" transform="translate(0 4.432)" fill="#333"/>
        <path id="패스_6706" data-name="패스 6706" d="M27.2,55.1A1.1,1.1,0,0,1,26.1,54V44.379H4.927V54a1.1,1.1,0,1,1-2.2,0V43.28a1.1,1.1,0,0,1,1.1-1.1H27.2a1.1,1.1,0,0,1,1.1,1.1V54a1.1,1.1,0,0,1-1.1,1.1" transform="translate(0.316 4.89)" fill="#333"/>
        <path id="패스_6707" data-name="패스 6707" d="M15.79,20.137H14.359A5.913,5.913,0,0,1,8.452,14.23V9.621a1.1,1.1,0,0,1,.883-1.078A3,3,0,0,0,11.49,6.419a1.1,1.1,0,0,1,2-.314,3.42,3.42,0,0,0,2.4,1.4,3.671,3.671,0,0,0,2.379-.285,1.1,1.1,0,0,1,1.774.559.956.956,0,0,0,.707.752A1.045,1.045,0,0,1,21.7,9.621V14.23a5.913,5.913,0,0,1-5.907,5.907M10.653,10.4V14.23a3.711,3.711,0,0,0,3.706,3.707H15.79A3.711,3.711,0,0,0,19.5,14.23V10.388a3.147,3.147,0,0,1-1.015-.869,6.753,6.753,0,0,1-2.933.16A6.117,6.117,0,0,1,12.88,8.614,5.263,5.263,0,0,1,10.653,10.4" transform="translate(0.98 0.647)" fill="#333"/>
      </g>
    </g>
  </g>
</svg>
