<svg xmlns="http://www.w3.org/2000/svg" width="84" height="84" viewBox="0 0 84 84">
  <g id="mypage_icon_2" transform="translate(-365 -480)">
    <circle id="타원_61" data-name="타원 61" cx="40" cy="40" r="40" transform="translate(365 480)" fill="#ffc333"/>
    <g id="Frame_512_1_" data-name="Frame 512 (1)" transform="translate(380.891 495.891)">
      <rect id="사각형_894" data-name="사각형 894" width="48" height="48" transform="translate(0.109 0.109)" fill="none"/>
      <path id="패스_4165" data-name="패스 4165" d="M27.091,12.045A10.045,10.045,0,1,1,17.045,2,10.045,10.045,0,0,1,27.091,12.045Zm-4.018,0a6.027,6.027,0,1,1-6.027-6.027A6.027,6.027,0,0,1,23.073,12.045Z" transform="translate(7.064 2.018)" fill="#fff" fill-rule="evenodd"/>
      <path id="패스_4166" data-name="패스 4166" d="M2,28.5A15.5,15.5,0,0,1,17.5,13h9.184a15.5,15.5,0,0,1,15.5,15.5A2.583,2.583,0,0,1,39.6,31.082H4.583A2.583,2.583,0,0,1,2,28.5Zm4.107-1.435A11.482,11.482,0,0,1,17.5,17.018h9.184A11.483,11.483,0,0,1,38.075,27.064Z" transform="translate(2.018 13.118)" fill="#fff" fill-rule="evenodd"/>
    </g>
    <circle id="타원_62" data-name="타원 62" cx="16" cy="16" r="16" transform="translate(417 532)" fill="#23a0f0"/>
    <path id="패스_6349" data-name="패스 6349" d="M426.789,549.041l5.082,5.082,9.532-9.532" transform="translate(0 -1)" fill="none" stroke="#fff" stroke-linecap="round" stroke-linejoin="round" stroke-width="3"/>
  </g>
</svg>
