<svg xmlns="http://www.w3.org/2000/svg" width="230" height="188.016" viewBox="0 0 230 188.016">
  <g id="img" transform="translate(-411 -1818.984)">
    <g id="그룹_3347" data-name="그룹 3347" transform="translate(-347.334 1624.246)">
      <g id="그룹_3344" data-name="그룹 3344" transform="translate(760.334 196.754)">
        <g id="그룹_3343" data-name="그룹 3343" transform="translate(0 13.222)">
          <g id="그룹_3342" data-name="그룹 3342">
            <g id="그룹_3341" data-name="그룹 3341">
              <rect id="사각형_1466" data-name="사각형 1466" width="71.227" height="42.506" transform="translate(26.997 128.272)" fill="#03a3ff" stroke="#3e3a39" stroke-linecap="round" stroke-linejoin="round" stroke-width="4"/>
              <g id="그룹_3340" data-name="그룹 3340" transform="translate(1.712)">
                <path id="패스_6350" data-name="패스 6350" d="M765,363.414l13.786-28.146s6.894-12.063,17.807-14.361v42.507" transform="translate(-762.692 -226.885)" fill="#03a3ff" stroke="#3e3a39" stroke-linecap="round" stroke-linejoin="round" stroke-width="4"/>
                <path id="패스_6351" data-name="패스 6351" d="M894.451,355.517,876.07,330.243s-7.467-14.935-20.679-12.063,0,39.06,0,39.06" transform="translate(-774.388 -226.471)" fill="#03a3ff" stroke="#3e3a39" stroke-linecap="round" stroke-linejoin="round" stroke-width="4"/>
                <g id="그룹_3337" data-name="그룹 3337" transform="translate(3.029)">
                  <g id="그룹_3335" data-name="그룹 3335">
                    <g id="그룹_3333" data-name="그룹 3333">
                      <g id="그룹_3332" data-name="그룹 3332" transform="translate(0 38.846)">
                        <path id="패스_6352" data-name="패스 6352" d="M786.647,267.591a10.405,10.405,0,1,0-10.4,10.4A10.406,10.406,0,0,0,786.647,267.591Z" transform="translate(-765.836 -257.185)" fill="#ffddc6" stroke="#3e3a39" stroke-linecap="round" stroke-linejoin="round" stroke-width="4"/>
                        <path id="패스_6353" data-name="패스 6353" d="M892.315,267.591A10.405,10.405,0,1,0,881.909,278,10.406,10.406,0,0,0,892.315,267.591Z" transform="translate(-780.459 -257.185)" fill="#ffddc6" stroke="#3e3a39" stroke-linecap="round" stroke-linejoin="round" stroke-width="4"/>
                      </g>
                      <ellipse id="타원_66" data-name="타원 66" cx="45.437" cy="47.171" rx="45.437" ry="47.171" transform="translate(10.491)" fill="#fff3e3" stroke="#3e3a39" stroke-linecap="round" stroke-linejoin="round" stroke-width="4"/>
                    </g>
                    <g id="그룹_3334" data-name="그룹 3334" transform="translate(18.209 44.569)">
                      <path id="패스_6354" data-name="패스 6354" d="M810.9,275.794a11.967,11.967,0,1,1-11.966-11.967A11.966,11.966,0,0,1,810.9,275.794Z" transform="translate(-786.969 -263.827)" fill="#ffddcb"/>
                      <path id="패스_6355" data-name="패스 6355" d="M870.679,275.794a11.966,11.966,0,1,1-11.966-11.967A11.966,11.966,0,0,1,870.679,275.794Z" transform="translate(-795.241 -263.827)" fill="#ffddcb"/>
                    </g>
                  </g>
                  <g id="그룹_3336" data-name="그룹 3336" transform="translate(36.939 44.049)">
                    <ellipse id="타원_67" data-name="타원 67" cx="3.902" cy="4.423" rx="3.902" ry="4.423" fill="#3e3a39"/>
                    <path id="패스_6356" data-name="패스 6356" d="M851.533,267.647a3.933,3.933,0,1,1-3.9-4.423A4.186,4.186,0,0,1,851.533,267.647Z" transform="translate(-813.554 -263.224)" fill="#3e3a39"/>
                  </g>
                </g>
                <g id="그룹_3339" data-name="그룹 3339" transform="translate(0 87.574)">
                  <path id="패스_6357" data-name="패스 6357" d="M860.334,330.886s6.928-1.6,11.725,9.059c0,0,29.844,12.791,24.514,28.245s-27.179,4.263-35.7-6.395" transform="translate(-775.884 -315.755)" fill="#fff3e3" stroke="#3e3a39" stroke-linecap="round" stroke-linejoin="round" stroke-width="4"/>
                  <g id="그룹_3338" data-name="그룹 3338" transform="translate(30.84)">
                    <path id="사각형_1467" data-name="사각형 1467" d="M8.087,0H48.144a8.088,8.088,0,0,1,8.088,8.088V66.213A8.088,8.088,0,0,1,48.144,74.3H8.087A8.087,8.087,0,0,1,0,66.214V8.087A8.087,8.087,0,0,1,8.087,0Z" fill="#b5b5b6" stroke="#3e3a39" stroke-linecap="round" stroke-linejoin="round" stroke-width="4"/>
                    <circle id="타원_68" data-name="타원 68" cx="2.01" cy="2.01" r="2.01" transform="translate(46.347 5.865)" fill="#3e3a39"/>
                  </g>
                  <path id="패스_6358" data-name="패스 6358" d="M783.586,350.955s-21.828,7.468-21.254,21.828,20.68,18.955,35.614.574-1.149-38.485-8.616-33.89S783.586,350.955,783.586,350.955Z" transform="translate(-762.321 -316.862)" fill="#fff3e3" stroke="#3e3a39" stroke-linecap="round" stroke-linejoin="round" stroke-width="4"/>
                </g>
              </g>
              <line id="선_58" data-name="선 58" x1="190.961" transform="translate(0 170.778)" fill="#03a3ff" stroke="#3e3a39" stroke-linecap="round" stroke-linejoin="round" stroke-width="4"/>
            </g>
            <path id="패스_6359" data-name="패스 6359" d="M831.682,272.1a2.871,2.871,0,0,0-4.061,0" transform="translate(-769.921 -220.183)" fill="none" stroke="#3e3a39" stroke-linecap="round" stroke-linejoin="round" stroke-width="4"/>
            <path id="패스_6360" data-name="패스 6360" d="M822.251,284.728a9.415,9.415,0,0,0,13.314,0" transform="translate(-769.169 -222.021)" fill="none" stroke="#3e3a39" stroke-linecap="round" stroke-linejoin="round" stroke-width="4"/>
          </g>
          <path id="패스_6361" data-name="패스 6361" d="M807.667,255.061s2.3-5.17,8.042-2.3" transform="translate(-767.082 -217.536)" fill="none" stroke="#3e3a39" stroke-linecap="round" stroke-linejoin="round" stroke-width="4"/>
          <path id="패스_6362" data-name="패스 6362" d="M852.709,255.061s-2.3-5.17-8.042-2.3" transform="translate(-772.357 -217.536)" fill="none" stroke="#3e3a39" stroke-linecap="round" stroke-linejoin="round" stroke-width="4"/>
        </g>
        <path id="패스_6363" data-name="패스 6363" d="M777.732,257.147s14.638-13.738,18.084-27.524c0,0,3.446-10.914,10.339-8.042,0,0,7.467-8.041,14.36-3.446s24.7,20.1,37.911,20.1c0,0,3.7,15.414,10.179,18.908,0,0,12.8-36.141-9.03-48.778s-48.251-16.658-59.165-3.446C800.411,204.923,768.263,210.573,777.732,257.147Z" transform="translate(-762.5 -196.754)" fill="#6e6150" stroke="#3e3a39" stroke-linecap="round" stroke-linejoin="round" stroke-width="4"/>
      </g>
      <g id="그룹_3345" data-name="그룹 3345" transform="translate(887.031 231.198)">
        <rect id="사각형_1468" data-name="사각형 1468" width="66.962" height="50.446" fill="#ffad8c" stroke="#3e3a39" stroke-linecap="round" stroke-linejoin="round" stroke-width="4"/>
        <path id="패스_6364" data-name="패스 6364" d="M941.9,249.841,908.415,288.9h66.962Z" transform="translate(-908.415 -238.455)" fill="#ffb62d" stroke="#3e3a39" stroke-linecap="round" stroke-linejoin="round" stroke-width="4"/>
        <path id="패스_6365" data-name="패스 6365" d="M941.9,275.687l33.481-39.06H908.415Z" transform="translate(-908.415 -236.627)" fill="#ffea5e" stroke="#3e3a39" stroke-linecap="round" stroke-linejoin="round" stroke-width="4"/>
      </g>
      <g id="그룹_3346" data-name="그룹 3346" transform="translate(846.178 279.991)">
        <line id="선_59" data-name="선 59" x2="140.156" transform="translate(0 19.332)" fill="none" stroke="#3e3a39" stroke-linecap="round" stroke-linejoin="round" stroke-width="4"/>
        <path id="패스_6366" data-name="패스 6366" d="M1001.23,331.794l19.333-19.332L1001.23,293.13" transform="translate(-880.406 -293.13)" fill="none" stroke="#3e3a39" stroke-linecap="round" stroke-linejoin="round" stroke-width="4"/>
      </g>
    </g>
  </g>
</svg>
