<svg xmlns="http://www.w3.org/2000/svg" xmlns:xlink="http://www.w3.org/1999/xlink" width="60" height="60" viewBox="0 0 60 60">
  <defs>
    <clipPath id="clip-path">
      <rect id="사각형_1478" data-name="사각형 1478" width="60" height="60" transform="translate(-1)" fill="none"/>
    </clipPath>
  </defs>
  <g id="service_01_ic" transform="translate(1)">
    <g id="그룹_3325" data-name="그룹 3325" clip-path="url(#clip-path)">
      <g id="그룹_3329" data-name="그룹 3329">
        <path id="패스_6728" data-name="패스 6728" d="M53.818,47.832H4.182A4.185,4.185,0,0,1,0,43.652V13.728a4.186,4.186,0,0,1,4.182-4.18h5.861a1.091,1.091,0,0,1,0,2.183H4.182a2,2,0,0,0-2,2V43.652a2,2,0,0,0,2,2H53.818a2,2,0,0,0,2-2V13.728a2,2,0,0,0-2-2H47.956a1.091,1.091,0,0,1,0-2.183h5.862A4.185,4.185,0,0,1,58,13.728V43.652a4.185,4.185,0,0,1-4.181,4.18" fill="#333"/>
        <path id="패스_6729" data-name="패스 6729" d="M43.537,26.078H23.921a1.091,1.091,0,1,1,0-2.182H43.537a1.091,1.091,0,1,1,0,2.182" transform="translate(0.01)" fill="#333"/>
        <path id="패스_6730" data-name="패스 6730" d="M43.537,15.831H23.921a1.091,1.091,0,1,1,0-2.182H43.537a1.091,1.091,0,1,1,0,2.182" transform="translate(0.01)" fill="#333"/>
        <path id="패스_6731" data-name="패스 6731" d="M36.639,60h-15.3a1.091,1.091,0,0,1-1.091-1.091V46.741a1.092,1.092,0,0,1,1.091-1.092h15.3a1.092,1.092,0,0,1,1.091,1.092V58.909A1.092,1.092,0,0,1,36.639,60M22.434,57.818H35.547V47.832H22.434Z" transform="translate(0.009)" fill="#333"/>
        <path id="패스_6732" data-name="패스 6732" d="M45.716,60H12.273a1.091,1.091,0,1,1,0-2.182H45.716a1.091,1.091,0,1,1,0,2.182" transform="translate(0.005)" fill="#333"/>
        <path id="패스_6733" data-name="패스 6733" d="M47.952,47.177a1.091,1.091,0,0,1-1.091-1.091V4.092a1.913,1.913,0,0,0-1.911-1.91H13.041a1.913,1.913,0,0,0-1.911,1.91V46.086a1.091,1.091,0,0,1-2.183,0V4.092A4.1,4.1,0,0,1,13.041,0H44.95a4.1,4.1,0,0,1,4.094,4.092V46.086a1.091,1.091,0,0,1-1.091,1.091" transform="translate(0.004)" fill="#333"/>
        <rect id="사각형_1477" data-name="사각형 1477" width="29.048" height="6.943" transform="translate(14.5 33.478)" fill="#bce2fa"/>
        <path id="패스_6734" data-name="패스 6734" d="M43.542,41.512H14.493A1.091,1.091,0,0,1,13.4,40.421V33.478a1.091,1.091,0,0,1,1.091-1.091H43.542a1.091,1.091,0,0,1,1.091,1.091v6.943a1.091,1.091,0,0,1-1.091,1.091M15.585,39.33H42.449V34.57H15.585Z" transform="translate(0.006)" fill="#333"/>
        <path id="패스_6735" data-name="패스 6735" d="M51.46,47.334,41.364,37.5a.221.221,0,0,0-.374.16l-.033,14.09a.222.222,0,0,0,.384.152l2.585-2.781a.221.221,0,0,1,.313-.011.229.229,0,0,1,.054.076l2.28,5.419a.222.222,0,0,0,.291.119l2.588-1.088a.221.221,0,0,0,.119-.289h0l-2.28-5.42a.22.22,0,0,1,.118-.29.21.21,0,0,1,.092-.018l3.8.1a.222.222,0,0,0,.16-.381" transform="translate(0.018)" fill="#ffd059"/>
        <path id="패스_6736" data-name="패스 6736" d="M46.781,55.828a1.317,1.317,0,0,1-1.215-.8l-1.758-4.178-1.667,1.795a1.318,1.318,0,0,1-.962.419h-.006a1.315,1.315,0,0,1-1.309-1.317L39.9,37.654a1.3,1.3,0,0,1,.363-.9,1.315,1.315,0,0,1,1.857-.043l10.075,9.818.029.027a1.313,1.313,0,0,1-.916,2.254h-.032l-2.454-.065,1.758,4.178v0h0a1.313,1.313,0,0,1-.706,1.715l-2.585,1.088a1.319,1.319,0,0,1-.507.1M44.09,47.956a1.311,1.311,0,0,1,1.211.8l1.943,4.618.984-.414-1.943-4.618a1.313,1.313,0,0,1,1.245-1.822l1.578.041-7.03-6.851-.023,9.814,1.072-1.154a1.313,1.313,0,0,1,.963-.418m4.939,4.67,0,0Zm-6.98-.878h0ZM43.288,49.6v0ZM48.3,47.5v0m-6.215-9.844v0Z" transform="translate(0.018)" fill="#333"/>
        <path id="패스_6737" data-name="패스 6737" d="M47.952,6H10.038V4.093a3,3,0,0,1,3-3H44.95a3,3,0,0,1,3,3Z" transform="translate(0.005)" fill="#bce2fa"/>
        <path id="패스_6738" data-name="패스 6738" d="M47.953,7.088H10.039A1.091,1.091,0,0,1,8.948,6V4.092A4.1,4.1,0,0,1,13.042,0H44.951a4.1,4.1,0,0,1,4.094,4.092V6a1.091,1.091,0,0,1-1.091,1.091M11.131,4.906h35.73V4.092a1.912,1.912,0,0,0-1.91-1.91H13.042a1.913,1.913,0,0,0-1.911,1.91Z" transform="translate(0.004)" fill="#333"/>
        <path id="패스_6739" data-name="패스 6739" d="M19.362,18.264H14.493A1.091,1.091,0,0,1,13.4,17.173V12.306a1.091,1.091,0,0,1,1.091-1.091h4.868a1.092,1.092,0,0,1,1.092,1.091v4.867a1.092,1.092,0,0,1-1.092,1.091m-3.777-2.183H18.27V13.4H15.585Z" transform="translate(0.006)" fill="#333"/>
        <path id="패스_6740" data-name="패스 6740" d="M19.362,28.511H14.493A1.091,1.091,0,0,1,13.4,27.42V22.554a1.092,1.092,0,0,1,1.091-1.092h4.868a1.092,1.092,0,0,1,1.092,1.092V27.42a1.092,1.092,0,0,1-1.092,1.091m-3.777-2.182H18.27V23.645H15.585Z" transform="translate(0.006)" fill="#333"/>
      </g>
    </g>
  </g>
</svg>
