<svg xmlns="http://www.w3.org/2000/svg" width="90.309" height="94.493" viewBox="0 0 90.309 94.493">
  <g id="step_01_img" transform="translate(-1580.554 -454.027)">
    <g id="그룹_3419" data-name="그룹 3419" transform="translate(1580.554 454.027)">
      <g id="그룹_3403" data-name="그룹 3403" transform="translate(57.45 13.935)">
        <path id="패스_6417" data-name="패스 6417" d="M1703.195,490.768l-11.049-11.049L1681.1,490.768h5.745v33.147h10.606V490.768Z" transform="translate(-1680.08 -478.714)" fill="#ffc333"/>
        <path id="패스_6418" data-name="패스 6418" d="M1696.717,524.209h-10.606a1.018,1.018,0,0,1-1.018-1.018V491.063h-4.728a1.018,1.018,0,0,1-.72-1.738l11.048-11.049a1.048,1.048,0,0,1,1.439,0l11.049,11.049a1.018,1.018,0,0,1-.719,1.738h-4.728v32.129A1.018,1.018,0,0,1,1696.717,524.209Zm-9.589-2.035h8.571V490.045a1.017,1.017,0,0,1,1.018-1.018h3.288l-8.592-8.592-8.592,8.592h3.289a1.018,1.018,0,0,1,1.018,1.018Z" transform="translate(-1679.347 -477.99)" fill="#3e3a39"/>
      </g>
      <g id="그룹_3418" data-name="그룹 3418">
        <g id="그룹_3406" data-name="그룹 3406">
          <g id="그룹_3404" data-name="그룹 3404">
            <path id="사각형_1474" data-name="사각형 1474" d="M7.125,0H41.4a7.121,7.121,0,0,1,7.121,7.121V85.335A7.123,7.123,0,0,1,41.4,92.458H7.125A7.125,7.125,0,0,1,0,85.333V7.125A7.125,7.125,0,0,1,7.125,0Z" transform="translate(1.018 1.018)" fill="#fff"/>
            <path id="패스_6419" data-name="패스 6419" d="M1625.95,548.52h-40.237a5.165,5.165,0,0,1-5.159-5.161V459.187a5.165,5.165,0,0,1,5.159-5.16h40.237a5.166,5.166,0,0,1,5.161,5.16v84.173A5.166,5.166,0,0,1,1625.95,548.52Zm-40.237-92.458a3.127,3.127,0,0,0-3.123,3.124v84.173a3.128,3.128,0,0,0,3.123,3.126h40.237a3.129,3.129,0,0,0,3.126-3.126V459.187a3.128,3.128,0,0,0-3.126-3.124Z" transform="translate(-1580.554 -454.027)" fill="#3e3a39"/>
          </g>
          <g id="그룹_3405" data-name="그룹 3405" transform="translate(13.016)">
            <path id="패스_6420" data-name="패스 6420" d="M1604.687,455.777v1.415a4.635,4.635,0,0,0,4.636,4.635h13.217a4.636,4.636,0,0,0,4.636-4.635v-1.415Z" transform="translate(-1603.669 -454.759)" fill="#ffc333"/>
            <path id="패스_6421" data-name="패스 6421" d="M1621.808,462.113h-13.217a5.66,5.66,0,0,1-5.654-5.653v-1.415a1.018,1.018,0,0,1,1.018-1.018h22.489a1.018,1.018,0,0,1,1.018,1.018v1.415A5.66,5.66,0,0,1,1621.808,462.113Zm-16.836-6.051v.4a3.622,3.622,0,0,0,3.618,3.618h13.217a3.622,3.622,0,0,0,3.618-3.618v-.4Z" transform="translate(-1602.937 -454.027)" fill="#3e3a39"/>
          </g>
        </g>
        <g id="그룹_3408" data-name="그룹 3408" transform="translate(9.723 15.813)">
          <g id="그룹_3407" data-name="그룹 3407">
            <rect id="사각형_1475" data-name="사각형 1475" width="29.076" height="29.076" transform="translate(1.017 1.017)" fill="#7dc7ff"/>
            <path id="패스_6422" data-name="패스 6422" d="M1627.368,512.331h-29.076a1.018,1.018,0,0,1-1.018-1.018V482.238a1.017,1.017,0,0,1,1.018-1.018h29.076a1.018,1.018,0,0,1,1.018,1.018v29.076A1.018,1.018,0,0,1,1627.368,512.331Zm-28.058-2.035h27.041V483.255h-27.041Z" transform="translate(-1597.274 -481.22)" fill="#3e3a39"/>
          </g>
          <path id="패스_6423" data-name="패스 6423" d="M1600.046,512.046a1.018,1.018,0,0,1-.719-1.738l27.035-27.035a1.018,1.018,0,1,1,1.439,1.439l-27.035,27.035A1.014,1.014,0,0,1,1600.046,512.046Z" transform="translate(-1598.008 -481.954)" fill="#3e3a39"/>
          <path id="패스_6424" data-name="패스 6424" d="M1627.081,512.046a1.014,1.014,0,0,1-.72-.3l-27.035-27.035a1.018,1.018,0,1,1,1.439-1.439l27.035,27.035a1.018,1.018,0,0,1-.719,1.738Z" transform="translate(-1598.008 -481.954)" fill="#3e3a39"/>
        </g>
        <g id="그룹_3409" data-name="그룹 3409" transform="translate(25.321 32.954)">
          <path id="패스_6425" data-name="패스 6425" d="M1669.752,520.733a8.287,8.287,0,0,1-8.287,8.287h-27.331a8.286,8.286,0,0,1-8.287-8.287h0a8.286,8.286,0,0,1,8.287-8.287h27.331a8.287,8.287,0,0,1,8.287,8.287Z" transform="translate(-1624.829 -511.428)" fill="#ff6363"/>
          <path id="패스_6426" data-name="패스 6426" d="M1660.733,529.3H1633.4a9.3,9.3,0,1,1,0-18.609h27.331a9.3,9.3,0,1,1,0,18.609ZM1633.4,512.731a7.269,7.269,0,1,0,0,14.538h27.331a7.269,7.269,0,1,0,0-14.538Z" transform="translate(-1624.097 -510.696)" fill="#3e3a39"/>
        </g>
        <g id="그룹_3417" data-name="그룹 3417" transform="translate(43.955 36.912)">
          <g id="그룹_3416" data-name="그룹 3416">
            <g id="그룹_3415" data-name="그룹 3415">
              <g id="그룹_3414" data-name="그룹 3414">
                <g id="그룹_3410" data-name="그룹 3410" transform="translate(15.785 31.89)">
                  <path id="패스_6427" data-name="패스 6427" d="M1710.689,597.747V574.091h-25.655v23.657" transform="translate(-1684.016 -573.073)" fill="#ffdfc7"/>
                  <path id="패스_6428" data-name="패스 6428" d="M1709.957,598.032a1.018,1.018,0,0,1-1.018-1.018V574.376h-23.62v22.638a1.018,1.018,0,1,1-2.035,0V573.359a1.017,1.017,0,0,1,1.018-1.018h25.655a1.017,1.017,0,0,1,1.018,1.018v23.656A1.017,1.017,0,0,1,1709.957,598.032Z" transform="translate(-1683.284 -572.341)" fill="#3e3a39"/>
                </g>
                <g id="그룹_3413" data-name="그룹 3413">
                  <g id="그룹_3411" data-name="그룹 3411" transform="translate(0 22.729)">
                    <path id="패스_6429" data-name="패스 6429" d="M1675.593,582.837c-6.954-2.4-5.995-8.872-12.229-13.667s-6.714-8.87-3.6-10.549,9.351,4.261,9.351,4.261l16.545-.665" transform="translate(-1656.872 -557.313)" fill="#ffdfc7"/>
                    <path id="패스_6430" data-name="패스 6430" d="M1674.861,583.129a1.016,1.016,0,0,1-.332-.055c-4.236-1.46-5.781-4.277-7.416-7.259a18.874,18.874,0,0,0-5.1-6.564c-3.987-3.067-6.067-6.186-5.856-8.782a4.3,4.3,0,0,1,2.4-3.47c3.33-1.794,8.738,2.78,10.216,4.123l16.121-.648a1.018,1.018,0,1,1,.082,2.034l-16.545.665a1.014,1.014,0,0,1-.743-.28c-2.368-2.253-6.467-5.018-8.166-4.1a2.271,2.271,0,0,0-1.334,1.842c-.071.879.281,3.322,5.069,7a20.825,20.825,0,0,1,5.646,7.2c1.565,2.855,2.8,5.109,6.294,6.313a1.017,1.017,0,0,1-.331,1.979Z" transform="translate(-1656.14 -556.588)" fill="#3e3a39"/>
                  </g>
                  <g id="그룹_3412" data-name="그룹 3412" transform="translate(11.228)">
                    <path id="패스_6431" data-name="패스 6431" d="M1705.972,564.33c4.317-2.157,4.317-11.029,4.317-11.029V538.624a4.077,4.077,0,0,0-4.079-4.077h0a4.076,4.076,0,0,0-4.075,4.077v2.448h-.16v-3.778a4.075,4.075,0,0,0-4.075-4.076h0a4.076,4.076,0,0,0-4.077,4.076v3.778h-.161V536.3a4.073,4.073,0,0,0-4.074-4.075h0a4.075,4.075,0,0,0-4.078,4.075v4.775h-.159V523.328a4.076,4.076,0,0,0-4.078-4.076h0a4.076,4.076,0,0,0-4.076,4.076V546.5" transform="translate(-1676.18 -518.234)" fill="#ffdfc7"/>
                    <path id="패스_6432" data-name="패스 6432" d="M1705.24,564.615a1.017,1.017,0,0,1-.455-1.928c3.072-1.535,3.751-7.825,3.754-10.12V537.892a3.059,3.059,0,1,0-6.119,0v2.448a1.017,1.017,0,0,1-1.018,1.018h-.16a1.017,1.017,0,0,1-1.018-1.018v-3.778a3.058,3.058,0,1,0-6.116,0v3.778a1.017,1.017,0,0,1-1.018,1.018h-.161a1.017,1.017,0,0,1-1.018-1.018v-4.775a3.058,3.058,0,0,0-6.116,0v4.775a1.017,1.017,0,0,1-1.018,1.018h-.159a1.017,1.017,0,0,1-1.018-1.018V522.6a3.059,3.059,0,0,0-6.119,0v23.169a1.018,1.018,0,1,1-2.035,0V522.6a5.095,5.095,0,0,1,10.189,0v9.023a9.875,9.875,0,0,0,11.53-.151,5.089,5.089,0,0,0,8.311,1.329,5.1,5.1,0,0,1,5.1,5.095v14.676c0,.388-.056,9.529-4.88,11.94A1.016,1.016,0,0,1,1705.24,564.615Z" transform="translate(-1675.448 -517.502)" fill="#3e3a39"/>
                  </g>
                </g>
              </g>
            </g>
          </g>
        </g>
        <path id="패스_6433" data-name="패스 6433" d="M1611.564,551.255h-13.272a1.018,1.018,0,1,1,0-2.035h13.272a1.018,1.018,0,0,1,0,2.035Z" transform="translate(-1587.551 -493.863)" fill="#e4e6e6"/>
        <path id="패스_6434" data-name="패스 6434" d="M1627.555,567.255h-29.264a1.018,1.018,0,1,1,0-2.035h29.264a1.018,1.018,0,1,1,0,2.035Z" transform="translate(-1587.551 -500.559)" fill="#e4e6e6"/>
        <path id="패스_6435" data-name="패스 6435" d="M1627.555,577.922h-29.264a1.018,1.018,0,1,1,0-2.035h29.264a1.018,1.018,0,1,1,0,2.035Z" transform="translate(-1587.551 -505.023)" fill="#e4e6e6"/>
        <path id="패스_6436" data-name="패스 6436" d="M1613.89,588.589h-15.6a1.018,1.018,0,1,1,0-2.035h15.6a1.018,1.018,0,1,1,0,2.035Z" transform="translate(-1587.551 -509.487)" fill="#e4e6e6"/>
        <path id="패스_6437" data-name="패스 6437" d="M1627.555,599.255h-29.264a1.018,1.018,0,1,1,0-2.035h29.264a1.018,1.018,0,1,1,0,2.035Z" transform="translate(-1587.551 -513.951)" fill="#e4e6e6"/>
      </g>
    </g>
    <path id="패스_6438" data-name="패스 6438" d="M1699.115,514.152a1.018,1.018,0,0,1-1.018-1.018v-6.4a1.018,1.018,0,0,1,2.035,0v6.4A1.018,1.018,0,0,1,1699.115,514.152Z" transform="translate(-49.189 -21.633)" fill="#3e3a39"/>
    <text id="전_환" data-name="전 환" transform="translate(1614.553 500.027)" fill="#3e3a39" font-size="9" font-family="NotoSansKR-Bold, Noto Sans KR" font-weight="700"><tspan x="0" y="0">전 환</tspan></text>
  </g>
</svg>
