<svg xmlns="http://www.w3.org/2000/svg" width="64.436" height="105.079" viewBox="0 0 64.436 105.079">
  <g id="step_03_img" transform="translate(-413.624 -1686.262)">
    <g id="그룹_3431" data-name="그룹 3431" transform="translate(418.62 1687.27)">
      <g id="그룹_3430" data-name="그룹 3430" transform="translate(0 6.451)">
        <g id="그룹_3429" data-name="그룹 3429" transform="translate(0 0)">
          <g id="그룹_3428" data-name="그룹 3428">
            <g id="그룹_3427" data-name="그룹 3427">
              <g id="그룹_3426" data-name="그룹 3426">
                <g id="그룹_3424" data-name="그룹 3424">
                  <g id="그룹_3422" data-name="그룹 3422">
                    <g id="그룹_3421" data-name="그룹 3421" transform="translate(0 18.952)">
                      <path id="패스_6439" data-name="패스 6439" d="M1526.808,361.362a5.076,5.076,0,1,0-5.076,5.076A5.076,5.076,0,0,0,1526.808,361.362Z" transform="translate(-1516.655 -356.285)" fill="#ffddc6" stroke="#3e3a39" stroke-linecap="round" stroke-linejoin="round" stroke-width="2"/>
                      <path id="패스_6440" data-name="패스 6440" d="M1632.476,361.362a5.076,5.076,0,1,0-5.076,5.076A5.076,5.076,0,0,0,1632.476,361.362Z" transform="translate(-1577.904 -356.285)" fill="#ffddc6" stroke="#3e3a39" stroke-linecap="round" stroke-linejoin="round" stroke-width="2"/>
                    </g>
                    <ellipse id="타원_79" data-name="타원 79" cx="22.167" cy="23.013" rx="22.167" ry="23.013" transform="translate(5.118)" fill="#fff3e3" stroke="#3e3a39" stroke-linecap="round" stroke-linejoin="round" stroke-width="2"/>
                  </g>
                  <g id="그룹_3423" data-name="그룹 3423" transform="translate(8.883 21.744)">
                    <path id="패스_6441" data-name="패스 6441" d="M1549.464,368.765a5.838,5.838,0,1,1-5.838-5.838A5.838,5.838,0,0,1,1549.464,368.765Z" transform="translate(-1537.788 -362.927)" fill="#ffddcb"/>
                    <path id="패스_6442" data-name="패스 6442" d="M1609.241,368.765a5.838,5.838,0,1,1-5.838-5.838A5.838,5.838,0,0,1,1609.241,368.765Z" transform="translate(-1572.437 -362.927)" fill="#ffddcb"/>
                  </g>
                </g>
                <g id="그룹_3425" data-name="그룹 3425" transform="translate(18.021 21.49)">
                  <ellipse id="타원_80" data-name="타원 80" cx="1.904" cy="2.158" rx="1.904" ry="2.158" fill="#3e3a39"/>
                  <path id="패스_6443" data-name="패스 6443" d="M1598.354,364.481a1.919,1.919,0,1,1-1.9-2.157A2.042,2.042,0,0,1,1598.354,364.481Z" transform="translate(-1579.825 -362.324)" fill="#3e3a39"/>
                </g>
              </g>
            </g>
          </g>
          <path id="패스_6444" data-name="패스 6444" d="M1580.421,370.772a1.4,1.4,0,0,0-1.982,0" transform="translate(-1552.467 -345.493)" fill="none" stroke="#3e3a39" stroke-linecap="round" stroke-linejoin="round" stroke-width="2"/>
          <path id="패스_6445" data-name="패스 6445" d="M1573.07,383.827a4.593,4.593,0,0,0,6.495,0" transform="translate(-1549.356 -353.297)" fill="none" stroke="#3e3a39" stroke-linecap="round" stroke-linejoin="round" stroke-width="2"/>
        </g>
        <path id="패스_6446" data-name="패스 6446" d="M1558.486,352.54a2.69,2.69,0,0,1,3.924-1.121" transform="translate(-1540.902 -334.267)" fill="none" stroke="#3e3a39" stroke-linecap="round" stroke-linejoin="round" stroke-width="2"/>
        <path id="패스_6447" data-name="패스 6447" d="M1599.41,352.54a2.69,2.69,0,0,0-3.924-1.121" transform="translate(-1562.349 -334.267)" fill="none" stroke="#3e3a39" stroke-linecap="round" stroke-linejoin="round" stroke-width="2"/>
      </g>
      <path id="패스_6448" data-name="패스 6448" d="M1527.657,325.318s7.141-6.7,8.823-13.428c0,0,1.682-5.325,5.044-3.924,0,0,3.643-3.923,7.006-1.681s12.05,9.809,18.5,9.809c0,0,1.8,7.52,4.966,9.225,0,0,6.245-17.632-4.4-23.8s-23.54-8.127-28.865-1.681C1538.722,299.839,1523.037,302.6,1527.657,325.318Z" transform="translate(-1522.539 -295.854)" fill="#7a6a56" stroke="#3e3a39" stroke-linecap="round" stroke-linejoin="round" stroke-width="2"/>
    </g>
    <g id="그룹_3402" data-name="그룹 3402" transform="translate(414.705 1734.526)">
      <g id="그룹_3401" data-name="그룹 3401" transform="translate(0 0)">
        <g id="그룹_3400" data-name="그룹 3400">
          <g id="그룹_3399" data-name="그룹 3399">
            <g id="그룹_3398" data-name="그룹 3398">
              <g id="그룹_3391" data-name="그룹 3391" transform="translate(1.368 6.997)">
                <path id="패스_6408" data-name="패스 6408" d="M1667.459,807.366s-6.69,6.459-6.921,11.765a8.543,8.543,0,0,0,6.921,9.227" transform="translate(-1660.527 -807.366)" fill="#ffc333" stroke="#3e3a39" stroke-linecap="round" stroke-linejoin="round" stroke-width="2"/>
                <path id="패스_6409" data-name="패스 6409" d="M1781.9,807.366s6.69,6.459,6.921,11.765a8.543,8.543,0,0,1-6.921,9.227" transform="translate(-1729.297 -807.366)" fill="#ffc333" stroke="#3e3a39" stroke-linecap="round" stroke-linejoin="round" stroke-width="2"/>
              </g>
              <g id="그룹_3397" data-name="그룹 3397">
                <rect id="사각형_1473" data-name="사각형 1473" width="11.303" height="11.304" transform="translate(25.485 31.91)" fill="#2961ff" stroke="#3e3a39" stroke-linecap="round" stroke-linejoin="round" stroke-width="2"/>
                <g id="그룹_3393" data-name="그룹 3393" transform="translate(7.299)">
                  <g id="그룹_3392" data-name="그룹 3392">
                    <path id="패스_6410" data-name="패스 6410" d="M1715.841,791.222h-35.583a6.047,6.047,0,0,0-6.047,6.047V827.2h47.676v-29.93A6.046,6.046,0,0,0,1715.841,791.222Z" transform="translate(-1674.212 -791.222)" fill="#fff" stroke="#3e3a39" stroke-linecap="round" stroke-linejoin="round" stroke-width="2"/>
                    <path id="패스_6411" data-name="패스 6411" d="M1674.212,865.586v5.133h47.676v-5.133" transform="translate(-1674.212 -833.355)" fill="#dcdddd" stroke="#3e3a39" stroke-linecap="round" stroke-linejoin="round" stroke-width="2"/>
                  </g>
                  <path id="패스_6412" data-name="패스 6412" d="M1728.057,831.794a3.759,3.759,0,1,1-3.759-3.759A3.759,3.759,0,0,1,1728.057,831.794Z" transform="translate(-1700.46 -812.08)" fill="#dcdddd" stroke="#707070" stroke-width="2"/>
                </g>
                <g id="그룹_3396" data-name="그룹 3396" transform="translate(0 26.516)">
                  <g id="그룹_3394" data-name="그룹 3394">
                    <path id="패스_6413" data-name="패스 6413" d="M1715.915,897.307a15.577,15.577,0,0,1,4.153,1.846c1.614,1.153,8.073,3.69,11.764.23s2.552-11.493-10.258-12.667" transform="translate(-1690.541 -871.844)" fill="#a5e3ff" stroke="#3e3a39" stroke-linecap="round" stroke-linejoin="round" stroke-width="2"/>
                    <path id="패스_6414" data-name="패스 6414" d="M1688.4,867.274s-14.532-16.256-22.66-14.778-11.576,11.576-4.679,16.748S1682,877.864,1682,877.864Z" transform="translate(-1657.372 -852.401)" fill="#23a0f0" stroke="#3e3a39" stroke-linecap="round" stroke-linejoin="round" stroke-width="2"/>
                  </g>
                  <g id="그룹_3395" data-name="그룹 3395" transform="translate(19.146)">
                    <path id="패스_6415" data-name="패스 6415" d="M1719.3,897.307a15.579,15.579,0,0,0-4.152,1.846c-1.615,1.153-8.074,3.69-11.765.23s-2.552-11.493,10.259-12.667" transform="translate(-1701.547 -871.844)" fill="#a5e3ff" stroke="#3e3a39" stroke-linecap="round" stroke-linejoin="round" stroke-width="2"/>
                    <path id="패스_6416" data-name="패스 6416" d="M1729.453,867.274s14.532-16.256,22.66-14.778,11.575,11.576,4.679,16.748-20.935,8.621-20.935,8.621Z" transform="translate(-1717.358 -852.401)" fill="#23a0f0" stroke="#3e3a39" stroke-linecap="round" stroke-linejoin="round" stroke-width="2"/>
                  </g>
                </g>
              </g>
            </g>
          </g>
        </g>
      </g>
    </g>
  </g>
</svg>
