<svg xmlns="http://www.w3.org/2000/svg" xmlns:xlink="http://www.w3.org/1999/xlink" width="260.004" height="220" viewBox="0 0 260.004 220">
  <defs>
    <clipPath id="clip-path">
      <rect id="사각형_1486" data-name="사각형 1486" width="260.004" height="160.736" fill="none"/>
    </clipPath>
  </defs>
  <g id="step_03_img" transform="translate(-403 -1821)">
    <rect id="사각형_1487" data-name="사각형 1487" width="260" height="220" transform="translate(403 1821)" fill="#fff" opacity="0"/>
    <g id="그룹_3339" data-name="그룹 3339" transform="translate(0 15.01)">
      <g id="그룹_3336" data-name="그룹 3336" transform="translate(403 1835.99)">
        <g id="그룹_3336-2" data-name="그룹 3336" clip-path="url(#clip-path)">
          <path id="패스_6840" data-name="패스 6840" d="M72.632,60.295A38.187,38.187,0,1,0,60.3,72.631l18.066,5.731Z" transform="translate(-0.855 -0.855)" fill="#23a0ef"/>
          <path id="패스_6841" data-name="패스 6841" d="M77.508,78.652a1.141,1.141,0,0,1-.346-.054L59.594,73.026A39.328,39.328,0,1,1,73.028,59.592L78.6,77.161a1.145,1.145,0,0,1-1.092,1.491M39.327,2.291A37.035,37.035,0,1,0,58.837,70.8a1.148,1.148,0,0,1,.951-.119l15.96,5.062-5.062-15.96a1.145,1.145,0,0,1,.119-.951A37.033,37.033,0,0,0,39.327,2.291" fill="#333"/>
          <path id="패스_6842" data-name="패스 6842" d="M223.336,38.217a13.716,13.716,0,1,0-13.716,13.717,13.717,13.717,0,0,0,13.716-13.717" transform="translate(-83.707 -10.469)" fill="#7a6a56"/>
          <path id="패스_6843" data-name="패스 6843" d="M208.764,52.225a14.862,14.862,0,1,1,14.862-14.862,14.879,14.879,0,0,1-14.862,14.862m0-27.434a12.571,12.571,0,1,0,12.571,12.572,12.585,12.585,0,0,0-12.571-12.572" transform="translate(-82.852 -9.614)" fill="#333"/>
          <path id="패스_6844" data-name="패스 6844" d="M160.327,166.076s-8.84,8.535-9.145,15.546,3.963,10.974,9.145,12.193" transform="translate(-64.591 -70.962)" fill="#ffc333"/>
          <path id="패스_6845" data-name="패스 6845" d="M159.473,194.106a1.157,1.157,0,0,1-.263-.03c-6.574-1.547-10.323-6.54-10.027-13.357.322-7.383,9.119-15.959,9.493-16.32a1.146,1.146,0,0,1,1.592,1.648c-.085.082-8.515,8.3-8.8,14.772-.244,5.63,2.845,9.753,8.263,11.028a1.145,1.145,0,0,1-.261,2.261" transform="translate(-63.737 -70.108)" fill="#333"/>
          <path id="패스_6846" data-name="패스 6846" d="M272.543,166.076s8.84,8.535,9.146,15.546-3.963,10.974-9.146,12.193" transform="translate(-116.454 -70.962)" fill="#ffe97c"/>
          <path id="패스_6847" data-name="패스 6847" d="M271.687,194.106a1.145,1.145,0,0,1-.261-2.26c5.418-1.275,8.508-5.4,8.264-11.028-.283-6.48-8.712-14.69-8.8-14.771a1.145,1.145,0,0,1,1.591-1.648c.375.361,9.173,8.937,9.494,16.32.3,6.817-3.453,11.81-10.028,13.357a1.155,1.155,0,0,1-.263.03" transform="translate(-115.599 -70.108)" fill="#333"/>
          <rect id="사각형_1485" data-name="사각형 1485" width="14.935" height="14.937" transform="translate(118.445 128.034)" fill="#23a0ef"/>
          <path id="패스_6848" data-name="패스 6848" d="M220.893,238.785H205.957a1.145,1.145,0,0,1-1.145-1.145V222.7a1.146,1.146,0,0,1,1.145-1.145h14.936a1.146,1.146,0,0,1,1.145,1.145v14.937a1.145,1.145,0,0,1-1.145,1.145m-13.79-2.291h12.644V223.848H207.1Z" transform="translate(-87.513 -94.668)" fill="#333"/>
          <path id="패스_6849" data-name="패스 6849" d="M171.436,100.937a6.556,6.556,0,1,0-6.556,6.556,6.555,6.555,0,0,0,6.556-6.556" transform="translate(-67.65 -40.328)" fill="#ffddc6"/>
          <path id="패스_6850" data-name="패스 6850" d="M164.025,107.784a7.7,7.7,0,1,1,7.7-7.7,7.71,7.71,0,0,1-7.7,7.7m0-13.112a5.41,5.41,0,1,0,5.41,5.41,5.417,5.417,0,0,0-5.41-5.41" transform="translate(-66.795 -39.473)" fill="#333"/>
          <path id="패스_6851" data-name="패스 6851" d="M271.6,100.937a6.556,6.556,0,1,0-6.556,6.556,6.555,6.555,0,0,0,6.556-6.556" transform="translate(-110.447 -40.328)" fill="#ffddc6"/>
          <path id="패스_6852" data-name="패스 6852" d="M264.186,107.784a7.7,7.7,0,1,1,7.7-7.7,7.71,7.71,0,0,1-7.7,7.7m0-13.112a5.41,5.41,0,1,0,5.41,5.41,5.417,5.417,0,0,0-5.41-5.41" transform="translate(-109.593 -39.473)" fill="#333"/>
          <path id="패스_6853" data-name="패스 6853" d="M227.121,81.364c0,16.776-12.817,29.72-28.627,29.72s-28.627-12.944-28.627-29.72,12.817-29.72,28.627-29.72,28.627,12.944,28.627,29.72" transform="translate(-72.582 -22.067)" fill="#fff3e3"/>
          <path id="패스_6854" data-name="패스 6854" d="M197.64,111.376c-16.695,0-29.772-13.558-29.772-30.865s13.077-30.866,29.772-30.866S227.412,63.2,227.412,80.511s-13.077,30.865-29.772,30.865m0-59.44c-15.41,0-27.481,12.552-27.481,28.575s12.071,28.574,27.481,28.574,27.481-12.552,27.481-28.574S213.05,51.936,197.64,51.936" transform="translate(-71.728 -21.213)" fill="#333"/>
          <path id="패스_6855" data-name="패스 6855" d="M193.436,113.939a7.539,7.539,0,1,1-7.54-7.539,7.54,7.54,0,0,1,7.54,7.539" transform="translate(-76.21 -45.463)" fill="#ffddcb"/>
          <path id="패스_6856" data-name="패스 6856" d="M250.1,113.939a7.539,7.539,0,1,1-7.539-7.539,7.539,7.539,0,0,1,7.539,7.539" transform="translate(-100.42 -45.463)" fill="#ffddcb"/>
          <path id="패스_6857" data-name="패스 6857" d="M203.878,108.614a2.478,2.478,0,1,1-2.459-2.786,2.637,2.637,0,0,1,2.459,2.786" transform="translate(-85.013 -45.219)" fill="#333"/>
          <path id="패스_6858" data-name="패스 6858" d="M237.073,108.614a2.478,2.478,0,1,1-2.459-2.786,2.637,2.637,0,0,1,2.459,2.786" transform="translate(-99.197 -45.219)" fill="#333"/>
          <path id="패스_6859" data-name="패스 6859" d="M215.557,127.3a7.614,7.614,0,0,1-5.42-2.246,1.145,1.145,0,0,1,1.62-1.62,5.374,5.374,0,0,0,7.6,0,1.145,1.145,0,0,1,1.62,1.62,7.619,7.619,0,0,1-5.421,2.246" transform="translate(-89.645 -52.597)" fill="#333"/>
          <path id="패스_6860" data-name="패스 6860" d="M216.57,113.511a1.146,1.146,0,0,1-.81-1.956,3.1,3.1,0,0,1,2.2-.911h0a3.093,3.093,0,0,1,2.2.912,1.146,1.146,0,1,1-1.621,1.62.811.811,0,0,0-.579-.241h0a.817.817,0,0,0-.581.241,1.143,1.143,0,0,1-.81.335" transform="translate(-92.048 -47.277)" fill="#333"/>
          <path id="패스_6861" data-name="패스 6861" d="M219.861,149.933H172.842a7.99,7.99,0,0,0-7.99,7.99v39.549h63V157.923a7.99,7.99,0,0,0-7.99-7.99" transform="translate(-70.439 -64.064)" fill="#fff"/>
          <path id="패스_6862" data-name="패스 6862" d="M227,197.763H164a1.146,1.146,0,0,1-1.145-1.145V157.068a9.145,9.145,0,0,1,9.135-9.135h47.019a9.145,9.145,0,0,1,9.135,9.135v39.549A1.146,1.146,0,0,1,227,197.763m-61.853-2.291H225.85v-38.4a6.852,6.852,0,0,0-6.844-6.845H171.987a6.852,6.852,0,0,0-6.844,6.845Z" transform="translate(-69.584 -63.21)" fill="#333"/>
          <path id="패스_6863" data-name="패스 6863" d="M164.852,224.3v6.783h63V224.3" transform="translate(-70.439 -95.839)" fill="#dcdddd"/>
          <path id="패스_6864" data-name="패스 6864" d="M227,231.369H164a1.146,1.146,0,0,1-1.145-1.145V223.44a1.145,1.145,0,0,1,2.291,0v5.638H225.85V223.44a1.145,1.145,0,0,1,2.291,0v6.783A1.146,1.146,0,0,1,227,231.369" transform="translate(-69.584 -94.984)" fill="#333"/>
          <path id="패스_6865" data-name="패스 6865" d="M221.112,191.713a4.968,4.968,0,1,1-4.968-4.967,4.968,4.968,0,0,1,4.968,4.967" transform="translate(-90.233 -79.794)" fill="#dcdddd"/>
          <path id="패스_6866" data-name="패스 6866" d="M206.555,259.422a20.586,20.586,0,0,1,5.488,2.439c2.133,1.523,10.668,4.877,15.545.3s3.372-15.187-13.554-16.738" transform="translate(-88.258 -104.868)" fill="#c9bc9c"/>
          <path id="패스_6867" data-name="패스 6867" d="M220.283,264.749a19.513,19.513,0,0,1-9.76-2.811,19.53,19.53,0,0,0-5.123-2.266,1.146,1.146,0,0,1,.6-2.211,21.567,21.567,0,0,1,5.853,2.613c1.745,1.246,9.707,4.515,14.1.4a6.513,6.513,0,0,0,1.695-6.953c-1.459-4.247-6.769-7.093-14.57-7.808a1.145,1.145,0,1,1,.209-2.281c8.739.8,14.763,4.207,16.528,9.344a8.89,8.89,0,0,1-2.294,9.369,10.273,10.273,0,0,1-7.234,2.6" transform="translate(-87.404 -104.013)" fill="#333"/>
          <path id="패스_6868" data-name="패스 6868" d="M189.019,230.764s-19.2-21.48-29.943-19.528-15.3,15.3-6.184,22.131,27.664,11.391,27.664,11.391Z" transform="translate(-63.243 -90.205)" fill="#23a0ef"/>
          <path id="패스_6869" data-name="패스 6869" d="M179.7,245.052a1.136,1.136,0,0,1-.273-.033c-.767-.188-18.884-4.69-28.078-11.587a12.666,12.666,0,0,1-4.983-13.324,14.535,14.535,0,0,1,11.649-10.85c11.249-2.046,30.2,19,31,19.891a1.146,1.146,0,0,1,.126,1.357L180.679,244.5a1.144,1.144,0,0,1-.98.553M159.661,211.4a6.915,6.915,0,0,0-1.238.107,12.244,12.244,0,0,0-9.829,9.122,10.433,10.433,0,0,0,4.128,10.966c7.755,5.817,22.786,10.022,26.437,10.985l7.58-12.535c-5.41-5.9-18.881-18.645-27.078-18.645" transform="translate(-62.386 -89.353)" fill="#333"/>
          <path id="패스_6870" data-name="패스 6870" d="M215.647,259.422a20.593,20.593,0,0,0-5.487,2.439c-2.133,1.523-10.669,4.877-15.546.3s-3.372-15.187,13.556-16.738" transform="translate(-82.119 -104.868)" fill="#c9bc9c"/>
          <path id="패스_6871" data-name="패스 6871" d="M200.215,264.749a10.272,10.272,0,0,1-7.235-2.6,8.891,8.891,0,0,1-2.294-9.369c1.765-5.138,7.789-8.544,16.529-9.344a1.145,1.145,0,0,1,.209,2.281c-7.8.715-13.113,3.561-14.572,7.808a6.513,6.513,0,0,0,1.695,6.953c4.389,4.116,12.352.846,14.1-.4a21.58,21.58,0,0,1,5.851-2.612,1.146,1.146,0,0,1,.6,2.211,19.523,19.523,0,0,0-5.122,2.266,19.509,19.509,0,0,1-9.761,2.811" transform="translate(-81.27 -104.013)" fill="#333"/>
          <path id="패스_6872" data-name="패스 6872" d="M220.093,230.764s19.2-21.48,29.943-19.528,15.3,15.3,6.182,22.131-27.664,11.391-27.664,11.391Z" transform="translate(-94.043 -90.205)" fill="#23a0ef"/>
          <path id="패스_6873" data-name="패스 6873" d="M227.7,245.053a1.146,1.146,0,0,1-.98-.553l-8.461-13.994a1.146,1.146,0,0,1,.126-1.356c.8-.9,19.762-21.927,31-19.892a14.534,14.534,0,0,1,11.648,10.85,12.665,12.665,0,0,1-4.983,13.324c-9.194,6.9-27.312,11.4-28.078,11.588a1.145,1.145,0,0,1-.273.033m-7.04-15,7.579,12.535c3.652-.964,18.687-5.172,26.438-10.985a10.434,10.434,0,0,0,4.128-10.966,12.245,12.245,0,0,0-9.828-9.122c-8.029-1.459-22.624,12.334-28.316,18.538" transform="translate(-93.188 -89.354)" fill="#333"/>
          <path id="패스_6874" data-name="패스 6874" d="M169.281,81.337a37.568,37.568,0,0,0,14.631-17.68s3.353,5.182,1.525,9.754c0,0,13.412,1.829,16.155-13.717,0,0,10.364-1.829,16.461,6.4s5.487,10.669,8.839,12.65c0,0,5.792-28.2-24.081-32.464a28.447,28.447,0,0,0-22.252,3.963c-9.788,6.35-14.326,19.814-11.278,31.092" transform="translate(-71.931 -19.448)" fill="#7a6a56"/>
          <path id="패스_6875" data-name="패스 6875" d="M168.427,81.616a1.146,1.146,0,0,1-1.106-.846c-3.241-11.992,1.815-25.9,11.76-32.352A29.44,29.44,0,0,1,202.2,44.294c9.336,1.35,16.248,5.13,20.544,11.235,6.928,9.845,4.52,22.065,4.414,22.58a1.145,1.145,0,0,1-1.7.755c-2.088-1.234-2.88-2.695-4.077-4.905a61.008,61.008,0,0,0-5.1-8.049c-4.683-6.322-12.173-6.251-14.573-6.044C198.47,75.406,184.571,73.7,184.428,73.68a1.145,1.145,0,0,1-.909-1.56,9.151,9.151,0,0,0-.382-6.6A38.511,38.511,0,0,1,169,81.463a1.148,1.148,0,0,1-.572.153m27.194-35.8a27.925,27.925,0,0,0-15.292,4.528C171.608,56,166.983,67.918,169.164,78.612a36.861,36.861,0,0,0,12.825-16.233,1.145,1.145,0,0,1,2.03-.211c.135.209,3,4.709,2.071,9.306,3.283-.03,11.48-1.29,13.519-12.846a1.145,1.145,0,0,1,.929-.929c.451-.08,11.135-1.852,17.581,6.847a62.931,62.931,0,0,1,5.272,8.321,15.435,15.435,0,0,0,1.784,2.858c.362-3.7.5-12.061-4.315-18.894-3.932-5.577-10.346-9.036-19.066-10.282a1.182,1.182,0,0,1-.172-.038,23.246,23.246,0,0,0-6-.7" transform="translate(-71.077 -18.581)" fill="#333"/>
          <path id="패스_6876" data-name="패스 6876" d="M210.677,41.833a1.143,1.143,0,0,1-.921-.463,5.678,5.678,0,0,1-.474-5.305,1.146,1.146,0,0,1,2.178.711,3.671,3.671,0,0,0,.136,3.23,1.145,1.145,0,0,1-.919,1.828" transform="translate(-89.244 -15.072)" fill="#333"/>
          <path id="패스_6877" data-name="패스 6877" d="M229.8,41.378a1.131,1.131,0,0,1-.572-.154,1.145,1.145,0,0,1-.419-1.565c1.236-2.141.375-3.236.091-3.6a1.146,1.146,0,0,1,1.8-1.417c1.356,1.724,1.389,3.912.091,6.158a1.145,1.145,0,0,1-.993.573" transform="translate(-97.702 -14.617)" fill="#333"/>
          <path id="패스_6878" data-name="패스 6878" d="M224.676,63.625a1.173,1.173,0,0,1-.194-.017,1.146,1.146,0,0,1-.937-1.321,12.064,12.064,0,0,0-1.34-7.391A1.145,1.145,0,0,1,224.1,53.6c1.608,2.353,2.139,6.539,1.707,9.069a1.146,1.146,0,0,1-1.128.954" transform="translate(-94.86 -22.691)" fill="#333"/>
          <path id="패스_6879" data-name="패스 6879" d="M199.464,78.174a1.145,1.145,0,0,1-.143-2.282c1.434-.182,4.42-4.426,5.069-6.787a21.342,21.342,0,0,0,.084-11.841,1.146,1.146,0,1,1,2.179-.707,23.675,23.675,0,0,1-.054,13.155c-.657,2.394-3.979,8.07-6.988,8.453a1.151,1.151,0,0,1-.147.009" transform="translate(-84.739 -23.828)" fill="#333"/>
          <path id="패스_6880" data-name="패스 6880" d="M195.829,97.146a1.145,1.145,0,0,1-.413-2.214c.169-.065,4.178-1.578,7.423-.281a1.145,1.145,0,1,1-.851,2.126c-2.4-.96-5.718.28-5.751.293a1.134,1.134,0,0,1-.408.076" transform="translate(-83.185 -40.219)" fill="#333"/>
          <path id="패스_6881" data-name="패스 6881" d="M235.913,97.146a1.149,1.149,0,0,1-.41-.076c-.063-.023-3.36-1.248-5.751-.293a1.145,1.145,0,1,1-.851-2.126c3.244-1.3,7.254.216,7.423.281a1.146,1.146,0,0,1-.411,2.215" transform="translate(-97.499 -40.219)" fill="#333"/>
          <path id="패스_6882" data-name="패스 6882" d="M284.07,49.649a3.15,3.15,0,1,0-3.15,3.15,3.15,3.15,0,0,0,3.15-3.15" transform="translate(-118.687 -19.868)" fill="#ff6186"/>
          <path id="패스_6883" data-name="패스 6883" d="M280.065,53.09a4.3,4.3,0,1,1,4.3-4.3,4.3,4.3,0,0,1-4.3,4.3m0-6.3a2,2,0,1,0,2,2,2.006,2.006,0,0,0-2-2" transform="translate(-117.833 -19.014)" fill="#333"/>
          <path id="패스_6884" data-name="패스 6884" d="M271.456,39.39a1.145,1.145,0,0,1-.81-1.955,10.021,10.021,0,0,1,14.173,0,1.145,1.145,0,0,1-1.62,1.62,7.732,7.732,0,0,0-10.934,0,1.141,1.141,0,0,1-.81.336" transform="translate(-115.5 -14.741)" fill="#333"/>
          <path id="패스_6885" data-name="패스 6885" d="M263.705,30.268a1.145,1.145,0,0,1-.81-1.955,16.3,16.3,0,0,1,23.049,0,1.145,1.145,0,1,1-1.62,1.62,14.008,14.008,0,0,0-19.81,0,1.141,1.141,0,0,1-.81.336" transform="translate(-112.188 -10.058)" fill="#333"/>
          <path id="패스_6886" data-name="패스 6886" d="M103.278,161.016A10.118,10.118,0,0,0,93.161,150.9H70.634a10.118,10.118,0,0,0,0,20.236h19.2l10.394,5.345-2.2-6.593a10.113,10.113,0,0,0,5.252-8.87" transform="translate(-25.858 -64.477)" fill="#ffea5e"/>
          <path id="패스_6887" data-name="패스 6887" d="M99.37,176.77a1.134,1.134,0,0,1-.524-.127L88.7,171.425H69.78a11.263,11.263,0,1,1,0-22.527H92.306a11.263,11.263,0,0,1,6.241,20.638l1.909,5.726a1.145,1.145,0,0,1-1.086,1.508M69.78,151.189a8.972,8.972,0,1,0,0,17.945h19.2a1.145,1.145,0,0,1,.524.127l7.894,4.06-1.309-3.927a1.146,1.146,0,0,1,.534-1.366,8.972,8.972,0,0,0-4.314-16.839Z" transform="translate(-25.003 -63.622)" fill="#333"/>
          <path id="패스_6888" data-name="패스 6888" d="M336.72,141.017a38.188,38.188,0,1,0-12.336-12.336l-5.731,18.067Z" transform="translate(-136.157 -30.075)" fill="#ffc333"/>
          <path id="패스_6889" data-name="패스 6889" d="M317.8,147.039a1.145,1.145,0,0,1-1.092-1.492l5.572-17.568a39.33,39.33,0,1,1,13.434,13.434l-17.568,5.572a1.13,1.13,0,0,1-.346.054m18.066-8.021a1.15,1.15,0,0,1,.6.172A37.043,37.043,0,1,0,324.5,127.222a1.146,1.146,0,0,1,.119.951l-5.062,15.96,15.96-5.062a1.136,1.136,0,0,1,.346-.054" transform="translate(-135.302 -29.22)" fill="#333"/>
        </g>
      </g>
      <g id="그룹_3337" data-name="그룹 3337" transform="translate(-0.156 -1.167)">
        <path id="선_53" data-name="선 53" d="M11.2,12.2a1,1,0,0,1-.707-.293L-.707.707a1,1,0,0,1,0-1.414,1,1,0,0,1,1.414,0l11.2,11.2A1,1,0,0,1,11.2,12.2Z" transform="translate(623.958 1915.958)" fill="#333"/>
        <circle id="타원_37" data-name="타원 37" cx="10.089" cy="10.089" r="10.089" transform="translate(613.157 1905.157)" fill="#fff"/>
        <path id="타원_37_-_윤곽선" data-name="타원 37 - 윤곽선" d="M10.089,2a8.089,8.089,0,1,0,8.089,8.089A8.1,8.1,0,0,0,10.089,2m0-2A10.089,10.089,0,1,1,0,10.089,10.089,10.089,0,0,1,10.089,0Z" transform="translate(613.157 1905.157)" fill="#333"/>
      </g>
      <g id="그룹_3338" data-name="그룹 3338" transform="translate(-18 -1.01)">
        <path id="패스_6891" data-name="패스 6891" d="M0,0H12.742L22,9.232V28.6H0Z" transform="translate(450 1861)" fill="#fff"/>
        <path id="패스_6891_-_윤곽선" data-name="패스 6891 - 윤곽선" d="M2,2V26.6H20V10.062L11.915,2H2M0,0H12.742L22,9.232V28.6H0Z" transform="translate(450 1861)" fill="#333"/>
        <path id="패스_6890" data-name="패스 6890" d="M0,0,10.23,10.208H0Z" transform="translate(461.77 1861)" fill="#fff"/>
        <path id="패스_6890_-_윤곽선" data-name="패스 6890 - 윤곽선" d="M2,4.821V8.208H5.394L2,4.821M0,0,10.23,10.208H0Z" transform="translate(461.77 1861)" fill="#333"/>
      </g>
    </g>
  </g>
</svg>
