<svg xmlns="http://www.w3.org/2000/svg" xmlns:xlink="http://www.w3.org/1999/xlink" width="260" height="220" viewBox="0 0 260 220">
  <defs>
    <clipPath id="clip-path">
      <rect id="사각형_1484" data-name="사각형 1484" width="260" height="220" transform="translate(-20)" fill="none"/>
    </clipPath>
  </defs>
  <g id="step_02_img" transform="translate(20)">
    <g id="그룹_3333" data-name="그룹 3333" clip-path="url(#clip-path)">
      <g id="그룹_3335" data-name="그룹 3335" transform="translate(28 24)">
        <path id="패스_6797" data-name="패스 6797" d="M107.352,334.352s2.536,5.083.362,9.077L83.8,346.7s-5.8,1.452-6.522-4.72,7.247-8.35,7.247-8.35" transform="translate(-35.254 -151.934)" fill="#c9bc9c"/>
        <path id="패스_6798" data-name="패스 6798" d="M81.469,347.021a5.908,5.908,0,0,1-6.184-5.829c-.66-5.618,4.971-8.69,8.041-9.528a1.089,1.089,0,0,1,.572,2.1c-.287.079-7.059,2.014-6.454,7.172a4.354,4.354,0,0,0,1.613,3.241,4.982,4.982,0,0,0,3.571.548,1,1,0,0,1,.112-.021l23.339-3.189c1.438-3.367-.591-7.547-.613-7.591a1.088,1.088,0,0,1,1.945-.973c.114.229,2.762,5.644.344,10.086a1.086,1.086,0,0,1-.807.557l-23.867,3.262a7.764,7.764,0,0,1-1.613.163m25.333-4.5h0Z" transform="translate(-34.342 -151.022)" fill="#333"/>
        <path id="패스_6799" data-name="패스 6799" d="M97.543,285.626l-3.986,22.51a9.158,9.158,0,0,1-4.348,3.631c-2.9,1.089-2.174,5.083,2.537,4.357s20.291-3.631,20.291-3.631l6.16-23.962" transform="translate(-39.938 -130.074)" fill="#fff3e3"/>
        <path id="패스_6800" data-name="패스 6800" d="M89.724,316.392c-2.522,0-3.8-1.332-4.135-2.616a3.38,3.38,0,0,1,2.325-3.94,8.026,8.026,0,0,0,3.7-3.008l3.949-22.3a1.088,1.088,0,1,1,2.141.381l-3.986,22.51a1.09,1.09,0,0,1-.127.35,10.241,10.241,0,0,1-4.91,4.111c-.841.316-1.1.905-.984,1.349.165.634,1.166,1.188,2.974.911,4.079-.628,16.523-2.931,19.576-3.5l5.988-23.29a1.087,1.087,0,1,1,2.105.544l-6.16,23.962a1.088,1.088,0,0,1-.854.8c-.156.029-15.652,2.916-20.325,3.637a8.414,8.414,0,0,1-1.273.1" transform="translate(-39.025 -129.164)" fill="#333"/>
        <path id="패스_6801" data-name="패스 6801" d="M186.655,319.323s4.179,3.842,3.571,8.35l-21.176,11.6s-4.9,3.429-7.773-2.077,3.8-10.392,3.8-10.392" transform="translate(-73.291 -145.42)" fill="#c9bc9c"/>
        <path id="패스_6802" data-name="패스 6802" d="M164.8,340.509a5.484,5.484,0,0,1-1.306-.155,6.39,6.39,0,0,1-4.085-3.561c-2.618-5.012,1.549-9.895,4.118-11.776a1.088,1.088,0,0,1,1.282,1.758c-.239.178-5.877,4.406-3.474,9.008a4.342,4.342,0,0,0,2.66,2.451,4.962,4.962,0,0,0,3.531-.765c.03-.021.066-.042.1-.06l20.667-11.324c.144-3.659-3.24-6.839-3.276-6.872a1.088,1.088,0,0,1,1.471-1.6c.188.173,4.59,4.285,3.913,9.3a1.091,1.091,0,0,1-.555.81L168.711,339.3a7.616,7.616,0,0,1-3.911,1.212m24.523-13.747h0Z" transform="translate(-72.388 -144.509)" fill="#333"/>
        <path id="패스_6803" data-name="패스 6803" d="M166.06,278.848l4.293,22.453a9.176,9.176,0,0,1-2.768,4.946c-2.32,2.054-.221,5.525,3.92,3.163s17.663-10.647,17.663-10.647l-2.78-24.587" transform="translate(-75.804 -124.86)" fill="#fff3e3"/>
        <path id="패스_6804" data-name="패스 6804" d="M168.017,310.39a3.236,3.236,0,0,1-2.065-5.87,8.142,8.142,0,0,0,2.381-4.135l-4.252-22.244a1.087,1.087,0,1,1,2.135-.41l4.293,22.453a1.082,1.082,0,0,1,.007.372,10.266,10.266,0,0,1-3.123,5.6c-.673.6-.706,1.239-.44,1.612.38.534,1.514.694,3.1-.212,3.587-2.046,14.391-8.647,17.042-10.268l-2.7-23.9a1.087,1.087,0,1,1,2.16-.246l2.78,24.588a1.09,1.09,0,0,1-.513,1.052c-.135.083-13.582,8.321-17.691,10.665a6.336,6.336,0,0,1-3.113.944" transform="translate(-74.891 -123.949)" fill="#333"/>
        <path id="패스_6805" data-name="패스 6805" d="M98.407,157.3S96.6,168.92,102.03,176.181l2.9,11.981,44.568-3.994-9.059-34.491-21.378-4.72" transform="translate(-44.789 -66.014)" fill="#fff"/>
        <path id="패스_6806" data-name="패스 6806" d="M104.008,188.341a1.086,1.086,0,0,1-1.055-.833l-2.847-11.767c-5.482-7.547-3.769-19.029-3.693-19.518a1.087,1.087,0,1,1,2.149.336c-.018.112-1.671,11.257,3.419,18.058a1.079,1.079,0,0,1,.186.4l2.678,11.069,42.353-3.795-8.562-32.6-20.73-4.577a1.089,1.089,0,0,1,.469-2.127l21.378,4.72a1.089,1.089,0,0,1,.817.786l9.059,34.491a1.09,1.09,0,0,1-.955,1.362l-44.568,3.994c-.033,0-.065,0-.1,0" transform="translate(-43.868 -65.103)" fill="#333"/>
        <path id="패스_6807" data-name="패스 6807" d="M273.074,71.972A6.623,6.623,0,0,1,265.23,77.1l-14.624-3.082a6.635,6.635,0,0,1-5.117-7.859l2.691-12.821a6.622,6.622,0,0,1,7.843-5.127l14.624,3.082a6.636,6.636,0,0,1,5.117,7.859Z" transform="translate(-111.996 -21.89)" fill="#ffea5e"/>
        <path id="패스_6808" data-name="패스 6808" d="M265.681,77.421a7.668,7.668,0,0,1-1.588-.166l-14.625-3.082a7.723,7.723,0,0,1-5.957-9.148L246.2,52.2a7.719,7.719,0,0,1,9.131-5.969l14.625,3.082a7.725,7.725,0,0,1,5.957,9.149l-2.691,12.821a7.726,7.726,0,0,1-7.542,6.135M253.745,48.246a5.548,5.548,0,0,0-5.416,4.405l-2.691,12.821a5.547,5.547,0,0,0,4.277,6.568l14.625,3.082a5.543,5.543,0,0,0,6.556-4.286l2.691-12.821a5.553,5.553,0,0,0-4.277-6.569l-14.624-3.082a5.519,5.519,0,0,0-1.14-.119M272.16,71.062h0Z" transform="translate(-111.082 -20.979)" fill="#333"/>
        <path id="패스_6809" data-name="패스 6809" d="M41.585,29.446,156.932,53.755l5.761-27.446L47.346,2" transform="translate(-18.982 -0.911)" fill="#ffc333"/>
        <path id="패스_6810" data-name="패스 6810" d="M156.02,53.933a1.1,1.1,0,0,1-.225-.023L40.448,29.6a1.089,1.089,0,0,1,.448-2.132L155.178,51.553l5.314-25.314L46.209,2.155A1.089,1.089,0,0,1,46.657.023L162,24.332a1.09,1.09,0,0,1,.84,1.29l-5.761,27.445a1.087,1.087,0,0,1-1.063.865" transform="translate(-18.07 0)" fill="#333"/>
        <path id="패스_6811" data-name="패스 6811" d="M2,10.582,23.515,29.446,29.276,2Z" transform="translate(-0.913 -0.911)" fill="#fff"/>
        <path id="패스_6812" data-name="패스 6812" d="M22.6,29.624a1.084,1.084,0,0,1-.716-.27L.371,10.492a1.091,1.091,0,0,1,.39-1.859L28.037.051a1.088,1.088,0,0,1,1.39,1.263L23.666,28.759a1.086,1.086,0,0,1-1.064.865M3.26,10.129,21.921,26.49l5-23.8Z" transform="translate(0 0)" fill="#333"/>
        <path id="패스_6813" data-name="패스 6813" d="M2,14.963l8.38,7.348,2.244-10.692Z" transform="translate(-0.913 -5.292)" fill="#333"/>
        <path id="패스_6814" data-name="패스 6814" d="M161,51.618a1.1,1.1,0,0,1-.225-.023L46.6,27.533a1.089,1.089,0,0,1,.448-2.132L161.221,49.462A1.09,1.09,0,0,1,161,51.618" transform="translate(-20.876 -11.557)" fill="#333"/>
        <rect id="사각형_1483" data-name="사각형 1483" width="32.669" height="11.221" transform="translate(134.992 54.586) rotate(-78.121)" fill="#fff"/>
        <path id="패스_6815" data-name="패스 6815" d="M258.447,75.987a1.079,1.079,0,0,1-.224-.023l-10.992-2.317a1.089,1.089,0,0,1-.84-1.29L253.1,40.381a1.087,1.087,0,0,1,1.288-.841l10.992,2.316a1.089,1.089,0,0,1,.84,1.29l-6.712,31.977a1.088,1.088,0,0,1-1.064.865m-9.7-4.247,8.864,1.869,6.265-29.845L255.006,41.9Z" transform="translate(-112.463 -17.996)" fill="#333"/>
        <path id="패스_6816" data-name="패스 6816" d="M140.5,41.908s11.074-3.6,23.031,4.569,24.458,20.695,14.675,37.577S158.8,107.4,139.7,100.63c0,0-22.229-34.971.8-58.721" transform="translate(-59.366 -18.725)" fill="#7a6a56"/>
        <path id="패스_6817" data-name="패스 6817" d="M152.016,103.4a40.926,40.926,0,0,1-13.584-2.672,1.087,1.087,0,0,1-.554-.442,72.679,72.679,0,0,1-8.378-20.8c-3.59-15.7-.369-29.281,9.318-39.269a1.088,1.088,0,0,1,.444-.277c.473-.154,11.721-3.67,23.979,4.7,7.706,5.265,12.885,10.466,15.833,15.9,4.032,7.434,3.753,15.214-.83,23.123-6.949,11.992-14.258,19.728-26.227,19.728m-12.5-4.6c19.1,6.637,27.983-.931,36.845-16.223,7.355-12.691,2.662-24.51-14.347-36.13-10.384-7.094-20.18-4.941-21.84-4.5-9.119,9.541-12,22.007-8.558,37.056a72.408,72.408,0,0,0,7.9,19.8" transform="translate(-58.463 -17.799)" fill="#333"/>
        <path id="패스_6818" data-name="패스 6818" d="M125.011,42.569a21.283,21.283,0,0,0-15.64,8.823c-6.162,8.619-2.621,11.741-7.327,13.837,0,0-4.052,1.01-2.611,4.347,0,0-6.815,9.705-.893,18.7s16.7,11.55,25.668,13.012a16.484,16.484,0,0,1-1.644-15.3s11.139,2.771,12.454-6.8-8.454-8.059-8.454-8.059a40.956,40.956,0,0,0,.291-12.2c-.479-4.617-4.161-10.644-1.844-16.367" transform="translate(-43.878 -19.386)" fill="#fff3e3"/>
        <path id="패스_6819" data-name="패스 6819" d="M123.277,101.468a1.051,1.051,0,0,1-.174-.014c-9.707-1.582-20.436-4.422-26.4-13.488-5.557-8.443-.758-17.276.593-19.442a3.7,3.7,0,0,1,.171-2.771,5.387,5.387,0,0,1,3.281-2.464c1.784-.815,1.974-1.666,2.424-3.681a23.766,23.766,0,0,1,4.387-9.761,22.207,22.207,0,0,1,16.5-9.278,1.068,1.068,0,0,1,.919.471,1.1,1.1,0,0,1,.113,1.027c-1.432,3.537-.331,7.246.734,10.834a28.8,28.8,0,0,1,1.183,5.012,46.887,46.887,0,0,1-.067,11.135,9.013,9.013,0,0,1,6.367,2.178c1.664,1.642,2.291,4.067,1.859,7.206a8.767,8.767,0,0,1-3.67,6.4c-3.132,2.126-7.279,1.794-9.146,1.5a15.2,15.2,0,0,0,1.79,13.389,1.091,1.091,0,0,1-.862,1.753m-.735-58.541a20.428,20.428,0,0,0-13.217,8.187,21.844,21.844,0,0,0-4.032,8.968c-.494,2.212-.884,3.959-3.737,5.23a1.107,1.107,0,0,1-.179.062,3.341,3.341,0,0,0-1.965,1.35,1.763,1.763,0,0,0,.088,1.507,1.089,1.089,0,0,1-.108,1.06c-.259.371-6.308,9.221-.875,17.476,5.053,7.68,13.712,10.5,22.631,12.139a17.7,17.7,0,0,1-.532-14.213,1.084,1.084,0,0,1,1.279-.671c.048.013,5.117,1.223,8.387-1a6.687,6.687,0,0,0,2.727-4.884c.332-2.417-.08-4.217-1.225-5.35-2.066-2.046-5.95-1.488-5.989-1.483a1.089,1.089,0,0,1-1.223-1.321,40.511,40.511,0,0,0,.268-11.842,27.2,27.2,0,0,0-1.1-4.616c-.97-3.267-2.052-6.912-1.2-10.594" transform="translate(-42.946 -18.474)" fill="#333"/>
        <path id="패스_6820" data-name="패스 6820" d="M108.32,92.885c-2.67,2.606-2.99,6.617-.714,8.959s6.285,2.128,8.956-.479,2.99-6.617.715-8.958-6.286-2.128-8.957.478" transform="translate(-48.427 -41.342)" fill="#ffddcb"/>
        <path id="패스_6821" data-name="패스 6821" d="M115.7,85.532c-.841,1.4-.794,2.975.1,3.516s2.308-.154,3.149-1.554.795-2.975-.1-3.517-2.308.155-3.15,1.555" transform="translate(-52.539 -38.16)" fill="#333"/>
        <path id="패스_6822" data-name="패스 6822" d="M98.286,108.437a6.782,6.782,0,0,1-2.42-.459,1.089,1.089,0,0,1,.77-2.037,4.182,4.182,0,0,0,4.061-.46,1.088,1.088,0,0,1,1.4,1.663,6.206,6.206,0,0,1-3.815,1.294" transform="translate(-43.44 -47.922)" fill="#333"/>
        <path id="패스_6823" data-name="패스 6823" d="M130.6,69.7a1.087,1.087,0,0,1-.991-.64c-.464-1.022-2.118-3.748-4.171-4.083a1.089,1.089,0,0,1,.349-2.15c3.63.591,5.716,5.143,5.8,5.337a1.089,1.089,0,0,1-.99,1.537" transform="translate(-56.845 -28.603)" fill="#333"/>
        <path id="패스_6824" data-name="패스 6824" d="M226.958,71.3a12.32,12.32,0,1,0-12.32,12.345A12.333,12.333,0,0,0,226.958,71.3" transform="translate(-92.354 -26.85)" fill="#7a6a56"/>
        <path id="패스_6825" data-name="패스 6825" d="M213.724,83.827a13.434,13.434,0,1,1,13.407-13.434,13.435,13.435,0,0,1-13.407,13.434m0-24.689a11.255,11.255,0,1,0,11.233,11.255,11.257,11.257,0,0,0-11.233-11.255" transform="translate(-91.441 -25.94)" fill="#333"/>
        <path id="패스_6826" data-name="패스 6826" d="M175.223,83.6a17.992,17.992,0,0,1-12.6-4.8,1.088,1.088,0,0,1,1.572-1.5c.287.3,6.964,7.03,18.765,2.636a1.089,1.089,0,0,1,.757,2.042,24.255,24.255,0,0,1-8.49,1.626" transform="translate(-74.096 -35.048)" fill="#333"/>
        <path id="패스_6827" data-name="패스 6827" d="M173.612,113.762a10.569,10.569,0,0,1-2.479-.255,1.089,1.089,0,0,1,.54-2.11c.433.108,10.541,2.421,18.335-12.519a1.087,1.087,0,1,1,1.927,1.009c-6.348,12.169-14.34,13.876-18.323,13.876" transform="translate(-77.747 -44.763)" fill="#333"/>
        <path id="패스_6828" data-name="패스 6828" d="M206.826,104.294s6.16,17.064-10.508,21.784" transform="translate(-89.616 -47.496)" fill="#7a6a56"/>
        <path id="패스_6829" data-name="패스 6829" d="M195.4,126.256a1.09,1.09,0,0,1-.3-2.138c4.481-1.269,7.614-3.589,9.314-6.9,3.083-6,.493-13.4.467-13.469a1.088,1.088,0,1,1,2.045-.74c.121.337,2.939,8.334-.573,15.191-1.984,3.875-5.571,6.57-10.662,8.012a1.08,1.08,0,0,1-.3.041" transform="translate(-88.703 -46.585)" fill="#333"/>
        <path id="패스_6830" data-name="패스 6830" d="M213.68,72.294a10.7,10.7,0,0,0-8.7,9.44" transform="translate(-93.572 -32.923)" fill="#7a6a56"/>
        <path id="패스_6831" data-name="패스 6831" d="M204.073,81.911a.967.967,0,0,1-.142-.009,1.088,1.088,0,0,1-.937-1.22,11.892,11.892,0,0,1,9.62-10.377,1.089,1.089,0,0,1,.31,2.156,9.562,9.562,0,0,0-7.775,8.5,1.087,1.087,0,0,1-1.076.948" transform="translate(-92.659 -32.012)" fill="#333"/>
        <path id="패스_6832" data-name="패스 6832" d="M223.71,81.626s-2.537,7.988-17.393,7.262" transform="translate(-94.181 -37.173)" fill="#7a6a56"/>
        <path id="패스_6833" data-name="패스 6833" d="M207.284,89.113c-.622,0-1.265-.016-1.934-.048a1.089,1.089,0,0,1,.107-2.176c13.868.676,16.28-6.432,16.3-6.5a1.087,1.087,0,1,1,2.072.661c-.109.343-2.73,8.067-16.548,8.067" transform="translate(-93.267 -36.262)" fill="#3e3a39"/>
        <path id="패스_6834" data-name="패스 6834" d="M88.525,89.952,79.951,79.423,78.165,67.079s4.761-9.8-3.047-13.433c-7.762-3.61-15.171,6.172-10.884,13.07,0,0-1.787,11.981.714,20.695s8.931,16.7,8.931,16.7" transform="translate(-28.747 -24.077)" fill="#fff3e3"/>
        <path id="패스_6835" data-name="패스 6835" d="M72.957,104.289a1.084,1.084,0,0,1-.847-.405c-.268-.333-6.6-8.26-9.129-17.084-2.313-8.057-1.09-18.588-.8-20.768a10.265,10.265,0,0,1,1.549-11.793,9.079,9.079,0,0,1,10.922-2.493,8.324,8.324,0,0,1,4.571,4.834c1.416,3.988-.323,8.514-.86,9.747l1.7,11.73,8.384,10.3a1.088,1.088,0,1,1-1.685,1.377L78.187,79.2a1.1,1.1,0,0,1-.234-.532L76.167,66.323a1.1,1.1,0,0,1,.1-.633c.022-.045,2.227-4.69.908-8.388a6.149,6.149,0,0,0-3.436-3.58,7.011,7.011,0,0,0-8.379,1.96,8.055,8.055,0,0,0-1.125,9.547,1.091,1.091,0,0,1,.152.736c-.017.118-1.721,11.854.684,20.233s8.67,16.24,8.733,16.318a1.089,1.089,0,0,1-.846,1.773" transform="translate(-27.824 -23.165)" fill="#333"/>
        <path id="패스_6836" data-name="패스 6836" d="M119.973,142.381s-2.9-16.7-18.842-17.427l-3.624-3.994L82.652,135.12l2.9,2.9s.363,12.344,9.783,17.064" transform="translate(-37.729 -55.085)" fill="#fff"/>
        <path id="패스_6837" data-name="패스 6837" d="M94.421,155.266a1.087,1.087,0,0,1-.485-.115c-8.969-4.494-10.2-15.213-10.36-17.563l-2.6-2.61a1.091,1.091,0,0,1,.019-1.56l14.856-14.16a1.086,1.086,0,0,1,1.553.057l3.325,3.664c16.225,1.051,19.377,18.129,19.408,18.3a1.087,1.087,0,1,1-2.142.374c-.114-.646-2.958-15.85-17.82-16.526a1.09,1.09,0,0,1-.755-.356l-2.876-3.17L83.3,134.228l2.11,2.115a1.09,1.09,0,0,1,.318.738c0,.115.469,11.756,9.183,16.121a1.09,1.09,0,0,1-.487,2.064" transform="translate(-36.816 -54.174)" fill="#333"/>
        <path id="패스_6838" data-name="패스 6838" d="M103.346,220.952l-8.7,33.766s36.6,7.262,66.309-3.994c0,0-.362-20.7-13.044-33.766Z" transform="translate(-43.206 -98.803)" fill="#23a0ef"/>
        <path id="패스_6839" data-name="패스 6839" d="M120.807,257.166a157.681,157.681,0,0,1-27.281-2.291,1.089,1.089,0,0,1-.841-1.341l8.7-33.766a1.087,1.087,0,0,1,.956-.813l44.568-3.994a1.087,1.087,0,0,1,.876.326c12.835,13.227,13.337,33.643,13.352,34.506a1.09,1.09,0,0,1-.7,1.038c-13.051,4.944-27.5,6.334-39.623,6.334m-25.725-4.226c6.322,1.075,37.807,5.682,63.842-3.872-.222-3.775-1.793-20.68-12.347-31.891l-43.284,3.879Z" transform="translate(-42.293 -97.892)" fill="#333"/>
      </g>
    </g>
  </g>
</svg>
