<svg id="그룹_2314" data-name="그룹 2314" xmlns="http://www.w3.org/2000/svg" xmlns:xlink="http://www.w3.org/1999/xlink" width="118.9" height="48" viewBox="0 0 118.9 48">
  <defs>
    <clipPath id="clip-path">
      <path id="패스_4157" data-name="패스 4157" d="M210.437,20.4a10.589,10.589,0,0,0,10.3,10.829,9.831,9.831,0,0,0,9.535-6.953l.139-.417h-3.227l-.084.185a6.876,6.876,0,0,1-6.363,4.17c-3.988,0-7.233-3.505-7.233-7.814s3.245-7.814,7.233-7.814a6.686,6.686,0,0,1,6.36,4.166l.084.19h3.225l-.132-.414A9.731,9.731,0,0,0,220.742,9.6a10.573,10.573,0,0,0-10.3,10.8" transform="translate(-210.437 -9.603)" fill="none"/>
    </clipPath>
    <clipPath id="clip-path-2">
      <path id="패스_4159" data-name="패스 4159" d="M122.146,9.605a7.321,7.321,0,0,0-7.356,7.372V30.884h3.1V16.977a4.33,4.33,0,1,1,8.659,0V30.884h3.1V16.62a6.842,6.842,0,0,0-4.705-6.577,8.956,8.956,0,0,0-2.647-.439Z" transform="translate(-114.79 -9.605)" fill="none"/>
    </clipPath>
    <clipPath id="clip-path-3">
      <path id="패스_4160" data-name="패스 4160" d="M172.8,10.881c-3.921,0-6.357,2.435-6.357,6.356v8.072c0,3.921,2.436,6.357,6.357,6.357h7.46V28.652H172.8c-2.13,0-3.255-1.156-3.255-3.343V22.723h9.437V19.8h-9.437V17.237c0-2.205,1.125-3.371,3.255-3.371h7.46V10.881Z" transform="translate(-166.441 -10.881)" fill="none"/>
    </clipPath>
    <clipPath id="clip-path-4">
      <rect id="사각형_880" data-name="사각형 880" width="118.9" height="48" fill="none"/>
    </clipPath>
  </defs>
  <g id="그룹_2307" data-name="그룹 2307" transform="translate(81.389 3.714)">
    <g id="그룹_2306" data-name="그룹 2306" clip-path="url(#clip-path)">
      <rect id="사각형_873" data-name="사각형 873" width="19.979" height="21.628" transform="translate(0 0)" fill="#fff"/>
    </g>
  </g>
  <path id="패스_4158" data-name="패스 4158" d="M12.791,10.881,3.1,20.292V10.881H0V31.666H3.1v-7.3l3.093-2.963,7.287,10.259h3.859L8.43,19.251l8.733-8.37Z" transform="translate(0 -6.672)" fill="#fff"/>
  <g id="그룹_2309" data-name="그룹 2309" transform="translate(44.397 3.715)">
    <g id="그룹_2308" data-name="그룹 2308" clip-path="url(#clip-path-2)">
      <rect id="사각형_874" data-name="사각형 874" width="14.862" height="21.279" transform="translate(0 0)" fill="#fff"/>
    </g>
  </g>
  <g id="그룹_2311" data-name="그룹 2311" transform="translate(64.373 4.208)">
    <g id="그룹_2310" data-name="그룹 2310" clip-path="url(#clip-path-3)">
      <rect id="사각형_875" data-name="사각형 875" width="13.817" height="20.785" transform="translate(0 0)" fill="#fff"/>
    </g>
  </g>
  <path id="패스_4161" data-name="패스 4161" d="M266.668,10.881v2.985H273v17.8h3.1v-17.8h6.331V10.881Z" transform="translate(-163.531 -6.672)" fill="#fff"/>
  <path id="패스_4162" data-name="패스 4162" d="M49.4,113.872v1.294h-.449V111.5H49.4v1.79l1.844-1.79h.629l-1.522,1.457,1.585,2.209h-.56l-1.347-1.9Z" transform="translate(-30.016 -68.376)" fill="#fff"/>
  <g id="그룹_2313" data-name="그룹 2313" transform="translate(0 0)">
    <g id="그룹_2312" data-name="그룹 2312" transform="translate(0 0)" clip-path="url(#clip-path-4)">
      <path id="패스_4163" data-name="패스 4163" d="M58.927,115.2a.921.921,0,1,0-1.833,0,.919.919,0,1,0,1.833,0m.449,0a1.37,1.37,0,1,1-1.368-1.436,1.384,1.384,0,0,1,1.368,1.436" transform="translate(-34.733 -69.767)" fill="#fff"/>
      <path id="패스_4164" data-name="패스 4164" d="M66.136,113.79v.418c-.523-.048-.855.206-.855.729v1.627h-.444v-1.616a1.091,1.091,0,0,1,1.3-1.158" transform="translate(-39.76 -69.774)" fill="#fff"/>
      <path id="패스_4165" data-name="패스 4165" d="M70.948,114.913a.935.935,0,0,0-.876-.74.947.947,0,0,0-.888.74Zm.434.8a1.27,1.27,0,0,1-1.284.909,1.427,1.427,0,0,1-.027-2.853,1.432,1.432,0,0,1,1.374,1.548H69.157a.955.955,0,0,0,.941.9.838.838,0,0,0,.808-.5Z" transform="translate(-42.131 -69.766)" fill="#fff"/>
      <path id="패스_4166" data-name="패스 4166" d="M78.063,114.178a1.019,1.019,0,1,0,.92,1.019.979.979,0,0,0-.92-1.019m1.364,2.377h-.434v-.423a1.156,1.156,0,0,1-.94.492,1.431,1.431,0,1,1,1.374-1.427Z" transform="translate(-47.032 -69.766)" fill="#fff"/>
      <path id="패스_4167" data-name="패스 4167" d="M92.056,112.552v2.472h-.449v-2.472a.846.846,0,1,0-1.691,0v2.472h-.449v-2.472a1.295,1.295,0,0,1,2.589,0" transform="translate(-54.864 -68.234)" fill="#fff"/>
      <path id="패스_4168" data-name="패스 4168" d="M98.731,114.178a1.019,1.019,0,1,0,.92,1.019.979.979,0,0,0-.92-1.019m1.364,2.377h-.434v-.423a1.156,1.156,0,0,1-.94.492,1.431,1.431,0,1,1,1.374-1.427Z" transform="translate(-59.707 -69.766)" fill="#fff"/>
      <path id="패스_4169" data-name="패스 4169" d="M106.715,115.743a.9.9,0,0,1-1.072-.994v-2.309h.444v.581h.618v.427h-.618v1.3c0,.481.29.6.628.582Z" transform="translate(-64.784 -68.953)" fill="#fff"/>
      <path id="패스_4170" data-name="패스 4170" d="M110.19,115.165h-.449v-2.72h.449Zm0-3.133h-.449V111.5h.449Z" transform="translate(-67.297 -68.375)" fill="#fff"/>
      <path id="패스_4171" data-name="패스 4171" d="M114.679,115.2a.921.921,0,1,0-1.834,0,.919.919,0,1,0,1.834,0m.449,0a1.37,1.37,0,1,1-1.368-1.436,1.384,1.384,0,0,1,1.368,1.436" transform="translate(-68.922 -69.767)" fill="#fff"/>
      <path id="패스_4172" data-name="패스 4172" d="M121.031,116.556h-.444V114.9a1.133,1.133,0,1,1,2.266,0v1.654h-.444v-1.669a.689.689,0,1,0-1.378,0Z" transform="translate(-73.948 -69.766)" fill="#fff"/>
      <path id="패스_4173" data-name="패스 4173" d="M128.923,114.178a1.019,1.019,0,1,0,.919,1.019.979.979,0,0,0-.919-1.019m1.363,2.377h-.434v-.423a1.157,1.157,0,0,1-.94.492,1.431,1.431,0,1,1,1.373-1.427Z" transform="translate(-78.221 -69.766)" fill="#fff"/>
      <rect id="사각형_876" data-name="사각형 876" width="0.449" height="3.931" transform="translate(52.652 42.859)" fill="#fff"/>
      <path id="패스_4174" data-name="패스 4174" d="M143.605,113.122h1.717v.417h-1.717v.528a.592.592,0,0,0,.65.665h1.3v.434h-1.3a1.019,1.019,0,0,1-1.1-1.1V112.6a1.015,1.015,0,0,1,1.1-1.1h1.3v.428h-1.3a.594.594,0,0,0-.65.67Z" transform="translate(-87.789 -68.376)" fill="#fff"/>
      <path id="패스_4175" data-name="패스 4175" d="M151,116.556h-.444V114.9a1.133,1.133,0,1,1,2.266,0v1.654h-.444v-1.669a.689.689,0,1,0-1.378,0Z" transform="translate(-92.328 -69.766)" fill="#fff"/>
      <path id="패스_4176" data-name="패스 4176" d="M159.118,115.743a.9.9,0,0,1-1.072-.994v-2.309h.444v.581h.618v.427h-.618v1.3c0,.481.29.6.628.582Z" transform="translate(-96.92 -68.953)" fill="#fff"/>
      <path id="패스_4177" data-name="패스 4177" d="M162.077,115.378l1.68-.707a.92.92,0,0,0-.777-.481.968.968,0,0,0-.919,1,1.04,1.04,0,0,0,.016.185m2.224.333a1.3,1.3,0,0,1-1.294.909,1.427,1.427,0,0,1-.027-2.853,1.376,1.376,0,0,1,1.327,1.12l-2.087.882a.928.928,0,0,0,.787.428.881.881,0,0,0,.83-.486Z" transform="translate(-99.106 -69.767)" fill="#fff"/>
      <path id="패스_4178" data-name="패스 4178" d="M171.273,113.79v.418c-.523-.048-.855.206-.855.729v1.627h-.444v-1.616a1.091,1.091,0,0,1,1.3-1.158" transform="translate(-104.234 -69.774)" fill="#fff"/>
      <path id="패스_4179" data-name="패스 4179" d="M175.535,114.183a1.019,1.019,0,0,0,0,2.029,1.02,1.02,0,0,0,0-2.029m0,2.441a1.221,1.221,0,0,1-.94-.46v1.6h-.434V115.2a1.367,1.367,0,1,1,1.373,1.427" transform="translate(-106.805 -69.766)" fill="#fff"/>
      <path id="패스_4180" data-name="패스 4180" d="M183.909,113.79v.418c-.523-.048-.856.206-.856.729v1.627h-.444v-1.616a1.091,1.091,0,0,1,1.3-1.158" transform="translate(-111.983 -69.774)" fill="#fff"/>
      <path id="패스_4181" data-name="패스 4181" d="M187.73,115.165h-.449v-2.72h.449Zm0-3.133h-.449V111.5h.449Z" transform="translate(-114.848 -68.375)" fill="#fff"/>
      <path id="패스_4182" data-name="패스 4182" d="M191.092,116.624a1.11,1.11,0,0,1-1.216-.93h.455a.706.706,0,0,0,.761.512c.423,0,.681-.2.681-.444,0-.19-.074-.332-.74-.422s-1.062-.254-1.062-.766c0-.391.338-.809,1.067-.809a.987.987,0,0,1,1.109.851h-.454a.6.6,0,0,0-.654-.439c-.36,0-.618.169-.618.381,0,.195.153.263.687.348.6.1,1.1.212,1.1.829,0,.544-.465.888-1.115.888" transform="translate(-116.439 -69.766)" fill="#fff"/>
      <path id="패스_4183" data-name="패스 4183" d="M199.116,114.913a.934.934,0,0,0-.877-.74.946.946,0,0,0-.887.74Zm.434.8a1.269,1.269,0,0,1-1.284.909,1.427,1.427,0,0,1-.027-2.853,1.432,1.432,0,0,1,1.374,1.548h-2.288a.955.955,0,0,0,.94.9.838.838,0,0,0,.808-.5Z" transform="translate(-120.729 -69.766)" fill="#fff"/>
      <path id="패스_4184" data-name="패스 4184" d="M209.651,112.063h.618v.428h-.618v2.282h-.444v-2.816a1.144,1.144,0,0,1,.312-.882.917.917,0,0,1,.761-.206v.407a.565.565,0,0,0-.46.122.8.8,0,0,0-.169.559Z" transform="translate(-128.293 -67.983)" fill="#fff"/>
      <path id="패스_4185" data-name="패스 4185" d="M214.815,115.2a.92.92,0,1,0-1.832,0,.919.919,0,1,0,1.832,0m.449,0a1.37,1.37,0,1,1-1.368-1.436,1.384,1.384,0,0,1,1.368,1.436" transform="translate(-130.329 -69.767)" fill="#fff"/>
      <path id="패스_4186" data-name="패스 4186" d="M222.025,113.79v.418c-.523-.048-.856.206-.856.729v1.627h-.444v-1.616a1.091,1.091,0,0,1,1.3-1.158" transform="translate(-135.357 -69.774)" fill="#fff"/>
      <path id="패스_4187" data-name="패스 4187" d="M230.425,115.087a1.912,1.912,0,0,1,0-3.82,1.705,1.705,0,0,1,1.68,1.22h-.47a1.27,1.27,0,0,0-1.21-.792,1.483,1.483,0,0,0,0,2.958,1.311,1.311,0,0,0,1.21-.792h.47a1.74,1.74,0,0,1-1.68,1.226" transform="translate(-140.19 -68.233)" fill="#fff"/>
      <rect id="사각형_877" data-name="사각형 877" width="0.449" height="3.931" transform="translate(92.443 42.859)" fill="#fff"/>
      <path id="패스_4188" data-name="패스 4188" d="M242.254,115.165H241.8v-2.72h.449Zm0-3.133H241.8V111.5h.449Z" transform="translate(-148.284 -68.375)" fill="#fff"/>
      <path id="패스_4189" data-name="패스 4189" d="M245.049,116.556H244.6V114.9a1.133,1.133,0,1,1,2.266,0v1.654h-.443v-1.669a.69.69,0,1,0-1.379,0Z" transform="translate(-150.001 -69.766)" fill="#fff"/>
      <path id="패스_4190" data-name="패스 4190" d="M252.554,115.165h-.449v-2.72h.449Zm0-3.133h-.449V111.5h.449Z" transform="translate(-154.6 -68.375)" fill="#fff"/>
      <path id="패스_4191" data-name="패스 4191" d="M256.116,116.62a1.428,1.428,0,0,1,0-2.853,1.3,1.3,0,0,1,1.268.908h-.48a.86.86,0,0,0-.787-.48.967.967,0,0,0-.914,1,.957.957,0,0,0,.914.993.849.849,0,0,0,.787-.481h.48a1.3,1.3,0,0,1-1.268.909" transform="translate(-156.224 -69.766)" fill="#fff"/>
      <path id="패스_4192" data-name="패스 4192" d="M263.814,114.178a1.019,1.019,0,1,0,.919,1.019.979.979,0,0,0-.919-1.019m1.363,2.377h-.433v-.423a1.158,1.158,0,0,1-.94.492,1.431,1.431,0,1,1,1.373-1.427Z" transform="translate(-160.941 -69.766)" fill="#fff"/>
      <rect id="사각형_878" data-name="사각형 878" width="0.449" height="3.931" transform="translate(104.822 42.859)" fill="#fff"/>
      <path id="패스_4193" data-name="패스 4193" d="M278.992,111.927v3.239h-.449v-3.239H277.39V111.5h2.753v.428Z" transform="translate(-170.106 -68.375)" fill="#fff"/>
      <path id="패스_4194" data-name="패스 4194" d="M284.962,113.79v.418c-.524-.048-.857.206-.857.729v1.627h-.442v-1.616a1.091,1.091,0,0,1,1.3-1.158" transform="translate(-173.953 -69.774)" fill="#fff"/>
      <path id="패스_4195" data-name="패스 4195" d="M288.51,115.165h-.449v-2.72h.449Zm0-3.133h-.449V111.5h.449Z" transform="translate(-176.65 -68.375)" fill="#fff"/>
      <path id="패스_4196" data-name="패스 4196" d="M291.8,114.178a1.019,1.019,0,1,0,.92,1.019.979.979,0,0,0-.92-1.019m1.363,2.377h-.433v-.423a1.158,1.158,0,0,1-.94.492,1.431,1.431,0,1,1,1.373-1.427Z" transform="translate(-178.107 -69.766)" fill="#fff"/>
      <rect id="사각형_879" data-name="사각형 879" width="0.449" height="3.931" transform="translate(115.648 42.859)" fill="#fff"/>
      <path id="패스_4197" data-name="패스 4197" d="M302.567,116.624a1.109,1.109,0,0,1-1.215-.93h.454a.705.705,0,0,0,.76.512c.423,0,.683-.2.683-.444,0-.19-.075-.332-.74-.422s-1.062-.254-1.062-.766c0-.391.338-.809,1.066-.809a.986.986,0,0,1,1.109.851h-.454a.6.6,0,0,0-.655-.439c-.359,0-.618.169-.618.381,0,.195.153.263.686.348.6.1,1.1.212,1.1.829,0,.544-.465.888-1.115.888" transform="translate(-184.8 -69.766)" fill="#fff"/>
      <path id="패스_4198" data-name="패스 4198" d="M79.064,20.785h1.6a14.689,14.689,0,0,0-1.452-3.419l-.145-.008h0Z" transform="translate(-48.485 -10.645)" fill="#fff"/>
      <path id="패스_4199" data-name="패스 4199" d="M82.628,20.92h1.848a8.664,8.664,0,0,0-2.831-3.287h0c-.113-.024-.23-.035-.345-.054a14.929,14.929,0,0,1,1.329,3.341" transform="translate(-49.856 -10.78)" fill="#fff"/>
      <path id="패스_4200" data-name="패스 4200" d="M89.148,21.811a7.069,7.069,0,0,0-3.061-2.78,9.42,9.42,0,0,1,1.966,2.78Z" transform="translate(-52.792 -11.671)" fill="#fff"/>
      <path id="패스_4201" data-name="패스 4201" d="M72.413,41.836h1.738V38.293H71.983a17.586,17.586,0,0,0,.43,3.543" transform="translate(-44.143 -23.483)" fill="#fff"/>
      <path id="패스_4202" data-name="패스 4202" d="M74.151,27.674H72.413a17.6,17.6,0,0,0-.43,3.544h2.168Z" transform="translate(-44.143 -16.971)" fill="#fff"/>
      <path id="패스_4203" data-name="패스 4203" d="M67.138,20.8h1.848a14.9,14.9,0,0,1,1.324-3.331,6.825,6.825,0,0,1,.723-.086,6.762,6.762,0,0,0-.723.085c-.13.023-.26.044-.388.074A8.7,8.7,0,0,0,67.138,20.8" transform="translate(-41.172 -10.66)" fill="#fff"/>
      <path id="패스_4204" data-name="패스 4204" d="M75.054,20.787V17.362l-.147.008a14.724,14.724,0,0,0-1.452,3.417Z" transform="translate(-45.046 -10.647)" fill="#fff"/>
      <path id="패스_4205" data-name="패스 4205" d="M87.061,27.674H85.087a18.438,18.438,0,0,1,.416,3.544h2.313a9.834,9.834,0,0,0-.755-3.544" transform="translate(-52.178 -16.971)" fill="#fff"/>
      <path id="패스_4206" data-name="패스 4206" d="M83.548,56.458a6.748,6.748,0,0,0,.741-.285,6.748,6.748,0,0,1-.741.285" transform="translate(-51.235 -34.447)" fill="#fff"/>
      <path id="패스_4207" data-name="패스 4207" d="M82.667,48.91a14.992,14.992,0,0,1-1.3,3.3c.144-.026.289-.053.43-.088h0a8.7,8.7,0,0,0,2.721-3.211Z" transform="translate(-49.895 -29.993)" fill="#fff"/>
      <path id="패스_4208" data-name="패스 4208" d="M92.958,27.467H91.793a10.4,10.4,0,0,1,.717,3.544h1.3a8.525,8.525,0,0,0-.849-3.544c-.022-.045-.049-.086-.072-.13.023.044.05.086.072.131" transform="translate(-56.291 -16.763)" fill="#fff"/>
      <path id="패스_4209" data-name="패스 4209" d="M81.232,38.293H79.064v3.543H80.8a17.585,17.585,0,0,0,.43-3.543" transform="translate(-48.485 -23.483)" fill="#fff"/>
      <path id="패스_4210" data-name="패스 4210" d="M80.8,27.674H79.064v3.544h2.168a17.6,17.6,0,0,0-.43-3.544" transform="translate(-48.485 -16.971)" fill="#fff"/>
      <path id="패스_4211" data-name="패스 4211" d="M87.816,38.293H85.5a18.426,18.426,0,0,1-.416,3.543h1.974a9.825,9.825,0,0,0,.755-3.543" transform="translate(-52.178 -23.483)" fill="#fff"/>
      <path id="패스_4212" data-name="패스 4212" d="M67.138,48.91a8.7,8.7,0,0,0,2.741,3.225c.136.032.276.055.415.079a14.966,14.966,0,0,1-1.308-3.3Z" transform="translate(-41.172 -29.993)" fill="#fff"/>
      <path id="패스_4213" data-name="패스 4213" d="M63.83,48.91H62.786a7.264,7.264,0,0,0,2.888,2.662A9.461,9.461,0,0,1,63.83,48.91" transform="translate(-38.503 -29.993)" fill="#fff"/>
      <path id="패스_4214" data-name="패스 4214" d="M73.457,48.91A14.785,14.785,0,0,0,74.891,52.3l.164.009v-3.4Z" transform="translate(-45.047 -29.993)" fill="#fff"/>
      <path id="패스_4215" data-name="패스 4215" d="M86.552,51.514a7.464,7.464,0,0,0,2.789-2.6h-1a9.5,9.5,0,0,1-1.786,2.6" transform="translate(-53.077 -29.993)" fill="#fff"/>
      <path id="패스_4216" data-name="패스 4216" d="M79.218,52.3a14.755,14.755,0,0,0,1.431-3.387h-1.6v3.4h0l.165-.009h0" transform="translate(-48.473 -29.993)" fill="#fff"/>
      <path id="패스_4217" data-name="패스 4217" d="M48.948,40.391H71.673V0H48.948ZM60.311,25.342c-5.779,0-10.306-4.756-10.306-10.828a10.574,10.574,0,0,1,10.306-10.8c5.875,0,10.305,4.643,10.305,10.8A10.588,10.588,0,0,1,60.311,25.342" transform="translate(-30.017 0)" fill="#fff"/>
      <path id="패스_4218" data-name="패스 4218" d="M93.8,37.822H92.51a10.416,10.416,0,0,1-.717,3.543h1.084c-.1.193-.208.382-.322.564.115-.182.221-.371.322-.563a8.23,8.23,0,0,0,.926-3.544c0-.1.014-.2.014-.3h0c0,.1-.011.2-.015.3" transform="translate(-56.291 -23.012)" fill="#fff"/>
      <path id="패스_4219" data-name="패스 4219" d="M64.509,38.293a9.842,9.842,0,0,0,.755,3.543h1.974a18.368,18.368,0,0,1-.415-3.543Z" transform="translate(-39.559 -23.483)" fill="#fff"/>
      <path id="패스_4220" data-name="패스 4220" d="M65.264,27.674a9.842,9.842,0,0,0-.755,3.544h2.314a18.38,18.38,0,0,1,.415-3.544Z" transform="translate(-39.559 -16.971)" fill="#fff"/>
      <path id="패스_4221" data-name="패스 4221" d="M65.709,18.863c.208-.108.422-.2.64-.291-.218.087-.432.183-.64.291a7.47,7.47,0,0,0-2.872,2.666h1.025a9.474,9.474,0,0,1,1.848-2.666" transform="translate(-38.534 -11.389)" fill="#fff"/>
      <path id="패스_4222" data-name="패스 4222" d="M59.624,37.526h0c0,.041,0,.08.006.12,0-.04-.006-.079-.006-.12" transform="translate(-36.564 -23.012)" fill="#fff"/>
      <path id="패스_4223" data-name="패스 4223" d="M61.671,26.781h-1.1c.1-.192.2-.382.318-.563-.114.181-.219.371-.318.563a8.233,8.233,0,0,0-.911,3.544h1.294a10.4,10.4,0,0,1,.718-3.544" transform="translate(-36.584 -16.078)" fill="#fff"/>
      <path id="패스_4224" data-name="패스 4224" d="M61.672,41.836a10.4,10.4,0,0,1-.718-3.543H59.66a8.348,8.348,0,0,0,.895,3.543c.1.193.2.381.314.563-.113-.182-.216-.371-.314-.564Z" transform="translate(-36.586 -23.483)" fill="#fff"/>
      <path id="패스_4225" data-name="패스 4225" d="M188.893,84.749h-4.51V82.5h-1.021v3.054h5.531Zm.585-5.531h-.816v-1.81H187.64v6.349h1.021V80.034h.816Zm-2.022,1.662h-3.481V78.225h2.9v-.817h-3.907v4.3h4.493Zm-5.838-3.472h-.984v2.246H180.1V77.408h-.965v8.149h.965V80.471h.529v5.086h.984Zm-4.186.808,1.188.009v-.817H175.1v.808h1.188L174.814,82.5h1.03l1.017-2.927,1.014,2.927h1.042Zm-6.761,1.657a1.052,1.052,0,1,1,.3-.738,1.005,1.005,0,0,1-.3.738m3.364,4.877h-4.872v-1.6H168.14v2.4h5.893Zm-1.614-3.666h-4.91V81.9h2.023v1.865h1.021V81.9h1.866Zm1.41-3.675h-1.021v4.938h-1.6v.808h1.6v.612h1.021Zm-2.45.446a2.252,2.252,0,0,0-2.9,0,1.655,1.655,0,0,0,.005,2.552,2.259,2.259,0,0,0,2.9,0,1.66,1.66,0,0,0,0-2.557m-5.067-.446h-1.021v8.149h1.021Zm-3.462.826h1.625v-.826H160.2v.826H161.8L159.9,82.5h1.056l1.371-3.008,1.339,3.013,1.1,0Zm-9.61,1.035a1.6,1.6,0,0,0-.265.9,1.638,1.638,0,0,0,.576,1.262,1.988,1.988,0,0,0,1.382.52,2.071,2.071,0,0,0,1.374-.492,1.5,1.5,0,0,0,.584-1.188h.891v1.624h1.011V77.4h-1.011V79.45h-1.058a1.736,1.736,0,0,0-.817-.826h1.3v-.817h-1.773v-.575h-1.021v.575h-1.763v.817h1.318a1.892,1.892,0,0,0-.729.645m2.357,1.568a.9.9,0,0,1-.664.274.911.911,0,0,1-.673-.274.9.9,0,0,1-.274-.663.951.951,0,0,1,.946-.947.892.892,0,0,1,.668.279.929.929,0,0,1,.27.668.9.9,0,0,1-.274.663m3.2,1.49H153.3v3.23h5.494Zm-4.473.816h3.462v1.605h-3.462Zm-3.044-5.736h-1.012v8.149h1.012Zm-3.49,0h-1.1l-1.883,5.1h1.058l1.375-3.69,1.39,3.681h1.05Zm-5.875,7.332a1.21,1.21,0,0,1-1.7-.009,1.175,1.175,0,0,1,0-1.68,1.2,1.2,0,0,1,1.7,0,1.152,1.152,0,0,1,.353.845,1.133,1.133,0,0,1-.353.844m.738-2.283a2.424,2.424,0,0,0-3.178,0,1.878,1.878,0,0,0-.649,1.439,1.858,1.858,0,0,0,.659,1.429,2.419,2.419,0,0,0,3.169,0,1.9,1.9,0,0,0,0-2.873m1.721-3.406h-.816V77.408h-1.012V82h1.012V79.868h.816Zm-4.093-1.643h-1.086l-1.884,4.121,1.052,0,1.381-3,1.368,3,1.062,0Zm-8.511,5.439h3.462v1.9h-3.462Zm1.189-2.71a1.116,1.116,0,0,1-.808.325,1.1,1.1,0,0,1-.812-.33,1.08,1.08,0,0,1-.329-.794,1.06,1.06,0,0,1,.334-.789,1.167,1.167,0,0,1,1.615,0,1.11,1.11,0,0,1,0,1.587m3.285,1.9h-5.5v3.517h5.5Zm0-4.641h-1.012v4.214h1.012Zm-2.543.511a2.318,2.318,0,0,0-3.1,0,1.914,1.914,0,0,0,0,2.859,2.318,2.318,0,0,0,3.1,0,1.916,1.916,0,0,0,0-2.859m-4.362,1.652h-.816V77.408H127.5v8.149h1.021V80.378h.816Zm-3.081-2.154h-3.685v.817h2.664v4.306h1.021Zm-4.64,2.9H121v-2.9h-5.5v.826h4.492l-.009,2.07h-4.891v.817h2.756v1.42h-2.366v.816h4.51v2.2H121V82.541h-2.135v-1.42h2.748Z" transform="translate(-70.578 -47.362)" fill="#fff"/>
    </g>
  </g>
</svg>
