<svg xmlns="http://www.w3.org/2000/svg" xmlns:xlink="http://www.w3.org/1999/xlink" width="60" height="60" viewBox="0 0 60 60">
  <defs>
    <clipPath id="clip-path">
      <rect id="사각형_1476" data-name="사각형 1476" width="60" height="60" transform="translate(-0.247)" fill="none"/>
    </clipPath>
  </defs>
  <g id="service_03_ic" transform="translate(0.247)">
    <g id="그룹_3323" data-name="그룹 3323" clip-path="url(#clip-path)">
      <g id="그룹_3327" data-name="그룹 3327" transform="translate(-0.247)">
        <path id="패스_6708" data-name="패스 6708" d="M20.211,59.011H4.644A4.649,4.649,0,0,1,0,54.367V38.8a4.649,4.649,0,0,1,4.644-4.644H8.113a.986.986,0,0,1,0,1.972H4.644A2.676,2.676,0,0,0,1.971,38.8V54.367a2.675,2.675,0,0,0,2.673,2.672H20.211A2.686,2.686,0,0,0,22.872,54.6a1.354,1.354,0,0,1,1.345-1.223h3.532l-4.378-3.64a1.35,1.35,0,0,1-.488-1.04V46.584a.986.986,0,0,1,1.972,0V48.41l4.7,3.906a1.716,1.716,0,0,1-1.1,3.037h-3.7a4.679,4.679,0,0,1-4.538,3.658" fill="#333"/>
        <path id="패스_6709" data-name="패스 6709" d="M54.834,25.843H51.5a.986.986,0,1,1,0-1.971h3.331A2.675,2.675,0,0,0,57.506,21.2V5.632A2.675,2.675,0,0,0,54.834,2.96H39.266a2.7,2.7,0,0,0-2.679,2.432A1.337,1.337,0,0,1,35.243,6.61H31.727l4.38,3.641a1.348,1.348,0,0,1,.487,1.039v2.127a.986.986,0,1,1-1.971,0V11.58l-4.7-3.9a1.717,1.717,0,0,1,1.1-3.037h3.689A4.7,4.7,0,0,1,39.266.989H54.834a4.648,4.648,0,0,1,4.643,4.643V21.2a4.648,4.648,0,0,1-4.643,4.643M34.846,11.766h0Z" fill="#333"/>
        <path id="패스_6710" data-name="패스 6710" d="M2.909,25.091a1.722,1.722,0,0,1-1.72-1.719l0-6.767a10.109,10.109,0,0,1-1.165-4.7C.026,5.341,6.484,0,14.423,0s14.4,5.341,14.4,11.906a10.037,10.037,0,0,1-.141,1.675.986.986,0,0,1-1.944-.33,8.123,8.123,0,0,0,.114-1.345c0-5.478-5.575-9.934-12.426-9.934S2,6.428,2,11.906a8.176,8.176,0,0,0,1,3.907,1.357,1.357,0,0,1,.16.635l0,6.3,2.472-2.508a1.353,1.353,0,0,1,1.627-.225c.375.212.769.41,1.169.587a.986.986,0,0,1-.8,1.8c-.313-.139-.622-.288-.923-.446L4.13,24.578a1.712,1.712,0,0,1-1.221.513" fill="#333"/>
        <path id="패스_6711" data-name="패스 6711" d="M45.111,60c-7.94,0-14.4-5.341-14.4-11.906a10.028,10.028,0,0,1,.141-1.675.986.986,0,0,1,1.945.33,8,8,0,0,0-.115,1.345c0,5.478,5.575,9.934,12.427,9.934s12.424-4.456,12.424-9.934a8.173,8.173,0,0,0-1.005-3.907,1.339,1.339,0,0,1-.16-.635l0-6.3-2.459,2.494a1.357,1.357,0,0,1-1.684.194,3.987,3.987,0,0,0-.957-.485.985.985,0,1,1,.461-1.916,4.556,4.556,0,0,1,1.118.476L55.4,35.422a1.718,1.718,0,0,1,2.941,1.206l0,6.767a10.1,10.1,0,0,1,1.166,4.7c0,6.565-6.458,11.906-14.4,11.906" fill="#333"/>
        <path id="패스_6712" data-name="패스 6712" d="M49.1,46.584H10.515a2.4,2.4,0,0,1-2.4-2.4V15.818a2.4,2.4,0,0,1,2.4-2.4H49.1a2.4,2.4,0,0,1,2.4,2.4V44.182a2.4,2.4,0,0,1-2.4,2.4" fill="#bce2fa"/>
        <path id="패스_6713" data-name="패스 6713" d="M49.1,47.57H10.515a3.391,3.391,0,0,1-3.388-3.388V15.818a3.392,3.392,0,0,1,3.388-3.388H49.1a3.391,3.391,0,0,1,3.387,3.388V44.182A3.391,3.391,0,0,1,49.1,47.57M10.515,14.4A1.417,1.417,0,0,0,9.1,15.818V44.182A1.418,1.418,0,0,0,10.515,45.6H49.1a1.418,1.418,0,0,0,1.416-1.417V15.818A1.417,1.417,0,0,0,49.1,14.4Z" fill="#333"/>
        <path id="패스_6714" data-name="패스 6714" d="M36.716,25.893a6.908,6.908,0,1,0-10.551,5.868,1.9,1.9,0,0,1,.887,1.622v1.556h5.511V33.383a1.908,1.908,0,0,1,.89-1.624,6.9,6.9,0,0,0,3.263-5.866" fill="#ffd059"/>
        <path id="패스_6715" data-name="패스 6715" d="M32.564,35.926H27.053a.987.987,0,0,1-.986-.986V33.383a.925.925,0,0,0-.421-.785,7.895,7.895,0,1,1,8.328,0,.928.928,0,0,0-.425.787V34.94a.986.986,0,0,1-.985.986m-4.525-1.972h3.539v-.571a2.876,2.876,0,0,1,1.354-2.461,5.921,5.921,0,0,0-3.406-10.945,6,6,0,0,0-5.639,5.832,5.884,5.884,0,0,0,2.8,5.115,2.906,2.906,0,0,1,1.353,2.459Z" fill="#333"/>
        <path id="패스_6716" data-name="패스 6716" d="M33.5,35.925H26.114a.986.986,0,1,1,0-1.972H33.5a.986.986,0,1,1,0,1.972" fill="#333"/>
        <path id="패스_6717" data-name="패스 6717" d="M27.776,28.308a.984.984,0,0,1-.68-.272L25.068,26.1a.986.986,0,1,1,1.36-1.427l1.348,1.285,1.35-1.286a.987.987,0,0,1,1.36,0l1.351,1.286,1.352-1.286A.986.986,0,1,1,34.548,26.1l-2.031,1.933a.986.986,0,0,1-1.359,0L29.806,26.75l-1.35,1.286a.985.985,0,0,1-.68.272" fill="#333"/>
        <path id="패스_6718" data-name="패스 6718" d="M30.281,41.635h-.946a2.489,2.489,0,0,1-2.486-2.487V37.962a.985.985,0,1,1,1.971,0v1.186a.516.516,0,0,0,.515.515h.946a.516.516,0,0,0,.515-.515V37.962a.986.986,0,0,1,1.972,0v1.186a2.49,2.49,0,0,1-2.487,2.487" fill="#333"/>
        <path id="패스_6719" data-name="패스 6719" d="M29.808,35.925a.986.986,0,0,1-.986-.986v-5.52a.986.986,0,0,1,1.972,0v5.52a.986.986,0,0,1-.986.986" fill="#333"/>
        <path id="패스_6720" data-name="패스 6720" d="M12.246,39.726a.986.986,0,0,1-.814-1.541l3.345-4.914a.987.987,0,0,1,1.592-.052l2.982,3.812,2.674-4.223a.986.986,0,0,1,1.666,1.055l-3.423,5.405a.985.985,0,0,1-1.609.079L15.647,35.5l-2.585,3.8a.986.986,0,0,1-.816.431" fill="#333"/>
        <path id="패스_6721" data-name="패스 6721" d="M47.592,39.726a.987.987,0,0,1-.933-.667L43.9,31.006l-3.065,8.083a.985.985,0,0,1-1.74.2l-3.443-5.141a.986.986,0,0,1,1.638-1.1L39.672,36.6l3.356-8.852a.987.987,0,0,1,.922-.637h.016a.987.987,0,0,1,.917.667l3.642,10.64a.986.986,0,0,1-.933,1.305" fill="#333"/>
        <path id="패스_6722" data-name="패스 6722" d="M20,29.18H11.858a.986.986,0,1,1,0-1.972H20a.986.986,0,0,1,0,1.972" fill="#333"/>
        <path id="패스_6723" data-name="패스 6723" d="M20,24.818H11.858a.986.986,0,1,1,0-1.972H20a.986.986,0,1,1,0,1.972" fill="#333"/>
        <path id="패스_6724" data-name="패스 6724" d="M22.079,20.455H11.857a.986.986,0,1,1,0-1.972H22.079a.986.986,0,0,1,0,1.972" fill="#333"/>
        <path id="패스_6725" data-name="패스 6725" d="M47.592,20.455H36.981a.986.986,0,1,1,0-1.972H47.592a.986.986,0,1,1,0,1.972" fill="#333"/>
        <path id="패스_6726" data-name="패스 6726" d="M47.569,24.818H39.428a.986.986,0,0,1,0-1.972h8.141a.986.986,0,1,1,0,1.972" fill="#333"/>
        <path id="패스_6727" data-name="패스 6727" d="M33.5,38.948H26.114a.986.986,0,1,1,0-1.972H33.5a.986.986,0,0,1,0,1.972" fill="#333"/>
      </g>
    </g>
  </g>
</svg>
